<svg width="50" height="50" viewBox="0 0 50 50" fill="none" xmlns="http://www.w3.org/2000/svg">
<g clip-path="url(#clip0_119_2097)">
<path d="M44 9.02002C34.32 9.02002 34.7 8.90002 34.29 9.31002L30.4 13.21C28.7082 12.4243 26.8653 12.0172 25 12.0172C23.1347 12.0172 21.2918 12.4243 19.6 13.21L15.71 9.31002C15.29 8.90002 15.67 9.02002 6 9.02002C5.73478 9.02002 5.48043 9.12538 5.29289 9.31292C5.10536 9.50045 5 9.75481 5 10.02V16.02C5 16.2852 5.10536 16.5396 5.29289 16.7271C5.48043 16.9147 5.73478 17.02 6 17.02H12C12.2652 17.02 12.5196 16.9147 12.7071 16.7271C12.8946 16.5396 13 16.2852 13 16.02V11.02H14.59L17.78 14.22C15.1016 16.0509 13.2045 18.8171 12.4616 21.9753C11.7186 25.1334 12.1834 28.4553 13.7646 31.2882C15.3459 34.1212 17.9293 36.2605 21.0074 37.2859C24.0854 38.3113 27.4357 38.1487 30.4 36.83C34.66 41.09 34.4 41.02 35 41.02H44C44.2652 41.02 44.5196 40.9147 44.7071 40.7271C44.8946 40.5396 45 40.2852 45 40.02C45 39.7548 44.8946 39.5005 44.7071 39.3129C44.5196 39.1254 44.2652 39.02 44 39.02H35.41L32.22 35.82C33.9938 34.6316 35.4475 33.0246 36.4528 31.141C37.4581 29.2573 37.984 27.1551 37.984 25.02C37.984 22.8849 37.4581 20.7827 36.4528 18.8991C35.4475 17.0155 33.9938 15.4085 32.22 14.22L35.41 11.02H44C44.2652 11.02 44.5196 10.9147 44.7071 10.7271C44.8946 10.5396 45 10.2852 45 10.02C45 9.75481 44.8946 9.50045 44.7071 9.31292C44.5196 9.12538 44.2652 9.02002 44 9.02002ZM11 15.02H7V11.02H11V15.02ZM25 31.02C23.8133 31.02 22.6533 30.6681 21.6666 30.0088C20.6799 29.3496 19.9108 28.4125 19.4567 27.3161C19.0026 26.2198 18.8838 25.0134 19.1153 23.8495C19.3468 22.6856 19.9182 21.6165 20.7574 20.7774C21.5965 19.9383 22.6656 19.3668 23.8295 19.1353C24.9933 18.9038 26.1997 19.0226 27.2961 19.4767C28.3925 19.9309 29.3295 20.6999 29.9888 21.6866C30.6481 22.6733 31 23.8333 31 25.02C31 26.6113 30.3679 28.1374 29.2426 29.2627C28.1174 30.3879 26.5913 31.02 25 31.02ZM24 14.07V17.07C22.5988 17.2472 21.2694 17.7922 20.147 18.6496C19.0247 19.507 18.1493 20.6462 17.6099 21.9516C17.0705 23.2569 16.8863 24.6818 17.076 26.0814C17.2657 27.481 17.8226 28.8054 18.69 29.92L16.55 32.02C15.2789 30.4788 14.4515 28.6204 14.1566 26.6445C13.8618 24.6685 14.1106 22.6496 14.8765 20.8044C15.6423 18.9592 16.8962 17.3574 18.5036 16.171C20.1109 14.9845 22.0111 14.2582 24 14.07ZM18 33.47L20.13 31.33C21.528 32.4265 23.2533 33.0223 25.03 33.0223C26.8067 33.0223 28.532 32.4265 29.93 31.33L32 33.47C30.0294 35.0956 27.5545 35.9847 25 35.9847C22.4455 35.9847 19.9705 35.0956 18 33.47ZM33.45 32.02L31.31 29.92C32.1922 28.7901 32.752 27.4424 32.93 26.02H35.93C35.7258 28.224 34.8615 30.3151 33.45 32.02ZM36 24.02H33C32.7735 22.2496 31.9615 20.6057 30.693 19.3499C29.4246 18.0942 27.7726 17.2987 26 17.09V14.09C28.5656 14.3128 30.9717 15.4288 32.799 17.2433C34.6264 19.0579 35.7592 21.4561 36 24.02Z" fill="white"/>
<path d="M44 12.02H38C37.7348 12.02 37.4804 12.1254 37.2929 12.3129C37.1054 12.5004 37 12.7548 37 13.02C37 13.2852 37.1054 13.5396 37.2929 13.7271C37.4804 13.9147 37.7348 14.02 38 14.02H44C44.2652 14.02 44.5196 13.9147 44.7071 13.7271C44.8946 13.5396 45 13.2852 45 13.02C45 12.7548 44.8946 12.5004 44.7071 12.3129C44.5196 12.1254 44.2652 12.02 44 12.02Z" fill="white"/>
<path d="M44 15.02H38C37.7348 15.02 37.4804 15.1254 37.2929 15.3129C37.1054 15.5004 37 15.7548 37 16.02C37 16.2852 37.1054 16.5396 37.2929 16.7271C37.4804 16.9147 37.7348 17.02 38 17.02H44C44.2652 17.02 44.5196 16.9147 44.7071 16.7271C44.8946 16.5396 45 16.2852 45 16.02C45 15.7548 44.8946 15.5004 44.7071 15.3129C44.5196 15.1254 44.2652 15.02 44 15.02Z" fill="white"/>
<path d="M44 35.02C43.7348 35.02 43.4804 35.1254 43.2929 35.3129C43.1054 35.5004 43 35.7548 43 36.02C43 36.2852 43.1054 36.5396 43.2929 36.7271C43.4804 36.9147 43.7348 37.02 44 37.02C44.2652 37.02 44.5196 36.9147 44.7071 36.7271C44.8946 36.5396 45 36.2852 45 36.02C45 35.7548 44.8946 35.5004 44.7071 35.3129C44.5196 35.1254 44.2652 35.02 44 35.02Z" fill="white"/>
<path d="M39 36.02C39 36.2852 39.1054 36.5396 39.2929 36.7271C39.4804 36.9147 39.7348 37.02 40 37.02C40.2652 37.02 40.5196 36.9147 40.7071 36.7271C40.8946 36.5396 41 36.2852 41 36.02C41 35.7548 40.8946 35.5004 40.7071 35.3129C40.5196 35.1254 40.2652 35.02 40 35.02C39.7348 35.02 39.4804 35.1254 39.2929 35.3129C39.1054 35.5004 39 35.7548 39 36.02Z" fill="white"/>
<path d="M35 36.02C35 36.2852 35.1054 36.5396 35.2929 36.7271C35.4804 36.9147 35.7348 37.02 36 37.02C36.2652 37.02 36.5196 36.9147 36.7071 36.7271C36.8946 36.5396 37 36.2852 37 36.02C37 35.7548 36.8946 35.5004 36.7071 35.3129C36.5196 35.1254 36.2652 35.02 36 35.02C35.7348 35.02 35.4804 35.1254 35.2929 35.3129C35.1054 35.5004 35 35.7548 35 36.02Z" fill="white"/>
<path d="M12 39.02H6C5.73478 39.02 5.48043 39.1254 5.29289 39.3129C5.10536 39.5004 5 39.7548 5 40.02C5 40.2852 5.10536 40.5396 5.29289 40.7271C5.48043 40.9147 5.73478 41.02 6 41.02H12C12.2652 41.02 12.5196 40.9147 12.7071 40.7271C12.8946 40.5396 13 40.2852 13 40.02C13 39.7548 12.8946 39.5004 12.7071 39.3129C12.5196 39.1254 12.2652 39.02 12 39.02Z" fill="white"/>
<path d="M6 38.02H12C12.2652 38.02 12.5196 37.9147 12.7071 37.7271C12.8946 37.5396 13 37.2852 13 37.02C13 36.7548 12.8946 36.5004 12.7071 36.3129C12.5196 36.1254 12.2652 36.02 12 36.02H6C5.73478 36.02 5.48043 36.1254 5.29289 36.3129C5.10536 36.5004 5 36.7548 5 37.02C5 37.2852 5.10536 37.5396 5.29289 37.7271C5.48043 37.9147 5.73478 38.02 6 38.02Z" fill="white"/>
<path d="M6 35.02H12C12.2652 35.02 12.5196 34.9147 12.7071 34.7271C12.8946 34.5396 13 34.2852 13 34.02C13 33.7548 12.8946 33.5004 12.7071 33.3129C12.5196 33.1254 12.2652 33.02 12 33.02H6C5.73478 33.02 5.48043 33.1254 5.29289 33.3129C5.10536 33.5004 5 33.7548 5 34.02C5 34.2852 5.10536 34.5396 5.29289 34.7271C5.48043 34.9147 5.73478 35.02 6 35.02Z" fill="white"/>
</g>
<defs>
<clipPath id="clip0_119_2097">
<rect width="39.99" height="32.02" fill="white" transform="translate(5 9)"/>
</clipPath>
</defs>
</svg>
