<svg width="542" height="455" viewBox="0 0 542 455" fill="none" xmlns="http://www.w3.org/2000/svg">
<path d="M151.096 454C36.8077 327.254 24.2559 140.77 113.534 1.00037" stroke="black" stroke-width="2.3815" stroke-miterlimit="10"/>
<path d="M239.62 454C131.278 331.313 135.713 143.223 253.021 25.9155C261.987 16.9498 271.33 8.64485 281.145 1.00049" stroke="black" stroke-width="2.3815" stroke-miterlimit="10"/>
<path d="M328.33 454C244.148 355.85 248.584 207.304 341.543 114.345C432.52 23.3674 576.63 17.2331 674.78 95.8474" stroke="black" stroke-width="2.3815" stroke-miterlimit="10"/>
<path d="M417.139 454C357.116 380.388 361.363 271.479 429.974 202.869C496.602 136.24 601.264 130.294 674.687 185.032" stroke="black" stroke-width="2.3815" stroke-miterlimit="10"/>
<path d="M506.133 454C469.987 405.114 474.14 335.56 518.401 291.298C560.776 248.924 626.272 243.355 674.686 274.593" stroke="black" stroke-width="2.3815" stroke-miterlimit="10"/>
<ellipse cx="192.48" cy="375.642" rx="51.4772" ry="51.4772" fill="#FFC321"/>
<path d="M232.471 360.199C232.471 387.971 209.957 410.485 182.185 410.485C154.413 410.485 131.899 387.971 131.899 360.199C131.899 332.426 154.413 309.912 182.185 309.912C209.957 309.912 232.471 332.426 232.471 360.199Z" stroke="black" stroke-width="2.3815"/>
<ellipse cx="61.771" cy="214.921" rx="51.4772" ry="51.4772" fill="#FFC321"/>
<path d="M101.764 199.477C101.764 227.25 79.2496 249.764 51.4772 249.764C23.7047 249.764 1.19075 227.25 1.19075 199.477C1.19075 171.705 23.7047 149.191 51.4772 149.191C79.2496 149.191 101.764 171.705 101.764 199.477Z" stroke="black" stroke-width="2.3815"/>
<ellipse cx="367.546" cy="111.966" rx="51.4772" ry="51.4772" fill="#FFC321"/>
<path d="M407.539 96.5232C407.539 124.296 385.025 146.81 357.253 146.81C329.48 146.81 306.966 124.296 306.966 96.5232C306.966 68.7508 329.48 46.2368 357.253 46.2368C385.025 46.2368 407.539 68.7508 407.539 96.5232Z" stroke="black" stroke-width="2.3815"/>
<ellipse cx="510.051" cy="308.721" rx="51.4772" ry="51.4772" fill="#FFC321"/>
<path d="M550.042 293.278C550.042 321.051 527.528 343.565 499.756 343.565C471.983 343.565 449.469 321.051 449.469 293.278C449.469 265.506 471.983 242.992 499.756 242.992C527.528 242.992 550.042 265.506 550.042 293.278Z" stroke="black" stroke-width="2.3815"/>
<path d="M640.644 140.278C640.644 168.051 618.13 190.565 590.357 190.565C562.585 190.565 540.071 168.051 540.071 140.278C540.071 112.506 562.585 89.9919 590.357 89.9919C618.13 89.9919 640.644 112.506 640.644 140.278Z" stroke="black" stroke-width="2.3815"/>
</svg>
