<svg width="264" height="269" viewBox="0 0 264 269" fill="none" xmlns="http://www.w3.org/2000/svg">
<g clip-path="url(#clip0_119_2013)">
<path fill-rule="evenodd" clip-rule="evenodd" d="M248.204 32.9961C248.203 30.614 247.258 28.3295 245.576 26.6442C243.895 24.9588 241.614 24.0102 239.234 24.0066H61.3517C58.9703 24.0075 56.6866 24.9549 55.0027 26.6406C53.3188 28.3262 52.3724 30.6122 52.3715 32.9961V247.338C52.3733 249.722 53.3201 252.007 55.0039 253.692C56.6878 255.376 58.9709 256.323 61.3517 256.324H239.234C241.615 256.323 243.897 255.376 245.581 253.691C247.264 252.006 248.21 249.721 248.211 247.338L248.204 32.9961Z" fill="#000045"/>
<path fill-rule="evenodd" clip-rule="evenodd" d="M245.106 29.9253C245.104 27.542 244.157 25.2569 242.473 23.572C240.789 21.887 238.506 20.9401 236.125 20.9392H58.2499C55.8693 20.9401 53.5866 21.8872 51.9033 23.5722C50.22 25.2572 49.274 27.5423 49.2731 29.9253V244.268C49.274 246.651 50.2199 248.936 51.9031 250.622C53.5863 252.307 55.869 253.255 58.2499 253.257H236.125C238.507 253.255 240.79 252.307 242.473 250.622C244.157 248.937 245.104 246.651 245.106 244.268V29.9253Z" fill="white"/>
<path fill-rule="evenodd" clip-rule="evenodd" d="M257.242 110.388C257.244 109.343 257.039 108.308 256.64 107.343C256.241 106.377 255.656 105.5 254.918 104.761C254.18 104.022 253.303 103.436 252.339 103.037C251.374 102.637 250.34 102.433 249.296 102.434H45.0654C44.0215 102.433 42.9876 102.637 42.0229 103.037C41.0582 103.436 40.1817 104.022 39.4435 104.761C38.7054 105.5 38.1201 106.377 37.7213 107.343C37.3224 108.308 37.1178 109.343 37.1191 110.388V163.852C37.1178 164.897 37.3224 165.932 37.7213 166.898C38.1201 167.864 38.7054 168.741 39.4435 169.48C40.1817 170.219 41.0582 170.805 42.0229 171.204C42.9876 171.603 44.0215 171.808 45.0654 171.807H249.296C250.34 171.808 251.374 171.603 252.339 171.204C253.303 170.805 254.18 170.219 254.918 169.48C255.656 168.741 256.241 167.864 256.64 166.898C257.039 165.932 257.244 164.897 257.242 163.852V110.388Z" fill="#F77ADE"/>
<path fill-rule="evenodd" clip-rule="evenodd" d="M98.2209 118.771C98.221 116.815 97.4461 114.939 96.0663 113.554C94.6864 112.169 92.8142 111.388 90.8601 111.382H53.8402C51.8837 111.385 50.0082 112.165 48.625 113.55C47.2419 114.935 46.4641 116.813 46.4623 118.771V155.829C46.4695 157.784 47.2497 159.657 48.6323 161.038C50.0148 162.418 51.8873 163.195 53.8402 163.198H90.8601C92.8107 163.192 94.6798 162.414 96.059 161.034C97.4383 159.653 98.2155 157.782 98.2209 155.829V118.771Z" fill="white"/>
<path fill-rule="evenodd" clip-rule="evenodd" d="M97.7451 48.1133C97.7424 46.6243 97.151 45.1969 96.1002 44.1431C95.0494 43.0893 93.6246 42.4947 92.1372 42.4893H63.9435C62.4537 42.4911 61.0253 43.0841 59.9716 44.1383C58.9178 45.1925 58.3245 46.6219 58.3218 48.1133V76.3429C58.3273 77.8324 58.9217 79.2592 59.9752 80.3112C61.0287 81.3632 62.4554 81.9548 63.9435 81.9566H92.144C93.6297 81.9512 95.0529 81.358 96.1034 80.3064C97.154 79.2548 97.7465 77.8301 97.7519 76.3429L97.7451 48.1133Z" fill="#3D61FF"/>
<path fill-rule="evenodd" clip-rule="evenodd" d="M97.7451 197.209C97.7433 195.719 97.1523 194.291 96.1014 193.237C95.0505 192.182 93.6252 191.587 92.1372 191.582H63.9435C62.4531 191.583 61.0242 192.177 59.9704 193.232C58.9165 194.287 58.3236 195.717 58.3218 197.209V225.439C58.3282 226.928 58.923 228.353 59.9764 229.405C61.0298 230.456 62.456 231.047 63.9435 231.049H92.144C93.6291 231.043 95.0518 230.451 96.1023 229.4C97.1527 228.349 97.7456 226.925 97.7519 225.439L97.7451 197.209Z" fill="#3D61FF"/>
<path fill-rule="evenodd" clip-rule="evenodd" d="M57.1543 137.501L67.7882 148.156C68.1859 148.551 68.7237 148.773 69.2843 148.773C69.8449 148.773 70.3828 148.551 70.7804 148.156L89.4222 129.495C89.819 129.098 90.0419 128.559 90.0419 127.997C90.0419 127.435 89.819 126.897 89.4222 126.5C89.0254 126.102 88.4872 125.879 87.9261 125.879C87.3649 125.879 86.8267 126.102 86.4299 126.5L69.2843 143.663L60.1466 134.505C59.9501 134.309 59.7169 134.153 59.4602 134.046C59.2035 133.94 58.9283 133.885 58.6505 133.885C58.3726 133.885 58.0975 133.94 57.8408 134.046C57.5841 134.153 57.3508 134.309 57.1543 134.505C56.9579 134.702 56.802 134.936 56.6957 135.193C56.5894 135.45 56.5346 135.725 56.5346 136.003C56.5346 136.281 56.5894 136.557 56.6957 136.814C56.802 137.071 56.9579 137.304 57.1543 137.501Z" fill="#F77ADE"/>
<path fill-rule="evenodd" clip-rule="evenodd" d="M66.1483 62.7541L74.2486 70.8697C74.4448 71.0668 74.678 71.2232 74.9348 71.3299C75.1915 71.4366 75.4667 71.4915 75.7447 71.4915C76.0227 71.4915 76.298 71.4366 76.5547 71.3299C76.8114 71.2232 77.0446 71.0668 77.2409 70.8697L91.4422 56.6572C91.8394 56.26 92.0628 55.7211 92.0631 55.159C92.0634 54.597 91.8407 54.0578 91.4439 53.6601C91.0471 53.2625 90.5087 53.0389 89.9472 53.0386C89.3857 53.0383 88.8471 53.2612 88.4499 53.6584L75.7447 66.3767L69.1405 59.7588C68.944 59.5621 68.7108 59.4061 68.4541 59.2997C68.1974 59.1932 67.9222 59.1384 67.6444 59.1384C67.3665 59.1384 67.0914 59.1932 66.8347 59.2997C66.578 59.4061 66.3447 59.5621 66.1483 59.7588C65.9518 59.9555 65.7959 60.189 65.6896 60.4459C65.5833 60.7029 65.5285 60.9783 65.5285 61.2565C65.5285 61.5346 65.5833 61.81 65.6896 62.067C65.7959 62.324 65.9518 62.5575 66.1483 62.7541Z" fill="white"/>
<path fill-rule="evenodd" clip-rule="evenodd" d="M66.1483 211.846L74.2486 219.965C74.6458 220.362 75.1838 220.584 75.7447 220.584C76.3056 220.584 76.8436 220.362 77.2409 219.965L91.4421 205.75C91.8389 205.352 92.0619 204.814 92.0619 204.252C92.0619 203.69 91.8389 203.151 91.4421 202.754C91.0453 202.357 90.5072 202.134 89.946 202.134C89.3849 202.134 88.8467 202.357 88.4499 202.754L75.7447 215.469L69.1405 208.851C68.7437 208.454 68.2055 208.231 67.6444 208.231C67.0832 208.231 66.5451 208.454 66.1483 208.851C65.7515 209.248 65.5285 209.787 65.5285 210.349C65.5285 210.91 65.7515 211.449 66.1483 211.846Z" fill="white"/>
<path fill-rule="evenodd" clip-rule="evenodd" d="M154.218 54.9025C154.218 54.658 154.17 54.4159 154.076 54.19C153.983 53.9642 153.845 53.7592 153.672 53.5866C153.499 53.414 153.294 53.2773 153.068 53.1844C152.842 53.0914 152.6 53.044 152.356 53.0449H111.385C110.907 53.0655 110.455 53.27 110.125 53.6158C109.794 53.9616 109.609 54.4219 109.609 54.9008C109.609 55.3796 109.794 55.8399 110.125 56.1857C110.455 56.5315 110.907 56.736 111.385 56.7566H152.356C152.848 56.7575 153.321 56.5628 153.67 56.2152C154.019 55.8675 154.216 55.3954 154.218 54.9025Z" fill="#3D61FF"/>
<path fill-rule="evenodd" clip-rule="evenodd" d="M154.218 203.998C154.218 203.754 154.17 203.512 154.076 203.286C153.982 203.06 153.845 202.855 153.672 202.682C153.499 202.51 153.294 202.373 153.068 202.28C152.842 202.187 152.6 202.14 152.356 202.141H111.385C110.893 202.141 110.421 202.336 110.073 202.685C109.725 203.033 109.529 203.506 109.529 203.998C109.529 204.491 109.725 204.963 110.073 205.312C110.421 205.66 110.893 205.856 111.385 205.856H152.356C152.848 205.856 153.321 205.66 153.67 205.312C154.019 204.964 154.216 204.491 154.218 203.998Z" fill="#3D61FF"/>
<path fill-rule="evenodd" clip-rule="evenodd" d="M171.165 130.023C171.164 129.711 171.102 129.403 170.982 129.115C170.862 128.828 170.686 128.567 170.465 128.348C170.244 128.128 169.982 127.955 169.694 127.837C169.406 127.719 169.097 127.66 168.786 127.661H113.799C113.188 127.685 112.61 127.944 112.187 128.384C111.763 128.825 111.526 129.413 111.526 130.024C111.526 130.636 111.763 131.224 112.187 131.664C112.61 132.105 113.188 132.364 113.799 132.387H168.786C169.414 132.388 170.017 132.14 170.463 131.697C170.909 131.254 171.162 130.652 171.165 130.023Z" fill="white"/>
<path fill-rule="evenodd" clip-rule="evenodd" d="M184.836 66.5995C184.836 66.3554 184.789 66.1137 184.695 65.8881C184.602 65.6625 184.466 65.4576 184.293 65.285C184.121 65.1124 183.916 64.9756 183.691 64.8824C183.465 64.7892 183.224 64.7415 182.98 64.7419H111.395C110.903 64.7419 110.431 64.9377 110.083 65.286C109.735 65.6344 109.54 66.1068 109.54 66.5995C109.54 67.0921 109.735 67.5646 110.083 67.913C110.431 68.2613 110.903 68.457 111.395 68.457H182.98C183.472 68.4561 183.943 68.2601 184.291 67.912C184.639 67.5638 184.835 67.0919 184.836 66.5995Z" fill="#3D61FF"/>
<path fill-rule="evenodd" clip-rule="evenodd" d="M184.836 215.695C184.836 215.451 184.789 215.21 184.695 214.984C184.602 214.759 184.466 214.554 184.293 214.382C184.121 214.21 183.916 214.073 183.691 213.98C183.465 213.887 183.224 213.84 182.98 213.841H111.395C110.917 213.862 110.466 214.066 110.135 214.412C109.804 214.758 109.619 215.218 109.619 215.697C109.619 216.176 109.804 216.636 110.135 216.982C110.466 217.328 110.917 217.532 111.395 217.553H182.98C183.472 217.552 183.944 217.356 184.291 217.008C184.639 216.659 184.835 216.188 184.836 215.695Z" fill="#3D61FF"/>
<path fill-rule="evenodd" clip-rule="evenodd" d="M212.054 144.91C212.045 144.283 211.8 143.682 211.369 143.228C210.917 142.793 210.315 142.548 209.688 142.542H113.781C113.47 142.538 113.161 142.597 112.873 142.715C112.584 142.832 112.322 143.006 112.102 143.226C111.881 143.447 111.707 143.709 111.589 143.997C111.471 144.286 111.412 144.595 111.416 144.907C111.411 145.216 111.47 145.524 111.587 145.81C111.705 146.096 111.88 146.356 112.1 146.573C112.32 146.794 112.581 146.968 112.87 147.086C113.158 147.204 113.467 147.262 113.778 147.258H209.688C209.998 147.259 210.306 147.199 210.593 147.081C210.881 146.963 211.142 146.789 211.361 146.57C211.581 146.35 211.756 146.09 211.874 145.802C211.993 145.515 212.054 145.207 212.054 144.897V144.91Z" fill="white"/>
<path fill-rule="evenodd" clip-rule="evenodd" d="M220.746 70.5201C219.6 70.5248 218.481 70.8696 217.531 71.5107C216.581 72.1519 215.841 73.0608 215.407 74.1224C214.972 75.184 214.862 76.3508 215.09 77.4752C215.318 78.5996 215.873 79.6311 216.686 80.4395C217.5 81.2479 218.534 81.7967 219.659 82.0167C220.784 82.2367 221.948 82.118 223.006 81.6755C224.063 81.233 224.966 80.4867 225.6 79.5308C226.234 78.5749 226.57 77.4524 226.567 76.3051C226.564 75.5427 226.411 74.7883 226.117 74.085C225.823 73.3816 225.394 72.7431 224.853 72.2059C224.313 71.6687 223.672 71.2434 222.967 70.9541C222.263 70.6648 221.508 70.5174 220.746 70.5201ZM220.746 71.9218C221.616 71.919 222.467 72.175 223.192 72.6571C223.916 73.1392 224.481 73.8258 224.816 74.6298C225.15 75.4338 225.238 76.3191 225.069 77.1733C224.9 78.0275 224.481 78.8122 223.866 79.428C223.251 80.0437 222.467 80.4628 221.614 80.632C220.76 80.8013 219.876 80.713 219.073 80.3785C218.27 80.044 217.584 79.4783 217.102 78.7531C216.621 78.0279 216.365 77.1759 216.368 76.3051C216.371 75.1437 216.834 74.0309 217.654 73.2096C218.475 72.3883 219.586 71.9254 220.746 71.9218Z" fill="#3D61FF"/>
<path fill-rule="evenodd" clip-rule="evenodd" d="M17.69 90.0446L28.9161 101.012C28.9801 101.08 29.0575 101.135 29.1435 101.172C29.2295 101.209 29.3222 101.229 29.4159 101.229C29.5097 101.229 29.6024 101.209 29.6884 101.172C29.7743 101.135 29.8517 101.08 29.9158 101.012C29.981 100.946 30.0324 100.869 30.0669 100.784C30.1014 100.698 30.1184 100.607 30.1168 100.514C30.1152 100.422 30.0951 100.331 30.0576 100.247C30.0201 100.163 29.9661 100.087 29.8987 100.025L18.6725 89.0576C18.5399 88.9264 18.3609 88.8528 18.1744 88.8528C17.9879 88.8528 17.8089 88.9264 17.6763 89.0576C17.6109 89.1224 17.5592 89.1998 17.5244 89.2851C17.4895 89.3704 17.4723 89.4619 17.4735 89.554C17.4748 89.6461 17.4946 89.7371 17.5318 89.8214C17.569 89.9057 17.6228 89.9816 17.69 90.0446Z" fill="#AB3DFF"/>
<path fill-rule="evenodd" clip-rule="evenodd" d="M34.3426 82.0252L37.3006 93.2115C37.346 93.3933 37.4617 93.5496 37.6222 93.646C37.7827 93.7424 37.9749 93.771 38.1565 93.7256C38.3381 93.6801 38.4943 93.5643 38.5906 93.4037C38.6869 93.243 38.7155 93.0506 38.6701 92.8688L35.712 81.6825C35.689 81.5916 35.6481 81.5062 35.5917 81.4313C35.5353 81.3564 35.4645 81.2935 35.3835 81.2463C35.3026 81.199 35.213 81.1684 35.1201 81.1563C35.0272 81.1441 34.9328 81.1505 34.8424 81.1753C34.753 81.1968 34.6689 81.2361 34.595 81.2908C34.521 81.3456 34.4589 81.4147 34.4123 81.494C34.3656 81.5733 34.3354 81.6613 34.3234 81.7525C34.3115 81.8438 34.318 81.9365 34.3426 82.0252Z" fill="#AB3DFF"/>
<path fill-rule="evenodd" clip-rule="evenodd" d="M14.5266 112.493L27.04 111.509C27.1333 111.502 27.2242 111.476 27.3077 111.434C27.3911 111.392 27.4654 111.333 27.5263 111.262C27.5871 111.191 27.6334 111.108 27.6625 111.019C27.6916 110.93 27.7028 110.837 27.6956 110.743C27.6884 110.65 27.6629 110.559 27.6206 110.475C27.5782 110.392 27.5199 110.317 27.4488 110.256C27.3778 110.195 27.2954 110.149 27.2065 110.12C27.1175 110.091 27.0237 110.08 26.9304 110.087L14.417 111.088C14.324 111.091 14.2326 111.113 14.1485 111.153C14.0644 111.193 13.9893 111.25 13.9277 111.32C13.8662 111.389 13.8196 111.471 13.7907 111.56C13.7618 111.648 13.7512 111.742 13.7597 111.835C13.7652 111.929 13.7897 112.021 13.8316 112.106C13.8735 112.19 13.932 112.265 14.0035 112.327C14.0751 112.388 14.1583 112.434 14.2482 112.463C14.338 112.492 14.4327 112.502 14.5266 112.493Z" fill="#AB3DFF"/>
<path fill-rule="evenodd" clip-rule="evenodd" d="M35.9928 200.437L21.8737 214.602C21.8069 214.666 21.7537 214.743 21.7174 214.828C21.6811 214.913 21.6623 215.005 21.6623 215.097C21.6623 215.19 21.6811 215.281 21.7174 215.366C21.7537 215.452 21.8069 215.528 21.8737 215.592C22.0075 215.724 22.1876 215.798 22.3752 215.798C22.5628 215.798 22.743 215.724 22.8768 215.592L36.9959 201.442C37.1289 201.308 37.2037 201.128 37.2037 200.94C37.2037 200.751 37.1289 200.571 36.9959 200.437C36.8629 200.304 36.6825 200.229 36.4943 200.229C36.3062 200.229 36.1258 200.304 35.9928 200.437Z" fill="#3D61FF"/>
<path fill-rule="evenodd" clip-rule="evenodd" d="M228.658 264.169C227.888 264.167 227.134 264.394 226.492 264.822C225.85 265.249 225.35 265.857 225.054 266.57C224.758 267.282 224.68 268.067 224.83 268.824C224.98 269.58 225.351 270.276 225.896 270.821C226.441 271.367 227.135 271.738 227.891 271.888C228.647 272.038 229.431 271.96 230.143 271.664C230.854 271.368 231.462 270.867 231.889 270.224C232.316 269.582 232.543 268.827 232.541 268.056C232.541 267.025 232.132 266.036 231.404 265.308C230.676 264.579 229.688 264.169 228.658 264.169ZM228.658 265.591C229.147 265.593 229.625 265.739 230.031 266.013C230.437 266.286 230.752 266.673 230.938 267.126C231.124 267.579 231.171 268.077 231.074 268.557C230.977 269.036 230.74 269.477 230.393 269.822C230.046 270.167 229.605 270.401 229.125 270.494C228.645 270.588 228.148 270.537 227.697 270.348C227.246 270.159 226.861 269.841 226.591 269.432C226.321 269.024 226.178 268.545 226.18 268.056C226.184 267.401 226.447 266.774 226.912 266.312C227.376 265.851 228.004 265.591 228.658 265.591Z" fill="#FF3D3D"/>
<path d="M123.83 269.978C127.479 269.976 131.045 268.891 134.078 266.86C137.11 264.83 139.474 261.944 140.868 258.569C142.263 255.194 142.627 251.48 141.914 247.898C141.2 244.316 139.442 241.026 136.861 238.445C134.28 235.863 130.992 234.105 127.413 233.394C123.834 232.682 120.125 233.049 116.754 234.448C113.384 235.847 110.503 238.214 108.477 241.252C106.45 244.289 105.369 247.86 105.37 251.513C105.37 253.939 105.847 256.341 106.775 258.582C107.703 260.823 109.063 262.86 110.777 264.575C112.492 266.289 114.527 267.649 116.766 268.576C119.006 269.504 121.406 269.98 123.83 269.978Z" fill="#F77ADE"/>
</g>
<defs>
<clipPath id="clip0_119_2013">
<rect width="263.223" height="268.8" fill="white" transform="translate(0 0.0799561)"/>
</clipPath>
</defs>
</svg>
