<svg width="156" height="104" viewBox="0 0 156 104" fill="none" xmlns="http://www.w3.org/2000/svg">
<mask id="mask0_119_2109" style="mask-type:alpha" maskUnits="userSpaceOnUse" x="0" y="0" width="156" height="104">
<rect width="156" height="103.644" rx="33" transform="matrix(1 -8.74228e-08 -8.74228e-08 -1 0 103.644)" fill="#F9CD4D"/>
</mask>
<g mask="url(#mask0_119_2109)">
<path d="M175.465 49.1433C171.508 57.2826 165.986 64.5628 159.215 70.5681C152.444 76.5734 144.556 81.1862 136.003 84.1432C127.449 87.1002 118.397 88.3435 109.362 87.8021C100.328 87.2607 91.4891 84.9451 83.3498 80.9876C75.2105 77.0302 67.9303 71.5083 61.925 64.7373C55.9197 57.9663 51.3069 50.0788 48.3499 41.5251C45.3929 32.9714 44.1496 23.919 44.691 14.8848C45.2324 5.85056 47.548 -2.98854 51.5054 -11.1279L62.5141 -5.77528C59.2595 0.91836 57.3553 8.18749 56.91 15.6171C56.4647 23.0467 57.4872 30.4912 59.919 37.5256C62.3508 44.5601 66.1443 51.0466 71.083 56.615C76.0217 62.1833 82.0087 66.7244 88.7024 69.979C95.396 73.2335 102.665 75.1378 110.095 75.5831C117.524 76.0284 124.969 75.0059 132.003 72.5741C139.038 70.1423 145.524 66.3488 151.093 61.4101C156.661 56.4715 161.202 50.4844 164.457 43.7908L175.465 49.1433Z" fill="#F77ADE"/>
</g>
</svg>
