<svg width="192" height="72" viewBox="0 0 192 72" fill="none" xmlns="http://www.w3.org/2000/svg">
<path d="M50.0249 38.9327C49.9402 39.7734 49.569 43.1032 47.4316 46.7228C45.0798 50.7059 41.8806 52.8611 40.195 53.8306C40.1763 52.4899 40.0009 46.9787 37.1347 42.6082C35.6813 40.3929 33.4905 38.3946 32.871 37.8335C31.7074 36.7733 31.1659 36.4479 30.8921 36.2937C28.5658 34.9894 26.1827 35.1318 25.3937 35.1919C24.8699 35.2335 24.0182 35.4394 22.3148 35.8513C18.3689 36.8064 18.0943 37.0835 17.0366 36.953C15.712 36.7835 14.7959 36.1818 13.2984 35.1936C12.0792 34.3881 10.9703 33.4268 10 32.3342C10.8671 31.9237 11.6796 31.4067 12.4187 30.7952C13.1459 30.1935 13.8094 29.4918 14.6179 28.3756C16.1434 26.2747 16.357 25.2179 17.257 23.7577C17.9816 22.5814 19.2172 21.0356 21.4351 19.5796C21.4518 18.6971 21.7613 17.8451 22.3148 17.1575C22.5334 16.8931 23.0622 16.2532 23.8546 16.0558C25.1504 15.7363 26.1157 16.8617 27.5929 17.5948C28.6768 18.133 30.3514 18.6169 32.871 18.255C35.3133 18.743 37.6792 19.5565 39.9051 20.6737C41.6903 21.5891 43.3225 22.7762 44.7434 24.1925C47.1384 26.5832 48.2477 28.9545 48.4816 29.4706C49.118 30.8704 49.5619 32.35 49.8012 33.869C50.1101 35.5384 50.1854 37.2426 50.0249 38.9327Z" fill="#F3FBFF"/>
<path d="M11.8331 33.8353L10.6085 32.6107C11.0847 32.2717 11.5607 31.9327 12.0365 31.5938C12.2137 31.9501 12.2885 32.3487 12.2526 32.745C12.2167 33.1414 12.0714 33.52 11.8331 33.8387V33.8353Z" fill="#F77ADE"/>
<path d="M25.3005 44.6493V55.2098C26.2242 55.4852 35.405 58.0582 42.8934 52.1309C48.0206 48.068 49.2919 42.4467 49.6012 40.8026C50.0088 38.6161 50.5394 33.7075 47.952 28.8166C43.5603 20.5113 33.36 17.9773 30.6879 18.3706C30.2718 18.4316 29.154 18.6951 28.0489 18.1511C26.9887 17.6282 26.9565 16.862 25.8454 16.3917C25.6903 16.3256 24.4149 15.8052 23.2064 16.3917C22.0902 16.9332 21.4131 18.2367 21.447 19.6901C19.3283 21.2062 18.0452 22.7495 17.2689 23.869C15.7434 26.064 15.5909 27.4632 13.9705 29.3666C12.8685 30.6456 11.5228 31.6923 10.0119 32.4456C13.9103 36.6558 16.735 37.2711 18.5884 37.0635C20.7588 36.8211 22.6911 35.327 26.5056 35.3041C27.6623 35.269 28.8127 35.4869 29.8763 35.9428C30.9399 36.3986 31.8912 37.0813 32.6634 37.9432" stroke="url(#paint0_linear_119_1834)" stroke-width="2" stroke-linecap="round" stroke-linejoin="round"/>
<path d="M21.6537 24.7686C21.7897 24.7686 21.9226 24.8089 22.0356 24.8844C22.1486 24.9599 22.2367 25.0673 22.2887 25.1928C22.3407 25.3184 22.3544 25.4566 22.3278 25.59C22.3013 25.7233 22.2359 25.8457 22.1397 25.9419C22.0436 26.038 21.9212 26.1034 21.7878 26.13C21.6545 26.1565 21.5163 26.1429 21.3907 26.0909C21.2651 26.0388 21.1578 25.9507 21.0823 25.8377C21.0067 25.7247 20.9664 25.5918 20.9664 25.4559C20.9667 25.2736 21.0391 25.099 21.168 24.9701C21.2968 24.8413 21.4715 24.7688 21.6537 24.7686Z" fill="#F77ADE"/>
<path d="M70.376 32.12C73.384 32.12 75.848 34.568 75.848 37.56C75.848 40.568 73.384 43 70.376 43H66.904C66.488 43 66.168 42.68 66.168 42.264V32.856C66.168 32.456 66.488 32.12 66.904 32.12H70.376ZM70.376 41.592C72.584 41.592 74.376 39.784 74.376 37.56C74.376 35.352 72.584 33.544 70.376 33.544H67.64V41.592H70.376ZM85.2754 35.144C85.6754 35.144 85.9954 35.464 85.9954 35.864V42.28C85.9954 42.68 85.6754 43 85.2754 43C84.8914 43 84.5554 42.68 84.5554 42.28V41.736C83.8674 42.616 82.8274 43.16 81.6594 43.16C79.5634 43.16 77.8674 41.336 77.8674 39.08C77.8674 36.824 79.5634 34.984 81.6594 34.984C82.8274 34.984 83.8674 35.544 84.5554 36.424V35.864C84.5554 35.464 84.8914 35.144 85.2754 35.144ZM81.9474 41.8C83.4034 41.8 84.6034 40.584 84.6034 39.08C84.6034 37.576 83.4034 36.344 81.9474 36.344C80.4914 36.344 79.3074 37.576 79.3074 39.08C79.3074 40.584 80.4914 41.8 81.9474 41.8ZM89.1719 34.088C88.6919 34.088 88.3079 33.704 88.3079 33.224C88.3079 32.728 88.6919 32.344 89.1719 32.344C89.6359 32.344 90.0199 32.728 90.0199 33.224C90.0199 33.704 89.6359 34.088 89.1719 34.088ZM89.1719 43C88.7719 43 88.4519 42.68 88.4519 42.28V35.864C88.4519 35.464 88.7719 35.144 89.1719 35.144C89.5559 35.144 89.8919 35.464 89.8919 35.864V42.28C89.8919 42.68 89.5559 43 89.1719 43ZM96.5159 34.984C98.4519 34.984 100.036 36.552 100.036 38.504V42.28C100.036 42.68 99.6999 43 99.3159 43C98.9159 43 98.5959 42.68 98.5959 42.28V38.84C98.5959 37.464 97.5079 36.344 96.1799 36.344C94.8519 36.344 93.7799 37.464 93.7799 38.84V42.28C93.7799 42.68 93.4439 43 93.0599 43C92.6599 43 92.3399 42.68 92.3399 42.28V35.864C92.3399 35.464 92.6599 35.144 93.0599 35.144C93.4439 35.144 93.7799 35.464 93.7799 35.864V36.312C94.4199 35.512 95.4119 34.984 96.5159 34.984ZM107.219 41.672C107.635 41.56 108.067 41.88 108.067 42.328C108.067 42.648 107.859 42.904 107.571 42.984C106.515 43.288 105.459 43.24 104.691 42.76C104.003 42.344 103.587 41.608 103.587 40.6V36.6H102.563C102.195 36.6 101.891 36.28 101.891 35.912C101.891 35.528 102.195 35.224 102.563 35.224H103.587V33.608C103.587 33.224 103.907 32.888 104.307 32.888C104.707 32.888 105.027 33.224 105.027 33.608V35.224H106.883C107.251 35.224 107.555 35.528 107.555 35.912C107.555 36.28 107.251 36.6 106.883 36.6H105.027V40.44C105.027 40.984 105.171 41.368 105.523 41.592C105.939 41.848 106.563 41.832 107.219 41.672ZM113.566 46.536C112.526 46.536 111.374 46.264 110.35 45.768C110.094 45.656 109.918 45.4 109.918 45.096C109.918 44.584 110.446 44.232 110.926 44.44C111.758 44.856 112.702 45.096 113.55 45.096C115.182 45.096 116.222 44.248 116.222 42.472V41.768C115.614 42.616 114.606 43.16 113.486 43.16C111.534 43.16 109.966 41.592 109.966 39.656V35.864C109.966 35.464 110.286 35.144 110.686 35.144C111.086 35.144 111.406 35.464 111.406 35.864V39.32C111.406 40.696 112.494 41.8 113.822 41.8C115.134 41.8 116.206 40.712 116.222 39.352V35.864C116.222 35.464 116.542 35.144 116.942 35.144C117.342 35.144 117.662 35.464 117.662 35.864V42.472C117.662 45.016 116.046 46.52 113.566 46.536Z" fill="#5B39C9"/>
<defs>
<linearGradient id="paint0_linear_119_1834" x1="20.9029" y1="53.1555" x2="39.8119" y2="20.4045" gradientUnits="userSpaceOnUse">
<stop stop-color="#5B39C9"/>
<stop offset="1" stop-color="#FFABEE"/>
</linearGradient>
</defs>
</svg>
