<svg width="200" height="111" viewBox="0 0 200 111" fill="none" xmlns="http://www.w3.org/2000/svg">
<g clip-path="url(#clip0_119_2363)">
<path d="M200.706 55.4501V41.7954L172.144 54.6965L171.194 67.1547L200.706 55.4501Z" fill="#BB9F84"/>
<path d="M128.884 94.7012H117.113V104.836H128.884V94.7012Z" fill="#BB9F84"/>
<path d="M123.24 94.7012C123.309 95.3184 123.229 95.9432 123.004 96.5231C122.639 97.2146 120.535 101.387 120.433 102.478C120.331 103.57 122.215 104.836 122.215 104.836L128.888 104.712V94.7012H123.24Z" fill="#7C553F"/>
<path d="M183.322 54.2032C182.881 54.2073 182.44 54.1656 182.007 54.0789L182.039 53.9468C183.262 54.1841 184.529 54.064 185.685 53.601C187.149 52.9445 187.255 51.3868 187.302 50.4544C187.302 50.2874 187.302 50.1437 187.337 50.031C187.553 49.129 187.842 48.2456 188.201 47.3894L188.326 47.4399C187.978 48.2882 187.693 49.1607 187.475 50.0504C187.475 50.1592 187.451 50.299 187.439 50.4622C187.384 51.3635 187.282 53.0339 185.74 53.7254C184.977 54.0509 184.153 54.2138 183.322 54.2032Z" fill="#F5EACF"/>
<path d="M183.083 60.9198L183.02 60.7993C183.079 60.7683 188.833 57.8508 190.206 55.1704C191.254 53.1309 190.917 52.1908 190.564 51.1925C190.434 50.8535 190.331 50.5055 190.254 50.1514C189.951 48.5975 191.003 46.2045 191.039 46.1035L191.168 46.1579C191.168 46.1812 190.089 48.6247 190.383 50.1242C190.457 50.4732 190.558 50.8161 190.685 51.1497C191.05 52.1753 191.396 53.1426 190.324 55.2326C188.927 57.9519 183.31 60.7993 183.083 60.9198Z" fill="#F5EACF"/>
<path d="M200.706 55.4501C201.718 55.4501 202.538 52.3925 202.538 48.6208C202.538 44.8491 201.718 41.7915 200.706 41.7915C199.693 41.7915 198.873 44.8491 198.873 48.6208C198.873 52.3925 199.693 55.4501 200.706 55.4501Z" fill="#F5EACF"/>
<path d="M200.706 52.8358C201.156 52.8358 201.522 50.9487 201.522 48.6209C201.522 46.2931 201.156 44.406 200.706 44.406C200.255 44.406 199.889 46.2931 199.889 48.6209C199.889 50.9487 200.255 52.8358 200.706 52.8358Z" fill="#445250"/>
<path d="M185.948 48.4578C185.948 48.4578 182.992 54.0595 183.542 57.1362C184.091 60.2129 185.045 61.6619 185.045 61.6619L179.189 63.9927L183.318 49.4872L185.948 48.4578Z" fill="#7C553F"/>
<path d="M117.113 104.832C118.173 104.832 119.032 102.565 119.032 99.7668C119.032 96.9691 118.173 94.7012 117.113 94.7012C116.053 94.7012 115.194 96.9691 115.194 99.7668C115.194 102.565 116.053 104.832 117.113 104.832Z" fill="#F5EACF"/>
<path d="M117.113 102.715C117.494 102.715 117.804 101.395 117.804 99.7669C117.804 98.1384 117.494 96.8184 117.113 96.8184C116.731 96.8184 116.422 98.1384 116.422 99.7669C116.422 101.395 116.731 102.715 117.113 102.715Z" fill="#445250"/>
<path d="M193.97 58.185L193.864 58.0996C194.241 57.526 194.495 56.8821 194.61 56.2077C194.691 55.5628 194.691 54.9103 194.61 54.2654C194.465 52.6765 194.316 50.7342 195.219 49.1803C196.184 47.6518 197.494 46.3649 199.045 45.4199L199.112 45.5365C197.584 46.4729 196.292 47.7433 195.336 49.2502C194.457 50.7691 194.606 52.7154 194.732 54.3003C194.817 54.9555 194.817 55.6186 194.732 56.2738C194.616 56.9565 194.356 57.6075 193.97 58.185Z" fill="#F5EACF"/>
<path d="M197.471 56.7672H197.334C197.334 56.7672 197.416 56.0408 197.566 54.9608C197.715 53.8809 198.975 52.4047 199.026 52.3425L199.132 52.4319C199.132 52.4319 197.848 53.9197 197.703 54.9802C197.558 56.0408 197.471 56.7594 197.471 56.7672Z" fill="#F5EACF"/>
<path d="M118.549 98.8733L118.53 98.7373C118.557 98.7373 121.101 98.3955 121.603 97.5719C122.105 96.7484 121.972 94.7128 121.968 94.6934H122.105C122.105 94.7788 122.255 96.7872 121.713 97.6496C121.171 98.512 118.655 98.8578 118.549 98.8733Z" fill="#F5EACF"/>
<path d="M27.8057 0.683707C31.5383 4.89472 35.9185 8.69784 40.8285 11.4987C43.1128 12.8117 45.5816 13.4411 48.1406 12.5243C50.4956 11.6735 52.7131 9.65737 53.4078 7.21389C53.7108 6.15737 53.7013 5.03702 53.3804 3.9857C52.4698 1.55 49.7184 1.44511 48.1917 3.34861C46.0918 5.9669 46.8179 10.3411 48.8393 12.7612C53.1331 17.8657 60.6611 16.3235 65.8616 13.7441C65.9558 13.6975 65.7752 13.107 65.8616 13.0642C61.7365 15.1076 56.8971 16.4478 52.4345 14.6181C48.5724 13.0526 45.1656 8.12679 48.0661 4.18771C49.1886 2.6649 51.2492 2.01616 52.6739 3.55062C54.4165 5.42693 53.0664 7.9986 51.5788 9.57579C50.1568 11.109 48.2183 12.0759 46.1272 12.2951C43.8821 12.4738 41.8686 11.4871 40.02 10.3527C35.4615 7.5082 31.3467 4.02055 27.8057 0C27.9156 0.12431 27.688 0.551627 27.8057 0.683707Z" fill="#3C4846"/>
<path d="M35.3101 104.836H6.04998L10.7128 102.677L-2 96.1969L12.7419 99.697L4.61739 84.7332L16.6551 97.879L14.0215 83.9873L23.8769 99.8485L25.3919 93.3261L29.2933 101.799L35.3101 104.836Z" fill="#495856"/>
<path d="M71.223 104.836H32.7158C31.535 104.825 30.3904 104.432 29.4559 103.717C28.5214 103.003 27.8483 102.006 27.5388 100.878L6.79571 28.0165C5.79486 24.5203 8.36567 21.0046 11.9727 21.0046H48.5881C49.7464 21.0145 50.871 21.3919 51.7965 22.0813C52.722 22.7708 53.3996 23.736 53.7297 24.835L76.3764 97.6925C77.4754 101.235 74.881 104.836 71.223 104.836Z" fill="#FFBFED"/>
<path d="M69.0878 101.799H33.3712C32.2742 101.791 31.21 101.427 30.3411 100.765C29.4722 100.102 28.8464 99.1755 28.5593 98.1275L9.32727 30.5337C8.40099 27.2784 10.803 24.0308 14.1313 24.0308H48.0661C49.1408 24.0394 50.1843 24.3895 51.0429 25.0294C51.9014 25.6693 52.5296 26.5653 52.8348 27.5853L73.8409 95.179C74.8732 98.4538 72.4672 101.799 69.0878 101.799Z" fill="#FCECFF"/>
<path d="M128.012 104.836H163.792C164.889 104.826 165.953 104.462 166.821 103.797C167.689 103.133 168.314 102.206 168.6 101.158L187.871 33.4822C188.797 30.2229 186.395 26.9675 183.059 26.9675H149.05C147.973 26.9771 146.927 27.3288 146.067 27.9708C145.207 28.6129 144.578 29.5112 144.273 30.5337L123.24 98.2013C122.219 101.488 124.629 104.836 128.012 104.836Z" fill="#FFBFED"/>
<path d="M130.006 102.012H163.191C164.209 102.004 165.197 101.666 166.002 101.05C166.808 100.434 167.388 99.5742 167.654 98.6014L185.528 35.8324C186.387 32.8101 184.158 29.7878 181.065 29.7878H149.517C148.519 29.7969 147.551 30.1226 146.754 30.7169C145.957 31.3113 145.374 32.143 145.09 33.0898L125.579 95.8627C124.633 98.9044 126.866 102.012 130.006 102.012Z" fill="#FCECFF"/>
<path d="M74.0921 24.7765C74.0921 24.7765 78.8373 23.9802 81.1569 23.1877C83.4765 22.3952 87.1777 21.0045 87.1777 21.0045L82.6641 14.6491C82.6641 14.6491 84.7678 12.4659 87.1777 11.821C89.5876 11.1762 91.3891 10.8771 93.4968 9.53684C94.9925 8.5565 96.4338 7.49702 97.8142 6.36304C97.8142 6.36304 99.8709 9.4708 100.774 9.78546C101.676 10.1001 120.908 11.1101 120.908 11.1101L127.832 24.7843L114.817 30.3161L116.473 31.3611L119.554 35.0826L109.251 43.4231L96.8408 38.2836L91.0477 43.4231L82.4129 40.9136L87.2248 36.1237L81.3453 37.5261L74.0921 24.7765Z" fill="#3C4846"/>
<path d="M89.0146 24.4269C90.6658 25.157 92.2168 26.0916 93.6303 27.2083C95.4867 28.7971 95.4867 30.285 97.6925 29.3915C99.8983 28.498 106.064 21.3036 109.075 19.8623C111.189 18.9012 113.388 18.1365 115.645 17.5781C115.645 17.5781 108.773 21.2531 106.017 24.3297C103.262 27.4064 102.006 30.8793 98.8936 31.6757C95.7811 32.4721 94.4309 29.5896 92.3272 27.655C90.2234 25.7205 89.0146 24.4269 89.0146 24.4269Z" fill="#FCECFF"/>
<path d="M56.795 55.5473C58.8412 55.429 60.8846 55.8217 62.7373 56.6894C65.7242 58.1306 66.6623 58.6745 66.6623 58.6745C66.6623 58.6745 68.1694 54.5334 68.0674 52.5211C67.8899 50.6631 67.5936 48.818 67.1803 46.9971L62.1957 51.0061C62.1957 51.0061 59.9742 47.335 57.7645 49.9145C55.5548 52.4939 57.3328 53.6943 57.3328 53.6943L56.795 55.5473Z" fill="#EBB490"/>
<path d="M72.6673 62.9205C71.1992 61.3571 70.0574 59.5221 69.3076 57.5208C68.2911 54.5063 68.4991 49.9456 68.2558 48.7181C67.9692 47.2769 67.1843 46.7447 67.1843 46.7447C67.1843 46.7447 67.7455 45.8512 66.725 44.9266C66.5052 44.7285 64.6448 43.431 61.4303 43.7107C58.2159 43.9904 55.8452 46.2785 54.0005 46.7252C52.1558 47.172 52.4973 47.8052 47.0809 47.5837C41.6645 47.3623 38.8818 47.137 35.7615 48.3607C32.6412 49.5844 31.3577 52.6028 31.3577 52.6028L45.0478 65.5971L56.1828 56.6234C56.6432 55.9624 57.0375 55.2585 57.3602 54.5218C57.6428 53.7216 57.9058 52.7737 57.9058 52.7737C57.9058 52.7737 57.3563 50.3147 58.7457 49.6659C60.1351 49.0172 61.1752 50.171 61.344 50.3186C61.6039 50.6181 61.8121 50.9581 61.9602 51.3247C62.0348 51.5656 63.7146 50.6527 64.637 49.7708C65.5593 48.889 66.6308 47.9101 66.6308 47.9101C66.3774 48.7191 65.9473 49.4632 65.3709 50.0894L63.9423 51.4646C64.6621 51.1934 65.32 50.7827 65.8773 50.2564C66.6443 49.3588 67.0815 48.2305 67.1175 47.0554C67.1175 47.0554 67.9457 50.1321 67.8201 52.6611C67.6945 55.19 66.5955 58.2667 66.5955 58.2667L66.203 59.4321L69.4097 61.7629L72.6673 62.9205Z" fill="#211A14"/>
<path d="M33.7284 89.721C33.8775 89.3325 39.8983 71.7776 43.4307 67.5355C46.9632 63.2934 50.0835 59.3776 52.0145 58.3948C53.9456 57.412 55.1544 56.4796 57.2111 56.0951C59.2677 55.7105 65.4338 58.5463 65.4338 58.5463L66.4503 59.568C66.4503 59.568 75.7759 65.2629 78.0327 64.5948C80.2895 63.9266 90.3687 55.8464 90.3687 55.8464L97.4021 63.9422C97.4021 63.9422 86.7107 74.1783 83.8494 74.9203C82.1968 75.3631 80.4975 75.6134 78.7863 75.6662C78.7863 75.6662 81.8948 77.4026 84.2537 77.9504C86.6125 78.4981 94.8313 78.1485 94.8313 78.1485L91.3224 88.3225C91.3224 88.3225 76.0153 87.2814 74.0921 86.5744C72.1689 85.8674 67.7298 83.187 67.7298 83.187C66.415 84.2368 65.0187 85.1824 63.5537 86.015C61.6393 86.9562 60.0445 88.4307 58.9655 90.2571C57.949 92.1179 56.4967 97.3078 56.4967 97.3078L33.7284 89.721Z" fill="#D08B69"/>
<path d="M66.4503 59.5681C66.4503 59.5681 67.2785 59.0126 66.7525 58.4027C66.2266 57.7928 63.6675 56.4604 61.0732 55.6834C58.4788 54.9065 56.8225 55.124 56.4457 55.3843C56.0689 55.6446 56.1827 56.6119 56.1827 56.6119C57.8393 56.4237 59.5172 56.5812 61.1085 57.0741C62.9692 57.7257 64.7589 58.5612 66.4503 59.5681Z" fill="#F2D7B9"/>
<path d="M55.9433 101.799L56.4967 97.2925L33.7323 89.7212C33.7323 89.7212 32.704 93.7341 32.4018 95.7619C32.0996 97.7897 31.8209 101.55 31.8209 101.55L33.9207 102.677L55.9433 101.799Z" fill="#949B90"/>
<path d="M33.2064 91.8617L56.4261 97.8791L56.4967 97.2925L33.7284 89.7212L33.2064 91.8617Z" fill="#3A4741"/>
<path d="M90.7494 56.2815C90.7494 56.2815 93.7166 53.6865 96.9154 53.131C100.114 52.5755 103.87 49.2463 104.549 49.6658C105.228 50.0854 105.189 51.6393 104.738 52.3851C104.286 53.131 102.555 54.2459 102.555 54.2459C102.555 54.2459 102.312 54.7859 103.439 54.9529C104.565 55.12 111.528 54.7859 112.521 55.085C113.514 55.3841 114.157 56.2737 114.197 56.5728C114.236 56.872 113.632 57.3925 113.632 57.3925C113.632 57.3925 115.492 57.9675 115.928 58.9464C116.363 59.9253 116.002 60.4731 115.833 60.5663C115.665 60.6595 111.96 60.846 111.96 60.846C111.612 61.4085 111.067 61.8237 110.429 62.0114C109.349 62.3339 107.681 63.0564 105.99 62.9554C104.298 62.8544 101.076 62.4582 99.9219 62.5669C98.7679 62.6757 96.6838 63.1186 96.6838 63.1186L90.7494 56.2815Z" fill="#EBB490"/>
<path d="M91.503 55.6873L98.3401 62.7729L96.6838 63.0993L90.7494 56.2816L91.503 55.6873Z" fill="#B07B58"/>
<path d="M94.7214 78.4517L105.224 78.8168L111.198 85.6694C111.198 85.6694 111.198 87.0407 110.268 87.4875C109.81 87.7194 109.33 87.9068 108.835 88.0469C108.909 88.214 108.931 88.3992 108.897 88.5785C108.863 88.7578 108.776 88.9231 108.647 89.053C108.196 89.5736 106.579 89.8727 106.579 89.8727C106.385 90.3214 106.089 90.7201 105.715 91.0381C105.189 91.4071 102.183 90.7001 102.183 90.7001L95.6751 88.7267L91.3263 88.3382L94.7214 78.4517Z" fill="#EBB490"/>
<path d="M93.1122 88.4742L95.2238 78.4517H94.7253L91.3263 88.3071L93.1122 88.4742Z" fill="#B07B58"/>
<path d="M67.7298 83.1715C67.7298 83.1715 63.0631 78.976 61.5442 77.4881C60.0252 76.0003 56.8343 77.0414 56.8343 77.0414C56.8343 77.0414 59.0597 76.0897 61.5442 78.4516C64.0286 80.8135 62.3527 86.7065 62.3527 86.7065C62.3527 86.7065 63.8873 85.8946 64.9157 85.1993C65.944 84.5039 67.7298 83.1715 67.7298 83.1715Z" fill="#9B5335"/>
<path d="M78.7863 75.6508C78.7863 75.6508 74.1235 72.0769 70.2849 68.5768C66.4464 65.0766 66.6505 62.0505 65.1472 60.4189C63.644 58.7873 62.7373 58.3833 62.7373 58.3833C62.7373 58.3833 65.1198 59.4982 66.2698 60.7646C67.4198 62.031 67.5728 64.3735 69.1899 66.1605C70.8069 67.9474 78.7863 75.6508 78.7863 75.6508Z" fill="#9B5335"/>
<path d="M76.0271 86.9319C76.0271 86.9319 76.8788 86.2482 76.5295 85.852C76.4955 85.7975 76.4505 85.7506 76.3971 85.7144C76.3438 85.6781 76.2834 85.6534 76.2198 85.6416C76.1562 85.6299 76.0908 85.6315 76.0279 85.6464C75.9649 85.6612 75.9058 85.6889 75.8544 85.7277C75.8544 85.7277 76.0545 84.6361 75.5247 84.4846C74.9948 84.3331 74.6494 85.0556 74.6494 85.0556C74.6494 85.0556 74.3472 84.1388 73.8644 84.065C73.3817 83.9912 72.9107 84.807 72.9107 84.807C72.9107 84.807 72.8361 84.4185 72.1846 84.4185C71.533 84.4185 71.7921 85.4635 71.7921 85.4635C72.5321 85.869 73.2962 86.2296 74.0803 86.5435C74.717 86.7271 75.3682 86.8571 76.0271 86.9319Z" fill="#F2D7B9"/>
<path d="M85.0112 73.4715C84.9777 73.4341 84.9351 73.406 84.8874 73.39C84.8397 73.3739 84.7885 73.3704 84.739 73.3798C84.6895 73.3892 84.6434 73.4112 84.6051 73.4436C84.5668 73.476 84.5376 73.5178 84.5206 73.5647C84.5206 73.5647 84.2026 72.8965 83.712 72.9159C83.2214 72.9354 83.3941 73.5297 83.3941 73.5297C83.3685 73.4721 83.3312 73.4204 83.2847 73.3775C83.2381 73.3347 83.1832 73.3017 83.1233 73.2806C83.0634 73.2595 82.9998 73.2508 82.9363 73.2548C82.8729 73.2589 82.811 73.2758 82.7543 73.3044C82.3383 73.5297 82.5856 74.4232 82.5856 74.4232H82.04C81.5886 74.4232 81.8987 75.3245 81.8987 75.3283C82.4953 75.2235 83.1547 75.0875 83.8612 74.9049C84.3633 74.7399 84.8401 74.5073 85.2781 74.2134C85.2924 74.0779 85.2758 73.9409 85.2296 73.8125C85.1834 73.6841 85.1088 73.5676 85.0112 73.4715Z" fill="#F2D7B9"/>
<path d="M43.2267 102.304C43.2267 102.304 43.733 100.256 44.5611 99.7358C44.9666 99.4435 45.4495 99.2747 45.9505 99.2502C45.9505 99.2502 44.5964 99.697 44.3806 100.443C44.232 101.052 44.1595 101.677 44.1647 102.304H43.2267Z" fill="#3A4741"/>
<path d="M57.9136 52.7776C58.1017 53.0631 58.3766 53.2821 58.6986 53.403C59.0295 53.5057 59.3843 53.5057 59.7152 53.403C59.3796 53.616 58.9817 53.7117 58.5848 53.675C58.0589 53.5623 57.3877 54.4169 57.3877 54.4169L57.9136 52.7776Z" fill="#B07B58"/>
<path d="M60.2058 50.8042C60.4067 50.8837 60.575 51.0275 60.6839 51.2127C60.7927 51.3978 60.8358 51.6137 60.8063 51.8259C60.6768 52.5523 58.9459 52.3309 58.9459 52.3309C58.9459 52.3309 59.9428 52.191 59.9703 51.9191C59.9978 51.6472 59.3776 51.3053 59.3776 51.3053C59.6094 51.3326 59.8372 51.386 60.0566 51.4646C60.1391 51.5384 60.2647 51.6666 60.2647 51.6666C60.2647 51.6666 60.6846 51.5112 60.2058 50.8042Z" fill="#B07B58"/>
<path d="M113.632 57.3926C113.632 57.3926 110.492 57.4742 109.098 57.3926C107.705 57.311 105.012 57.0042 105.012 57.0042C105.012 57.0042 108.706 57.3577 110.06 57.2139C111.293 57.1405 112.53 57.156 113.761 57.2605L113.632 57.3926Z" fill="#B07B58"/>
<path d="M111.96 60.8345C111.96 60.8345 112.352 60.1819 110.963 59.6691C109.573 59.1564 108.368 59.7429 106.845 59.91C105.848 60.0018 104.842 59.927 103.87 59.6886C104.666 59.7774 105.468 59.8112 106.268 59.7896C107.136 59.7235 109.279 59.1952 109.946 59.269C110.746 59.3137 111.522 59.5568 112.203 59.976C112.898 60.4694 112.748 60.7802 112.748 60.7802L111.96 60.8345Z" fill="#B07B58"/>
<path d="M102.555 54.2305C102.394 54.3745 102.221 54.5045 102.037 54.6189C101.925 54.6933 101.802 54.7497 101.672 54.786L102.544 54.4364V54.3354L102.555 54.2305Z" fill="#B07B58"/>
<path d="M101.201 56.0952C101.036 56.8148 100.692 57.4823 100.201 58.0376C99.7844 58.5679 99.1871 58.9298 98.5207 59.0554C98.5207 59.0554 100.091 59.0049 100.601 58.0881C100.932 57.4696 101.136 56.7923 101.201 56.0952Z" fill="#B07B58"/>
<path d="M108.835 88.0468C108.286 87.9194 107.753 87.7317 107.246 87.4874C106.583 87.2034 105.941 86.8723 105.326 86.4968C105.326 86.4968 106.441 87.5845 107.469 87.8215C107.915 87.9449 108.373 88.0205 108.835 88.0468Z" fill="#B07B58"/>
<path d="M106.579 89.8727C105.855 89.7511 105.148 89.5438 104.475 89.255C103.863 88.959 103.285 88.5982 102.752 88.179C102.752 88.179 103.749 89.4065 104.667 89.6474C105.293 89.7978 105.935 89.8735 106.579 89.8727Z" fill="#B07B58"/>
<path d="M52.9722 57.9211H52.8348C52.8849 56.9634 53.2967 56.0594 53.9887 55.3882C55.123 54.3083 57.4466 53.9159 57.5447 53.9004V54.0325C57.5211 54.0325 55.1662 54.4209 54.0672 55.4853C53.4133 56.1372 53.0237 57.0039 52.9722 57.9211Z" fill="white"/>
<path d="M40.8992 61.6114L40.7657 61.5687C40.7657 61.5299 42.1002 57.7617 44.6906 56.2778C45.7616 55.6638 46.923 55.2194 48.1328 54.9608C49.1813 54.7244 50.1983 54.3672 51.1628 53.8964C52.1036 53.4257 52.9882 52.8524 53.8003 52.1872C54.4793 51.6588 55.0171 51.2393 55.7942 51.1072C57.2503 50.8586 57.9843 50.7188 57.9843 50.7188L58.0078 50.8547C58.0078 50.8547 57.2739 50.9868 55.8177 51.2432C55.0759 51.3714 54.5775 51.7598 53.8867 52.2998C53.0661 52.9693 52.1737 53.5477 51.2256 54.0246C50.2521 54.4986 49.226 54.8584 48.1681 55.0968C46.9702 55.3539 45.8197 55.7929 44.7574 56.3982C42.214 57.8627 40.911 61.5843 40.8992 61.6114Z" fill="white"/>
<path d="M35.9185 56.8837L35.785 56.8603C35.785 56.8098 36.7152 51.9074 40.8089 50.4234C42.3483 49.7981 44.0225 49.5682 45.6758 49.7552C47.2331 49.8867 48.801 49.824 50.3425 49.5688C52.2472 49.3043 54.0734 48.6423 55.7 47.6264C56.6655 47.067 57.5015 46.5853 58.7496 46.527C61.4971 46.4105 64.5663 49.5998 64.6959 49.7358L64.5938 49.829C64.5624 49.798 61.5402 46.6591 58.9066 46.6591H58.7575C57.5408 46.7174 56.7597 47.168 55.7706 47.743C54.1265 48.761 52.2833 49.423 50.3621 49.6853C48.8064 49.9432 47.2241 50.0072 45.6522 49.8757C44.0177 49.6909 42.3624 49.9181 40.8403 50.5361C36.8369 52.0084 35.9303 56.8332 35.9185 56.8837Z" fill="white"/>
<path d="M99.6707 85.0477C100.776 84.8887 101.89 84.8031 103.007 84.7913C103.984 84.8574 104.836 85.4167 105.727 85.7275C106.409 85.9141 107.121 85.9643 107.823 85.8751C107.558 85.4053 107.201 84.9929 106.772 84.6625C106.343 84.3322 105.852 84.0906 105.326 83.9522C103.584 83.5288 99.6707 85.0477 99.6707 85.0477Z" fill="#B07B58"/>
<path d="M138.362 52.5796C138.531 51.1243 138.824 49.6857 139.238 48.2792C139.689 46.939 141.259 44.4373 141.259 44.4373L144.43 49.5923L143.677 54.3316L140.929 54.6307L138.362 52.5796Z" fill="#D08B69"/>
<path d="M122.667 67.8579L130.03 76.3732L133.598 73.5801L136.906 90.2105L145.482 87.3785L147.688 85.6926L155.761 75.2039L165.366 69.6449C165.366 69.6449 161.869 60.9781 157.842 57.9908C153.815 55.0035 150.946 54.8131 149.431 54.883C148.223 54.9831 147.025 55.1754 145.847 55.458L138.453 56.7516C138.453 56.7516 132.546 58.7794 130.787 60.1196C129.029 61.4598 122.667 67.8579 122.667 67.8579Z" fill="#5546FF"/>
<path d="M143.441 41.3372C142.905 41.6258 142.406 41.9766 141.954 42.3821C141.608 42.7473 141.51 44.208 141.51 44.208C141.51 44.208 144.21 41.1546 147.319 42.3977C150.428 43.6408 150.18 45.9949 149.953 47.0127C149.71 47.9367 149.41 48.8449 149.054 49.732L147.821 51.6977L145.29 50.4817L145.855 55.4736C145.655 55.9991 145.333 56.4705 144.914 56.8492C144.495 57.2279 143.992 57.5033 143.445 57.6529C141.545 58.1929 140.419 58.0414 139.685 57.6529C138.951 57.2644 138.633 57.2256 138.284 56.4253C137.935 55.6251 137.719 53.3642 137.891 53.0573C138.072 52.8133 138.307 52.6138 138.578 52.4746C139.054 52.1735 139.611 52.0219 140.176 52.0395C141.192 52.1327 141.428 53.5584 141.934 53.8265C142.44 54.0945 143.504 53.1039 143.531 52.9718C143.559 52.8398 143.814 49.798 143.814 49.798C143.007 49.1833 142.389 48.3589 142.028 47.4167C141.714 46.4472 141.463 45.4584 141.279 44.4566C141.279 44.4566 141.188 42.588 141.671 42.1258C142.154 41.6635 143.441 41.3372 143.441 41.3372Z" fill="#2E332E"/>
<path d="M147.366 55.1395C147.366 55.1395 147.417 54.654 147.492 54.1334C147.548 53.7943 147.662 53.4671 147.829 53.1661C147.829 53.1661 149.749 52.4241 149.372 50.4857C148.995 48.5472 146.475 48.9046 146.475 48.9046C146.046 49.0451 145.636 49.2382 145.255 49.4795C145.104 49.5879 144.972 49.719 144.862 49.868C144.732 50.8688 144.732 51.8818 144.862 52.8825C145.007 53.7962 145.341 54.6703 145.843 55.4503L147.366 55.1395Z" fill="#D08B69"/>
<path d="M122.667 67.8579C122.667 67.8579 119.48 71.3541 116.132 72.5196C112.784 73.685 105.012 76.5324 103.76 78.0708C102.508 79.6091 101.351 82.0409 100.35 82.7324C99.3488 83.4239 98.3872 83.9911 98.6934 84.7758C98.9995 85.5605 101.441 84.4689 102.909 84.3213C103.708 84.2285 104.515 84.2285 105.315 84.3213C105.315 84.3213 106.367 85.611 107.823 85.8751C109.279 86.1393 111.434 85.7936 114.142 84.7913C116.85 83.7891 124.924 80.7629 125.779 79.9199C126.635 79.0769 130.03 76.3732 130.03 76.3732L122.667 67.8579Z" fill="#D08B69"/>
<path d="M98.4422 87.6856C98.4422 87.6856 98.2931 86.5707 97.4021 86.7183C96.5111 86.8659 95.3611 88.8549 95.4396 89.9931C95.5181 91.1313 95.9146 92.5764 96.4915 92.7745C96.7297 92.8767 96.9948 92.9006 97.2478 92.8425C97.5007 92.7845 97.7281 92.6477 97.8966 92.4521C98.0629 92.2038 98.134 91.9048 98.0968 91.6091L98.4422 87.6856Z" fill="#D08B69"/>
<path d="M98.4422 87.6855C97.8186 88.2099 97.3551 88.896 97.1038 89.6667C96.8408 90.7661 97.9869 92.4598 97.9437 92.386C97.9005 92.3122 98.4422 87.6855 98.4422 87.6855Z" fill="#9A5335"/>
<path d="M100.193 88.1089C100.193 88.1089 100.055 87.0756 99.2311 87.2115C98.4069 87.3475 97.3354 89.1889 97.406 90.2494C97.4767 91.3099 97.8495 92.6385 98.3833 92.8211C98.6032 92.9163 98.8482 92.939 99.0822 92.8859C99.3161 92.8327 99.5266 92.7065 99.6825 92.5258C99.8358 92.2969 99.9025 92.0217 99.8709 91.7489L100.193 88.1089Z" fill="#D08B69"/>
<path d="M100.193 88.1089C99.7901 88.4105 99.4758 88.8127 99.2821 89.2743C99.0584 89.958 99.0466 90.8282 99.2821 91.1195C99.4624 91.3374 99.6592 91.5413 99.8709 91.7294L100.193 88.1089Z" fill="#9A5335"/>
<path d="M102.752 90.8127C102.752 90.8127 102.783 92.6268 101.727 92.755C100.672 92.8832 99.8512 92.114 99.5726 90.968C99.2939 89.8221 99.7963 88.0895 100.573 87.8409C101.351 87.5922 102.179 90.6922 102.179 90.6922L102.752 90.8127Z" fill="#D08B69"/>
<path d="M122.667 67.8579L127.604 78.3311L130.03 76.3576L122.667 67.8579Z" fill="#9A5335"/>
<path d="M124.657 65.9001L132.161 74.6912L130.03 76.3578L122.667 67.858L124.657 65.9001Z" fill="#3A4741"/>
<path d="M155.761 75.2041L154.384 72.3372L164.263 67.1899L164.907 68.5729L165.366 69.6451L155.761 75.2041Z" fill="#3A4741"/>
<path d="M138.15 89.7834L139.191 102.012H163.195L147.688 85.6772L145.482 87.3632L138.15 89.7834Z" fill="#5E3A28"/>
<path d="M138.331 91.9433L148.759 86.8038L147.688 85.6772L145.482 87.3632L138.15 89.7834L138.331 91.9433Z" fill="#462416"/>
<path d="M144.528 88.2876L155.761 75.2039L166.92 74.6873L182.82 90.8398L169.577 110.792L144.528 88.2876Z" fill="#D0B697"/>
<path d="M166.174 88.7032L174.468 103.426L169.577 110.792L144.528 88.2876L148.461 83.7075L166.174 88.7032Z" fill="#BB9F84"/>
<path d="M155.761 75.208C155.761 75.208 156.864 78.4089 157.092 80.6465C157.32 82.8841 157.543 89.6552 157.485 90.6963C157.426 91.7374 156.256 92.7085 155.777 93.9749C155.298 95.2414 153.171 98.3918 152.818 98.6133C152.465 98.8347 153.352 100.626 155.031 100.513C155.977 100.451 157.728 98.7182 157.728 98.7182C157.728 98.7182 156.597 100.936 156.974 101.698C157.351 102.459 159.039 102.436 159.039 102.436C159.106 102.692 159.26 102.917 159.474 103.075C159.687 103.233 159.949 103.315 160.216 103.306C161.194 103.306 162.473 101.616 162.473 101.616C162.473 101.616 162.94 103.966 163.776 104.37C164.612 104.774 164.377 101.492 164.781 100.152C165.185 98.8114 165.872 96.4689 166.21 94.7907C166.547 93.1125 168.239 81.8003 167.45 77.2202C167.03 74.6331 166.336 72.0968 165.381 69.6528L155.761 75.208Z" fill="#D08B69"/>
<path d="M156.543 77.8145L165.609 70.2627L165.366 69.645L155.761 75.204L156.543 77.8145Z" fill="#9A5335"/>
<path d="M157.477 89.2745C158.673 88.7791 159.973 88.5816 161.264 88.6996C163.164 88.9598 164.443 89.2745 164.443 89.2745L164.879 86.8621C164.879 86.8621 162.677 85.8521 160.907 85.9608C159.716 86.0614 158.541 86.3053 157.41 86.6873L157.477 89.2745Z" fill="#3A4741"/>
<path d="M165.911 90.467C167.127 90.467 168.113 89.4913 168.113 88.2877C168.113 87.0841 167.127 86.1084 165.911 86.1084C164.695 86.1084 163.709 87.0841 163.709 88.2877C163.709 89.4913 164.695 90.467 165.911 90.467Z" fill="#D0B273"/>
<path d="M166.174 90.2067C167.245 90.2067 168.113 89.3476 168.113 88.2877C168.113 87.2278 167.245 86.3687 166.174 86.3687C165.103 86.3687 164.235 87.2278 164.235 88.2877C164.235 89.3476 165.103 90.2067 166.174 90.2067Z" fill="#5546FF"/>
<path d="M154.384 72.3371C154.384 72.3371 151.562 66.7548 150.922 65.3757C150.282 63.9966 148.63 62.5088 148.63 62.5088L150.066 64.5211L146.636 64.3696L150.247 65.1154L154.384 72.3371Z" fill="#2E332E"/>
<path d="M133.598 73.5647L132.97 67.0151L132.42 72.5314L130.03 76.3578L133.598 73.5647Z" fill="#2E332E"/>
<path d="M151.683 102.012C151.683 102.012 151.032 97.0942 150.329 95.653C149.873 94.7461 149.262 93.9235 148.524 93.2212C148.524 93.2212 150.004 95.2063 150.329 96.9699C150.655 98.7336 150.934 102.02 150.934 102.02L151.683 102.012Z" fill="#462416"/>
<path d="M155.075 63.8606C155.911 63.8606 156.59 63.1892 156.59 62.3611C156.59 61.5329 155.911 60.8616 155.075 60.8616C154.238 60.8616 153.56 61.5329 153.56 62.3611C153.56 63.1892 154.238 63.8606 155.075 63.8606Z" fill="#3A4741"/>
<path d="M147.837 53.166C147.584 53.3296 147.287 53.4123 146.985 53.403C146.604 53.3768 146.229 53.297 145.871 53.166C146.152 53.4299 146.488 53.6289 146.856 53.7487C147.102 53.8162 147.364 53.8026 147.602 53.7099C147.617 53.6671 147.837 53.166 147.837 53.166Z" fill="#9A5335"/>
<path d="M147.327 49.9573C147.084 49.9769 146.853 50.0692 146.664 50.2219C146.476 50.3745 146.339 50.5803 146.271 50.8119C146.036 51.6316 147.327 52.2143 147.327 52.2143C147.327 52.2143 146.593 51.6316 146.785 51.3363C146.978 51.0411 147.637 51.0877 147.637 51.0877C147.411 50.9997 147.179 50.9283 146.942 50.8741C146.812 50.8541 146.681 50.8424 146.55 50.8391C146.55 50.8391 146.546 50.3457 147.327 49.9573Z" fill="#9A5335"/>
<path d="M102.179 90.6885C102.234 90.8606 102.272 91.0375 102.293 91.2168C102.298 91.3035 102.298 91.3904 102.293 91.4771L102.418 90.7506L102.179 90.6885Z" fill="#9A5335"/>
<path d="M159.023 102.428C159.597 101.695 160.093 100.905 160.503 100.07C160.722 99.5093 160.882 98.9272 160.978 98.3335C160.937 99.1336 160.836 99.9297 160.675 100.715C160.503 101.162 159.023 102.428 159.023 102.428Z" fill="#9A5335"/>
<path d="M162.457 101.624C162.402 101.217 162.383 100.806 162.402 100.396C162.442 99.7591 162.457 99.4717 162.457 99.4717L161.959 102.191L162.457 101.624Z" fill="#9A5335"/>
<path d="M157.712 98.7103C157.909 98.378 158.082 98.0328 158.23 97.677C158.312 97.463 158.36 97.2375 158.372 97.0088C158.355 97.5822 158.279 98.1524 158.144 98.7103C157.945 99.0246 157.677 99.2903 157.359 99.4872L157.712 98.7103Z" fill="#9A5335"/>
</g>
<defs>
<clipPath id="clip0_119_2363">
<rect width="204.538" height="110.792" fill="white" transform="translate(-2)"/>
</clipPath>
</defs>
</svg>
