<svg width="153" height="200" viewBox="0 0 153 200" fill="none" xmlns="http://www.w3.org/2000/svg">
<g clip-path="url(#clip0_119_2163)">
<path d="M96.1977 84.6236C110.443 84.6236 121.991 73.116 121.991 58.9206C121.991 44.7252 110.443 33.2175 96.1977 33.2175C81.9525 33.2175 70.4044 44.7252 70.4044 58.9206C70.4044 73.116 81.9525 84.6236 96.1977 84.6236Z" fill="#FFBFED"/>
<path d="M61.5268 109.513V72.2988H98.5057L99.9453 109.029L61.5268 109.513Z" fill="#D0B273"/>
<path d="M104.641 68.4675L98.5057 72.2988H61.5268L71.3242 68.4675H104.641Z" fill="#906B53"/>
<path d="M105.464 104.224L104.641 68.4675L98.5057 72.2988L99.951 109.513L105.464 104.224Z" fill="#7C553F"/>
<path d="M54.083 107.93V145.878L98.5057 145.36V109.046L61.5268 109.513V108.237L54.083 107.93Z" fill="#DD997F"/>
<path d="M61.5268 103.86L54.083 107.93L61.5268 108.237V103.86Z" fill="#804527"/>
<path d="M57.6249 145.878L58.4761 184.185H95.0894V145.4L57.6249 145.878Z" fill="#D6DBCC"/>
<path d="M99.9453 178.379L95.0894 184.185V145.4L98.5057 145.36L99.4197 156.302L99.9453 178.379Z" fill="#AAB1A5"/>
<path d="M57.6249 145.878L95.0894 148.918V145.4L57.6249 145.878Z" fill="#949B90"/>
<path d="M58.379 179.75L46.5193 183.212L46.822 184.732L58.4761 184.185L58.379 179.75Z" fill="#2E332E"/>
<path d="M61.6467 89.0641L61.4125 88.916C61.5153 88.7566 63.9033 84.9311 66.554 83.4282C68.0343 82.6213 69.6073 81.9963 71.2385 81.5666C72.5753 81.1454 74.2434 80.6273 76.46 79.7734C81.5272 77.8094 83.6181 72.3044 83.641 72.2532L83.8981 72.3443C83.8981 72.4012 81.7443 78.0371 76.5571 80.0296C74.3348 80.8835 72.661 81.4072 71.3185 81.8285C69.707 82.2523 68.1531 82.8698 66.6911 83.6673C64.0975 85.1531 61.6467 89.0242 61.6467 89.0641Z" fill="#D08B69"/>
<path d="M99.3511 95.3489C99.2769 95.3489 91.5303 93.0376 91.7131 84.3333C91.896 75.629 98.4828 74.183 98.5685 74.1716L98.6256 74.4392C98.5628 74.4392 92.1816 75.8624 92.0045 84.339C91.8274 92.8156 99.3683 95.0643 99.4311 95.087L99.3511 95.3489Z" fill="#D08B69"/>
<path d="M92.016 108.072H91.8503C89.7423 108.072 87.023 105.733 83.8809 103.057C80.7389 100.381 77.0256 97.2162 73.0266 95.5994C65.2058 92.4456 61.6753 95.5425 61.641 95.5994L61.4525 95.4002C61.601 95.2635 65.1487 92.1553 73.1295 95.3717C77.1798 97.0055 80.8417 100.125 84.0752 102.875C87.1829 105.516 89.8622 107.799 91.8731 107.828C95.9521 107.885 99.7168 105.676 99.7511 105.653L99.8939 105.892C99.8368 105.875 96.0949 108.072 92.016 108.072Z" fill="#D08B69"/>
<path d="M54.1001 121.826L54.0659 121.462C54.1058 121.462 57.802 121.052 60.5099 117.118L61.0183 116.373C63.372 112.957 63.6748 112.513 64.8916 111.517C66.1084 110.52 69.0733 109.296 69.1933 109.24L69.3304 109.581C69.3019 109.581 66.3655 110.771 65.1258 111.79C63.8861 112.809 63.6462 113.19 61.3211 116.572L60.8127 117.318C58.002 121.405 54.2601 121.809 54.1001 121.826Z" fill="#FCECFF"/>
<path d="M54.1287 129.665L54.043 129.312C54.1287 129.312 63.0692 127.081 68.4678 123.05C73.7464 119.099 76.9342 116.72 81.9386 116.72C84.7782 116.704 87.5962 117.212 90.2507 118.217L90.1079 118.553C87.4972 117.574 84.7277 117.084 81.9386 117.107C77.0598 117.107 73.9064 119.464 68.6849 123.369C63.2292 127.422 54.2201 129.643 54.1287 129.665Z" fill="#FCECFF"/>
<path d="M67.0739 145.93L66.9711 145.582C67.0168 145.582 71.7755 144.148 74.1806 139.707C76.7571 134.959 78.3967 132.233 82.1785 131.498C85.9604 130.764 92.9871 134.345 95.238 137.498C97.4888 140.652 98.6656 145.269 98.6656 145.315L98.3114 145.406C98.3114 145.36 97.106 140.749 94.9238 137.709C92.7415 134.669 85.9433 131.14 82.2528 131.88C78.5623 132.62 77.0256 135.25 74.5062 139.907C72.0269 144.455 67.1196 145.918 67.0739 145.93Z" fill="#FCECFF"/>
<path d="M58.2191 168.558L58.0934 168.319C58.1562 168.285 64.6688 164.733 68.0279 158.761C71.3871 152.789 68.6621 146.419 68.6335 146.356L68.8849 146.248C68.9134 146.311 71.6784 152.824 68.2679 158.892C64.8573 164.961 58.2591 168.524 58.2191 168.558Z" fill="#D08B69"/>
<path d="M94.9637 171.411C94.9637 171.365 93.0499 167.033 89.8222 164.465C88.6719 163.624 87.4109 162.944 86.0746 162.444C83.5953 161.386 81.0302 160.293 78.568 156.655C74.7861 151.059 76.7685 146.71 76.7856 146.67L77.037 146.784C77.037 146.829 75.1061 151.042 78.7965 156.501C81.213 160.076 83.7381 161.152 86.1832 162.194C87.5427 162.702 88.8251 163.396 89.9936 164.255C93.2785 166.862 95.2037 171.257 95.2208 171.297L94.9637 171.411Z" fill="#D08B69"/>
<path d="M90.8163 184.254C90.7648 184.14 85.6119 172.834 76.3515 172.475C67.091 172.116 62.4979 184.111 62.4522 184.254L62.1952 184.157C62.2409 184.037 66.9196 171.849 76.3629 172.202C85.8061 172.555 91.0162 184.026 91.0676 184.157L90.8163 184.254Z" fill="#D08B69"/>
<path d="M105.23 94.0339L107.109 99.2998L111.319 94.0339L108.943 101.577L116.632 98.5711L110.405 105.226H118.643L110.405 109.513L113.61 112.889L109.766 112.342L113.245 120.733L108.297 116.902L109.309 123.745L99.951 109.513L105.464 104.224L105.23 94.0339Z" fill="#D06A53"/>
<path d="M96.2263 104.588H88.6625V93.0775H73.9121V104.588H66.3484V77.7354H73.9121V88.6143H88.6625V77.7354H96.2263V104.588Z" fill="#2E332E"/>
<path d="M90.6963 128.464C90.7488 130.919 90.0839 133.336 88.7825 135.421C87.4475 137.46 85.5404 139.064 83.2982 140.032C78.0701 142.184 72.1992 142.184 66.9711 140.032C64.716 139.071 62.789 137.479 61.4239 135.449C60.1021 133.416 59.4088 131.04 59.4302 128.618V127.268C59.3594 124.808 60.0352 122.383 61.3694 120.311C62.7035 118.239 64.6339 116.616 66.9082 115.655C72.1332 113.507 77.999 113.507 83.224 115.655C85.494 116.617 87.4208 118.237 88.7536 120.306C90.0863 122.374 90.7633 124.794 90.6963 127.251V128.464ZM83.0354 127.246C83.0354 124.433 82.3461 122.295 80.9674 120.83C79.5887 119.365 77.6216 118.632 75.0661 118.632C72.5296 118.632 70.5701 119.355 69.1876 120.801C67.8052 122.247 67.1082 124.365 67.0968 127.155V128.464C67.0968 131.208 67.7861 133.335 69.1648 134.846C70.5435 136.356 72.5277 137.115 75.1175 137.123C77.654 137.123 79.604 136.394 80.9674 134.937C82.3309 133.479 83.0202 131.354 83.0354 128.561V127.246Z" fill="#2E332E"/>
<path d="M71.6098 170.244V179.699H64.0461V152.852H78.3624C80.8337 152.805 83.295 153.179 85.6405 153.956C87.5063 154.547 89.1752 155.634 90.4678 157.099C91.5785 158.391 92.1867 160.037 92.1816 161.739C92.1816 164.369 90.9496 166.445 88.4854 167.966C86.0213 169.488 82.6127 170.247 78.2595 170.244H71.6098ZM71.6098 165.763H78.3624C80.3657 165.763 81.8891 165.418 82.9326 164.727C83.4318 164.417 83.8399 163.981 84.1157 163.463C84.3916 162.945 84.5254 162.364 84.5036 161.778C84.5179 161.158 84.3809 160.543 84.1043 159.987C83.8276 159.43 83.4197 158.949 82.9155 158.585C81.6279 157.704 80.0881 157.265 78.528 157.332H71.6098V165.763Z" fill="#2E332E"/>
<path d="M9.4661 73.0218C9.4661 73.0218 8.00362 88.7567 9.00907 89.8953C10.0145 91.0339 39.9381 91.1989 39.9381 91.1989L45.4281 98.9753L44.6055 91.1989C44.6055 91.1989 50.6439 92.087 51.6494 91.1989C52.6548 90.3109 54.7628 75.3502 53.8488 74.3482C52.9347 73.3463 11.9854 72.7485 9.4661 73.0218Z" fill="#2E332E"/>
<path d="M6.88391 70.2493C6.88391 70.2493 5.42144 85.9785 6.42689 87.1228C7.43234 88.267 37.3674 88.4207 37.3674 88.4207L42.8574 96.1971L42.0347 88.4207C42.0347 88.4207 48.0731 89.3088 49.0786 88.4207C50.084 87.5327 52.1921 72.5719 51.278 71.57C50.364 70.5681 9.40325 69.9703 6.88391 70.2493Z" fill="#FCECFF"/>
<path d="M10.4373 75.1906C12.0368 78.8055 15.5788 83.7298 20.269 81.7999C21.1819 81.4339 21.9474 80.7766 22.4456 79.931C22.9438 79.0853 23.1467 78.0989 23.0225 77.1261C22.8512 75.6802 21.1488 74.5928 20.0005 75.9534C19.6774 76.4457 19.5548 77.0422 19.6577 77.6214C19.8234 81.2534 24.8678 82.7449 27.6556 81.0371C28.7982 80.3426 30.2949 77.5588 28.6725 76.4373C26.4331 74.8889 25.4962 78.1907 25.6961 79.7961C26.336 84.8854 32.7743 84.7602 35.7906 82.0732C37.0703 80.9346 39.0755 78.4013 38.0758 76.4487C37.2131 74.7693 35.5564 76.238 35.4422 77.5417C35.3901 78.0138 35.4373 78.4915 35.5809 78.9444C35.7245 79.3972 35.9613 79.8153 36.2762 80.1718C37.6016 81.6462 39.8981 81.9821 41.7205 81.3559C43.9656 80.5817 45.3653 78.5095 46.0337 76.3462C46.1194 76.0673 45.948 75.7086 46.0337 75.4354C45.2967 77.8491 43.6229 80.1035 41.0064 80.6272C38.6699 81.094 35.8078 79.9953 35.4479 77.4051V78.3216C35.6592 76.4031 38.0986 75.9591 38.2357 78.2192V77.3197C37.6987 80.1149 34.7795 82.5969 32.0202 83.0125C29.0153 83.4964 26.0218 81.7316 25.6676 78.5949V79.5057C25.7304 78.3672 26.2388 77.2628 27.5014 77.1147C27.7047 77.08 27.913 77.0864 28.1139 77.1337C28.3147 77.1809 28.5039 77.2679 28.6702 77.3896C28.8366 77.5112 28.9766 77.665 29.082 77.8418C29.1874 78.0185 29.2561 78.2146 29.2838 78.4184V77.5246C29.1524 82.5229 19.732 81.5096 19.6406 76.8586V77.7068C20.2119 75.646 22.7083 76.0502 23.0054 78.0598V77.166C22.7769 80.3881 19.4235 81.9024 16.5442 81.0029C13.4193 80.0295 11.6712 77.109 10.4258 74.3025C10.5401 74.553 10.3116 74.9572 10.4258 75.2133L10.4373 75.1906Z" fill="#5546FF"/>
<path d="M76.3686 196.345C80.9571 193.47 86.2534 191.914 91.6732 191.848C97.2937 191.916 102.878 192.755 108.269 194.341L76.3686 196.345Z" fill="#2E332E"/>
<path d="M86.4517 100.985L85.7319 194.341H87.8913L87.6571 100.985H86.4517Z" fill="#3A4741"/>
<path d="M104.013 193.795H106.195L101.756 141.615L100.522 145.406L104.013 193.795Z" fill="#3A4741"/>
<path d="M103.362 172.72H86.8116V174.177H103.362V172.72Z" fill="#3A4741"/>
<path d="M102.339 155.619H86.5888V157.076H102.339V155.619Z" fill="#3A4741"/>
<path d="M101.476 139.223H86.6859V140.681H101.476V139.223Z" fill="#3A4741"/>
<path d="M102.482 125.202H87.6914V126.66H102.482V125.202Z" fill="#3A4741"/>
<path d="M101.299 111.886H86.5088V113.344H101.299V111.886Z" fill="#3A4741"/>
<path d="M112.925 190.191L116.952 184.669L105.47 194.518L122.122 193.795L126.424 187.316L119.146 190.92L126.013 184.185L112.925 190.191Z" fill="#D0B273"/>
<path d="M94.8895 95.6735C94.8895 95.6735 94.1697 92.1496 94.6953 90.5499C95.2208 88.9503 96.769 88.1817 98.1229 89.0926C99.4769 90.0034 99.1455 91.0737 99.1455 91.0737C99.1455 91.0737 100.202 90.8801 100.408 92.2806C100.438 92.5906 100.365 92.9018 100.201 93.167C100.037 93.4321 99.7911 93.6366 99.4997 93.7493L100.025 95.645L94.8895 95.6735Z" fill="#EBB490"/>
<path d="M98.9227 93.0888C98.9227 93.0888 98.46 92.6618 98.5857 92.3032C98.7113 91.9445 99.3855 91.7339 99.3855 91.7339C99.2642 91.8372 99.1668 91.9653 99.0998 92.1096C99.0141 92.3202 99.7854 92.4683 99.7854 92.4683C99.5089 92.3904 99.2163 92.3904 98.9399 92.4683C98.6828 92.5992 98.9227 93.0888 98.9227 93.0888Z" fill="#B07B58"/>
<path d="M96.4091 91.6428C96.0648 91.4212 95.7788 91.1206 95.575 90.7661C95.5147 90.6459 95.4833 90.5134 95.4833 90.379C95.4833 90.2446 95.5147 90.1121 95.575 89.9919C95.8614 90.5964 96.2652 91.1382 96.7633 91.5859C97.4317 92.0812 97.9059 92.5138 97.9059 92.5138C98.0017 92.1094 98.1982 91.7354 98.4771 91.4265C98.6767 91.2658 98.9116 91.1546 99.1627 91.102C99.1627 91.102 99.494 90.0204 98.1401 89.1095C96.9632 88.3239 95.6436 88.8192 94.9752 89.9919C95.0285 90.3872 95.2019 90.7567 95.4722 91.0508C95.7321 91.3204 96.0535 91.5235 96.4091 91.6428Z" fill="#211A14"/>
<path d="M78.7394 89.7187C78.7394 89.7187 82.5841 96.59 84.8407 98.0815C87.0973 99.573 91.1248 102.431 91.1248 102.431L92.6786 109.723L103.956 110.196C103.956 110.196 105.801 100.786 104.527 98.0815C103.253 95.3774 99.0541 95.6051 99.0541 95.6051H94.7981C94.7981 95.6051 89.6566 95.3432 87.0915 93.4191C84.5265 91.4949 82.8812 87.1228 82.8812 87.1228L78.7394 89.7187Z" fill="#D6DBCC"/>
<path d="M95.2151 131.037L90.6449 134.931C90.6449 134.931 81.1159 124.838 82.7841 121.434C84.4522 118.029 92.7015 109.723 92.7015 109.723L103.979 110.196C103.979 110.196 104.116 120.58 103.979 122.646C103.841 124.713 101.276 145.753 101.276 145.753L95.4779 145.36L96.3348 118.513C96.3348 118.513 93.3756 120.397 92.3073 121.126C91.239 121.855 90.4735 122.435 90.4735 122.435L95.2151 131.037Z" fill="#5546FF"/>
<path d="M93.9754 103.768C93.9754 103.768 91.0733 101.85 89.8565 100.985C88.7661 100.286 87.6196 99.679 86.4288 99.1687L91.1019 102.431L93.9754 103.768Z" fill="#AAB1A5"/>
<path d="M90.4507 122.435C89.934 122.683 89.5041 123.08 89.2167 123.574L88.8739 124.308L90.7477 122.965L90.4507 122.435Z" fill="#495856"/>
<path d="M82.904 87.1228C82.5271 86.3821 82.278 85.5834 82.1671 84.7603C82.0985 83.7014 82.7898 82.375 81.5958 82.2612C80.4018 82.1473 80.8874 83.969 80.4533 84.2479C80.0191 84.5269 79.4935 83.9291 79.0365 83.0183C78.5795 82.1074 78.1624 80.3484 77.5454 80.2801C76.9285 80.2117 76.9056 81.3503 76.9056 81.3503C76.7766 81.2696 76.631 81.219 76.4797 81.2023C76.3283 81.1855 76.1751 81.203 76.0315 81.2535C75.6317 81.4528 75.7231 82.3921 75.7231 82.3921C75.7231 82.3921 75.009 82.3921 74.8376 82.7906C74.7662 83.2169 74.7975 83.6539 74.929 84.0658C74.929 84.0658 74.4605 83.7925 74.2263 84.2195C73.9921 84.6464 74.5062 85.9273 75.466 86.8325C76.4257 87.7376 78.7166 89.7358 78.7166 89.7358L82.904 87.1228Z" fill="#EBB490"/>
<path d="M76.9227 86.3372C76.9227 86.3372 75.7802 85.2897 75.4717 84.9538C75.254 84.6776 75.0788 84.3706 74.9518 84.043L76.9227 86.3372Z" fill="#B07B58"/>
<path d="M75.7459 82.3523C75.8284 82.8905 76.0125 83.4082 76.2886 83.878C76.8007 84.6264 77.3905 85.3191 78.0482 85.9445L75.7459 82.3523Z" fill="#B07B58"/>
<path d="M76.9285 81.3503C76.9368 81.9224 77.0371 82.4893 77.2255 83.0297C77.5097 83.5523 77.8549 84.0395 78.2538 84.4814L76.9285 81.3503Z" fill="#B07B58"/>
<path d="M82.8983 87.1228L77.6483 88.7737L78.7337 89.7187L82.8983 87.1228Z" fill="#B07B58"/>
<path d="M89.5137 155.619L101.322 155.414L100.751 149.237C100.262 148.886 99.6792 148.688 99.0769 148.668C98.1262 148.65 97.1794 148.794 96.2777 149.095L94.4096 151.287C93.4401 152.232 92.3205 153.011 91.0962 153.592C90.3364 153.911 89.0339 154.651 89.5137 155.619Z" fill="#D06A53"/>
<path d="M96.2663 151.696C96.3862 151.378 95.1751 150.359 95.1751 150.359L94.3868 151.287C93.8792 151.826 93.303 152.297 92.6729 152.687C92.9424 152.925 93.2492 153.117 93.5812 153.256C93.9183 153.37 96.1406 152.015 96.2663 151.696Z" fill="#5E3A28"/>
<path d="M101.002 145.736L100.728 149.237C100.177 149.174 99.6208 149.294 99.1455 149.579C98.5742 150.034 98.5742 150.899 98.3 150.945C98.0258 150.99 97.0204 150.945 96.8604 150.945C96.7004 150.945 96.8147 150.216 96.609 150.148C96.4981 150.113 96.391 150.067 96.2891 150.011L96.1234 145.406L101.002 145.736Z" fill="#EBB490"/>
<path d="M94.5296 154.406C94.5374 154.27 94.5139 154.134 94.461 154.008C94.3569 153.834 94.2302 153.675 94.084 153.535L94.8895 153.148C95.0405 153.325 95.1744 153.516 95.2894 153.717C95.3637 153.894 95.5122 154.651 95.5122 154.651L94.5296 154.406Z" fill="#5E3A28"/>
<path d="M95.2151 153.006C95.4298 153.195 95.588 153.439 95.6721 153.712C95.8835 154.281 95.8549 154.281 95.8549 154.281L96.9061 154.173C96.789 153.818 96.6517 153.47 96.4948 153.131C96.3297 152.857 96.1169 152.614 95.8664 152.414L95.2151 153.006Z" fill="#5E3A28"/>
<path d="M97.2889 154.116C97.2057 153.732 97.0772 153.359 96.9061 153.006C96.6852 152.702 96.426 152.429 96.1349 152.192L97.0489 151.548C97.4468 151.985 97.7831 152.473 98.0486 153C98.2028 153.469 98.3325 153.946 98.4371 154.429L97.2889 154.116Z" fill="#5E3A28"/>
<path d="M101.002 145.736L96.1406 146.021L96.1177 145.406L101.002 145.736Z" fill="#B07B58"/>
<path d="M100.14 153.148H99.1627C98.9513 153.148 98.7799 153.319 98.7799 153.53V153.535C98.7799 153.746 98.9513 153.917 99.1627 153.917H100.14C100.351 153.917 100.522 153.746 100.522 153.535V153.53C100.522 153.319 100.351 153.148 100.14 153.148Z" fill="#5E3A28"/>
<path d="M92.8843 133.018C91.6903 131.51 85.7433 123.944 86.2003 123.153C86.6573 122.361 94.6724 110.913 95.0152 110.424L95.1637 110.526C95.0837 110.646 86.8002 122.481 86.3603 123.244C86.0518 123.773 90.2907 129.449 93.0271 132.922L92.8843 133.018Z" fill="#3A4741"/>
<path d="M98.4226 116.912L98.24 116.92L99.479 145.659L99.6616 145.651L98.4226 116.912Z" fill="#3A4741"/>
<path d="M101.831 112.37C101.831 112.37 98.1743 116.384 97.6202 116.925C97.0661 117.465 94.5067 119.691 94.5067 119.691L96.312 118.553L96.2434 120.71L101.831 112.37Z" fill="#495856"/>
<path d="M103.95 110.196L91.5932 110.833L92.6786 109.729L103.95 110.196Z" fill="#495856"/>
<path d="M96.432 133.303C96.432 133.303 97.5745 132.164 98.1458 132.25C98.7171 132.335 97.7802 133.958 98.1458 134.459C98.5114 134.959 102.288 138.882 102.219 139.269C102.15 139.656 91.4218 147.546 91.4218 147.546C91.2001 147.659 90.9458 147.692 90.7027 147.637C90.4597 147.583 90.2432 147.446 90.0908 147.25C89.6109 146.544 92.1988 142.576 92.2902 141.256C92.3816 139.935 92.473 136.912 92.473 136.912L96.432 133.303Z" fill="#D06A53"/>
<path d="M92.8157 142.924C93.0328 142.85 94.5696 140.203 94.1925 139.536C93.8155 138.87 92.3987 138.899 92.3987 138.899C92.3644 139.741 92.3244 140.664 92.2844 141.256C92.1762 141.836 91.9837 142.398 91.7132 142.924C92.0796 142.964 92.4493 142.964 92.8157 142.924Z" fill="#5E3A28"/>
<path d="M94.6838 143.448C94.6838 143.448 94.2154 143.191 93.9983 143.1C93.8501 143.041 93.6972 142.993 93.5413 142.958L93.9754 142.076C94.2419 142.137 94.4992 142.233 94.7409 142.36C95.0152 142.531 95.6379 143.032 95.6379 143.032L94.6838 143.448Z" fill="#5E3A28"/>
<path d="M94.0554 141.62C94.4192 141.753 94.7758 141.905 95.1237 142.076L95.695 142.406L96.9175 141.916C96.51 141.632 96.078 141.384 95.6264 141.176C95.1808 141.017 94.3639 140.823 94.3639 140.823L94.0554 141.62Z" fill="#5E3A28"/>
<path d="M96.7119 141.267C96.4392 141.031 96.1307 140.838 95.7978 140.698C95.4192 140.516 95.0067 140.415 94.5867 140.402L94.6724 139.178C95.3262 139.36 95.9568 139.616 96.5519 139.941C96.8125 140.142 97.0896 140.321 97.3802 140.476L96.7119 141.267Z" fill="#5E3A28"/>
<path d="M91.4161 147.569C91.4161 147.569 102.145 139.679 102.208 139.281C102.242 139.087 101.345 138.034 100.374 136.952C99.0998 138.478 96.072 142.076 95.3922 142.742C94.5182 143.613 92.5358 145.639 92.2102 145.588C91.8846 145.537 92.1645 145.224 91.7532 144.905C91.3418 144.586 90.7363 144.945 90.7363 144.945C90.245 145.998 89.8736 146.926 90.0793 147.222C90.2248 147.428 90.439 147.576 90.6838 147.64C90.9286 147.704 91.1881 147.678 91.4161 147.569Z" fill="#FCECFF"/>
<path d="M98.9339 138.04L98.3023 138.782C98.1657 138.943 98.1856 139.184 98.3469 139.32L98.3512 139.324C98.5125 139.46 98.754 139.44 98.8907 139.279L99.5223 138.537C99.659 138.376 99.639 138.135 99.4777 137.999L99.4734 137.995C99.3121 137.859 99.0706 137.879 98.9339 138.04Z" fill="#5E3A28"/>
<path d="M99.4997 93.7778C99.3825 93.8385 99.2543 93.8753 99.1227 93.886H98.9227C98.9227 93.886 99.7568 94.6887 99.7511 94.6716L99.4997 93.7778Z" fill="#B07B58"/>
<path d="M101.322 155.391L101.116 153.256C99.805 153.633 98.4688 153.919 97.1175 154.11C95.4036 154.27 91.6046 154.748 91.5589 154.543C91.5132 154.338 91.7417 154.139 91.6732 153.809C91.6046 153.478 91.4504 153.393 91.4504 153.393C91.319 153.461 91.199 153.524 91.1019 153.564C90.365 153.883 89.0624 154.634 89.5423 155.596L101.322 155.391Z" fill="#FCECFF"/>
<path d="M90.8848 134.726L93.0157 137.675C93.4131 137.42 93.8958 137.332 94.3582 137.43C95.0895 137.613 94.9295 137.766 95.3637 138C95.7978 138.233 96.5576 137.362 96.649 137.026C96.7404 136.69 96.4034 136.178 96.3406 135.888C96.2777 135.597 96.8604 135.523 96.9118 135.25C96.9632 134.977 96.5748 134.954 96.5119 134.738C96.4491 134.521 96.9175 134.066 96.9175 134.066L95.0209 131.219L90.8848 134.726Z" fill="#EBB490"/>
<path d="M90.8791 134.72L95.6664 132.153L95.0323 131.191L90.8791 134.72Z" fill="#B07B58"/>
<path d="M49.7527 61.4482L53.7917 23.9382L91.0619 28.8568L87.28 65.0005L49.7527 61.4482Z" fill="#5546FF"/>
<path d="M60.2128 20.5852L53.7917 23.9383L91.0619 28.8569L94.7238 24.9858L60.2128 20.5852Z" fill="#495856"/>
<path d="M87.28 65.0006L91.6389 60.805L94.7238 24.9858L91.0619 28.857L87.28 65.0006Z" fill="#3A4741"/>
<path d="M50.0612 59.3134L49.9355 59.0686C50.084 58.9946 64.6917 51.4687 65.0516 40.3734C65.4115 29.2781 53.6488 26.5057 53.506 26.4772L53.5688 26.2153C53.6888 26.2153 65.6914 29.0617 65.3258 40.3791C64.9602 51.6964 50.2212 59.2394 50.0612 59.3134Z" fill="#D08B69"/>
<path d="M89.1881 39.9408C87.6971 39.9408 84.1609 39.5992 80.2133 36.8382C75.009 33.2005 74.1292 26.7221 74.1235 26.6538L74.3977 26.6196C74.3977 26.6879 75.266 33.0468 80.3733 36.6162C85.4805 40.1856 89.8565 39.6562 89.9022 39.6562L89.9422 39.9237C89.6916 39.9484 89.4395 39.9541 89.1881 39.9408Z" fill="#D08B69"/>
<path d="M63.4977 62.8715L63.4006 62.6153C63.4691 62.5869 70.4959 59.8373 71.8326 56.0174C73.1694 52.1975 77.7854 45.4572 81.1674 44.3414C84.4579 43.2541 89.4109 44.3414 89.4566 44.3414L89.3995 44.609C89.3481 44.609 84.4751 43.5444 81.253 44.609C77.9453 45.6963 73.4151 52.3398 72.1126 56.1142C70.7129 60.0479 63.7947 62.7577 63.4977 62.8715Z" fill="#D08B69"/>
<path d="M75.5345 50.8026C75.5866 50.302 75.4931 49.797 75.2652 49.3479C75.0373 48.8987 74.6846 48.5243 74.2492 48.2693C73.2932 47.6204 71.5394 46.8613 68.9877 45.9922C66.9257 45.3455 64.9101 44.56 62.955 43.6411C58.9484 41.6258 57.0746 39.2272 57.3336 36.4454C57.4007 35.7186 57.6149 35.0129 57.9635 34.371C58.3121 33.7291 58.7877 33.1644 59.3616 32.7109C60.8292 31.5638 62.5613 30.8005 64.4003 30.4907C66.7404 30.035 69.1357 29.9295 71.507 30.1776C73.8787 30.3524 76.2049 30.918 78.3909 31.8513C80.1533 32.5662 81.7002 33.7233 82.8812 35.21C83.8624 36.4752 84.3258 38.064 84.178 39.6561L76.6485 38.9673C76.7158 38.4 76.6319 37.825 76.4053 37.3003C76.1786 36.7756 75.8172 36.3197 75.3574 35.9785C74.3634 35.2043 72.9124 34.7261 71.0043 34.5553C69.5318 34.3406 68.0287 34.4992 66.634 35.0165C65.56 35.4947 64.9773 36.1949 64.9202 37.1285C64.863 38.0621 65.3715 38.7794 66.514 39.4739C68.14 40.3797 69.8652 41.096 71.6555 41.6087C75.8449 42.9447 78.8594 44.4001 80.6989 45.9751C82.5384 47.5501 83.3592 49.3775 83.1611 51.4573C82.9478 53.7686 81.5844 55.4764 79.0708 56.5809C76.5571 57.6853 73.2742 58.0496 69.2219 57.6739C66.6139 57.4676 64.0553 56.8508 61.641 55.8465C59.6976 55.0963 57.9775 53.866 56.6423 52.2714C55.5731 50.9395 55.0687 49.2438 55.237 47.5464L62.795 48.2352C62.5284 51.1879 64.8135 52.8843 69.6504 53.3246C71.0862 53.5253 72.5494 53.3809 73.9178 52.9033C74.3603 52.7432 74.7476 52.4604 75.034 52.0882C75.3205 51.716 75.4941 51.27 75.5345 50.8026Z" fill="#2E332E"/>
<path d="M55.5283 13.0537L56.888 16.4466L53.5346 17.4201L53.7917 13.7198L55.5283 13.0537Z" fill="#906B53"/>
<path d="M53.4146 7.5941C53.4146 7.5941 57.3279 5.24297 58.9846 5.68131C60.6413 6.11966 60.6641 7.06467 60.6641 7.06467C60.6928 6.87231 60.6817 6.67616 60.6316 6.48821C60.5815 6.30027 60.4934 6.12449 60.3728 5.97165C60.0031 5.69948 59.6023 5.47207 59.1788 5.2942C59.1788 5.2942 60.4699 5.2202 60.8927 6.11966C61.0747 6.53335 61.1687 6.98015 61.1687 7.43185C61.1687 7.88356 61.0747 8.33036 60.8927 8.74405C60.6013 9.37026 58.5561 11.4368 57.4307 12.1597C56.2652 12.7801 55.0522 13.3074 53.8031 13.7366L53.4146 7.5941Z" fill="#EBB490"/>
<path d="M36.0477 9.07442L29.8893 5.96045L32.5744 9.39322L24.3994 8.49944L31.7517 11.6134L25.4334 15.1714L32.3916 13.919L27.8784 18.5757L34.5567 15.1714L34.1625 17.6649L36.9047 15.1999L38.51 12.2681L36.0477 9.07442Z" fill="#D0B273"/>
<path d="M36.9047 15.177C36.9047 15.177 47.7076 2.79515 51.8722 5.49924C56.0368 8.20333 53.7974 15.177 53.7974 15.177L46.9763 14.7671L47.3648 21.3594L44.7083 22.7257L36.9047 15.177Z" fill="#BB9F84"/>
<path d="M49.7527 5.17484L46.9477 3.64917C45.3548 3.8432 43.7879 4.20971 42.2747 4.74219C41.0199 5.33858 39.8421 6.08406 38.767 6.96239C38.6321 7.77855 38.6321 8.61121 38.767 9.42738C39.0587 10.3093 39.5119 11.1296 40.1038 11.8468L49.7527 5.17484Z" fill="#5546FF"/>
<path d="M35.5564 9.18241L38.6585 8.49927L39.5896 11.1464L37.4131 13.2243C36.692 12.7497 36.1025 12.1016 35.6992 11.34C35.5108 11.0154 35.3999 10.652 35.3752 10.2778C35.3504 9.90365 35.4124 9.52883 35.5564 9.18241Z" fill="#FFBFED"/>
<path d="M46.9763 14.7899V9.76318C46.9763 9.76318 46.2222 18.7123 46.405 20.0103C46.4635 20.585 46.5589 21.1555 46.6907 21.7181L47.3648 21.3708L46.9763 14.7899Z" fill="#906B53"/>
<path d="M58.7904 21.2513L56.8709 16.4465L53.5117 17.42C53.1909 18.3464 53.0873 19.3338 53.209 20.3063C53.4832 21.553 55.7397 22.9534 55.7397 22.9534L58.7904 21.2513Z" fill="#B07B58"/>
<path d="M53.7974 15.1772C53.7974 15.1772 53.6603 19.4411 54.003 20.2381C54.3458 21.0351 61.024 26.967 62.3323 27.4452C63.6405 27.9234 66.0627 28.356 66.0627 28.9082C66.0627 29.4604 63.749 29.3409 63.5662 29.4775C63.3834 29.6141 68.2336 32.8078 67.5652 33.3088C66.8968 33.8097 63.3606 31.9823 63.3606 31.9823C63.3606 31.9823 66.5197 34.5384 66.217 35.2443C65.9142 35.9502 62.6236 32.9217 62.6236 32.9217C62.6236 32.9217 64.9544 35.7681 64.6117 36.0869C64.2689 36.4057 61.4068 33.4226 61.4068 33.4226C61.4068 33.4226 62.9435 35.5631 62.4865 35.8591C62.0295 36.1552 59.0588 31.7546 57.2422 30.229C55.4255 28.7033 48.1017 23.9669 47.3819 22.2249C46.6621 20.4829 47.0163 14.79 47.0163 14.79L53.7974 15.1772Z" fill="#EBB490"/>
<path d="M60.9098 8.74421C61.0917 8.33149 61.1856 7.88564 61.1856 7.43487C61.1856 6.9841 61.0917 6.53824 60.9098 6.12552C60.4699 5.22605 59.196 5.30006 59.196 5.30006C59.6207 5.47549 60.0218 5.70306 60.3899 5.97751C60.5106 6.13035 60.5986 6.30613 60.6487 6.49407C60.6988 6.68201 60.7099 6.87817 60.6813 7.07053C60.6813 7.07053 60.6813 6.12552 59.0017 5.68717C57.6592 5.33422 54.8428 6.82574 53.8145 7.39502L55.2656 7.92445C55.2656 7.92445 55.5283 6.66634 56.5509 7.03637C57.5735 7.4064 57.0537 8.60759 57.0537 8.60759C57.3636 8.93886 57.7588 9.17908 58.1962 9.30211C58.9474 9.46181 59.7208 9.48879 60.4813 9.38181C60.6477 9.18599 60.7915 8.97211 60.9098 8.74421Z" fill="#211A14"/>
<path d="M56.2824 7.46338C56.3746 7.52373 56.4526 7.60338 56.5108 7.69677C56.569 7.79017 56.6061 7.89507 56.6195 8.0042C56.6538 8.36284 56.0196 8.70441 56.0196 8.70441C56.0196 8.70441 56.3567 8.42547 56.3224 8.2376C56.2881 8.04974 55.7054 7.9985 55.7054 7.9985C55.7054 7.9985 56.3224 7.9985 56.351 7.85049C56.363 7.71768 56.3393 7.58407 56.2824 7.46338Z" fill="#B07B58"/>
<path d="M55.2484 7.90156L55.317 9.1369L54.7057 7.70801L55.2484 7.90156Z" fill="#B07B58"/>
<path d="M40.2638 9.89404C40.3725 9.62815 40.5382 9.38917 40.7493 9.19382C40.9577 9.02208 41.2162 8.92221 41.4863 8.90918C42.272 9.65796 43.1424 10.3132 44.0799 10.8618C44.9618 11.2491 45.8682 11.5781 46.7935 11.8467L46.6849 13.2243C45.2909 12.8527 43.9407 12.3336 42.6574 11.6759C41.7814 11.194 40.976 10.5944 40.2638 9.89404Z" fill="#211A14"/>
<path d="M36.9903 8.86377C37.4941 9.20821 37.9155 9.65917 38.2243 10.1845C38.3849 10.5828 38.4832 11.0032 38.5156 11.4312C38.2929 10.8423 37.968 10.297 37.5559 9.82016C37.2637 9.5047 36.9445 9.21517 36.6019 8.95485L36.9903 8.86377Z" fill="#7C8174"/>
<path d="M37.4131 13.2245C37.5937 12.6035 37.5937 11.9441 37.4131 11.3231C37.116 10.2301 35.5564 9.18262 35.5564 9.18262C35.5564 9.18262 36.9961 9.63804 37.4874 10.5375C37.9787 11.437 37.4131 13.2245 37.4131 13.2245Z" fill="#7C8174"/>
<path d="M13.6879 14.4711L19.4863 11.0554C19.4863 11.0554 25.2848 21.3936 27.6614 21.0292C30.0379 20.6649 36.9047 15.177 36.9047 15.177L44.6855 22.7029C44.6855 22.7029 37.733 40.6808 34.6824 41.8365C31.6317 42.9921 15.4588 42.8099 15.4588 42.8099L15.5788 36.1095C15.5788 36.1095 29.0667 35.9956 29.6151 35.0222C30.1636 34.0487 34.3739 26.1471 34.3739 26.1471C34.3739 26.1471 29.3124 29.7962 23.9423 29.0675C18.5723 28.3388 13.6879 14.4711 13.6879 14.4711Z" fill="#D6DBCC"/>
<path d="M0.262788 7.99265L12.9852 0.0227051C12.9852 0.0227051 15.3731 4.92991 15.9444 5.2601C16.5157 5.59028 17.4069 5.53335 17.7439 5.96031C18.081 6.38727 16.3729 6.89393 16.3729 6.89393L10.9743 10.3096C10.9743 10.3096 7.12956 9.17106 5.29576 9.22799C3.46195 9.28492 0.782654 9.47278 0.291354 9.31907C-0.199946 9.16537 0.262788 7.99265 0.262788 7.99265Z" fill="#3A4741"/>
<path d="M13.6879 14.4711L10.3916 9.48417C10.4561 9.20962 10.5943 8.95773 10.7915 8.75549C11.0657 8.53916 11.2199 8.9035 11.3113 8.32853C11.4027 7.75355 11.0028 7.2355 11.4941 6.89963C11.9854 6.56375 12.591 6.01724 13.208 6.17095C13.825 6.32465 14.4591 6.96225 14.8533 6.92809C15.2474 6.89393 15.6759 6.35881 15.9958 6.50113C16.3157 6.64345 19.2978 11.192 19.2978 11.192L13.6879 14.4711Z" fill="#EBB490"/>
<path d="M4.71306 8.34558C4.59498 8.45747 4.50579 8.59613 4.45307 8.74977C4.40035 8.9034 4.38567 9.06746 4.41028 9.22796L5.26149 9.19381C6.59856 9.25084 7.92481 9.45902 9.21474 9.81433C9.21474 9.81433 9.48896 7.83892 9.21474 7.65675C8.94053 7.47458 5.0901 8.0894 4.71306 8.34558Z" fill="#AAB1A5"/>
<path d="M13.6879 14.4711L18.5095 10.0022L19.2978 11.1806L13.6879 14.4711Z" fill="#B07B58"/>
<path d="M4.60452 6.58081C4.60452 6.58081 4.81018 7.32656 4.81018 7.44611V7.63967L5.83278 7.41765C5.86657 7.13972 5.86657 6.85874 5.83278 6.58081C5.72039 6.24019 5.57697 5.91053 5.40432 5.59595L4.60452 6.58081Z" fill="#AAB1A5"/>
<path d="M6.01556 5.76691C6.01556 5.76691 6.26121 6.33619 6.38118 6.70622C6.44648 6.98312 6.42454 7.27335 6.31834 7.53737L7.56944 7.25273C7.66448 6.88112 7.69539 6.49611 7.66085 6.11417C7.47207 5.64158 7.2387 5.18792 6.96389 4.75928L6.01556 5.76691Z" fill="#AAB1A5"/>
<path d="M7.80939 5.02673C8.04915 5.36122 8.2414 5.72713 8.38067 6.11406C8.46678 6.50409 8.46678 6.90812 8.38067 7.29816L9.84886 7.05337C9.94044 6.56826 9.913 6.06828 9.76888 5.59601C9.50917 5.05893 9.18081 4.5576 8.79199 4.10449L7.80939 5.02673Z" fill="#AAB1A5"/>
<path d="M3.03922 35.1019C3.03922 35.1019 9.08334 35.9558 9.47753 35.7452C9.87171 35.5346 10.6715 34.2821 11.0371 34.5269C11.4027 34.7717 11.0371 36.713 11.0371 36.713L11.1971 42.9751C9.97331 44.0201 8.86451 45.1918 7.88937 46.4705C6.82679 48.0531 6.06128 50.6376 5.51286 50.945C5.18232 51.0955 4.81654 51.1523 4.45573 51.1091C4.09492 51.0659 3.75305 50.9244 3.46767 50.7002C3.07349 50.2448 2.49078 35.62 2.49078 35.62L3.03922 35.1019Z" fill="#3A4741"/>
<path d="M15.5731 36.5422L10.1516 36.7586C10.1516 36.7586 10.2088 37.3677 10.026 37.5783C9.84315 37.789 8.16931 38.1476 7.9865 38.5803C7.8596 39.2748 7.8596 39.9864 7.9865 40.6809C8.04362 40.8289 8.26071 40.8005 8.35212 41.1079C8.41348 41.3768 8.44414 41.6518 8.44351 41.9276C8.44351 41.9276 9.51181 41.9561 9.72318 42.1667C9.87361 42.4043 9.95835 42.6773 9.96883 42.958L15.4588 42.81L15.5731 36.5422Z" fill="#EBB490"/>
<path d="M10.0031 44.0511C10.0031 44.0511 8.53493 42.9694 8.16931 42.958C7.80369 42.9467 6.45547 46.2826 6.45547 46.6242C6.45547 46.9658 7.22099 47.6774 7.22099 47.6774L10.0031 44.0511Z" fill="#AAB1A5"/>
<path d="M5.27862 41.2102C5.66131 41.2901 6.02934 41.4284 6.36976 41.6201C6.8066 41.9341 7.21908 42.2804 7.60372 42.6562L6.99816 43.641C6.6215 43.2965 6.21636 42.9842 5.78706 42.7074C5.42654 42.5696 5.05605 42.4592 4.67877 42.3772L5.27862 41.2102Z" fill="#AAB1A5"/>
<path d="M6.66685 43.9884C6.33898 43.6979 5.98738 43.4351 5.6157 43.2028C5.23169 43.0572 4.82655 42.9745 4.41602 42.958L4.91874 44.3414C5.15756 44.3757 5.38914 44.4488 5.60427 44.5577L6.14127 44.8993L6.66685 43.9884Z" fill="#AAB1A5"/>
<path d="M5.99274 45.349C5.78954 45.1655 5.55296 45.0225 5.29578 44.9277C5.00777 44.849 4.71339 44.7957 4.41602 44.7683L4.78734 46.1346C4.9941 46.0612 5.21408 46.0321 5.43289 46.0492C5.55964 46.1085 5.68184 46.177 5.79851 46.2541L5.99274 45.349Z" fill="#AAB1A5"/>
<path d="M56.9051 27.485L58.9674 24.9858L60.2128 26.0049L58.082 28.5325L56.9051 27.485Z" fill="#211A14"/>
<path d="M56.7851 30.5591C57.7285 30.5591 58.4933 29.797 58.4933 28.8569C58.4933 27.9169 57.7285 27.1548 56.7851 27.1548C55.8418 27.1548 55.077 27.9169 55.077 28.8569C55.077 29.797 55.8418 30.5591 56.7851 30.5591Z" fill="#D6DBCC"/>
<path d="M46.9763 14.79L53.7688 16.4466L53.7916 15.1999L46.9763 14.79Z" fill="#B07B58"/>
<path d="M5.31282 6.11409C6.70103 5.2317 12.2938 3.43846 14.3619 2.79517C13.6364 1.4232 12.9394 0 12.9394 0L0.217007 7.96994C0.217007 7.96994 -0.268581 9.10851 0.217007 9.27929C1.16728 9.36318 2.12313 9.36318 3.0734 9.27929C3.17038 9.19143 3.24598 9.08271 3.29448 8.96139C3.34299 8.84006 3.36312 8.70931 3.35333 8.57907C3.29049 8.18627 2.86203 8.15781 2.78205 7.82193C2.70207 7.48605 3.60469 7.20711 5.31282 6.11409Z" fill="#FCECFF"/>
<path d="M3.03921 35.1018L2.46793 35.5914C2.46793 35.5914 3.0392 50.2162 3.44481 50.6717C3.73018 50.8959 4.07207 51.0373 4.43288 51.0805C4.79368 51.1237 5.15945 51.0669 5.48999 50.9164C5.79848 50.74 6.18124 49.8405 6.63255 48.7987C6.63255 48.7987 5.59854 47.5065 5.4043 47.5975C5.21007 47.6886 4.71305 46.7493 4.74732 45.7758C4.74732 44.9902 5.61567 38.0905 5.93559 35.4832C4.46169 35.3181 3.03921 35.1018 3.03921 35.1018Z" fill="#FCECFF"/>
<path d="M15.5788 39.8441V39.6619C15.7045 39.6619 28.364 38.5234 29.4894 37.6638C30.6149 36.8041 34.4139 26.9783 34.4539 26.8474L34.6252 26.9157C34.4653 27.3199 30.7634 36.8611 29.598 37.7776C28.4326 38.6942 16.1044 39.7986 15.5788 39.8441Z" fill="#5546FF"/>
<path d="M25.8276 25.5493C23.4053 25.5493 16.6871 13.3951 16.4129 12.8657L16.5728 12.7803C19.0293 17.2548 24.1423 25.646 25.9018 25.3614C28.1469 25.0027 39.3669 18.1031 39.4925 18.0234L39.5897 18.1828C39.1212 18.4674 28.2098 25.1678 25.9304 25.5322L25.8276 25.5493Z" fill="#5546FF"/>
<path d="M39.5382 24.3425C38.5143 24.4807 37.498 24.6708 36.4933 24.9118C35.7649 25.2829 35.0574 25.6934 34.3739 26.1415L33.2313 28.3047C34.4676 27.3243 35.7527 26.4066 37.0817 25.5551C38.0301 25.0541 39.5382 24.3425 39.5382 24.3425Z" fill="#AAB1A5"/>
<path d="M37.5559 20.4656C37.0934 20.4544 36.6375 20.3539 36.2134 20.1696L36.2877 20.0045C36.6896 20.1746 37.1195 20.2692 37.5559 20.2835C38.0929 20.2835 39.7268 19.1449 40.3095 18.7065L40.418 18.8489C40.3323 18.9172 38.2643 20.4656 37.5559 20.4656Z" fill="#5546FF"/>
<path d="M36.9046 15.1997L44.2056 23.9382L44.6855 22.7256L36.9046 15.1997Z" fill="#AAB1A5"/>
<path d="M12.2155 2.94264L11.2343 3.44367C10.9872 3.56984 10.8895 3.87173 11.0161 4.11797L11.0187 4.12303C11.1453 4.36927 11.4483 4.4666 11.6954 4.34043L12.6766 3.83941C12.9237 3.71324 13.0214 3.41135 12.8948 3.16511L12.8922 3.16005C12.7656 2.91381 12.4626 2.81648 12.2155 2.94264Z" fill="#AAB1A5"/>
<path d="M5.1451 37.6032L4.95118 38.6848C4.90235 38.9572 5.08433 39.2174 5.35765 39.2661L5.36327 39.2671C5.63659 39.3158 5.89775 39.1344 5.94658 38.862L6.1405 37.7805C6.18934 37.5081 6.00736 37.2478 5.73404 37.1992L5.72841 37.1982C5.45509 37.1495 5.19394 37.3309 5.1451 37.6032Z" fill="#AAB1A5"/>
<path d="M15.4588 42.8099L14.0706 36.6048L15.5731 36.5479L15.4588 42.8099Z" fill="#B07B58"/>
<path d="M117.409 126.113L122.305 122.464C122.305 122.464 127.201 129.443 128.258 129.99C129.315 130.536 146.716 135.051 146.716 135.051L147.91 147.154L135.525 148.651C135.525 148.651 133.908 143.567 132.994 142.104C132.08 140.641 131.851 140.465 131.708 139.645C131.634 139.079 131.604 138.508 131.617 137.937C131.617 137.937 125.579 135.956 124.19 134.908C122.802 133.861 117.409 126.113 117.409 126.113Z" fill="#D08B69"/>
<path d="M133.959 138.609L131.64 137.943L131.674 139.081C132.053 139.137 132.438 139.137 132.817 139.081C133.217 138.975 133.601 138.816 133.959 138.609Z" fill="#D06A53"/>
<path d="M121.991 122.697C121.991 122.697 120.591 119.731 119.877 119.179C119.163 118.627 118.826 119.065 118.163 118.724C117.501 118.382 114.57 115.006 114.044 115.604C113.519 116.202 115.855 119.475 115.855 119.475C115.582 119.632 115.378 119.886 115.284 120.187C115.245 120.371 115.249 120.561 115.297 120.743C115.344 120.925 115.434 121.093 115.558 121.234C115.418 121.345 115.305 121.487 115.229 121.649C115.154 121.812 115.118 121.989 115.124 122.168C115.105 122.456 115.177 122.742 115.33 122.988C115.229 123.227 115.167 123.48 115.147 123.739C115.147 124.063 117.369 126.113 117.369 126.113L121.991 122.697Z" fill="#EBB490"/>
<path d="M116.815 120.494L115.878 119.464C115.908 119.685 115.978 119.899 116.084 120.096C116.232 120.352 116.815 120.494 116.815 120.494Z" fill="#B07B58"/>
<path d="M115.598 121.234L117.027 122.862C117.027 122.862 116.141 122.082 115.884 121.826C115.72 121.67 115.619 121.459 115.598 121.234Z" fill="#B07B58"/>
<path d="M116.027 123.477L115.37 122.988C115.418 123.162 115.495 123.328 115.598 123.477C115.701 123.557 116.027 123.477 116.027 123.477Z" fill="#B07B58"/>
<path d="M136.124 148.582L136.696 188.5H142.917V165.61L145.299 188.95H151.246C151.246 188.95 149.904 157.85 149.292 154.793C148.681 151.736 147.91 147.154 147.91 147.154L136.124 148.582Z" fill="#AAB1A5"/>
<path d="M137.775 143.14L153 138.142C152.505 137.299 151.801 136.597 150.955 136.104C149.521 135.256 149.184 133.491 148.755 132.153C148.327 130.815 146.773 129.631 145.248 128.959C143.799 128.383 142.599 127.317 141.86 125.948C140.98 124.428 139.941 123.762 138.324 124.098C137.27 124.381 136.358 125.039 135.759 125.948C135.759 125.948 135.519 128.475 136.279 129.659C137.038 130.844 138.849 132.973 138.849 132.973C138.849 132.973 136.433 137.806 136.679 139.753C136.827 140.941 137.199 142.09 137.775 143.14Z" fill="#211A14"/>
<path d="M136.01 132.221C136.01 132.221 134.793 129.642 135.016 127.866C135.062 127.17 135.322 126.504 135.759 125.959C135.759 125.959 135.587 127.445 136.29 127.513C137.187 127.604 137.09 128.225 137.09 128.225C137.09 128.225 137.93 126.278 139.038 127.656C140.215 129.107 137.627 129.551 137.627 129.551C138.033 129.956 138.32 130.464 138.455 131.02C138.64 131.669 138.771 132.331 138.849 133.001L136.01 132.221Z" fill="#EBB490"/>
<path d="M137.244 191.654C136.886 191.924 136.597 192.274 136.398 192.675C136.2 193.076 136.098 193.518 136.102 193.966V198.013L142.906 197.888C142.906 197.888 143.123 194.028 142.906 192.964C142.864 192.496 142.707 192.047 142.448 191.654H137.244Z" fill="#D0B273"/>
<path d="M144.756 199.693C144.756 199.693 132.234 200.387 131.617 199.693C131 198.998 144.876 197.774 144.876 197.774L144.756 199.693Z" fill="#2E332E"/>
<path d="M144.854 197.774H152.28C152.189 196.468 152.027 195.168 151.795 193.88C151.626 193.221 151.345 192.596 150.966 192.03L145.659 191.876C145.659 191.876 145.048 192.303 144.836 193.749C144.725 195.089 144.731 196.435 144.854 197.774Z" fill="#D0B273"/>
<path d="M137.136 188.5L137.284 192.787C137.284 192.787 137.684 192.878 137.804 193.123C137.924 193.368 137.867 193.578 138.204 193.578C138.541 193.578 138.415 192.787 139.266 192.605C140.118 192.423 140.98 192.423 141.255 192.668C141.529 192.912 141.649 193.425 141.951 193.578C142.254 193.732 142.471 193.243 142.471 193.243V188.5H137.136Z" fill="#EBB490"/>
<path d="M145.676 188.956H150.983V193.459C150.933 193.421 150.876 193.395 150.814 193.382C150.753 193.369 150.69 193.37 150.629 193.384C150.568 193.398 150.511 193.425 150.461 193.464C150.412 193.502 150.372 193.551 150.344 193.607C150.098 194.034 149.858 193.214 149.43 192.787C149.001 192.36 147.659 192.576 147.293 192.724C146.927 192.872 146.773 193.601 146.59 193.726C146.407 193.852 145.676 193.368 145.676 193.368V188.956Z" fill="#EBB490"/>
<path d="M136.119 198.019V199.693L143.025 199.567L142.928 197.899L136.119 198.019Z" fill="#FCECFF"/>
<path d="M144.854 197.774L144.756 199.693L152.297 199.539V197.774H144.854Z" fill="#FCECFF"/>
<path d="M139.306 197.962L139.432 192.576L140.175 192.485L140.289 197.945L139.306 197.962Z" fill="#906B53"/>
<path d="M148.013 192.571L147.887 197.774H148.927L148.607 192.571H148.013Z" fill="#906B53"/>
<path d="M136.656 187.066L142.9 186.793V188.501H136.673L136.656 187.066Z" fill="#D0B273"/>
<path d="M145.065 186.878H151.138L151.229 188.956H145.276L145.065 186.878Z" fill="#D0B273"/>
<path d="M137.13 188.5L142.471 189.986V188.5H137.13Z" fill="#B07B58"/>
<path d="M145.676 188.956H150.983V190.578L145.676 188.956Z" fill="#B07B58"/>
<path d="M137.833 128.794C137.833 128.794 137.33 128.401 137.575 128.105C137.821 127.809 138.37 127.969 138.37 127.969C138.37 127.969 137.993 128.065 137.953 128.225C137.913 128.384 138.278 128.595 138.278 128.595C138.278 128.595 137.89 128.447 137.821 128.498C137.753 128.549 137.833 128.794 137.833 128.794Z" fill="#B07B58"/>
<path d="M117.409 126.113L121.751 122.208L121.991 122.697L117.409 126.113Z" fill="#B07B58"/>
<path d="M133.497 136.61C134.336 136.61 135.016 135.932 135.016 135.096C135.016 134.26 134.336 133.582 133.497 133.582C132.657 133.582 131.977 134.26 131.977 135.096C131.977 135.932 132.657 136.61 133.497 136.61Z" fill="#D06A53"/>
<path d="M139.676 148.632L139.493 148.633L139.725 187.628L139.908 187.627L139.676 148.632Z" fill="#D0B273"/>
<path d="M148.316 187.669L142.934 164.796L143.111 164.75L148.493 187.624L148.316 187.669Z" fill="#D0B273"/>
<path d="M145.328 152.289C145.328 152.289 142.991 156.894 142.991 159.723C142.991 162.553 142.9 165.61 142.9 165.61L143.82 174.644C143.82 174.644 143.248 160.452 143.448 158.813C143.648 157.173 145.328 152.289 145.328 152.289Z" fill="#5546FF"/>
<path d="M139.604 153.808L139.541 153.638C139.837 153.511 140.104 153.323 140.322 153.087C140.541 152.85 140.707 152.571 140.809 152.266C141.135 151.224 141.02 148.565 141.015 148.542H141.197C141.197 148.656 141.317 151.258 140.98 152.328C140.871 152.659 140.691 152.962 140.454 153.218C140.216 153.473 139.926 153.675 139.604 153.808Z" fill="#D0B273"/>
<path d="M147.933 147.154L136.142 149.92L136.119 148.582L147.933 147.154Z" fill="#5546FF"/>
<path d="M140.957 142.127C140.877 142.001 139.061 138.916 139.769 137.128C140.843 134.436 141.294 132.426 141.106 131.157C140.877 129.563 139.067 129.01 139.049 129.005L139.101 128.834C139.101 128.834 141.043 129.403 141.289 131.111C141.477 132.409 141.026 134.453 139.941 137.174C139.266 138.882 141.083 141.984 141.112 142.013L140.957 142.127Z" fill="white"/>
<path d="M148.795 139.571C148.675 139.451 145.75 136.576 145.471 135.301C145.408 135.011 145.373 134.658 145.333 134.293C145.196 133.064 145.031 131.538 143.774 130.787C143.08 130.364 142.514 129.762 142.134 129.045C141.57 128.118 140.876 127.276 140.072 126.546C139.802 126.265 139.474 126.044 139.112 125.899C138.749 125.754 138.36 125.687 137.97 125.703C137.142 125.82 136.387 126.238 135.85 126.876L135.707 126.762C136.274 126.08 137.078 125.637 137.958 125.521C138.373 125.503 138.787 125.573 139.172 125.727C139.557 125.881 139.905 126.116 140.192 126.415C141.01 127.154 141.716 128.007 142.289 128.948C142.65 129.651 143.197 130.241 143.871 130.656C145.202 131.453 145.373 133.035 145.511 134.299C145.541 134.632 145.588 134.962 145.653 135.29C145.916 136.514 148.898 139.44 148.927 139.474L148.795 139.571Z" fill="white"/>
<path d="M34.1625 144.273C34.1625 144.273 31.8088 143.203 30.5749 142.696C29.8153 142.387 29.0213 142.169 28.2098 142.047C28.2098 142.047 28.1184 139.36 30.3178 138.751C32.5172 138.142 33.3227 137.499 33.5112 136.229C33.6998 134.96 33.6312 134.317 34.7395 133.753C35.8478 133.189 37.3902 133.184 37.8415 132.529C38.2928 131.874 38.5042 130.924 39.721 130.821C40.4726 130.756 41.2298 130.829 41.9547 131.037C41.7627 130.796 41.5234 130.595 41.2514 130.449C40.9794 130.302 40.6803 130.212 40.3723 130.184C39.4011 130.184 38.0529 131.106 38.0529 131.106C38.0529 131.106 39.4011 129.005 40.9093 129.643C41.3137 129.784 41.6776 130.021 41.9701 130.334C42.2626 130.646 42.4749 131.024 42.5889 131.436C43.0096 131.811 43.2913 132.316 43.3886 132.871C43.5315 133.77 43.4172 134.578 43.6971 135.182C43.9348 135.627 44.2457 136.029 44.6169 136.372C44.6169 136.372 38.4014 137.51 37.2645 138.529C36.1277 139.548 34.1625 144.273 34.1625 144.273Z" fill="#211A14"/>
<path d="M32.9285 149.829C32.9285 149.602 34.391 139.013 36.5847 137.835C38.7784 136.656 47.3419 136.127 48.0103 136.053C48.6787 135.979 58.7218 132.683 58.7218 132.683L59.9558 137.379L47.8732 141.894C47.8732 141.894 48.1931 143.169 47.0048 144.951C45.8166 146.732 45.0339 147.455 44.7197 148.321C44.4546 149.309 44.2637 150.316 44.1485 151.332L32.9285 149.829Z" fill="#D0B273"/>
<path d="M44.7083 143.146C45.1277 142.771 45.6089 142.47 46.1308 142.258C46.7021 142.099 47.8446 141.894 47.8446 141.894L47.8789 142.52L44.7083 143.146Z" fill="#906B53"/>
<path d="M18.1438 179.381C18.1438 179.381 27.9356 169.134 28.6725 166.857C29.4095 164.579 33.9168 149.955 33.9168 149.955L38.2814 163.19C38.2814 163.19 35.425 170.375 32.9285 173.107C30.432 175.84 23.451 184.208 23.451 184.208L18.1438 179.381Z" fill="#D0B697"/>
<path d="M40.995 197.438C40.995 197.438 56.768 196.681 57.3507 195.799C57.9334 194.917 57.4421 194.034 55.5798 193.277C53.7174 192.52 48.9815 188.723 48.9815 188.723L41.2349 188.358C41.2349 188.358 39.224 187.937 38.6756 188.358C38.1272 188.78 39.5611 188.848 40.2352 190.066C40.9093 191.284 40.2352 195.657 40.2923 196.266C40.3897 196.723 40.6369 197.136 40.995 197.438Z" fill="#D08B69"/>
<path d="M32.9742 153.029C33.0199 153.08 35.3222 154.207 35.3222 154.207L33.9169 149.96L32.9742 153.029Z" fill="#906B53"/>
<path d="M33.9169 149.96C33.9169 149.96 34.0711 157.401 36.9047 161.346C38.4981 163.567 40.2146 165.697 42.0462 167.727L40.7608 183.781H49.0786C49.0786 183.781 50.821 167.272 49.8156 165.359C48.8101 163.446 43.223 151.235 43.223 151.235L33.9169 149.96Z" fill="#E4C7A7"/>
<path d="M43.1716 151.218L33.9854 151.714L33.9168 149.96L43.1716 151.218Z" fill="#906B53"/>
<path d="M58.7447 132.882C59.4384 132.55 60.0302 132.039 60.4585 131.402C61.0298 130.445 61.4182 129.011 62.0181 129.352C62.6179 129.694 61.9495 131.35 62.2923 131.578C62.6351 131.806 65.977 129.375 66.594 129.967C66.6788 130.036 66.7472 130.123 66.7941 130.221C66.8411 130.32 66.8654 130.427 66.8654 130.536C66.8654 130.645 66.8411 130.753 66.7941 130.851C66.7472 130.95 66.6788 131.037 66.594 131.106C66.7444 131.129 66.8849 131.195 66.9984 131.296C67.112 131.397 67.1937 131.529 67.2339 131.675C67.2587 131.858 67.2406 132.044 67.1812 132.219C67.1217 132.394 67.0224 132.552 66.8911 132.683C67.0089 132.715 67.1157 132.779 67.2001 132.867C67.2846 132.955 67.3436 133.065 67.371 133.184C67.4624 133.593 66.7997 134.322 66.7997 134.322C66.7997 134.322 67.0053 134.778 66.7997 135.028C66.594 135.278 64.2346 135.893 63.3206 136.053C62.158 136.405 61.0252 136.849 59.9329 137.379L58.7447 132.882Z" fill="#EBB490"/>
<path d="M64.1375 132.409C64.1375 132.409 64.9487 132.056 65.3886 131.812C65.8285 131.567 66.6112 131.094 66.6112 131.094C66.3115 131.48 65.9365 131.802 65.5086 132.039C65.0665 132.212 64.6067 132.336 64.1375 132.409Z" fill="#B07B58"/>
<path d="M64.5031 133.884C64.5031 133.884 65.2972 133.485 65.8457 133.229C66.3941 132.973 66.9368 132.66 66.9368 132.66C66.7191 133.045 66.4187 133.377 66.057 133.633C65.5511 133.779 65.0293 133.863 64.5031 133.884Z" fill="#B07B58"/>
<path d="M66.8168 134.322C66.3678 134.515 65.9059 134.677 65.4343 134.806C64.903 134.931 64.3375 135.005 64.3375 135.005C64.7796 135.117 65.2391 135.144 65.6914 135.085C66.0824 134.855 66.4583 134.6 66.8168 134.322Z" fill="#B07B58"/>
<path d="M42.2233 131.789C42.6496 132.24 42.8955 132.832 42.9145 133.451C42.7907 134.526 42.5767 135.589 42.2747 136.628L38.1158 137.396L38.2186 136.707C38.2186 136.707 36.6362 136.36 37.1275 134.869C37.8073 132.802 39.464 134.225 39.464 134.225C39.819 134.214 40.1674 134.126 40.4857 133.969C40.804 133.812 41.0848 133.589 41.3092 133.314C41.6725 132.843 41.9793 132.331 42.2233 131.789Z" fill="#EBB490"/>
<path d="M15.3331 183.599C15.3331 183.599 13.9335 182.392 13.3222 182.392C12.711 182.392 13.3851 185.028 12.9852 185.728C12.5853 186.429 7.49518 190.567 7.43234 191.176C7.3695 191.785 17.1441 196.869 17.1441 196.869L24.4679 196.624C24.4679 196.624 24.9877 196.294 24.4679 195.258C23.948 194.222 21.3658 193.767 20.9945 192.799C20.6232 191.831 19.7548 188.319 19.7548 188.319L15.3331 183.599Z" fill="#D08B69"/>
<path d="M39.7154 135.683C39.7165 135.834 39.6774 135.982 39.6021 136.113C39.5269 136.244 39.4181 136.353 39.2869 136.428C38.9562 136.62 38.5784 136.717 38.1957 136.707L38.1558 136.986C38.6058 137.011 39.0509 136.882 39.4183 136.622C39.6367 136.36 39.7434 136.022 39.7154 135.683Z" fill="#B07B58"/>
<path d="M38.0986 134.726C38.1478 134.674 38.2071 134.633 38.2729 134.604C38.3387 134.576 38.4097 134.562 38.4814 134.562C38.5531 134.562 38.624 134.576 38.6899 134.604C38.7557 134.633 38.815 134.674 38.8641 134.726C39.304 135.085 38.9784 135.984 38.9784 135.984C38.9784 135.984 38.927 135.307 38.8013 135.244C38.6756 135.182 38.0072 135.683 38.0072 135.683C38.0072 135.683 38.7899 135.011 38.6756 134.874C38.5613 134.738 38.0986 134.726 38.0986 134.726Z" fill="#B07B58"/>
<path d="M41.235 183.759V188.774C41.235 188.774 42.6746 188.888 42.9945 189.457C43.3144 190.026 42.7888 190.988 43.9771 191.58C45.1654 192.173 46.2622 192.719 46.5193 191.854C46.6048 191.506 46.7775 191.186 47.0214 190.923C47.2652 190.66 47.5721 190.463 47.9132 190.351C48.4845 190.237 48.3474 189.821 48.4845 189.685C48.6216 189.548 48.9415 189.32 48.9415 189.32L49.0558 183.759H41.235Z" fill="#EBB490"/>
<path d="M50.3925 189.816C50.3925 189.816 49.17 190.516 49.0786 191.085C48.9872 191.654 52.9233 193.317 53.1747 193.203C53.426 193.089 53.8431 192.321 53.8431 192.321C53.8431 192.321 52.1921 191.182 51.735 190.852C51.278 190.522 50.3925 189.816 50.3925 189.816Z" fill="#F2D7B9"/>
<path d="M46.4964 194.985C46.4702 194.516 46.5899 194.051 46.8392 193.653C47.1922 193.15 47.6477 192.727 48.176 192.412L49.2728 193.015C49.2728 193.015 48.176 193.778 48.0674 194.25C47.9836 194.683 47.9226 195.12 47.8846 195.56L46.4964 194.985Z" fill="#F2D7B9"/>
<path d="M48.4273 195.247C48.4649 194.74 48.6792 194.263 49.0329 193.897C49.3289 193.626 49.6525 193.385 49.9984 193.18L50.8667 193.653C50.4616 193.888 50.089 194.175 49.7584 194.507C49.6564 194.914 49.6084 195.333 49.6156 195.753L48.4273 195.247Z" fill="#F2D7B9"/>
<path d="M50.1812 195.423C50.2418 195.079 50.3784 194.752 50.5811 194.467C50.8098 194.243 51.0605 194.043 51.3294 193.869L52.1292 194.387C52.1292 194.387 51.5979 194.734 51.5237 194.956C51.4705 195.23 51.4494 195.509 51.4608 195.787L50.1812 195.423Z" fill="#F2D7B9"/>
<path d="M18.5037 179.699L14.6647 184.413C15.0832 184.816 15.3902 185.32 15.5559 185.876C15.6245 186.514 15.0304 187.242 14.939 187.584C14.8475 187.926 15.9673 189.064 16.3843 189.178C16.8013 189.292 16.9556 188.95 17.4811 189.019C17.9423 189.113 18.3937 189.251 18.8294 189.428L23.451 184.202L18.5037 179.699Z" fill="#EBB490"/>
<path d="M41.2292 185.734L49.0786 183.759H41.2292V185.734Z" fill="#B07B58"/>
<path d="M18.498 179.705L22.0856 185.728L23.531 184.089L18.498 179.705Z" fill="#B07B58"/>
<path d="M20.2347 190.129C20.2347 190.129 18.4866 190.465 18.1438 190.852C17.8011 191.239 20.2004 193.197 20.3432 193.243C20.4861 193.288 20.9431 192.611 20.9431 192.611L20.2347 190.129Z" fill="#F2D7B9"/>
<path d="M14.1734 193.248C14.3569 192.826 14.682 192.48 15.0932 192.269C15.7502 191.968 16.6185 191.7 16.6185 191.7L17.4583 192.679C16.9622 192.82 16.4818 193.011 16.0244 193.248C15.6285 193.626 15.276 194.046 14.9732 194.501L14.1734 193.248Z" fill="#F2D7B9"/>
<path d="M15.5959 194.501C15.8731 194.081 16.2302 193.719 16.6471 193.436C17.0256 193.246 17.4457 193.152 17.8696 193.163L18.4409 193.966C18.0215 194.087 17.6323 194.294 17.2983 194.575C17.1317 194.844 17.0048 195.135 16.9213 195.44L15.5959 194.501Z" fill="#F2D7B9"/>
<path d="M17.6011 195.304C17.677 195.015 17.8584 194.765 18.1095 194.603L19.0293 194.205L19.9376 194.774L19.115 195.639L17.6011 195.304Z" fill="#F2D7B9"/>
<path d="M58.7446 132.882L60.767 136.998L59.9272 137.379L58.7446 132.882Z" fill="#B07B58"/>
<path d="M17.1155 196.915C17.1155 196.915 6.60971 196.499 5.42145 195.645C4.23319 194.791 14.1734 195.355 14.1734 195.355L17.1155 196.915Z" fill="#2E332E"/>
<path d="M40.3723 195.138C40.3723 195.138 35.5678 196.345 34.9566 197.046C34.3453 197.746 41.0007 197.438 41.0007 197.438L40.3723 195.138Z" fill="#2E332E"/>
<path d="M57.3507 195.799C57.922 194.917 57.4421 194.034 55.5798 193.277C55.2872 193.149 55.0029 193.002 54.7286 192.839C54.7286 192.839 54.0545 193.334 54.2087 193.977C54.363 194.62 54.7286 194.74 54.7286 194.74C53.8111 195.096 52.8509 195.332 51.8722 195.44C50.2897 195.685 43.7657 194.592 40.4466 194.011C40.3723 195.082 40.2638 196.004 40.2809 196.26C40.3739 196.723 40.6216 197.14 40.9836 197.444C40.9836 197.444 56.7738 196.681 57.3507 195.799Z" fill="#FCECFF"/>
<path d="M24.4336 196.67C24.4336 196.67 24.9535 196.34 24.4336 195.303C24.0737 194.58 22.7198 194.165 21.7943 193.596C21.7943 193.596 20.6517 193.92 20.5889 194.376C20.5409 194.668 20.5954 194.967 20.7431 195.224C19.3703 195.508 17.9496 195.467 16.5957 195.104C14.819 194.615 11.3627 190.123 10.1116 188.427C8.75199 189.645 7.40948 190.874 7.38092 191.182C7.31808 191.791 17.0927 196.875 17.0927 196.875L24.4336 196.67Z" fill="#FCECFF"/>
<path d="M41.2521 140.983C41.7664 140.983 42.1833 140.567 42.1833 140.055C42.1833 139.542 41.7664 139.127 41.2521 139.127C40.7378 139.127 40.3209 139.542 40.3209 140.055C40.3209 140.567 40.7378 140.983 41.2521 140.983Z" fill="#FCECFF"/>
<path d="M41.5606 139.947L41.5263 139.764L48.9415 138.489L59.3216 135.102L59.3788 135.279L48.9872 138.666L41.5606 139.947Z" fill="#FCECFF"/>
<path d="M45.2453 183.764H45.0625C45.0625 183.605 45.8737 167.955 45.6966 166.885C45.5195 165.815 37.6073 151.042 37.5273 150.894L37.6873 150.809C38.0186 151.418 45.6852 165.764 45.8737 166.857C46.0623 167.95 45.2796 183.115 45.2453 183.764Z" fill="#906B53"/>
<path d="M21.0859 181.977L20.9488 181.857C21.0059 181.789 27.0158 174.747 29.7922 171.923C32.5686 169.1 35.7221 159.524 35.7564 159.427L35.9278 159.484C35.8935 159.581 32.7172 169.208 29.9236 172.048C27.1301 174.889 21.1488 181.886 21.0859 181.977Z" fill="#906B53"/>
<path d="M12.7282 190.538L11.787 189.6C11.5371 189.351 11.132 189.351 10.8821 189.6C10.6322 189.849 10.6322 190.253 10.8821 190.502L11.8233 191.44C12.0732 191.689 12.4783 191.689 12.7282 191.44C12.978 191.191 12.978 190.787 12.7282 190.538Z" fill="#F2D7B9"/>
<path d="M44.7369 193.886H43.4058C43.0524 193.886 42.766 194.171 42.766 194.524C42.766 194.876 43.0524 195.161 43.4058 195.161H44.7369C45.0902 195.161 45.3767 194.876 45.3767 194.524C45.3767 194.171 45.0902 193.886 44.7369 193.886Z" fill="#F2D7B9"/>
</g>
<defs>
<clipPath id="clip0_119_2163">
<rect width="153" height="200" fill="white"/>
</clipPath>
</defs>
</svg>
