<svg width="50" height="50" viewBox="0 0 50 50" fill="none" xmlns="http://www.w3.org/2000/svg">
<g clip-path="url(#clip0_119_2085)">
<path d="M13 12C13 11.7348 12.8946 11.4804 12.7071 11.2929C12.5196 11.1054 12.2652 11 12 11C11.7348 11 11.4804 11.1054 11.2929 11.2929C11.1054 11.4804 11 11.7348 11 12C11 12.2652 11.1054 12.5196 11.2929 12.7071C11.4804 12.8946 11.7348 13 12 13C12.2652 13 12.5196 12.8946 12.7071 12.7071C12.8946 12.5196 13 12.2652 13 12Z" fill="white"/>
<path d="M16 13C16.2652 13 16.5196 12.8946 16.7071 12.7071C16.8946 12.5196 17 12.2652 17 12C17 11.7348 16.8946 11.4804 16.7071 11.2929C16.5196 11.1054 16.2652 11 16 11C15.7348 11 15.4804 11.1054 15.2929 11.2929C15.1054 11.4804 15 11.7348 15 12C15 12.2652 15.1054 12.5196 15.2929 12.7071C15.4804 12.8946 15.7348 13 16 13Z" fill="white"/>
<path d="M20 13C20.2652 13 20.5196 12.8946 20.7071 12.7071C20.8946 12.5196 21 12.2652 21 12C21 11.7348 20.8946 11.4804 20.7071 11.2929C20.5196 11.1054 20.2652 11 20 11C19.7348 11 19.4804 11.1054 19.2929 11.2929C19.1054 11.4804 19 11.7348 19 12C19 12.2652 19.1054 12.5196 19.2929 12.7071C19.4804 12.8946 19.7348 13 20 13Z" fill="white"/>
<path d="M32 23C31.7348 23 31.4804 23.1054 31.2929 23.2929C31.1053 23.4805 31 23.7348 31 24C31 24.2652 31.1053 24.5196 31.2929 24.7071C31.4804 24.8946 31.7348 25 32 25H33.59L27.41 31.18C26.8271 30.94 26.1729 30.94 25.59 31.18C23.14 28.73 24 29.87 24 28.5C24 27.837 23.7366 27.2011 23.2678 26.7322C22.7989 26.2634 22.163 26 21.5 26C20.837 26 20.2011 26.2634 19.7322 26.7322C19.2634 27.2011 19 27.837 19 28.5C19 29.95 20.22 28.37 15.41 33.18C15.0318 33.0296 14.6225 32.9742 14.2179 33.0187C13.8133 33.0632 13.4258 33.2062 13.0893 33.4351C12.7528 33.664 12.4776 33.972 12.2877 34.332C12.0978 34.692 11.999 35.093 12 35.5C12 36.163 12.2634 36.7989 12.7322 37.2678C13.2011 37.7366 13.837 38 14.5 38C15.163 38 15.7989 37.7366 16.2678 37.2678C16.7366 36.7989 17 36.163 17 35.5C17 34.05 15.78 35.63 20.59 30.82C21.1729 31.06 21.8271 31.06 22.41 30.82C24.86 33.27 24 32.13 24 33.5C24 34.163 24.2634 34.7989 24.7322 35.2678C25.2011 35.7366 25.837 36 26.5 36C26.907 36.001 27.308 35.9023 27.668 35.7123C28.028 35.5224 28.336 35.2472 28.5649 34.9107C28.7938 34.5741 28.9368 34.1867 28.9813 33.7821C29.0258 33.3775 28.9704 32.9682 28.82 32.59L35 26.41V28C35 28.2652 35.1053 28.5196 35.2929 28.7071C35.4804 28.8946 35.7348 29 36 29C36.2652 29 36.5196 28.8946 36.7071 28.7071C36.8946 28.5196 37 28.2652 37 28C37 22.06 37.87 23 32 23ZM14.5 36C14.3674 36 14.2402 35.9473 14.1464 35.8536C14.0527 35.7598 14 35.6326 14 35.5C14 35.3674 14.0527 35.2402 14.1464 35.1465C14.2402 35.0527 14.3674 35 14.5 35C14.6326 35 14.7598 35.0527 14.8535 35.1465C14.9473 35.2402 15 35.3674 15 35.5C15 35.6326 14.9473 35.7598 14.8535 35.8536C14.7598 35.9473 14.6326 36 14.5 36ZM21.5 29C21.3674 29 21.2402 28.9473 21.1464 28.8536C21.0527 28.7598 21 28.6326 21 28.5C21 28.3674 21.0527 28.2402 21.1464 28.1465C21.2402 28.0527 21.3674 28 21.5 28C21.6326 28 21.7598 28.0527 21.8535 28.1465C21.9473 28.2402 22 28.3674 22 28.5C22 28.6326 21.9473 28.7598 21.8535 28.8536C21.7598 28.9473 21.6326 29 21.5 29ZM26.5 34C26.3674 34 26.2402 33.9473 26.1464 33.8536C26.0527 33.7598 26 33.6326 26 33.5C26 33.3674 26.0527 33.2402 26.1464 33.1465C26.2402 33.0527 26.3674 33 26.5 33C26.6326 33 26.7598 33.0527 26.8535 33.1465C26.9473 33.2402 27 33.3674 27 33.5C27 33.6326 26.9473 33.7598 26.8535 33.8536C26.7598 33.9473 26.6326 34 26.5 34Z" fill="white"/>
<path d="M13 20C12.7348 20 12.4804 20.1054 12.2929 20.2929C12.1054 20.4804 12 20.7348 12 21C12 21.2652 12.1054 21.5196 12.2929 21.7071C12.4804 21.8946 12.7348 22 13 22H17C17.2652 22 17.5196 21.8946 17.7071 21.7071C17.8946 21.5196 18 21.2652 18 21C18 20.7348 17.8946 20.4804 17.7071 20.2929C17.5196 20.1054 17.2652 20 17 20H13Z" fill="white"/>
<path d="M17 23H13C12.7348 23 12.4804 23.1054 12.2929 23.2929C12.1054 23.4804 12 23.7348 12 24C12 24.2652 12.1054 24.5196 12.2929 24.7071C12.4804 24.8946 12.7348 25 13 25H17C17.2652 25 17.5196 24.8946 17.7071 24.7071C17.8946 24.5196 18 24.2652 18 24C18 23.7348 17.8946 23.4804 17.7071 23.2929C17.5196 23.1054 17.2652 23 17 23Z" fill="white"/>
<path d="M42 7H8C7.73478 7 7.48043 7.10537 7.29289 7.29291C7.10536 7.48044 7 7.73478 7 8V42C7 42.2652 7.10536 42.5196 7.29289 42.7071C7.48043 42.8946 7.73478 43 8 43H42C42.2652 43 42.5196 42.8946 42.7071 42.7071C42.8946 42.5196 43 42.2652 43 42V8C43 7.73478 42.8946 7.48044 42.7071 7.29291C42.5196 7.10537 42.2652 7 42 7ZM41 12H27.41L24.41 9H41V12ZM9 41V9H21.59C26.59 14 26.43 14 27 14H41V41H9Z" fill="white"/>
</g>
<defs>
<clipPath id="clip0_119_2085">
<rect width="36" height="36" fill="white" transform="translate(7 7)"/>
</clipPath>
</defs>
</svg>
