<svg width="673" height="448" viewBox="0 0 673 448" fill="none" xmlns="http://www.w3.org/2000/svg">
<g clip-path="url(#clip0_119_1546)">
<path d="M595.245 347.389L603.294 372.906L619.379 343.279L614.908 370.595L641.896 348.466L623.483 377.91L668.173 375.047L631.716 387.904L670.317 397.268L575.636 395.758L595.245 347.389Z" fill="#2E332E"/>
<path d="M209.195 376.177C209.195 376.177 164.689 379.342 156.285 384.516C147.881 389.69 228.805 395.758 228.805 395.758L209.195 376.177Z" fill="#2E332E"/>
<path d="M170.594 159.104L200.62 134.992L209.195 169.098L259.239 99.2316L283.544 89.1456L253.162 86.6503L283.544 62.4465L234.579 84.5097L250.664 36.3253L219.914 78.4423L204.553 30.1135L204.185 84.1551L169.161 47.9216L188.823 96.0403L136.636 80.9375L180.235 114.479L139.845 131.985H186.311L170.594 159.104Z" fill="#FFB4F0"/>
<path d="M571.309 102.068H233.132C219.912 102.068 209.195 112.77 209.195 125.97V371.856C209.195 385.057 219.912 395.758 233.132 395.758H571.309C584.529 395.758 595.245 385.057 595.245 371.856V125.97C595.245 112.77 584.529 102.068 571.309 102.068Z" fill="#F1F3E6"/>
<path d="M575.728 102.081H228.713C226.149 102.08 223.611 102.582 221.242 103.561C218.873 104.54 216.721 105.976 214.908 107.786C213.095 109.596 211.658 111.745 210.678 114.11C209.697 116.476 209.194 119.011 209.195 121.57V127.165H595.246V121.57C595.246 116.402 593.189 111.444 589.529 107.79C585.869 104.135 580.904 102.081 575.728 102.081Z" fill="#D6DBCC"/>
<path d="M381.131 244.77H332.522C328.374 244.77 325.012 248.127 325.012 252.268C325.012 256.41 328.374 259.767 332.522 259.767H381.131C385.279 259.767 388.641 256.41 388.641 252.268C388.641 248.127 385.279 244.77 381.131 244.77Z" fill="#FFB4F0"/>
<path d="M311.018 151.96H242.799V155.348H311.018V151.96Z" fill="#EBB490"/>
<path d="M299.549 160.89H242.799V164.278H299.549V160.89Z" fill="#EBB490"/>
<path d="M289.62 174.496H242.799V177.884H289.62V174.496Z" fill="#D0B697"/>
<path d="M278.769 183.282H242.799V186.67H278.769V183.282Z" fill="#D0B697"/>
<path d="M450.995 397.596L450.311 396.966C450.311 396.887 457.294 388.915 473.261 334.769C489.346 280.254 450.034 175.481 437.251 160.772C424.783 146.431 415.655 127.559 415.563 127.362L416.405 126.968C416.484 127.152 425.611 145.919 437.961 160.168C450.797 174.942 490.319 280.241 474.155 335.031C457.991 389.822 451.271 397.36 450.995 397.596Z" fill="#AAB1A5"/>
<path d="M289.62 192.081H242.799V195.469H289.62V192.081Z" fill="#D0B697"/>
<path d="M289.62 200.866H242.799V204.255H289.62V200.866Z" fill="#D0B697"/>
<path d="M289.62 209.652H242.799V213.041H289.62V209.652Z" fill="#D0B697"/>
<path d="M289.62 218.451H242.799V221.84H289.62V218.451Z" fill="#D0B697"/>
<path d="M422.728 287.284L409.508 288.711L409.608 289.638L422.828 288.211L422.728 287.284Z" fill="#FFB4F0"/>
<path d="M420.758 291.269L412.534 292.164L412.635 293.091L420.859 292.196L420.758 291.269Z" fill="#FFB4F0"/>
<path d="M479.933 279.996L479.478 280.81L487.386 285.227L487.842 284.413L479.933 279.996Z" fill="#FFB4F0"/>
<path d="M479.908 284.38L479.456 285.196L487.361 289.566L487.813 288.75L479.908 284.38Z" fill="#FFB4F0"/>
<path d="M340.018 256.694L337.098 255.197L334.205 256.747L334.731 253.516L332.351 251.244L335.599 250.745L337.02 247.777L338.506 250.705L341.767 251.152L339.439 253.463L340.018 256.694Z" fill="#D0B273"/>
<path d="M352.052 256.694L349.119 255.197L346.226 256.747L346.752 253.516L344.371 251.244L347.62 250.745L349.054 247.777L350.54 250.705L353.788 251.152L351.46 253.463L352.052 256.694Z" fill="#D0B273"/>
<path d="M261.935 272.848C235.881 272.848 210.142 260.319 209.879 260.188L210.287 259.347C210.563 259.478 236.104 271.915 261.935 271.915C263.395 271.915 264.868 271.915 266.341 271.797C295.012 270.129 340.123 236.601 341.307 195.456C342.491 153.615 322.71 127.704 322.513 127.454L323.236 126.876C323.447 127.139 343.438 153.286 342.241 195.482C341.057 237.113 295.42 271.035 266.407 272.729C264.907 272.808 263.417 272.848 261.935 272.848Z" fill="#AAB1A5"/>
<path d="M364.494 256.694L361.574 255.197L358.681 256.747L359.207 253.516L356.826 251.244L360.075 250.745L361.495 247.777L362.982 250.705L366.243 251.152L363.915 253.463L364.494 256.694Z" fill="#D0B273"/>
<path d="M594.811 217.282C590.682 208.018 584.887 199.587 577.714 192.409C569.823 184.621 565.995 183.15 551.739 177.713C544.887 175.087 535.509 171.528 522.107 165.894C481.086 148.571 477.22 128.137 477.101 127.244L478.009 127.086C478.009 127.296 481.954 147.941 522.502 165.014C535.891 170.661 545.268 174.207 552.12 176.833C566.508 182.323 570.375 183.807 578.424 191.739C585.672 199.012 591.524 207.549 595.693 216.928L594.811 217.282Z" fill="#AAB1A5"/>
<path d="M376.646 256.694L373.727 255.197L370.833 256.747L371.359 253.516L368.979 251.244L372.227 250.745L373.648 247.777L375.134 250.705L378.396 251.152L376.068 253.463L376.646 256.694Z" fill="#D0B273"/>
<path d="M582.343 168.126C582.159 167.982 563.694 153.024 541.309 150.922C518.925 148.821 494.949 165.369 494.712 165.566L494.173 164.804C494.422 164.633 518.714 147.862 541.401 149.99C564.089 152.118 582.751 167.26 582.935 167.404L582.343 168.126Z" fill="#FFB4F0"/>
<path d="M228.66 119.981C230.818 119.981 232.566 118.235 232.566 116.081C232.566 113.927 230.818 112.18 228.66 112.18C226.503 112.18 224.754 113.927 224.754 116.081C224.754 118.235 226.503 119.981 228.66 119.981Z" fill="#FFB4F0"/>
<path d="M266.367 119.981C268.524 119.981 270.273 118.235 270.273 116.081C270.273 113.927 268.524 112.18 266.367 112.18C264.21 112.18 262.461 113.927 262.461 116.081C262.461 118.235 264.21 119.981 266.367 119.981Z" fill="#5F6F69"/>
<path d="M247.862 119.981C250.02 119.981 251.768 118.235 251.768 116.081C251.768 113.927 250.02 112.18 247.862 112.18C245.705 112.18 243.956 113.927 243.956 116.081C243.956 118.235 245.705 119.981 247.862 119.981Z" fill="#D0B273"/>
<path d="M385.787 396.217C385.471 396.217 354.485 390.964 313.162 386.433C283.267 383.124 278.651 377.569 268.537 365.421C263.277 358.899 257.564 352.756 251.44 347.035C224.373 321.872 209.458 325.852 209.353 325.904L209.077 325.011C209.695 324.827 224.583 320.769 252.123 346.352C258.24 352.108 263.953 358.277 269.221 364.817C279.164 376.794 283.688 382.257 313.228 385.514C354.577 390.084 385.563 395.259 385.905 395.311L385.787 396.217Z" fill="#AAB1A5"/>
<path d="M444.497 345.564L436.33 266.596L419.298 329.621L415.524 279.243L416.444 279.178L419.824 324.118L436.738 261.501L444.668 338.157L454.467 272.887L461.279 329.332L471.183 271.035L478.495 309.856L484.874 269.328L485.795 269.472L478.574 315.319L471.235 276.328L461.122 335.819L454.361 279.834L444.497 345.564Z" fill="#FFB4F0"/>
<path d="M379.211 146.26H334.442C329.234 146.26 325.012 150.476 325.012 155.676V226.082C325.012 231.282 329.234 235.498 334.442 235.498H379.211C384.419 235.498 388.641 231.282 388.641 226.082V155.676C388.641 150.476 384.419 146.26 379.211 146.26Z" fill="#FFB4F0"/>
<path d="M337.48 181.364L341.36 198.371H358.391L357.852 201.116H339.216V202.784H359.457L369.65 175.612H374.937V176.952H376.752V173.209H368.571L365.467 181.404L337.48 181.364Z" fill="#F1F3E6"/>
<path d="M343.332 206.133C344.444 206.133 345.345 205.233 345.345 204.123C345.345 203.014 344.444 202.114 343.332 202.114C342.221 202.114 341.32 203.014 341.32 204.123C341.32 205.233 342.221 206.133 343.332 206.133Z" fill="#F1F3E6"/>
<path d="M355.103 206.133C356.215 206.133 357.116 205.233 357.116 204.123C357.116 203.014 356.215 202.114 355.103 202.114C353.992 202.114 353.091 203.014 353.091 204.123C353.091 205.233 353.992 206.133 355.103 206.133Z" fill="#F1F3E6"/>
<path d="M430.109 169.991L473.708 180.694L466.922 174.102L475.497 171.961L432.253 160.89L438.684 167.312L430.109 169.991Z" fill="#2E332E"/>
<path d="M420.627 196.756L469.776 208.011L473.708 180.694L430.109 169.991L420.627 196.756Z" fill="#D0B273"/>
<path d="M432.253 160.89L430.109 169.991L438.684 167.312L432.253 160.89Z" fill="#D0B273"/>
<path d="M475.497 171.961L473.708 180.695L466.922 174.102L475.497 171.961Z" fill="#D0B273"/>
<path d="M463.936 182.152L463.029 181.942C463.029 181.771 466.974 164.659 455.571 161.337C444.169 158.014 438.106 176.295 438.053 176.479L437.159 176.19C437.159 175.993 443.616 156.885 455.835 160.431C468.053 163.977 463.976 181.982 463.936 182.152Z" fill="#DD997F"/>
<path d="M466.448 169.794C466.448 169.689 465.843 159.446 456.216 155.979C446.589 152.511 441.446 162.847 441.223 163.294L440.394 162.886C440.394 162.768 446.207 151.395 456.532 155.099C466.856 158.802 467.382 169.637 467.382 169.742L466.448 169.794Z" fill="#DD997F"/>
<path d="M457.137 205.109L450.889 199.304L462.41 202.206L457.584 190.873L465.896 198.634L469.118 189.664L471.209 198.069L469.776 208.011L457.137 205.109Z" fill="#DD997F"/>
<path d="M608.661 162.282L613.474 202.652L656.915 194.09L651.812 151.789L608.661 162.282Z" fill="#D0B273"/>
<path d="M673 202.652L656.915 194.09L651.812 151.789L669.778 166.511L673 202.652Z" fill="#906B53"/>
<path d="M613.474 202.652L632.781 212.016L673 202.652L656.915 194.09L613.474 202.652Z" fill="#5E3A28"/>
<path d="M626.363 157.988L627.862 167.759L630.822 164.633L632.781 166.419L634.478 163.293L637.963 167.22L637.516 155.269L626.363 157.988Z" fill="#F4EACF"/>
<path d="M658.27 157.082L659.125 169.86L661.597 166.708L662.413 173.274L663.951 167.759L665.359 173.274V162.886L658.27 157.082Z" fill="#F4EACF"/>
<path d="M656.667 193.745L632.554 211.698L633.018 212.319L657.131 194.366L656.667 193.745Z" fill="#1D1D1B"/>
<path d="M672.987 202.272H613.474V203.047H672.987V202.272Z" fill="#1D1D1B"/>
<path d="M619.511 201.681L618.603 201.457C618.603 201.339 621.786 189.165 633.294 183.689C643.816 178.698 643.25 170.674 641.619 164.239C640.755 160.643 640.883 156.881 641.988 153.352L642.869 153.654C641.838 157.012 641.72 160.584 642.527 164.003C644.25 170.779 644.802 179.25 633.689 184.529C622.575 189.809 619.55 201.549 619.511 201.681Z" fill="#F4EACF"/>
<path d="M648.498 195.836C647.211 192.261 647.023 188.383 647.959 184.7C648.338 182.997 649.195 181.437 650.429 180.202C651.664 178.967 653.224 178.108 654.929 177.726L655.061 178.646C653.53 178.979 652.129 179.75 651.029 180.865C649.929 181.979 649.177 183.389 648.866 184.923C648.015 188.399 648.184 192.047 649.353 195.429L648.498 195.836Z" fill="#F4EACF"/>
<path d="M617.249 173.524C614.702 173.522 612.166 173.2 609.7 172.565L609.949 171.672C610.055 171.672 620.011 174.443 626.902 170.227C633.794 166.012 633.728 156.162 633.728 156.07H634.662C634.662 156.504 634.662 166.577 627.336 171.029C624.264 172.762 620.776 173.625 617.249 173.524Z" fill="#F4EACF"/>
<path d="M660.479 195.784L659.585 195.548C660.479 191.273 660.479 186.86 659.585 182.585C658.912 178.622 656.936 174.994 653.969 172.276L654.535 171.528C657.692 174.38 659.795 178.21 660.506 182.402C661.444 186.814 661.435 191.375 660.479 195.784Z" fill="#F4EACF"/>
<path d="M663.254 197.531L662.478 197.005C664.519 193.401 665.58 189.326 665.556 185.186C665.727 177.661 661.4 160.299 661.361 160.128L662.255 159.905C662.439 160.614 666.661 177.556 666.49 185.199C666.524 189.523 665.408 193.779 663.254 197.531Z" fill="#F4EACF"/>
<path d="M672.356 197.741C671.275 197.361 670.307 196.716 669.542 195.864C668.776 195.013 668.238 193.982 667.976 192.869C667.502 189.953 670.107 188.233 671.553 187.734L671.856 188.614C671.711 188.614 668.423 189.848 668.897 192.711C669.133 193.658 669.601 194.533 670.257 195.256C670.913 195.98 671.738 196.531 672.658 196.861L672.356 197.741Z" fill="#F4EACF"/>
<path d="M373.529 47.9217L385.866 67.8705L390.285 65.3227C392.049 70.7915 393.174 76.4455 393.639 82.1721C394.573 92.3501 394.533 102.068 394.533 102.068H445.537C445.537 102.068 443.643 87.399 444.221 84.4572C444.8 81.5155 446.51 66.5178 446.51 66.5178L455.216 73.2156L466.606 53.0041C466.606 53.0041 453.546 41.2371 448.601 38.8338C443.656 36.4305 427.058 30.1399 427.058 30.1399L407.054 31.637C407.054 31.637 394.441 32.2805 390.824 34.5525C387.207 36.8245 373.529 47.9217 373.529 47.9217Z" fill="#F2D7B9"/>
<path d="M427.071 10.2173C427.071 4.57446 422.49 0 416.839 0C411.188 0 406.607 4.57446 406.607 10.2173V28.6033C406.607 34.2462 411.188 38.8206 416.839 38.8206C422.49 38.8206 427.071 34.2462 427.071 28.6033V10.2173Z" fill="#2E332E"/>
<path d="M413.617 10.4407C413.617 10.4407 416.352 15.2604 418.575 17.0071C420.672 18.3986 422.917 19.5527 425.269 20.4479V25.4646C425.069 25.7361 424.808 25.9562 424.506 26.1069C424.204 26.2576 423.871 26.3345 423.533 26.3314C422.218 26.4627 422.323 24.8605 421.258 24.2827C420.193 23.7048 412.538 23.5735 411.775 23.7442C411.013 23.9149 410.802 25.4384 410.039 25.6616C409.277 25.8849 408.29 25.0838 408.251 23.3896C408.211 21.6955 408.251 16.7444 408.251 16.7444C409.261 16.4676 410.172 15.9124 410.881 15.1422C412.125 13.7929 413.059 12.1882 413.617 10.4407Z" fill="#D08B69"/>
<path d="M413.682 27.1061C414.071 26.8111 414.513 26.5955 414.985 26.4715C415.456 26.3476 415.948 26.3178 416.431 26.3838C418.325 26.4888 418.956 26.5808 419.351 27.3293C419.745 28.0779 418.509 29.7195 416.339 29.4043C414.169 29.0891 412.92 28.1567 413.682 27.1061Z" fill="#FFB4F0"/>
<path d="M406.593 16.4029C405.551 16.3674 404.537 16.7453 403.773 17.4541C403.009 18.1628 402.558 19.1447 402.516 20.1852C402.214 24.125 406.593 25.4383 406.593 25.4383V16.4029Z" fill="#D08B69"/>
<path d="M427.058 16.4028C428.185 16.4679 429.253 16.9253 430.078 17.6955C430.902 18.4657 431.43 19.5 431.569 20.6185C432.306 24.7684 427.058 25.1756 427.058 25.1756V16.4028Z" fill="#D08B69"/>
<path d="M394.849 62.5779L391.087 67.9361L390.285 65.3226L394.849 62.5779Z" fill="#BB9F84"/>
<path d="M446.457 66.5308L442.564 62.4465L445.444 75.0146L446.457 66.5308Z" fill="#BB9F84"/>
<path d="M455.164 73.2285L493.305 102.515L527.276 102.081C527.276 102.081 531.222 102.265 530.538 99.5861C529.854 96.907 526.658 99.0608 523.173 98.391C519.687 97.7212 517.675 95.9745 515.926 95.7644C514.177 95.5543 513.111 96.1584 510.665 94.4511C508.219 92.7439 466.553 53.0171 466.553 53.0171L455.164 73.2285Z" fill="#D08B69"/>
<path d="M385.866 67.8704C385.866 67.8704 371.517 75.2248 369.847 81.0032C368.177 86.7817 366.625 104.564 367.216 108.109C367.808 111.655 368.532 114.925 367.756 115.805C366.98 116.685 364.665 116.409 364.336 117C364.007 117.591 363.402 135.281 361.048 135.005C358.694 134.73 358.904 123.186 358.904 123.186C358.014 123.122 357.133 122.968 356.274 122.726C356.016 122.619 355.786 122.454 355.602 122.245C355.417 122.035 355.283 121.787 355.209 121.518C355.026 121.76 354.765 121.931 354.47 122.003C354.175 122.075 353.865 122.043 353.591 121.912C352.526 121.518 351.658 119.377 351.658 119.377C350.945 119.229 350.264 118.958 349.645 118.576C348.698 117.972 348.501 111.55 348.975 109.383C349.448 107.216 351.408 103.211 351.5 101.504C351.592 99.7963 350.698 78.508 353.999 69.7615C357.3 61.0151 373.569 47.9873 373.569 47.9873L385.866 67.8704Z" fill="#D08B69"/>
<path d="M466.567 53.0042L460.188 77.0766L455.164 73.2156L466.567 53.0042Z" fill="#9A5335"/>
<path d="M373.529 47.9216L380.96 70.6677L385.866 67.8573L373.529 47.9216Z" fill="#9A5335"/>
<path d="M356.445 96.0403C358.404 96.4815 360.397 96.7495 362.403 96.8414C364.182 96.7833 365.948 96.5144 367.664 96.0403L367.203 102.935C365.202 103.225 363.168 103.225 361.167 102.935C359.592 102.755 358.029 102.487 356.484 102.134L356.445 96.0403Z" fill="#2E332E"/>
<path d="M352.828 105.036C356.039 105.036 358.641 102.438 358.641 99.2317C358.641 96.0259 356.039 93.427 352.828 93.427C349.618 93.427 347.015 96.0259 347.015 99.2317C347.015 102.438 349.618 105.036 352.828 105.036Z" fill="#D0B273"/>
<path d="M351.618 119.404C351.457 118.538 351.387 117.658 351.408 116.777C351.398 115.725 351.594 114.681 351.986 113.704L352.171 120.546L351.618 119.404Z" fill="#9A5335"/>
<path d="M355.169 121.571C354.913 120.383 354.768 119.174 354.735 117.959C354.799 116.76 355.104 115.585 355.63 114.505L356.235 122.779C355.93 122.669 355.668 122.467 355.485 122.201C355.363 122 355.257 121.789 355.169 121.571Z" fill="#9A5335"/>
<path d="M358.918 123.212L358.694 116.751L357.944 123.107L358.918 123.212Z" fill="#9A5335"/>
<path d="M427.624 22.0237C427.614 21.096 427.869 20.1848 428.36 19.3971C429.057 18.6617 430.07 19.9093 430.07 19.9093C430.07 19.9093 428.991 19.5678 428.847 20.0012C428.702 20.4346 429.346 21.4458 429.346 21.4458C429.346 21.4458 428.478 20.5922 428.228 20.7761C427.955 21.153 427.75 21.5754 427.624 22.0237Z" fill="#9A5335"/>
<path d="M403.805 18.7667C403.805 18.7667 405.278 18.6354 405.765 19.6597C406.252 20.6841 405.41 22.2863 405.41 22.2863C405.41 22.2863 405.594 20.6316 405.252 20.5265C404.91 20.4214 403.805 21.2882 403.805 21.2882C403.805 21.2882 404.989 20.0668 404.713 19.6335C404.459 19.298 404.152 19.0054 403.805 18.7667Z" fill="#9A5335"/>
<path d="M522.41 200.972C522.41 200.972 517.609 176.545 532.839 177.07C548.069 177.595 541.48 202.994 541.48 202.994L522.41 200.972Z" fill="#EBB490"/>
<path d="M485.321 213.724L492.292 234.959L500.696 233.173L502.301 269.945L552.883 276.013L557.894 235.669L567.547 238.532L574.873 218.005C574.873 218.005 557.552 206.474 547.188 203.559C536.824 200.643 520.384 200.525 516.728 201.064C513.072 201.602 485.321 213.724 485.321 213.724Z" fill="#5F6F69"/>
<path d="M542.164 188.154C542.926 187.839 543.774 187.798 544.563 188.038C545.352 188.277 546.033 188.782 546.491 189.467C548.069 191.936 542.546 197.045 542.546 197.045L542.164 188.154Z" fill="#EBB490"/>
<path d="M522.555 186.906C522.555 186.906 519.096 186.539 517.833 188.995C516.57 191.45 522.384 195.561 522.384 195.561L522.555 186.906Z" fill="#EBB490"/>
<path d="M485.321 213.724C485.321 213.724 475.313 219.436 470.486 219.528C465.659 219.62 437.869 212.384 431.03 211.846C424.191 211.307 416.063 210.69 414.984 211.557C413.906 212.424 414.984 213.973 414.984 213.973C414.984 213.973 412.354 214.302 411.578 215.838C410.802 217.375 413.446 217.979 413.446 217.979C413.141 218.219 412.893 218.524 412.72 218.871C412.547 219.219 412.454 219.6 412.446 219.988C412.38 221.393 421.955 221.301 423.638 222.339C425.322 223.376 420.416 224.611 420.087 225.885C419.759 227.159 424.572 227.29 426.453 226.62C428.334 225.95 430.004 224.873 431.083 224.939C432.161 225.005 463.831 239.07 470.354 239.149C476.878 239.228 492.331 234.959 492.331 234.959L485.321 213.724Z" fill="#EBB490"/>
<path d="M574.873 218.005C574.873 218.005 585.5 225.412 589.524 226.305C593.549 227.198 618.117 225.149 621.97 224.256C625.824 223.363 643.145 224.072 644.842 224.873C646.538 225.674 645.552 226.935 645.552 226.935C645.552 226.935 649.497 228.248 649.668 229.877C649.839 231.505 645.999 230.849 645.999 230.849C645.999 230.849 647.248 231.479 647.314 232.464C647.38 233.449 634.899 232.635 632.755 233.449C630.611 234.263 634.07 236.483 634.623 238.085C635.175 239.687 632.4 239.516 629.888 238.085C627.376 236.654 625.429 235.59 624.535 235.669C623.641 235.747 594.009 242.55 589.025 243.614C584.04 244.678 567.495 238.531 567.495 238.531L574.873 218.005Z" fill="#EBB490"/>
<path d="M485.334 213.724L488.728 235.892L492.305 234.959L485.334 213.724Z" fill="#B07B58"/>
<path d="M574.873 218.005L571.651 239.95L567.547 238.518L574.873 218.005Z" fill="#B07B58"/>
<path d="M489.056 414.144L504.063 270.155L552.857 276.013C552.857 276.013 555.185 286.519 553.304 295.37C551.423 304.222 549.911 305.364 549.911 307.505C549.911 309.646 551.423 349.005 552.857 360.417C554.29 371.83 559.433 408.431 559.433 408.431L538.876 410.401L524.935 311.169L506.706 414.144H489.056Z" fill="#D0B697"/>
<path d="M532.958 290.826C532.315 293.374 531.356 295.831 530.104 298.141C528.131 301.622 526.789 302.515 525.895 304.379C525.001 306.244 525.001 311.169 525.001 311.169C525.001 311.169 525.658 319.141 526.053 318.589C526.447 318.038 526.697 309.777 528.986 304.721C530.723 300.217 532.052 295.567 532.958 290.826Z" fill="#906B53"/>
<path d="M552.896 275.999H503.484L504.089 270.142L552.896 275.999Z" fill="#906B53"/>
<path d="M484.9 448H508.916L508.324 443.653L506.101 439.03L484.927 441.709L484.9 448Z" fill="#F4EACF"/>
<path d="M505.51 425.241C505.51 425.241 506.904 425.792 507.18 428.8C507.456 431.807 508.311 443.653 508.311 443.653C507.981 442.993 507.439 442.463 506.771 442.149C506.103 441.834 505.348 441.753 504.628 441.919C501.682 442.182 502.682 442.248 499.67 441.315C496.658 440.383 495.448 440.383 493.633 441.578C491.818 442.773 491.516 443.456 489.425 443.325C487.833 443.098 486.303 442.553 484.927 441.722C484.789 440.224 485.19 438.725 486.058 437.494C487.544 435.287 487.373 425.674 487.465 424.177C487.648 423.152 488.229 422.241 489.083 421.642L501.748 419.699L505.51 425.241Z" fill="#AAB1A5"/>
<path d="M497.329 421.485L495.974 440.659H496.908L500.078 421.564L497.329 421.485Z" fill="#2E332E"/>
<path d="M541.559 446.608C541.559 446.608 563.273 446.004 565.89 445.728C566.581 445.706 567.259 445.54 567.882 445.242C568.504 444.943 569.058 444.518 569.507 443.994L567.587 437.428L541.283 436.496L541.559 446.608Z" fill="#F4EACF"/>
<path d="M542.138 422.562C542.138 422.562 541.296 423.048 541.151 429.338C541.094 433.494 541.261 437.65 541.651 441.788C541.651 441.788 547.583 437.166 550.858 437.848C554.132 438.531 557.092 441.132 561.655 440.856C566.219 440.58 567.482 439.858 567.482 439.254C567.664 438.648 567.693 438.007 567.564 437.387C567.436 436.768 567.154 436.191 566.745 435.708C565.338 433.633 564.194 425.136 563.326 423.324C562.608 422.032 561.663 420.88 560.537 419.922L548.78 418.609L542.138 422.562Z" fill="#AAB1A5"/>
<path d="M488.543 426.396L490.017 414.144H506.154L505.417 427.802C505.113 427.873 504.798 427.882 504.49 427.829C504.182 427.776 503.888 427.661 503.625 427.492C503.362 427.323 503.137 427.103 502.961 426.844C502.785 426.586 502.664 426.295 502.603 425.989C501.998 423.652 503.602 421.577 499.118 421.511C494.633 421.445 493.962 421.432 492.949 423.573C491.937 425.714 491.411 426.199 490.543 426.199C489.873 426.227 489.206 426.293 488.543 426.396Z" fill="#EBB490"/>
<path d="M540.612 410.23C540.612 410.23 542.493 426.121 542.703 426.121C542.914 426.121 545.715 427.329 546.386 425.123C547.057 422.916 545.452 420.5 549.74 420.093C554.027 419.686 553.554 420.565 555.5 422.246C557.447 423.927 560.998 423.179 560.998 423.179L558.762 408.51L540.612 410.23Z" fill="#EBB490"/>
<path d="M506.101 414.144L489.438 419.029L490.017 414.144H506.101Z" fill="#B07B58"/>
<path d="M548.964 420.198L549.99 437.77L551.515 438.006V420.001L548.964 420.198Z" fill="#2E332E"/>
<path d="M625.837 226.174C625.837 226.174 627.626 226.935 627.718 228.485C627.748 228.674 627.737 228.868 627.685 229.052C627.633 229.237 627.541 229.408 627.416 229.553C627.29 229.698 627.135 229.814 626.96 229.893C626.785 229.971 626.595 230.011 626.403 230.008C626.69 229.791 626.889 229.478 626.964 229.126C627.039 228.773 626.985 228.406 626.81 228.091C626.527 227.432 626.202 226.791 625.837 226.174Z" fill="#B07B58"/>
<path d="M613.237 225.333L615.723 237.612L619.064 236.864L617.104 224.939L613.237 225.333Z" fill="#906B53"/>
<path d="M613.237 238.164L613.948 240.396L622.325 238.597L621.497 236.312L613.237 238.164Z" fill="#5F6F69"/>
<path d="M432.24 218.99C432.596 217.952 433.334 217.088 434.305 216.573C435.439 216.249 436.61 216.073 437.79 216.048L432.24 218.99Z" fill="#B07B58"/>
<path d="M541.559 446.608C541.559 446.608 529.722 447.79 527.947 445.912C526.171 444.034 541.454 442.826 541.454 442.826L541.559 446.608Z" fill="#2E332E"/>
<path d="M558.696 408.51L541.23 415.312L540.625 410.23L558.696 408.51Z" fill="#B07B58"/>
<path d="M484.887 442.826C484.887 442.826 471.314 444.257 470.183 445.268C469.052 446.28 484.887 448.013 484.887 448.013V442.826Z" fill="#2E332E"/>
<path d="M645.999 230.849C645.999 230.849 644.802 229.759 640.738 229.431C638.587 229.212 636.419 229.212 634.267 229.431C636.784 228.796 639.388 228.578 641.975 228.787C643.983 229.045 645.895 229.799 647.538 230.98L645.999 230.849Z" fill="#B07B58"/>
<path d="M645.565 226.935C643.71 226.177 641.73 225.772 639.725 225.74C637.75 225.787 635.784 226.038 633.86 226.489C636.079 225.725 638.417 225.36 640.764 225.412C642.461 225.541 644.105 226.062 645.565 226.935Z" fill="#B07B58"/>
<path d="M413.406 217.979C415.753 217.002 418.268 216.493 420.811 216.482C423.261 216.658 425.676 217.162 427.992 217.979C425.593 216.749 422.942 216.088 420.245 216.048C417.808 215.861 415.384 216.545 413.406 217.979Z" fill="#B07B58"/>
<path d="M414.945 213.973C417.473 213.653 420.032 213.653 422.56 213.973C424.759 214.218 426.919 214.734 428.991 215.51C428.991 215.51 424.507 213.395 421.626 213.395C419.389 213.449 417.158 213.642 414.945 213.973Z" fill="#B07B58"/>
<path d="M510.043 275.946L494.034 413.691L494.961 413.799L510.971 276.054L510.043 275.946Z" fill="#906B53"/>
<path d="M508.666 293.282L508.456 292.376C508.456 292.376 510.415 291.824 512.664 287.832C514.913 283.84 515.15 274.62 515.15 274.529H516.084C516.084 274.909 515.926 283.932 513.453 288.265C510.981 292.599 508.784 293.256 508.666 293.282Z" fill="#906B53"/>
<path d="M553.883 409.429C553.751 409.074 540.731 373.813 536.89 361.1C533.05 348.388 526.658 312.246 526.592 311.891L527.513 311.721C527.513 312.088 533.905 348.151 537.784 360.824C541.664 373.497 554.619 408.759 554.751 409.114L553.883 409.429Z" fill="#906B53"/>
<path d="M489.162 212.095L497.04 233.948L492.305 234.959L485.334 213.724L489.162 212.095Z" fill="#2E332E"/>
<path d="M570.638 215.208L570.467 215.733L563.352 237.284L567.547 238.518L574.873 218.005L570.638 215.208Z" fill="#2E332E"/>
<path d="M532.839 177.057C524.448 176.768 522.134 183.741 521.739 190.058V190.991C521.733 191.061 521.733 191.131 521.739 191.201C523.51 192.975 525.385 194.641 527.355 196.191C530.288 196.814 533.298 196.996 536.285 196.73C537.798 196.349 542.677 192.659 542.861 192.475C542.98 185.409 541.296 177.346 532.839 177.057Z" fill="#211A14"/>
<path d="M259.594 281.791L253.518 341.572C253.518 341.572 311.123 342.465 311.005 341.572C310.887 340.679 307.309 283.039 307.309 283.039L259.594 281.791Z" fill="#D08B69"/>
<path d="M261.027 272.388L267.998 276.354L259.594 281.712L307.322 282.96L300.523 278.494L307.322 274.042L261.027 272.388Z" fill="#2E332E"/>
<path d="M256.556 311.602L259.594 328.609L272.193 310.801L268.182 330.343L283.451 326.062L274.337 335.294L289.62 336.108L279.572 341.9L253.518 341.506L256.556 311.602Z" fill="#F2D7B9"/>
<path d="M261.027 272.388L259.594 281.712L267.998 276.354L261.027 272.388Z" fill="#D08B69"/>
<path d="M307.322 274.042V282.96L300.523 278.495L307.322 274.042Z" fill="#D08B69"/>
<path d="M295.722 289.671C295.722 289.355 294.618 257.443 283.031 256.839C282.209 256.803 281.39 256.942 280.626 257.245C279.862 257.548 279.171 258.009 278.598 258.598C271.575 265.349 271.812 288.804 271.812 289.027H270.878C270.878 288.055 270.641 264.942 277.954 257.915C278.618 257.237 279.418 256.706 280.302 256.357C281.186 256.009 282.134 255.85 283.083 255.893C295.512 256.537 296.617 288.279 296.656 289.631L295.722 289.671Z" fill="#F2D7B9"/>
<path d="M364.547 295.344C364.547 295.344 364.481 288.384 372.661 288.659C380.842 288.935 383.722 295.817 387.129 299.494C390.535 303.171 406.488 309.291 407.659 321.163C408.829 333.035 402.832 339.904 402.832 339.904L396.361 338.853C396.361 338.853 392.416 322.148 387.72 316.882C382.833 311.462 377.424 306.535 371.57 302.173C368.887 300.276 366.517 297.972 364.547 295.344Z" fill="#211A14"/>
<path d="M297.287 273.767C297.287 273.53 294.118 250.955 282.754 251.31C271.391 251.664 269.905 272.217 269.892 272.414H268.958C268.958 271.521 270.549 250.797 282.728 250.43C294.907 250.062 298.077 272.756 298.208 273.688L297.287 273.767Z" fill="#F2D7B9"/>
<path d="M366.493 312.417C365.454 309.432 364.576 306.394 363.863 303.316C363.715 300.64 363.941 297.957 364.533 295.344C365.228 296.299 366.121 297.093 367.152 297.671C368.182 298.249 369.326 298.598 370.504 298.693C374.792 299.231 376.199 298.693 376.199 298.693L376.739 299.77C376.739 299.77 376.607 292.901 381.342 295.147C387.234 297.944 379.921 302.042 379.921 302.042C379.597 302.945 379.561 303.927 379.816 304.852C380.316 305.89 381.999 308.963 381.999 308.963L366.493 312.417Z" fill="#EBB490"/>
<path d="M348.238 324.551C348.238 324.551 369.281 307.334 377.646 307.781C386.011 308.227 393.507 318.97 395.375 332.497C396.683 341.421 398.474 350.268 400.741 358.999L363.521 362.032C364.236 359.706 364.077 357.198 363.074 354.98C361.377 351.408 357.629 348.204 357.089 345.695C356.764 344.172 356.613 342.617 356.642 341.059L360.746 338.656L348.238 324.551Z" fill="#AAB1A5"/>
<path d="M308.453 301.267C309.966 303.584 311.202 306.07 312.136 308.674C312.787 312.228 314.749 315.41 317.633 317.591C321.882 321.255 335.468 329.988 338.322 329.988C341.176 329.988 348.238 324.551 348.238 324.551L360.746 338.656L356.642 341.059C356.642 341.059 343.951 349.543 338.861 349.175C333.771 348.808 314.727 330.711 309.453 327.94C304.179 325.169 294.71 321.111 293.671 319.85C293.001 318.961 292.645 317.876 292.658 316.764C291.697 315.838 290.943 314.719 290.448 313.48C290.401 312.516 290.737 311.572 291.382 310.854C291.382 310.854 291.185 309.843 292.053 309.541C293.106 309.421 294.17 309.466 295.209 309.672C295.304 309.422 295.447 309.193 295.632 309C295.816 308.806 296.037 308.652 296.283 308.545C296.528 308.439 296.792 308.382 297.06 308.38C297.327 308.377 297.592 308.428 297.84 308.529C299.839 309.133 304.061 312.679 306.139 311.813C308.217 310.946 306.678 307.728 306.454 305.417C306.467 304.622 306.652 303.839 306.997 303.122C307.342 302.406 307.839 301.773 308.453 301.267Z" fill="#EBB490"/>
<path d="M378.225 299.862C378.225 299.862 377.58 297.353 378.672 296.867C379.763 296.381 381.302 297.787 381.302 297.787C381.302 297.787 379.829 297.34 379.645 297.787C379.461 298.233 380.408 299.349 380.408 299.349C380.408 299.349 379.093 298.259 378.724 298.364C378.356 298.47 378.225 299.862 378.225 299.862Z" fill="#B07B58"/>
<path d="M348.251 324.551L356.642 341.059L360.759 338.643L348.251 324.551Z" fill="#B07B58"/>
<path d="M363.968 358.999C363.968 358.999 332.785 348.02 321.882 351.631C310.979 355.243 316.121 391.03 316.121 391.03H328.313L336.362 382.861L335.954 374.824L342.333 376.886C342.333 376.886 342.478 377.332 350.224 373.13C355.631 369.96 360.665 366.193 365.231 361.901L363.968 358.999Z" fill="#D08B69"/>
<path d="M294.315 416.547L336.257 414.538L323.42 399.986C323.42 399.986 321.185 396.375 319.58 395.508C318.396 394.844 317.254 394.107 316.161 393.302C315.477 393.384 314.822 393.626 314.251 394.01C313.679 394.393 313.207 394.907 312.873 395.508C310.61 399.556 307.529 403.089 303.824 405.883C299.668 408.759 294.447 410.23 293.5 411.504C292.553 412.778 294.315 416.547 294.315 416.547Z" fill="#F2D7B9"/>
<path d="M346.357 374.049L362.271 358.421L363.968 358.986L365.231 361.888L346.357 374.049Z" fill="#FFB4F0"/>
<path d="M399.136 378.173L440.289 411.333C440.181 412.148 439.827 412.91 439.275 413.52C438.723 414.13 437.999 414.558 437.198 414.747C434.252 415.68 428.36 414.472 421.416 414.275L403.003 413.736C401.022 414.13 398.972 414.011 397.05 413.39C395.128 412.77 393.396 411.668 392.021 410.19C387.523 405.108 385.827 392.986 385.827 392.986L399.136 378.173Z" fill="#F2D7B9"/>
<path d="M377.554 413.736H403.647C402.712 413.626 401.831 413.242 401.115 412.632C400.398 412.022 399.879 411.213 399.623 410.309C398.821 407.183 401.859 403.742 400.254 401.286C398.65 398.831 396.138 395.14 393.823 395.311C391.508 395.482 389.706 396.926 388.365 396.48C387.023 396.033 385.905 392.987 385.905 392.987C385.18 393.027 384.469 393.21 383.814 393.525C383.056 393.788 382.377 394.24 381.841 394.838L377.554 413.736Z" fill="#EBB490"/>
<path d="M316.16 390.99V395.876C316.579 395.674 317.054 395.624 317.506 395.734C317.957 395.844 318.355 396.108 318.633 396.48C319.58 397.793 319.343 399.29 321.382 399.619L323.42 399.947L328.352 390.99H316.16Z" fill="#EBB490"/>
<path d="M384.327 393.84L382.828 413.736H377.554L381.855 394.864L383.314 393.84H384.327Z" fill="#B07B58"/>
<path d="M438.671 414.025C438.671 414.025 455.506 414.682 457.847 413.001C460.188 411.32 437.724 409.271 437.724 409.271L438.671 414.025Z" fill="#2E332E"/>
<path d="M409.908 394.641C409.908 394.641 407.093 397.99 406.725 400.761C406.52 402.506 406.52 404.269 406.725 406.014L411.986 406.461C411.986 406.461 411.131 402.403 411.986 400.525C412.803 399.047 413.861 397.716 415.116 396.585L409.908 394.641Z" fill="#FFB4F0"/>
<path d="M416.221 399.211C415.425 400.001 414.956 401.06 414.906 402.179C414.852 403.775 414.914 405.373 415.09 406.96L418.799 407.735C418.658 406.32 418.658 404.894 418.799 403.48C419.328 402.513 419.954 401.602 420.666 400.761L416.221 399.211Z" fill="#FFB4F0"/>
<path d="M422.06 403.572C421.504 404.469 421.137 405.47 420.982 406.513V408.654L425.098 409.508L426.124 404.727L422.06 403.572Z" fill="#FFB4F0"/>
<path d="M403.082 390.045C406.567 391.923 430.596 409.547 430.543 410.571C430.491 411.596 429.478 411.727 428.755 413.29C428.657 413.523 428.607 413.773 428.607 414.025C428.607 414.278 428.657 414.528 428.755 414.761C432.411 415.076 435.396 415.325 437.224 414.761C438.025 414.571 438.75 414.143 439.301 413.533C439.853 412.924 440.207 412.161 440.315 411.346L399.163 378.186L392.823 385.278C392.823 385.278 399.623 388.167 403.082 390.045Z" fill="#F4EACF"/>
<path d="M407.711 407.787C405.568 408.247 406.712 413.736 406.712 413.736L407.146 413.855L421.455 414.275H422.047C422.002 413.296 421.775 412.334 421.376 411.438C420.785 410.322 409.855 407.315 407.711 407.787Z" fill="#FFB4F0"/>
<path d="M316.16 393.249L324.104 394.51L325.893 390.977H316.16V393.249Z" fill="#B07B58"/>
<path d="M329.549 406.92C329.549 406.92 307.046 412.476 304.692 412.397C302.338 412.318 302.824 411.596 300.812 409.258C300.471 408.86 300.072 408.514 299.628 408.234C296.735 409.652 294.144 410.611 293.5 411.464C292.566 412.778 294.315 416.547 294.315 416.547L336.257 414.537L329.549 406.92Z" fill="#F4EACF"/>
<path d="M305.06 404.911C305.06 404.911 304.968 406.041 307.007 406.343C309.045 406.645 318.002 402.534 317.897 401.09C317.791 399.645 312.083 396.9 312.083 396.9L305.06 404.911Z" fill="#FFB4F0"/>
<path d="M309.848 411.517L308.19 408.313L311.741 407.078L313.477 410.716L309.848 411.517Z" fill="#FFB4F0"/>
<path d="M315.634 410.23C315.634 410.23 315.24 409.153 314.74 408.024C314.359 407.209 313.919 406.424 313.425 405.673L317.107 403.742C317.758 404.757 318.329 405.819 318.817 406.92C319.251 408.089 319.593 409.297 319.593 409.297L315.634 410.23Z" fill="#FFB4F0"/>
<path d="M321.737 408.798C321.752 407.566 321.505 406.344 321.014 405.213C320.588 404.052 319.98 402.966 319.212 401.996L322.96 401.129C324.129 402.29 325.165 403.576 326.051 404.964C326.505 405.777 326.804 406.668 326.932 407.59L321.737 408.798Z" fill="#FFB4F0"/>
<path d="M292.632 316.764C294.153 317.632 295.72 318.417 297.327 319.114C298.646 319.578 299.989 319.968 301.351 320.283L291.908 315.936L292.632 316.764Z" fill="#B07B58"/>
<path d="M350.382 322.857L364.178 337.815L360.759 338.643L348.251 324.551L350.382 322.857Z" fill="#7C8174"/>
<path d="M400.741 358.999C400.741 358.999 403.292 375.034 395.783 384.227C388.273 393.42 381.841 394.93 381.841 394.93L377.554 413.802C377.554 413.802 335.323 416.087 331.312 413.802C327.3 411.517 318.304 399.356 327.156 389.441C336.007 379.525 365.296 361.954 365.296 361.954L400.741 358.999Z" fill="#DD997F"/>
<path d="M395.783 384.227C396.457 383.404 397.06 382.526 397.584 381.6L399.136 378.238C399.018 378.356 388.062 389.283 384.117 391.818C380.171 394.352 365.625 398.174 365.625 398.174C365.625 398.174 374.674 397.163 376.817 396.23C378.432 395.588 380.119 395.147 381.841 394.917C381.841 394.917 388.273 393.262 395.783 384.227Z" fill="#FFB4F0"/>
<path d="M365.231 361.888L401.109 363.136L400.741 358.986L365.231 361.888Z" fill="#FFB4F0"/>
<path d="M291.356 310.814C292.098 312.044 293.15 313.059 294.407 313.756C297.134 315.224 300.008 316.399 302.982 317.263C302.982 317.263 296.406 314.229 295.091 313.52C293.787 312.702 292.539 311.798 291.356 310.814Z" fill="#B07B58"/>
<path d="M295.183 309.672C296.593 311.068 298.224 312.221 300.01 313.086C301.616 313.846 303.314 314.398 305.06 314.728C305.06 314.728 299.905 312.548 298.563 311.812C297.222 311.077 295.183 309.672 295.183 309.672Z" fill="#B07B58"/>
<path d="M379.264 406.277C373.635 405.239 345.476 399.907 344.569 396.506C344.52 396.313 344.53 396.11 344.598 395.922C344.666 395.735 344.789 395.572 344.95 395.455C348.514 392.409 382.512 361.993 382.854 361.678L383.486 362.374C383.13 362.689 349.133 393.118 345.555 396.165C345.476 396.165 345.463 396.256 345.463 396.256C345.463 398.029 363.113 402.363 379.435 405.358L379.264 406.277Z" fill="#FFB4F0"/>
<path d="M374.976 372.118C374.158 372.138 373.34 372.054 372.543 371.869L372.78 370.976C374.977 371.37 377.238 371.208 379.356 370.503C383.104 369.334 388.036 361.849 388.089 361.77L388.865 362.282C388.654 362.61 383.696 370.162 379.658 371.396C378.143 371.871 376.564 372.114 374.976 372.118Z" fill="#FFB4F0"/>
<path d="M324.394 390.99H323.473C323.473 388.154 323.868 363.175 326.287 360.89C326.375 360.802 326.48 360.732 326.595 360.684C326.71 360.637 326.834 360.613 326.958 360.614C329.589 360.732 354.42 365.591 355.485 365.802L355.301 366.708C355.038 366.708 329.497 361.652 326.919 361.547C325.564 362.256 324.565 377.083 324.394 390.99Z" fill="#FFB4F0"/>
<path d="M369.373 336.292C369.15 336.292 367.361 336.87 365.309 337.487C363.258 338.104 360.746 338.656 360.746 338.656C361.736 337.617 362.944 336.81 364.284 336.292C365.961 335.927 367.696 335.927 369.373 336.292Z" fill="#3A4741"/>
<path d="M224.373 217.112H191.598C183.695 217.112 177.289 223.509 177.289 231.4V297.327C177.289 305.218 183.695 311.616 191.598 311.616H224.373C232.276 311.616 238.682 305.218 238.682 297.327V231.4C238.682 223.509 232.276 217.112 224.373 217.112Z" fill="#2E332E"/>
<path d="M188.744 268.553L187.284 267.384L208.025 241.434L226.569 267.437L225.057 268.514L207.946 244.52L188.744 268.553Z" fill="#D6DBCC"/>
<path d="M208.919 242.984H207.052V292.599H208.919V242.984Z" fill="#D6DBCC"/>
<path d="M121.643 225.478L137.899 245.085L134.847 248.158C130.957 244.446 127.434 240.369 124.326 235.984C120.775 230.429 120.643 227.408 120.643 227.408L121.643 225.478Z" fill="#804527"/>
<path d="M137.899 245.085C139.593 247.419 141.988 249.154 144.738 250.036C148.894 251.113 162.427 255.525 164.978 254.462C167.53 253.398 172.738 246.017 172.738 246.017L166.662 260.542C166.662 260.542 141.857 258.007 139.043 254.79C137.294 252.833 135.897 250.589 134.913 248.158L137.899 245.085Z" fill="#B07B58"/>
<path d="M126.456 206.396C126.456 206.396 126.351 199.383 118.223 199.33C116.064 199.217 113.945 199.947 112.315 201.366C110.685 202.785 109.672 204.782 109.49 206.934C109.49 206.934 111.621 212.857 115.317 213.067C119.012 213.277 126.456 206.396 126.456 206.396Z" fill="#211A14"/>
<path d="M108.149 217.335L108.727 214.998C108.727 214.998 103.559 211.136 107.82 207.958C112.081 204.78 115.159 210.979 115.159 210.979C117.102 211.249 119.082 210.976 120.88 210.191C122.866 209.123 124.735 207.851 126.456 206.396C127.084 209.75 127.151 213.184 126.654 216.56C125.825 221.997 121.301 229.943 121.301 229.943L108.149 217.335Z" fill="#EBB490"/>
<path d="M109.49 209.744C109.953 209.59 110.448 209.557 110.927 209.649C111.406 209.741 111.853 209.955 112.226 210.27C113.278 211.36 111.424 213.934 111.424 213.934C111.658 213.376 111.783 212.779 111.792 212.174C111.7 211.609 109.49 212.174 109.49 212.174C109.873 211.828 110.32 211.56 110.805 211.386C111.305 211.294 111.792 211.386 111.818 211.005C111.844 210.624 110.7 209.639 109.49 209.744Z" fill="#B07B58"/>
<path d="M71.652 255.933L104.9 271.193C104.9 271.193 107.846 264.627 111.936 262.486C114.828 260.805 117.508 258.786 119.92 256.471L116.224 252.715L130.836 242.485C130.836 242.485 116.855 220.395 112.91 218.583C108.964 216.771 98.9687 213.5 85.9613 233.029C72.954 252.557 71.652 255.933 71.652 255.933Z" fill="#AB5E43"/>
<path d="M111.805 248.959L116.211 259.649L119.92 256.458L116.237 252.715L111.805 248.959Z" fill="#804527"/>
<path d="M137.412 250.797L139.109 246.542L137.872 245.085L134.821 248.158C135.082 249 135.463 249.801 135.952 250.535C136.396 250.783 136.91 250.875 137.412 250.797Z" fill="#B07B58"/>
<path d="M71.652 255.933C67.9826 260.308 65.5329 265.571 64.5499 271.193C63.0769 280.294 65.2207 278.416 63.6161 284.982C62.0116 291.549 48.4651 321.19 44.5852 331.157C40.7054 341.125 30.46 377.385 30.46 377.385L52.4106 385.961C52.4106 385.961 70.9944 334.007 72.7831 328.662C74.5717 323.317 82.9627 303.71 82.9627 303.71C82.9627 303.71 99.2317 327.809 100.481 333.915C101.731 340.022 97.443 385.133 97.443 385.133L117.815 386.04C117.815 386.04 121.577 339.444 119.959 331.591C118.342 323.737 104.861 271.272 104.861 271.272L71.652 255.933Z" fill="#D0B273"/>
<path d="M130.836 242.484C130.836 242.484 134.781 249.839 140.831 253.253C146.881 256.668 166.294 259.478 167.372 258.506C168.451 257.535 173.527 242.747 174.935 241.854C175.303 241.607 175.752 241.51 176.19 241.583C176.628 241.656 177.021 241.894 177.289 242.248V266.137C176.959 267.441 176.258 268.623 175.271 269.538C174.284 270.454 173.053 271.065 171.725 271.298C166.899 272.362 136.675 270.326 133.453 267.831C130.231 265.336 119.92 256.51 119.92 256.51L116.224 252.754L130.836 242.484Z" fill="#EBB490"/>
<path d="M119.42 255.959L130.849 242.471L116.237 252.715L119.42 255.959Z" fill="#B07B58"/>
<path d="M177.354 245.663C177.354 245.663 175.434 245.177 173.646 249.012C171.857 252.846 171.318 256.51 170.108 257.495C169.641 257.943 169.098 258.304 168.503 258.559C169.101 258.755 169.75 258.731 170.332 258.49C170.914 258.249 171.389 257.807 171.673 257.246C172.659 255.197 174.04 248.591 175.474 247.475C176.907 246.359 177.354 246.635 177.354 246.635V245.663Z" fill="#B07B58"/>
<path d="M28.2768 387.418C28.2768 387.418 26.4355 384.332 24.1996 384.332C21.9638 384.332 24.4758 389.52 24.1996 392.369C23.9235 395.219 16.703 411.464 16.6109 413.067C16.5568 414.108 16.5568 415.151 16.6109 416.192C16.6109 416.192 68.3508 422.614 68.6139 422.352C68.8769 422.089 71.389 420.566 69.5082 418.162C67.6275 415.759 61.0252 414.052 55.8433 407.892C52.6689 404.092 49.9622 399.925 47.7812 395.482L28.2768 387.418Z" fill="#5F6F69"/>
<path d="M55.8433 407.866C54.0253 405.685 52.3598 403.381 50.8587 400.971C50.8587 400.88 45.2691 402.534 44.5984 403.795C43.9276 405.056 54.515 412.029 56.3168 412.239C56.8523 412.294 57.3932 412.226 57.8989 412.042C58.4046 411.858 58.8619 411.562 59.2365 411.176C58.008 410.177 56.8723 409.069 55.8433 407.866Z" fill="#3A4741"/>
<path d="M40.0609 405.358C39.0055 406.066 38.0838 406.956 37.3385 407.984C36.6975 409.362 36.1569 410.784 35.7208 412.239L40.6528 415.523C40.5356 413.785 40.9981 412.058 41.968 410.611C42.684 409.471 43.5711 408.448 44.5984 407.577L40.0609 405.358Z" fill="#3A4741"/>
<path d="M16.9792 411.806C16.9792 411.806 1.51248 412.266 0.0789101 413.119C-1.35466 413.973 16.611 416.258 16.611 416.258L16.9792 411.806Z" fill="#2E332E"/>
<path d="M43.2043 414.433C43.6359 413.298 44.244 412.239 45.0061 411.294C45.6963 410.233 46.7181 409.43 47.9127 409.009L51.9503 411.504C50.9684 411.963 50.138 412.692 49.5567 413.605C48.9543 414.728 48.4099 415.881 47.9258 417.059L43.2043 414.433Z" fill="#3A4741"/>
<path d="M51.49 385.54L47.1499 397.097C47.1499 397.097 46.9657 398.345 45.3612 398.082C44.1019 398.062 42.8732 398.47 41.8759 399.238C40.6002 398.783 39.2061 398.783 37.9303 399.238C36.1416 400.039 33.9058 400.485 32.9194 397.636C31.933 394.786 32.8273 392.724 30.9598 391.384C29.0922 390.045 27.6455 389.152 27.6455 389.152L31.4727 377.792L51.49 385.54Z" fill="#EBB490"/>
<path d="M51.49 416.311C51.8991 415.407 52.3647 414.529 52.8841 413.684L53.2524 413.277L56.9612 414.787L55.041 418.517L51.49 416.311Z" fill="#3A4741"/>
<path d="M98.4426 398.345C98.4426 398.345 94.063 396.48 93.5237 397.898C92.9845 399.317 96.5618 401.917 96.4698 405.043C96.3777 408.168 92.5242 419.489 92.5242 421.104C92.5242 422.719 92.5242 424.768 92.5242 424.768C92.5242 424.768 143.186 424.138 143.278 423.875C143.37 423.612 145.908 422.982 145.158 419.935C144.409 416.888 137.386 416.81 130.862 412.161C124.339 407.511 116.395 398.516 116.395 398.516L98.4426 398.345Z" fill="#5F6F69"/>
<path d="M98.4426 385.094V401.116C98.4426 401.116 102.099 400.853 102.822 403.073C103.546 405.292 101.507 407.814 104.782 408.693C108.057 409.573 108.622 409.77 109.161 408.076C109.701 406.382 109.701 405.213 111.042 404.859C112.384 404.504 114.08 404.504 115.067 403.611C115.795 402.651 116.25 401.512 116.382 400.315L117.092 385.934L98.4426 385.094Z" fill="#EBB490"/>
<path d="M69.5082 418.162C68.3114 416.626 65.1812 415.365 61.7354 413.067C61.7354 413.067 58.9998 415.076 59.2365 416.481C59.4733 417.887 55.0542 416.888 49.3462 415.956C43.6383 415.024 18.8073 407.039 18.8073 407.039C17.9291 409.01 17.195 411.042 16.6109 413.119C16.5568 414.16 16.5568 415.204 16.6109 416.245C16.6109 416.245 68.3508 422.667 68.6139 422.404C68.8769 422.142 71.389 420.566 69.5082 418.162Z" fill="#F4EACF"/>
<path d="M30.1312 381.902L51.5032 385.593L31.5121 377.779L30.1312 381.902Z" fill="#B07B58"/>
<path d="M120.932 403.375C120.932 403.375 117.237 406.566 116.658 407.958C116.079 409.35 129.113 416.521 129.928 415.72C130.701 414.883 131.43 414.006 132.112 413.093C131.691 412.83 131.257 412.555 130.796 412.239C127.266 409.566 123.966 406.6 120.932 403.375Z" fill="#3A4741"/>
<path d="M109.543 417.059C109.774 415.465 110.353 413.94 111.239 412.594C112.342 411.376 113.587 410.296 114.948 409.376L118.526 412.108C117.502 413.14 116.59 414.275 115.803 415.496C115.356 416.521 114.488 419.554 114.488 419.554L109.543 417.059Z" fill="#3A4741"/>
<path d="M117.513 418.78C117.843 417.533 118.367 416.345 119.065 415.26C119.61 414.496 120.276 413.826 121.038 413.277L124.918 415.207C124.391 416.056 123.913 416.933 123.484 417.834C123.221 418.596 122.682 421.314 122.682 421.314L117.513 418.78Z" fill="#3A4741"/>
<path d="M125.47 419.962C125.501 419.198 125.684 418.447 126.009 417.755C126.37 417.143 126.813 416.582 127.324 416.087L130.415 417.493L129.771 421.603L125.47 419.962Z" fill="#3A4741"/>
<path d="M92.853 419.397C92.853 419.397 75.9527 422.168 74.6112 423.113C73.2697 424.059 92.4847 424.768 92.4847 424.768L92.853 419.397Z" fill="#2E332E"/>
<path d="M143.238 423.875C143.33 423.599 145.869 422.982 145.119 419.935C144.527 417.729 140.7 417.072 136.162 415.116C135.229 415.287 134.336 415.635 133.532 416.14C132.322 416.941 133.532 418.412 133.532 419.489C133.532 420.566 132.388 420.618 124.089 419.817C115.79 419.016 94.6022 413.251 94.6022 413.251C93.5895 416.81 92.5373 420.251 92.4979 421.13C92.4058 422.733 92.4979 424.794 92.4979 424.794C92.4979 424.794 143.159 424.138 143.238 423.875Z" fill="#F4EACF"/>
<path d="M117.053 385.921L98.4689 391.988V385.094L117.053 385.921Z" fill="#B07B58"/>
<path d="M29.4518 408.362L23.9556 407.089C23.0569 406.881 22.1595 407.44 21.951 408.337L21.948 408.35C21.7396 409.247 22.2991 410.143 23.1977 410.351L28.694 411.624C29.5926 411.833 30.49 411.274 30.6985 410.377L30.7015 410.364C30.9099 409.466 30.3504 408.57 29.4518 408.362Z" fill="#3A4741"/>
<path d="M105.98 413.7L100.484 412.426C99.5849 412.218 98.6874 412.777 98.479 413.674L98.476 413.687C98.2676 414.584 98.8271 415.481 99.7257 415.689L105.222 416.962C106.121 417.17 107.018 416.611 107.226 415.714L107.229 415.701C107.438 414.804 106.878 413.908 105.98 413.7Z" fill="#3A4741"/>
<path d="M41.2446 381.6L40.3766 381.272C40.5476 380.799 58.4079 333.81 62.9191 322.962C67.4302 312.115 78.7015 261.842 78.8198 261.33L79.7273 261.527C79.6221 262.039 68.2982 312.43 63.774 323.317C59.2497 334.204 41.4287 381.115 41.2446 381.6Z" fill="#F2D7B9"/>
<path d="M76.676 273.911L76.3341 273.045C77.5308 272.489 78.5207 271.57 79.1618 270.418C80.1748 267.783 80.9495 265.062 81.4765 262.289L82.3972 262.473C81.8532 265.335 81.043 268.14 79.9772 270.851C79.2408 272.204 78.0814 273.278 76.676 273.911Z" fill="#F2D7B9"/>
<path d="M69.5608 258.717L104.9 271.18L71.6651 255.919L69.5608 258.717Z" fill="#906B53"/>
<path d="M109.254 385.12H108.32C108.32 384.621 110.437 335.504 107.702 329.792C104.966 324.079 87.0135 294.793 86.8294 294.491L87.6185 294.005C88.3682 295.213 105.742 323.54 108.543 329.384C111.345 335.229 109.346 383.085 109.254 385.12Z" fill="#F2D7B9"/>
<path d="M94.9836 281.791C94.9836 281.791 89.8938 286.965 88.1051 290.446C86.3164 293.926 83.0022 303.657 83.0022 303.657L88.1183 311.445C87.2267 306.879 87.0978 302.198 87.7369 297.59C88.9074 290.984 94.9836 281.791 94.9836 281.791Z" fill="#906B53"/>
<path d="M110.056 230.875C111.08 230.875 111.91 230.046 111.91 229.023C111.91 228.001 111.08 227.172 110.056 227.172C109.032 227.172 108.201 228.001 108.201 229.023C108.201 230.046 109.032 230.875 110.056 230.875Z" fill="#F4EACF"/>
<path d="M123.234 218.163C124.6 218.163 125.707 216.675 125.707 214.84C125.707 213.005 124.6 211.517 123.234 211.517C121.868 211.517 120.761 213.005 120.761 214.84C120.761 216.675 121.868 218.163 123.234 218.163Z" fill="#211A14"/>
<path d="M129.624 214.943C129.725 213.11 129.137 211.588 128.31 211.543C127.483 211.497 126.731 212.945 126.629 214.778C126.528 216.61 127.116 218.132 127.943 218.178C128.77 218.223 129.522 216.775 129.624 214.943Z" fill="#211A14"/>
<path d="M128.284 215.378H123.444L115.593 210.388L116.171 209.469L123.76 214.301H128.284V215.378Z" fill="#211A14"/>
<path d="M108.727 214.998C109.051 215.273 109.415 215.499 109.806 215.667C110.049 215.763 110.307 215.816 110.569 215.825C110.18 215.959 109.77 216.021 109.359 216.009C109.065 215.992 108.771 215.992 108.478 216.009L108.727 214.998Z" fill="#B07B58"/>
</g>
<defs>
<clipPath id="clip0_119_1546">
<rect width="673" height="448" fill="white"/>
</clipPath>
</defs>
</svg>
