<svg width="200" height="200" viewBox="0 0 200 200" fill="none" xmlns="http://www.w3.org/2000/svg">
<mask id="mask0_119_2361" style="mask-type:alpha" maskUnits="userSpaceOnUse" x="0" y="0" width="200" height="200">
<rect width="200" height="200" fill="black"/>
</mask>
<g mask="url(#mask0_119_2361)">
<g clip-path="url(#clip0_119_2361)">
<path d="M200.706 100.45V86.7954L172.144 99.6965L171.194 112.155L200.706 100.45Z" fill="#BB9F84"/>
<path d="M128.884 139.701H117.113V149.836H128.884V139.701Z" fill="#BB9F84"/>
<path d="M123.24 139.701C123.309 140.318 123.229 140.943 123.004 141.523C122.639 142.215 120.535 146.387 120.433 147.478C120.331 148.57 122.215 149.836 122.215 149.836L128.888 149.712V139.701H123.24Z" fill="#7C553F"/>
<path d="M183.322 99.2032C182.881 99.2073 182.44 99.1656 182.007 99.0789L182.039 98.9468C183.262 99.1841 184.529 99.064 185.685 98.601C187.149 97.9445 187.255 96.3868 187.302 95.4544C187.302 95.2874 187.302 95.1437 187.337 95.031C187.553 94.129 187.842 93.2456 188.201 92.3894L188.326 92.4399C187.978 93.2882 187.693 94.1607 187.475 95.0504C187.475 95.1592 187.451 95.299 187.439 95.4622C187.384 96.3635 187.282 98.0339 185.74 98.7254C184.977 99.0509 184.153 99.2138 183.322 99.2032Z" fill="#F5EACF"/>
<path d="M183.083 105.92L183.02 105.799C183.079 105.768 188.833 102.851 190.206 100.17C191.254 98.1309 190.917 97.1908 190.564 96.1925C190.434 95.8535 190.331 95.5055 190.254 95.1514C189.951 93.5975 191.003 91.2045 191.039 91.1035L191.168 91.1579C191.168 91.1812 190.089 93.6247 190.383 95.1242C190.457 95.4732 190.558 95.8161 190.685 96.1497C191.05 97.1753 191.396 98.1426 190.324 100.233C188.927 102.952 183.31 105.799 183.083 105.92Z" fill="#F5EACF"/>
<path d="M200.706 100.45C201.718 100.45 202.538 97.3925 202.538 93.6208C202.538 89.8491 201.718 86.7915 200.706 86.7915C199.693 86.7915 198.873 89.8491 198.873 93.6208C198.873 97.3925 199.693 100.45 200.706 100.45Z" fill="#F5EACF"/>
<path d="M200.706 97.8358C201.156 97.8358 201.522 95.9487 201.522 93.6209C201.522 91.2931 201.156 89.406 200.706 89.406C200.255 89.406 199.889 91.2931 199.889 93.6209C199.889 95.9487 200.255 97.8358 200.706 97.8358Z" fill="#445250"/>
<path d="M185.948 93.4578C185.948 93.4578 182.992 99.0595 183.542 102.136C184.091 105.213 185.045 106.662 185.045 106.662L179.189 108.993L183.318 94.4872L185.948 93.4578Z" fill="#7C553F"/>
<path d="M117.113 149.832C118.173 149.832 119.032 147.565 119.032 144.767C119.032 141.969 118.173 139.701 117.113 139.701C116.053 139.701 115.194 141.969 115.194 144.767C115.194 147.565 116.053 149.832 117.113 149.832Z" fill="#F5EACF"/>
<path d="M117.113 147.715C117.494 147.715 117.804 146.395 117.804 144.767C117.804 143.138 117.494 141.818 117.113 141.818C116.731 141.818 116.422 143.138 116.422 144.767C116.422 146.395 116.731 147.715 117.113 147.715Z" fill="#445250"/>
<path d="M193.97 103.185L193.864 103.1C194.241 102.526 194.495 101.882 194.61 101.208C194.691 100.563 194.691 99.9103 194.61 99.2654C194.465 97.6765 194.316 95.7342 195.219 94.1803C196.184 92.6518 197.494 91.3649 199.045 90.4199L199.112 90.5365C197.584 91.4729 196.292 92.7433 195.336 94.2502C194.457 95.7691 194.606 97.7154 194.732 99.3003C194.817 99.9555 194.817 100.619 194.732 101.274C194.616 101.956 194.356 102.608 193.97 103.185Z" fill="#F5EACF"/>
<path d="M197.471 101.767H197.334C197.334 101.767 197.416 101.041 197.566 99.9608C197.715 98.8809 198.975 97.4047 199.026 97.3425L199.132 97.4319C199.132 97.4319 197.848 98.9197 197.703 99.9802C197.558 101.041 197.471 101.759 197.471 101.767Z" fill="#F5EACF"/>
<path d="M118.549 143.873L118.53 143.737C118.557 143.737 121.101 143.395 121.603 142.572C122.105 141.748 121.972 139.713 121.968 139.693H122.105C122.105 139.779 122.255 141.787 121.713 142.65C121.171 143.512 118.655 143.858 118.549 143.873Z" fill="#F5EACF"/>
<path d="M27.8057 45.6837C31.5383 49.8947 35.9185 53.6978 40.8285 56.4987C43.1128 57.8117 45.5816 58.4411 48.1406 57.5243C50.4956 56.6735 52.7131 54.6574 53.4078 52.2139C53.7108 51.1574 53.7013 50.037 53.3804 48.9857C52.4698 46.55 49.7184 46.4451 48.1917 48.3486C46.0918 50.9669 46.8179 55.3411 48.8393 57.7612C53.1331 62.8657 60.6611 61.3235 65.8616 58.7441C65.9558 58.6975 65.7752 58.107 65.8616 58.0642C61.7365 60.1076 56.8971 61.4478 52.4345 59.6181C48.5724 58.0526 45.1656 53.1268 48.0661 49.1877C49.1886 47.6649 51.2492 47.0162 52.6739 48.5506C54.4165 50.4269 53.0664 52.9986 51.5788 54.5758C50.1568 56.109 48.2183 57.0759 46.1272 57.2951C43.8821 57.4738 41.8686 56.4871 40.02 55.3527C35.4615 52.5082 31.3467 49.0205 27.8057 45C27.9156 45.1243 27.688 45.5516 27.8057 45.6837Z" fill="#3C4846"/>
<path d="M35.3101 149.836H6.04998L10.7128 147.677L-2 141.197L12.7419 144.697L4.61739 129.733L16.6551 142.879L14.0215 128.987L23.8769 144.849L25.3919 138.326L29.2933 146.799L35.3101 149.836Z" fill="#495856"/>
<path d="M71.223 149.836H32.7158C31.535 149.825 30.3904 149.432 29.4559 148.717C28.5214 148.003 27.8483 147.006 27.5388 145.878L6.79571 73.0165C5.79486 69.5203 8.36567 66.0046 11.9727 66.0046H48.5881C49.7464 66.0145 50.871 66.3919 51.7965 67.0813C52.722 67.7708 53.3996 68.736 53.7297 69.835L76.3764 142.693C77.4754 146.235 74.881 149.836 71.223 149.836Z" fill="#FFBFED"/>
<path d="M69.0878 146.799H33.3712C32.2742 146.791 31.21 146.427 30.3411 145.765C29.4722 145.102 28.8464 144.176 28.5593 143.128L9.32727 75.5337C8.40099 72.2784 10.803 69.0308 14.1313 69.0308H48.0661C49.1408 69.0394 50.1843 69.3895 51.0429 70.0294C51.9014 70.6693 52.5296 71.5653 52.8348 72.5853L73.8409 140.179C74.8732 143.454 72.4672 146.799 69.0878 146.799Z" fill="#FCECFF"/>
<path d="M128.012 149.836H163.792C164.889 149.826 165.953 149.462 166.821 148.797C167.689 148.133 168.314 147.206 168.6 146.158L187.871 78.4822C188.797 75.2229 186.395 71.9675 183.059 71.9675H149.05C147.973 71.9771 146.927 72.3288 146.067 72.9708C145.207 73.6129 144.578 74.5112 144.273 75.5337L123.24 143.201C122.219 146.488 124.629 149.836 128.012 149.836Z" fill="#FFBFED"/>
<path d="M130.006 147.012H163.191C164.209 147.004 165.197 146.666 166.002 146.05C166.808 145.434 167.388 144.574 167.654 143.601L185.528 80.8324C186.387 77.8101 184.158 74.7878 181.065 74.7878H149.517C148.519 74.7969 147.551 75.1226 146.754 75.7169C145.957 76.3113 145.374 77.143 145.09 78.0898L125.579 140.863C124.633 143.904 126.866 147.012 130.006 147.012Z" fill="#FCECFF"/>
<path d="M74.0921 69.7765C74.0921 69.7765 78.8373 68.9802 81.1569 68.1877C83.4765 67.3952 87.1777 66.0045 87.1777 66.0045L82.6641 59.6491C82.6641 59.6491 84.7678 57.4659 87.1777 56.821C89.5876 56.1762 91.3891 55.8771 93.4968 54.5368C94.9925 53.5565 96.4338 52.497 97.8142 51.363C97.8142 51.363 99.8709 54.4708 100.774 54.7855C101.676 55.1001 120.908 56.1101 120.908 56.1101L127.832 69.7843L114.817 75.3161L116.473 76.3611L119.554 80.0826L109.251 88.4231L96.8408 83.2836L91.0477 88.4231L82.4129 85.9136L87.2248 81.1237L81.3453 82.5261L74.0921 69.7765Z" fill="#3C4846"/>
<path d="M89.0146 69.4269C90.6658 70.157 92.2168 71.0916 93.6303 72.2083C95.4867 73.7971 95.4867 75.285 97.6925 74.3915C99.8983 73.498 106.064 66.3036 109.075 64.8623C111.189 63.9012 113.388 63.1365 115.645 62.5781C115.645 62.5781 108.773 66.2531 106.017 69.3297C103.262 72.4064 102.006 75.8793 98.8936 76.6757C95.7811 77.4721 94.4309 74.5896 92.3272 72.655C90.2234 70.7205 89.0146 69.4269 89.0146 69.4269Z" fill="#FCECFF"/>
<path d="M56.795 100.547C58.8412 100.429 60.8846 100.822 62.7373 101.689C65.7242 103.131 66.6623 103.674 66.6623 103.674C66.6623 103.674 68.1694 99.5334 68.0674 97.5211C67.8899 95.6631 67.5936 93.818 67.1803 91.9971L62.1957 96.0061C62.1957 96.0061 59.9742 92.335 57.7645 94.9145C55.5548 97.4939 57.3328 98.6943 57.3328 98.6943L56.795 100.547Z" fill="#EBB490"/>
<path d="M72.6673 107.921C71.1992 106.357 70.0574 104.522 69.3076 102.521C68.2911 99.5063 68.4991 94.9456 68.2558 93.7181C67.9692 92.2769 67.1843 91.7447 67.1843 91.7447C67.1843 91.7447 67.7455 90.8512 66.725 89.9266C66.5052 89.7285 64.6448 88.431 61.4303 88.7107C58.2159 88.9904 55.8452 91.2785 54.0005 91.7252C52.1558 92.172 52.4973 92.8052 47.0809 92.5837C41.6645 92.3623 38.8818 92.137 35.7615 93.3607C32.6412 94.5844 31.3577 97.6028 31.3577 97.6028L45.0478 110.597L56.1828 101.623C56.6432 100.962 57.0375 100.259 57.3602 99.5218C57.6428 98.7216 57.9058 97.7737 57.9058 97.7737C57.9058 97.7737 57.3563 95.3147 58.7457 94.6659C60.1351 94.0172 61.1752 95.171 61.344 95.3186C61.6039 95.6181 61.8121 95.9581 61.9602 96.3247C62.0348 96.5656 63.7146 95.6527 64.637 94.7708C65.5593 93.889 66.6308 92.9101 66.6308 92.9101C66.3774 93.7191 65.9473 94.4632 65.3709 95.0894L63.9423 96.4646C64.6621 96.1934 65.32 95.7827 65.8773 95.2564C66.6443 94.3588 67.0815 93.2305 67.1175 92.0554C67.1175 92.0554 67.9457 95.1321 67.8201 97.6611C67.6945 100.19 66.5955 103.267 66.5955 103.267L66.203 104.432L69.4097 106.763L72.6673 107.921Z" fill="#211A14"/>
<path d="M33.7284 134.721C33.8775 134.333 39.8983 116.778 43.4307 112.535C46.9632 108.293 50.0835 104.378 52.0145 103.395C53.9456 102.412 55.1544 101.48 57.2111 101.095C59.2677 100.71 65.4338 103.546 65.4338 103.546L66.4503 104.568C66.4503 104.568 75.7759 110.263 78.0327 109.595C80.2895 108.927 90.3687 100.846 90.3687 100.846L97.4021 108.942C97.4021 108.942 86.7107 119.178 83.8494 119.92C82.1968 120.363 80.4975 120.613 78.7863 120.666C78.7863 120.666 81.8948 122.403 84.2537 122.95C86.6125 123.498 94.8313 123.149 94.8313 123.149L91.3224 133.323C91.3224 133.323 76.0153 132.281 74.0921 131.574C72.1689 130.867 67.7298 128.187 67.7298 128.187C66.415 129.237 65.0187 130.182 63.5537 131.015C61.6393 131.956 60.0445 133.431 58.9655 135.257C57.949 137.118 56.4967 142.308 56.4967 142.308L33.7284 134.721Z" fill="#D08B69"/>
<path d="M66.4503 104.568C66.4503 104.568 67.2785 104.013 66.7525 103.403C66.2266 102.793 63.6675 101.46 61.0732 100.683C58.4788 99.9065 56.8225 100.124 56.4457 100.384C56.0689 100.645 56.1827 101.612 56.1827 101.612C57.8393 101.424 59.5172 101.581 61.1085 102.074C62.9692 102.726 64.7589 103.561 66.4503 104.568Z" fill="#F2D7B9"/>
<path d="M55.9433 146.799L56.4967 142.292L33.7323 134.721C33.7323 134.721 32.704 138.734 32.4018 140.762C32.0996 142.79 31.8209 146.55 31.8209 146.55L33.9207 147.677L55.9433 146.799Z" fill="#949B90"/>
<path d="M33.2064 136.862L56.4261 142.879L56.4967 142.292L33.7284 134.721L33.2064 136.862Z" fill="#3A4741"/>
<path d="M90.7494 101.281C90.7494 101.281 93.7166 98.6865 96.9154 98.131C100.114 97.5755 103.87 94.2463 104.549 94.6658C105.228 95.0854 105.189 96.6393 104.738 97.3851C104.286 98.131 102.555 99.2459 102.555 99.2459C102.555 99.2459 102.312 99.7859 103.439 99.9529C104.565 100.12 111.528 99.7859 112.521 100.085C113.514 100.384 114.157 101.274 114.197 101.573C114.236 101.872 113.632 102.393 113.632 102.393C113.632 102.393 115.492 102.967 115.928 103.946C116.363 104.925 116.002 105.473 115.833 105.566C115.665 105.66 111.96 105.846 111.96 105.846C111.612 106.408 111.067 106.824 110.429 107.011C109.349 107.334 107.681 108.056 105.99 107.955C104.298 107.854 101.076 107.458 99.9219 107.567C98.7679 107.676 96.6838 108.119 96.6838 108.119L90.7494 101.281Z" fill="#EBB490"/>
<path d="M91.503 100.687L98.3401 107.773L96.6838 108.099L90.7494 101.282L91.503 100.687Z" fill="#B07B58"/>
<path d="M94.7214 123.452L105.224 123.817L111.198 130.669C111.198 130.669 111.198 132.041 110.268 132.487C109.81 132.719 109.33 132.907 108.835 133.047C108.909 133.214 108.931 133.399 108.897 133.579C108.863 133.758 108.776 133.923 108.647 134.053C108.196 134.574 106.579 134.873 106.579 134.873C106.385 135.321 106.089 135.72 105.715 136.038C105.189 136.407 102.183 135.7 102.183 135.7L95.6751 133.727L91.3263 133.338L94.7214 123.452Z" fill="#EBB490"/>
<path d="M93.1122 133.474L95.2238 123.452H94.7253L91.3263 133.307L93.1122 133.474Z" fill="#B07B58"/>
<path d="M67.7298 128.171C67.7298 128.171 63.0631 123.976 61.5442 122.488C60.0252 121 56.8343 122.041 56.8343 122.041C56.8343 122.041 59.0597 121.09 61.5442 123.452C64.0286 125.813 62.3527 131.707 62.3527 131.707C62.3527 131.707 63.8873 130.895 64.9157 130.199C65.944 129.504 67.7298 128.171 67.7298 128.171Z" fill="#9B5335"/>
<path d="M78.7863 120.651C78.7863 120.651 74.1235 117.077 70.2849 113.577C66.4464 110.077 66.6505 107.05 65.1472 105.419C63.644 103.787 62.7373 103.383 62.7373 103.383C62.7373 103.383 65.1198 104.498 66.2698 105.765C67.4198 107.031 67.5728 109.374 69.1899 111.16C70.8069 112.947 78.7863 120.651 78.7863 120.651Z" fill="#9B5335"/>
<path d="M76.0271 131.932C76.0271 131.932 76.8788 131.248 76.5295 130.852C76.4955 130.797 76.4505 130.751 76.3971 130.714C76.3438 130.678 76.2834 130.653 76.2198 130.642C76.1562 130.63 76.0908 130.632 76.0279 130.646C75.9649 130.661 75.9058 130.689 75.8544 130.728C75.8544 130.728 76.0545 129.636 75.5247 129.485C74.9948 129.333 74.6494 130.056 74.6494 130.056C74.6494 130.056 74.3472 129.139 73.8644 129.065C73.3817 128.991 72.9107 129.807 72.9107 129.807C72.9107 129.807 72.8361 129.419 72.1846 129.419C71.533 129.419 71.7921 130.464 71.7921 130.464C72.5321 130.869 73.2962 131.23 74.0803 131.543C74.717 131.727 75.3682 131.857 76.0271 131.932Z" fill="#F2D7B9"/>
<path d="M85.0112 118.471C84.9777 118.434 84.9351 118.406 84.8874 118.39C84.8397 118.374 84.7885 118.37 84.739 118.38C84.6895 118.389 84.6434 118.411 84.6051 118.444C84.5668 118.476 84.5376 118.518 84.5206 118.565C84.5206 118.565 84.2026 117.897 83.712 117.916C83.2214 117.935 83.3941 118.53 83.3941 118.53C83.3685 118.472 83.3312 118.42 83.2847 118.378C83.2381 118.335 83.1832 118.302 83.1233 118.281C83.0634 118.26 82.9998 118.251 82.9363 118.255C82.8729 118.259 82.811 118.276 82.7543 118.304C82.3383 118.53 82.5856 119.423 82.5856 119.423H82.04C81.5886 119.423 81.8987 120.324 81.8987 120.328C82.4953 120.223 83.1547 120.087 83.8612 119.905C84.3633 119.74 84.8401 119.507 85.2781 119.213C85.2924 119.078 85.2758 118.941 85.2296 118.812C85.1834 118.684 85.1088 118.568 85.0112 118.471Z" fill="#F2D7B9"/>
<path d="M43.2267 147.304C43.2267 147.304 43.733 145.256 44.5611 144.736C44.9666 144.443 45.4495 144.275 45.9505 144.25C45.9505 144.25 44.5964 144.697 44.3806 145.443C44.232 146.052 44.1595 146.677 44.1647 147.304H43.2267Z" fill="#3A4741"/>
<path d="M57.9136 97.7776C58.1017 98.0631 58.3766 98.2821 58.6986 98.403C59.0295 98.5057 59.3843 98.5057 59.7152 98.403C59.3796 98.616 58.9817 98.7117 58.5848 98.675C58.0589 98.5623 57.3877 99.4169 57.3877 99.4169L57.9136 97.7776Z" fill="#B07B58"/>
<path d="M60.2058 95.8042C60.4067 95.8837 60.575 96.0275 60.6839 96.2127C60.7927 96.3978 60.8358 96.6137 60.8063 96.8259C60.6768 97.5523 58.9459 97.3309 58.9459 97.3309C58.9459 97.3309 59.9428 97.191 59.9703 96.9191C59.9978 96.6472 59.3776 96.3053 59.3776 96.3053C59.6094 96.3326 59.8372 96.386 60.0566 96.4646C60.1391 96.5384 60.2647 96.6666 60.2647 96.6666C60.2647 96.6666 60.6846 96.5112 60.2058 95.8042Z" fill="#B07B58"/>
<path d="M113.632 102.393C113.632 102.393 110.492 102.474 109.098 102.393C107.705 102.311 105.012 102.004 105.012 102.004C105.012 102.004 108.706 102.358 110.06 102.214C111.293 102.14 112.53 102.156 113.761 102.261L113.632 102.393Z" fill="#B07B58"/>
<path d="M111.96 105.835C111.96 105.835 112.352 105.182 110.963 104.669C109.573 104.156 108.368 104.743 106.845 104.91C105.848 105.002 104.842 104.927 103.87 104.689C104.666 104.777 105.468 104.811 106.268 104.79C107.136 104.724 109.279 104.195 109.946 104.269C110.746 104.314 111.522 104.557 112.203 104.976C112.898 105.469 112.748 105.78 112.748 105.78L111.96 105.835Z" fill="#B07B58"/>
<path d="M102.555 99.2305C102.394 99.3745 102.221 99.5045 102.037 99.6189C101.925 99.6933 101.802 99.7497 101.672 99.786L102.544 99.4364V99.3354L102.555 99.2305Z" fill="#B07B58"/>
<path d="M101.201 101.095C101.036 101.815 100.692 102.482 100.201 103.038C99.7844 103.568 99.1871 103.93 98.5207 104.055C98.5207 104.055 100.091 104.005 100.601 103.088C100.932 102.47 101.136 101.792 101.201 101.095Z" fill="#B07B58"/>
<path d="M108.835 133.047C108.286 132.919 107.753 132.732 107.246 132.487C106.583 132.203 105.941 131.872 105.326 131.497C105.326 131.497 106.441 132.585 107.469 132.822C107.915 132.945 108.373 133.02 108.835 133.047Z" fill="#B07B58"/>
<path d="M106.579 134.873C105.855 134.751 105.148 134.544 104.475 134.255C103.863 133.959 103.285 133.598 102.752 133.179C102.752 133.179 103.749 134.407 104.667 134.647C105.293 134.798 105.935 134.873 106.579 134.873Z" fill="#B07B58"/>
<path d="M52.9722 102.921H52.8348C52.8849 101.963 53.2967 101.059 53.9887 100.388C55.123 99.3083 57.4466 98.9159 57.5447 98.9004V99.0325C57.5211 99.0325 55.1662 99.4209 54.0672 100.485C53.4133 101.137 53.0237 102.004 52.9722 102.921Z" fill="white"/>
<path d="M40.8992 106.611L40.7657 106.569C40.7657 106.53 42.1002 102.762 44.6906 101.278C45.7616 100.664 46.923 100.219 48.1328 99.9608C49.1813 99.7244 50.1983 99.3672 51.1628 98.8964C52.1036 98.4257 52.9882 97.8524 53.8003 97.1872C54.4793 96.6588 55.0171 96.2393 55.7942 96.1072C57.2503 95.8586 57.9843 95.7188 57.9843 95.7188L58.0078 95.8547C58.0078 95.8547 57.2739 95.9868 55.8177 96.2432C55.0759 96.3714 54.5775 96.7598 53.8867 97.2998C53.0661 97.9693 52.1737 98.5477 51.2256 99.0246C50.2521 99.4986 49.226 99.8584 48.1681 100.097C46.9702 100.354 45.8197 100.793 44.7574 101.398C42.214 102.863 40.911 106.584 40.8992 106.611Z" fill="white"/>
<path d="M35.9185 101.884L35.785 101.86C35.785 101.81 36.7152 96.9074 40.8089 95.4234C42.3483 94.7981 44.0225 94.5682 45.6758 94.7552C47.2331 94.8867 48.801 94.824 50.3425 94.5688C52.2472 94.3043 54.0734 93.6423 55.7 92.6264C56.6655 92.067 57.5015 91.5853 58.7496 91.527C61.4971 91.4105 64.5663 94.5998 64.6959 94.7358L64.5938 94.829C64.5624 94.798 61.5402 91.6591 58.9066 91.6591H58.7575C57.5408 91.7174 56.7597 92.168 55.7706 92.743C54.1265 93.761 52.2833 94.423 50.3621 94.6853C48.8064 94.9432 47.2241 95.0072 45.6522 94.8757C44.0177 94.6909 42.3624 94.9181 40.8403 95.5361C36.8369 97.0084 35.9303 101.833 35.9185 101.884Z" fill="white"/>
<path d="M99.6707 130.048C100.776 129.889 101.89 129.803 103.007 129.791C103.984 129.857 104.836 130.417 105.727 130.728C106.409 130.914 107.121 130.964 107.823 130.875C107.558 130.405 107.201 129.993 106.772 129.663C106.343 129.332 105.852 129.091 105.326 128.952C103.584 128.529 99.6707 130.048 99.6707 130.048Z" fill="#B07B58"/>
<path d="M138.362 97.5796C138.531 96.1243 138.824 94.6857 139.238 93.2792C139.689 91.939 141.259 89.4373 141.259 89.4373L144.43 94.5923L143.677 99.3316L140.929 99.6307L138.362 97.5796Z" fill="#D08B69"/>
<path d="M122.667 112.858L130.03 121.373L133.598 118.58L136.906 135.21L145.482 132.379L147.688 130.693L155.761 120.204L165.366 114.645C165.366 114.645 161.869 105.978 157.842 102.991C153.815 100.003 150.946 99.8131 149.431 99.883C148.223 99.9831 147.025 100.175 145.847 100.458L138.453 101.752C138.453 101.752 132.546 103.779 130.787 105.12C129.029 106.46 122.667 112.858 122.667 112.858Z" fill="#5546FF"/>
<path d="M143.441 86.3372C142.905 86.6258 142.406 86.9766 141.954 87.3821C141.608 87.7473 141.51 89.208 141.51 89.208C141.51 89.208 144.21 86.1546 147.319 87.3977C150.428 88.6408 150.18 90.9949 149.953 92.0127C149.71 92.9367 149.41 93.8449 149.054 94.732L147.821 96.6977L145.29 95.4817L145.855 100.474C145.655 100.999 145.333 101.47 144.914 101.849C144.495 102.228 143.992 102.503 143.445 102.653C141.545 103.193 140.419 103.041 139.685 102.653C138.951 102.264 138.633 102.226 138.284 101.425C137.935 100.625 137.719 98.3642 137.891 98.0573C138.072 97.8133 138.307 97.6138 138.578 97.4746C139.054 97.1735 139.611 97.0219 140.176 97.0395C141.192 97.1327 141.428 98.5584 141.934 98.8265C142.44 99.0945 143.504 98.1039 143.531 97.9718C143.559 97.8398 143.814 94.798 143.814 94.798C143.007 94.1833 142.389 93.3589 142.028 92.4167C141.714 91.4472 141.463 90.4584 141.279 89.4566C141.279 89.4566 141.188 87.588 141.671 87.1258C142.154 86.6635 143.441 86.3372 143.441 86.3372Z" fill="#2E332E"/>
<path d="M147.366 100.14C147.366 100.14 147.417 99.654 147.492 99.1334C147.548 98.7943 147.662 98.4671 147.829 98.1661C147.829 98.1661 149.749 97.4241 149.372 95.4857C148.995 93.5472 146.475 93.9046 146.475 93.9046C146.046 94.0451 145.636 94.2382 145.255 94.4795C145.104 94.5879 144.972 94.719 144.862 94.868C144.732 95.8688 144.732 96.8818 144.862 97.8825C145.007 98.7962 145.341 99.6703 145.843 100.45L147.366 100.14Z" fill="#D08B69"/>
<path d="M122.667 112.858C122.667 112.858 119.48 116.354 116.132 117.52C112.784 118.685 105.012 121.532 103.76 123.071C102.508 124.609 101.351 127.041 100.35 127.732C99.3488 128.424 98.3872 128.991 98.6934 129.776C98.9995 130.56 101.441 129.469 102.909 129.321C103.708 129.229 104.515 129.229 105.315 129.321C105.315 129.321 106.367 130.611 107.823 130.875C109.279 131.139 111.434 130.794 114.142 129.791C116.85 128.789 124.924 125.763 125.779 124.92C126.635 124.077 130.03 121.373 130.03 121.373L122.667 112.858Z" fill="#D08B69"/>
<path d="M98.4422 132.686C98.4422 132.686 98.2931 131.571 97.4021 131.718C96.5111 131.866 95.3611 133.855 95.4396 134.993C95.5181 136.131 95.9146 137.576 96.4915 137.775C96.7297 137.877 96.9948 137.901 97.2478 137.843C97.5007 137.785 97.7281 137.648 97.8966 137.452C98.0629 137.204 98.134 136.905 98.0968 136.609L98.4422 132.686Z" fill="#D08B69"/>
<path d="M98.4422 132.686C97.8186 133.21 97.3551 133.896 97.1038 134.667C96.8408 135.766 97.9869 137.46 97.9437 137.386C97.9005 137.312 98.4422 132.686 98.4422 132.686Z" fill="#9A5335"/>
<path d="M100.193 133.109C100.193 133.109 100.055 132.076 99.2311 132.212C98.4069 132.348 97.3354 134.189 97.406 135.249C97.4767 136.31 97.8495 137.638 98.3833 137.821C98.6032 137.916 98.8482 137.939 99.0822 137.886C99.3161 137.833 99.5266 137.706 99.6825 137.526C99.8358 137.297 99.9025 137.022 99.8709 136.749L100.193 133.109Z" fill="#D08B69"/>
<path d="M100.193 133.109C99.7901 133.411 99.4758 133.813 99.2821 134.274C99.0584 134.958 99.0466 135.828 99.2821 136.12C99.4624 136.337 99.6592 136.541 99.8709 136.729L100.193 133.109Z" fill="#9A5335"/>
<path d="M102.752 135.813C102.752 135.813 102.783 137.627 101.727 137.755C100.672 137.883 99.8512 137.114 99.5726 135.968C99.2939 134.822 99.7963 133.089 100.573 132.841C101.351 132.592 102.179 135.692 102.179 135.692L102.752 135.813Z" fill="#D08B69"/>
<path d="M122.667 112.858L127.604 123.331L130.03 121.358L122.667 112.858Z" fill="#9A5335"/>
<path d="M124.657 110.9L132.161 119.691L130.03 121.358L122.667 112.858L124.657 110.9Z" fill="#3A4741"/>
<path d="M155.761 120.204L154.384 117.337L164.263 112.19L164.907 113.573L165.366 114.645L155.761 120.204Z" fill="#3A4741"/>
<path d="M138.15 134.783L139.191 147.012H163.195L147.688 130.677L145.482 132.363L138.15 134.783Z" fill="#5E3A28"/>
<path d="M138.331 136.943L148.759 131.804L147.688 130.677L145.482 132.363L138.15 134.783L138.331 136.943Z" fill="#462416"/>
<path d="M144.528 133.288L155.761 120.204L166.92 119.687L182.82 135.84L169.577 155.792L144.528 133.288Z" fill="#D0B697"/>
<path d="M166.174 133.703L174.468 148.426L169.577 155.792L144.528 133.288L148.461 128.708L166.174 133.703Z" fill="#BB9F84"/>
<path d="M155.761 120.208C155.761 120.208 156.864 123.409 157.092 125.647C157.32 127.884 157.543 134.655 157.485 135.696C157.426 136.737 156.256 137.709 155.777 138.975C155.298 140.241 153.171 143.392 152.818 143.613C152.465 143.835 153.352 145.626 155.031 145.513C155.977 145.451 157.728 143.718 157.728 143.718C157.728 143.718 156.597 145.936 156.974 146.698C157.351 147.459 159.039 147.436 159.039 147.436C159.106 147.692 159.26 147.917 159.474 148.075C159.687 148.233 159.949 148.315 160.216 148.306C161.194 148.306 162.473 146.616 162.473 146.616C162.473 146.616 162.94 148.966 163.776 149.37C164.612 149.774 164.377 146.492 164.781 145.152C165.185 143.811 165.872 141.469 166.21 139.791C166.547 138.113 168.239 126.8 167.45 122.22C167.03 119.633 166.336 117.097 165.381 114.653L155.761 120.208Z" fill="#D08B69"/>
<path d="M156.543 122.815L165.609 115.263L165.366 114.645L155.761 120.204L156.543 122.815Z" fill="#9A5335"/>
<path d="M157.477 134.274C158.673 133.779 159.973 133.582 161.264 133.7C163.164 133.96 164.443 134.274 164.443 134.274L164.879 131.862C164.879 131.862 162.677 130.852 160.907 130.961C159.716 131.061 158.541 131.305 157.41 131.687L157.477 134.274Z" fill="#3A4741"/>
<path d="M165.911 135.467C167.127 135.467 168.113 134.491 168.113 133.288C168.113 132.084 167.127 131.108 165.911 131.108C164.695 131.108 163.709 132.084 163.709 133.288C163.709 134.491 164.695 135.467 165.911 135.467Z" fill="#D0B273"/>
<path d="M166.174 135.207C167.245 135.207 168.113 134.348 168.113 133.288C168.113 132.228 167.245 131.369 166.174 131.369C165.103 131.369 164.235 132.228 164.235 133.288C164.235 134.348 165.103 135.207 166.174 135.207Z" fill="#5546FF"/>
<path d="M154.384 117.337C154.384 117.337 151.562 111.755 150.922 110.376C150.282 108.997 148.63 107.509 148.63 107.509L150.066 109.521L146.636 109.37L150.247 110.115L154.384 117.337Z" fill="#2E332E"/>
<path d="M133.598 118.565L132.97 112.015L132.42 117.531L130.03 121.358L133.598 118.565Z" fill="#2E332E"/>
<path d="M151.683 147.012C151.683 147.012 151.032 142.094 150.329 140.653C149.873 139.746 149.262 138.924 148.524 138.221C148.524 138.221 150.004 140.206 150.329 141.97C150.655 143.734 150.934 147.02 150.934 147.02L151.683 147.012Z" fill="#462416"/>
<path d="M155.075 108.861C155.911 108.861 156.59 108.189 156.59 107.361C156.59 106.533 155.911 105.862 155.075 105.862C154.238 105.862 153.56 106.533 153.56 107.361C153.56 108.189 154.238 108.861 155.075 108.861Z" fill="#3A4741"/>
<path d="M147.837 98.166C147.584 98.3296 147.287 98.4123 146.985 98.403C146.604 98.3768 146.229 98.297 145.871 98.166C146.152 98.4299 146.488 98.6289 146.856 98.7487C147.102 98.8162 147.364 98.8026 147.602 98.7099C147.617 98.6671 147.837 98.166 147.837 98.166Z" fill="#9A5335"/>
<path d="M147.327 94.9573C147.084 94.9769 146.853 95.0692 146.664 95.2219C146.476 95.3745 146.339 95.5803 146.271 95.8119C146.036 96.6316 147.327 97.2143 147.327 97.2143C147.327 97.2143 146.593 96.6316 146.785 96.3363C146.978 96.0411 147.637 96.0877 147.637 96.0877C147.411 95.9997 147.179 95.9283 146.942 95.8741C146.812 95.8541 146.681 95.8424 146.55 95.8391C146.55 95.8391 146.546 95.3457 147.327 94.9573Z" fill="#9A5335"/>
<path d="M102.179 135.688C102.234 135.861 102.272 136.037 102.293 136.217C102.298 136.303 102.298 136.39 102.293 136.477L102.418 135.751L102.179 135.688Z" fill="#9A5335"/>
<path d="M159.023 147.428C159.597 146.695 160.093 145.905 160.503 145.07C160.722 144.509 160.882 143.927 160.978 143.333C160.937 144.134 160.836 144.93 160.675 145.715C160.503 146.162 159.023 147.428 159.023 147.428Z" fill="#9A5335"/>
<path d="M162.457 146.624C162.402 146.217 162.383 145.806 162.402 145.396C162.442 144.759 162.457 144.472 162.457 144.472L161.959 147.191L162.457 146.624Z" fill="#9A5335"/>
<path d="M157.712 143.71C157.909 143.378 158.082 143.033 158.23 142.677C158.312 142.463 158.36 142.237 158.372 142.009C158.355 142.582 158.279 143.152 158.144 143.71C157.945 144.025 157.677 144.29 157.359 144.487L157.712 143.71Z" fill="#9A5335"/>
</g>
</g>
<defs>
<clipPath id="clip0_119_2361">
<rect width="204.538" height="110.792" fill="white" transform="translate(-2 45)"/>
</clipPath>
</defs>
</svg>
