<svg width="200" height="200" viewBox="0 0 200 200" fill="none" xmlns="http://www.w3.org/2000/svg">
<mask id="mask0_119_2451" style="mask-type:alpha" maskUnits="userSpaceOnUse" x="0" y="0" width="200" height="200">
<rect width="200" height="200" fill="black"/>
</mask>
<g mask="url(#mask0_119_2451)">
</g>
<g clip-path="url(#clip0_119_2451)">
<path d="M146.194 50.8475L135.221 39.1317L149.916 44.9896L145.094 31.8506L158.857 43.7231L157.436 29.7921L165.475 43.4054L172.249 29L171.301 46.4127L187.214 41.3469L176.081 50.0554L194.936 58.9375L179.495 58.0862L183.593 69.2725L176.081 62.1693L146.194 50.8475Z" fill="#D08B69"/>
<path d="M38.3734 159.5C38.3734 159.5 5.81817 159.606 1.40889 157.154C-3.00038 154.701 30.027 152.778 30.027 152.778L38.3734 159.5Z" fill="#2E332E"/>
<path d="M168.616 50.8474H34.9253C30.8023 50.8474 27.4599 54.2059 27.4599 58.3487V151.999C27.4599 156.142 30.8023 159.5 34.9253 159.5H168.616C172.739 159.5 176.081 156.142 176.081 151.999V58.3487C176.081 54.2059 172.739 50.8474 168.616 50.8474Z" fill="#FCECFF"/>
<path d="M34.8494 50.8474H168.696C170.654 50.8474 172.533 51.6293 173.918 53.0209C175.303 54.4126 176.081 56.3001 176.081 58.2683V62.1651H27.4599V58.2683C27.4599 57.2934 27.651 56.3281 28.0224 55.4274C28.3939 54.5268 28.9382 53.7086 29.6245 53.0194C30.3107 52.3303 31.1254 51.7838 32.0219 51.4111C32.9184 51.0384 33.8792 50.8469 34.8494 50.8474Z" fill="#FFBFED"/>
<path d="M35.174 57.8912C35.8259 57.8912 36.3543 57.3603 36.3543 56.7053C36.3543 56.0503 35.8259 55.5193 35.174 55.5193C34.5221 55.5193 33.9937 56.0503 33.9937 56.7053C33.9937 57.3603 34.5221 57.8912 35.174 57.8912Z" fill="#D06A53"/>
<path d="M41.7921 57.8912C42.444 57.8912 42.9724 57.3603 42.9724 56.7053C42.9724 56.0503 42.444 55.5193 41.7921 55.5193C41.1402 55.5193 40.6118 56.0503 40.6118 56.7053C40.6118 57.3603 41.1402 57.8912 41.7921 57.8912Z" fill="#D0B273"/>
<path d="M48.1489 57.8912C48.8007 57.8912 49.3292 57.3603 49.3292 56.7053C49.3292 56.0503 48.8007 55.5193 48.1489 55.5193C47.497 55.5193 46.9686 56.0503 46.9686 56.7053C46.9686 57.3603 47.497 57.8912 48.1489 57.8912Z" fill="#5546FF"/>
<path d="M116.307 159.331C116.265 159.14 111.594 140.021 97.2158 123.963C89.2698 115.09 75.5193 108.19 63.3874 102.107C53.123 96.9568 44.2581 92.5093 40.4896 87.812C32.2822 77.5787 31.3296 60.0643 31.3211 59.8906H31.6373C31.6373 60.0643 32.59 77.477 40.734 87.6299C44.4604 92.2891 53.3001 96.7069 63.5308 101.84C75.6879 107.919 89.4637 114.823 97.4729 123.751C111.902 139.872 116.59 159.064 116.636 159.255L116.307 159.331Z" fill="#FFBFED"/>
<path d="M175.984 108.325C175.563 107.969 132.469 72.678 115.034 71.6191C106.78 71.1151 99.2223 74.6772 91.9128 78.1251C83.7055 81.9922 75.9534 85.6476 68.3573 82.7843C54.2232 77.4346 55.3825 59.1197 55.3993 58.9333L55.7112 58.9588C55.7112 59.1409 54.5562 77.2229 68.467 82.4878C75.9366 85.3129 83.6423 81.6872 91.7779 77.8286C99.1253 74.368 106.717 70.7847 115.055 71.293C132.587 72.3603 175.756 107.72 176.178 108.071L175.984 108.325Z" fill="#FFBFED"/>
<path d="M139.778 159.331C139.749 159.208 136.853 146.95 142.662 139.559C148.47 132.168 173.564 134.946 174.631 135.069L174.593 135.382C174.336 135.353 148.618 132.498 142.91 139.758C137.203 147.018 140.057 159.132 140.086 159.242L139.778 159.331Z" fill="#FFBFED"/>
<path d="M80.0929 159.56C80.0128 159.373 72.0247 140.813 61.6296 136.734C60.3287 136.189 58.9297 135.919 57.5203 135.943C56.111 135.966 54.7216 136.281 53.4392 136.869C39.2587 143.278 35.9285 159.369 35.9285 159.53L35.6208 159.466C35.6545 159.305 38.9931 143.053 53.3254 136.594C54.6454 135.989 56.0755 135.664 57.5262 135.64C58.9769 135.616 60.417 135.893 61.7561 136.454C72.2734 140.58 80.3037 159.263 80.3964 159.449L80.0929 159.56Z" fill="#FFBFED"/>
<path d="M156.1 116.602H122.242V117.444H156.1V116.602Z" fill="#D08B69"/>
<path d="M97.1652 92.4414H63.3073V93.2843H97.1652V92.4414Z" fill="#D08B69"/>
<path d="M97.1652 103.162H63.3073V104.005H97.1652V103.162Z" fill="#D08B69"/>
<path d="M156.1 118.148H130.146V118.991H156.1V118.148Z" fill="#D08B69"/>
<path d="M156.096 119.804H134.682V120.647H156.096V119.804Z" fill="#D08B69"/>
<path d="M156.1 123.586H122.242V124.429H156.1V123.586Z" fill="#D08B69"/>
<path d="M156.096 125.293H126.319V126.136H156.096V125.293Z" fill="#D08B69"/>
<path d="M156.1 127.22H124V128.063H156.1V127.22Z" fill="#D08B69"/>
<path d="M156.003 130.135H122.145V130.977H156.003V130.135Z" fill="#D08B69"/>
<path d="M62.9069 64.1177C62.7059 65.3769 62.8129 66.6664 63.2188 67.8747C63.6915 69.2704 64.6356 70.4557 65.8872 71.2251C67.0506 71.8901 68.8969 72.0214 69.622 70.6279C70.0435 69.8316 69.9381 67.9467 68.7199 68.0865C67.5016 68.2263 66.2539 69.984 65.8239 71.0514C65.5399 71.7652 65.3968 72.5276 65.4024 73.2963C65.3813 75.8928 66.9874 77.8666 68.9559 79.3872C71.814 81.5982 75.3802 80.4503 77.4963 77.7903C78.3393 76.7314 79.3805 75.2066 79.1065 73.7368C78.7482 71.8223 76.5309 72.4661 76.7754 74.19C77.197 77.2439 82.9172 76.13 84.7846 75.4607C86.3604 74.8882 87.7967 73.985 88.9982 72.8114C90.1996 71.6378 91.1386 70.2206 91.7526 68.6541C91.799 68.5397 91.7105 68.3703 91.7526 68.2601C90.6316 71.121 88.4516 73.4344 85.6699 74.7153C83.5369 75.6852 77.7408 77.0449 76.8176 73.8893V74.2578C76.864 72.2755 79.1318 72.733 79.1529 74.5755V74.2366C78.2171 78.7899 72.7118 82.0133 68.8126 78.845C66.7049 77.1508 64.867 74.8 65.6975 71.8986C66.0895 70.5177 69.6557 66.4769 69.8622 69.8485V69.4631C69.5166 71.6868 67.0211 71.6444 65.5246 70.5686C64.5904 69.8862 63.855 68.9651 63.3946 67.9007C62.9343 66.8364 62.7659 65.6677 62.9069 64.5158C62.928 64.3845 62.9069 64.249 62.9069 64.1177Z" fill="#2E332E"/>
<path d="M151.99 138.712H144.36V139.029H151.99V138.712Z" fill="#2E332E"/>
<path d="M129.906 166.336C129.906 166.336 119.549 167.014 121.083 165.468C122.618 163.922 128.456 163.532 128.456 163.532L129.906 166.336Z" fill="#2E332E"/>
<path d="M130.024 148.526C128.835 148.526 127.87 152.516 127.87 157.42C127.87 162.325 128.835 166.315 130.024 166.315H151.99V148.526H130.024Z" fill="#BB9F84"/>
<path d="M151.99 166.349C153.18 166.349 154.144 162.359 154.144 157.437C154.144 152.516 153.18 148.526 151.99 148.526C150.801 148.526 149.836 152.516 149.836 157.437C149.836 162.359 150.801 166.349 151.99 166.349Z" fill="#F5EACF"/>
<path d="M151.99 162.639C152.733 162.639 153.335 160.145 153.335 157.069C153.335 153.993 152.733 151.499 151.99 151.499C151.248 151.499 150.646 153.993 150.646 157.069C150.646 160.145 151.248 162.639 151.99 162.639Z" fill="#445250"/>
<path d="M148.546 155.129C147.136 155.085 145.742 154.818 144.415 154.337C140.592 153.066 140.111 148.577 140.107 148.534H140.267C140.267 148.577 140.739 152.969 144.483 154.206C148.226 155.443 149.811 154.833 149.824 154.828L149.887 154.972C149.453 155.106 148.999 155.159 148.546 155.129Z" fill="#F5EACF"/>
<path d="M128.742 164.545L128.667 164.409C128.713 164.384 133.59 161.593 139.112 161.69C144.634 161.787 150.494 163.859 150.549 163.88L150.498 164.028C150.439 164.007 144.596 161.953 139.116 161.851C133.637 161.749 128.793 164.519 128.742 164.545Z" fill="#F5EACF"/>
<path d="M127.929 159.373L127.908 159.212C130.692 158.699 133.203 157.204 134.99 154.998C137.86 151.372 136.621 148.585 136.604 148.559L136.747 148.492C136.747 148.521 138.05 151.389 135.112 155.099C133.296 157.333 130.751 158.847 127.929 159.373Z" fill="#F5EACF"/>
<path d="M92.0688 164.854C92.0688 164.854 85.6319 165.663 85.0418 166.574C84.4516 167.484 95.4032 167.031 95.4032 167.031L92.0688 164.854Z" fill="#2E332E"/>
<path d="M120.375 58.6029C120.375 58.6029 116.75 68.3449 116.712 69.5647C116.674 70.7846 117.222 70.8354 117.222 70.8354C117.222 70.8354 135.184 76.9729 136.01 76.5747C136.836 76.1766 141.646 64.8208 141.646 64.8208L122.424 58.3699C122.424 58.3699 120.746 57.599 120.375 58.6029Z" fill="#7C8174"/>
<path d="M109.154 91.103C109.154 91.103 109.015 86.5158 108.732 85.2748C108.45 84.0337 107.282 82.6487 107.282 82.6487C107.282 82.6487 105.309 86.0076 103.64 86.9987C99.2644 89.5951 103.834 91.4927 103.834 91.4927L104.196 93.0557C104.941 92.4144 105.799 91.9188 106.726 91.5944C107.524 91.3792 108.335 91.2151 109.154 91.103Z" fill="#EBB490"/>
<path d="M110.486 153.884L111.038 135.387C112.493 133.155 113.452 130.634 113.85 127.995C114.533 123.565 117.133 110.028 117.133 110.028L104.344 113.378C104.344 113.378 100.457 119.482 100.457 122.447C100.457 125.412 101.874 133.688 101.874 133.688L91.8454 148.043L96.9376 152.943L102.767 146.416L102.848 154.464L110.486 153.884Z" fill="#5546FF"/>
<path d="M125.665 77.3372C125.665 77.3372 121.728 85.9652 119.89 87.5493C118.052 89.1334 110.385 91.8485 110.385 91.8485C110.385 91.8485 109.09 91.7892 108.007 91.8485C106.924 91.9078 104.167 93.5427 103.033 94.3433C102.195 94.9832 101.632 95.9214 101.461 96.9651C101.461 96.9651 99.5637 103.069 99.5384 105.233C99.5131 107.398 100.167 109.892 101.954 110.168C102.821 110.278 103.67 110.497 104.483 110.82C104.586 111.194 104.656 111.577 104.694 111.964C104.689 112.459 104.568 112.947 104.34 113.387L117.129 110.036C117.129 110.036 117.677 106.5 117.732 104.564C117.787 102.628 118.099 97.609 118.099 97.609C118.099 97.609 122.432 94.9447 125.058 92.5262C127.684 90.1076 131.36 79.4635 131.36 79.4635L125.665 77.3372Z" fill="#D0B273"/>
<path d="M96.6298 111.637L80.2363 102.539C80.2363 102.539 80.7885 100.4 82.7191 99.6887C84.6498 98.9771 87.0525 97.592 87.4445 96.0079C87.8366 94.4238 88.8651 89.0022 91.5798 87.5366C94.2945 86.0711 97.5951 85.7577 98.8303 84.5166C100.065 83.2756 102.203 80.4546 104.213 80.5605C106.224 80.6664 106.468 81.6152 107.206 81.9074C107.944 82.1997 109.019 82.3818 109.137 83.4365C109.206 84.0697 109.07 84.7084 108.749 85.2578C108.631 84.8535 108.48 84.4596 108.298 84.0803C108.046 83.7403 107.731 83.4526 107.371 83.2332C107.141 84.2062 106.71 85.1198 106.106 85.9144C105.221 86.9436 104.534 87.7145 104.534 87.7145C104.534 87.7145 102.156 86.9733 102.173 89.1208C102.194 91.857 104.77 90.5228 104.77 90.5228C104.736 90.7396 104.639 90.9416 104.491 91.103C104.367 91.2014 104.236 91.2906 104.099 91.3699L104.728 93.3861C104.728 93.3861 102.076 95.4065 101.549 97.3591C101.022 99.3117 100.554 104.378 99.6059 107.122C98.976 108.839 97.9571 110.385 96.6298 111.637Z" fill="#211A14"/>
<path d="M109.95 91.209C109.706 91.0804 109.426 91.0358 109.154 91.0819C108.335 91.194 107.524 91.3581 106.726 91.5733C105.799 91.8977 104.941 92.3933 104.196 93.0346C103.933 93.3046 103.75 93.6437 103.669 94.013C103.577 94.5679 103.737 94.6568 103.737 94.6568C103.737 94.6568 105.254 92.9626 107.004 92.539C108.116 92.2577 109.241 92.033 110.376 91.8655C110.367 91.7287 110.323 91.5966 110.248 91.4817C110.174 91.3668 110.071 91.2729 109.95 91.209Z" fill="#F2D7B9"/>
<path d="M104.428 157.942C104.428 157.942 102.923 157.518 102.628 157.942C102.333 158.365 103.792 159.212 103.893 159.822C103.994 160.432 102.81 165.426 102.987 166.396C103.059 166.921 103.279 167.414 103.619 167.819C103.619 167.819 118.546 168.391 119.039 167.065C119.532 165.739 119.157 165.345 119.157 165.345C119.157 165.345 115.738 163.486 114.334 162.262C112.931 161.038 110.482 157.975 110.482 157.975L109.727 157.632L108.125 159.835H107.784L107.059 158.988L104.428 157.942Z" fill="#FFBFED"/>
<path d="M90.8211 149.762C90.8211 149.762 90.2436 147.924 89.7419 148.462C89.2403 149 90.1635 149.081 88.9831 150.305C87.8028 151.529 83.0353 154.739 83.0816 155.769C83.128 156.798 94.0627 167.345 95.4032 167.048C96.7436 166.752 97.5108 166.455 97.2916 165.858C97.0724 165.261 95.7151 162.851 95.4032 160.673C95.0912 158.496 95.205 155.646 95.087 155.252C95.0386 155.127 94.9614 155.015 94.8617 154.926C94.7621 154.837 94.6428 154.773 94.5137 154.739L93.8645 154.595L93.1437 154.04L92.5536 154.278L90.8211 149.762Z" fill="#FFBFED"/>
<path d="M103.636 167.819C103.636 167.819 96.7268 167.899 97.4645 167.145C98.2022 166.392 103.029 166.519 103.029 166.519L103.636 167.819Z" fill="#2E332E"/>
<path d="M103.181 164.439C103.043 165.082 102.984 165.739 103.003 166.396C103.076 166.921 103.295 167.414 103.636 167.819C103.636 167.819 118.562 168.391 119.056 167.065C119.11 166.913 119.157 166.773 119.19 166.641C119.19 166.641 104.382 165.938 103.813 165.663C103.244 165.388 103.181 164.443 103.181 164.439Z" fill="#FCECFF"/>
<path d="M119.174 165.345C119.174 165.345 118.331 164.892 117.323 164.291C117.323 164.291 116.927 164.515 116.902 164.833C116.876 165.151 117.69 165.561 117.787 165.799C117.884 166.036 117.057 166.536 117.057 166.536L119.203 166.642C119.464 165.65 119.174 165.345 119.174 165.345Z" fill="#FCECFF"/>
<path d="M112.062 159.903C112.062 159.903 111.198 160.123 111.177 160.813C111.156 161.504 114.802 163.96 115.232 163.96C115.662 163.96 115.78 163.333 115.78 163.333C115.277 163.006 114.794 162.648 114.334 162.262C113.526 161.527 112.767 160.738 112.062 159.903Z" fill="#5546FF"/>
<path d="M95.968 164.604C95.597 164.604 95.205 164.947 94.6022 165.104C93.9994 165.261 91.5292 162.838 89.1222 160.352C86.7153 157.865 84.831 153.693 84.831 153.693C83.8193 154.54 83.0395 155.332 83.0563 155.752C83.0943 156.781 94.0458 167.311 95.3863 167.031C96.7268 166.752 97.494 166.438 97.2748 165.845C97.2031 165.663 97.0261 165.311 96.8111 164.846C96.5466 164.715 96.2611 164.634 95.968 164.604Z" fill="#FCECFF"/>
<path d="M95.4031 160.674C95.2742 159.69 95.1997 158.7 95.1797 157.709C95.1797 157.709 93.6116 157.531 93.1943 158.259C92.777 158.988 94.6528 162.495 94.99 162.516C95.3051 162.565 95.6174 162.63 95.9259 162.711C95.6887 162.05 95.5137 161.368 95.4031 160.674Z" fill="#5546FF"/>
<path d="M123.891 62.3811L124.27 64.7573L126.432 65.7866L124.304 66.8878L123.996 69.2725L122.297 67.574L119.941 68.0187L121.024 65.8713L119.878 63.7577L122.242 64.1304L123.891 62.3811Z" fill="#D0B273"/>
<path d="M131.192 64.5667L131.571 66.9428L133.733 67.9763L131.605 69.0734L131.297 71.4623L129.598 69.7638L127.242 70.2043L128.325 68.0611L127.179 65.9475L129.543 66.316L131.192 64.5667Z" fill="#D0B273"/>
<path d="M115.043 95.9274C115.885 95.9274 116.569 95.241 116.569 94.3941C116.569 93.5473 115.885 92.8608 115.043 92.8608C114.2 92.8608 113.517 93.5473 113.517 94.3941C113.517 95.241 114.2 95.9274 115.043 95.9274Z" fill="#906B53"/>
<path d="M127.394 70.179L125.488 73.5802L126.664 73.8936L127.394 70.179Z" fill="#3A4741"/>
<path d="M126.188 77.5489C126.188 77.5489 125.796 76.2782 125.585 75.3464C125.457 74.7568 125.378 74.1575 125.349 73.5547L126.669 73.9063C126.669 73.9063 127.217 68.9633 128.135 69.3064C129.054 69.6495 128.658 72.3942 128.658 72.3942C129.012 72.3053 129.386 72.3521 129.708 72.5255C130.155 72.8135 130.235 73.686 130.235 73.686C130.491 73.6016 130.767 73.6016 131.023 73.686C131.264 73.8462 131.462 74.0628 131.601 74.3171C131.601 74.3171 132.047 72.5 132.73 72.5509C133.413 72.6017 132.545 75.1897 132.334 76.2189C132.017 77.311 131.619 78.3772 131.141 79.4084L126.188 77.5489Z" fill="#EBB490"/>
<path d="M104.049 154.371L104.47 158.496C104.47 158.496 106.532 159.288 106.73 159.39C106.928 159.492 107.004 160.318 107.674 160.36C108.344 160.402 108.639 160.279 108.72 159.843C108.749 159.653 108.816 159.471 108.917 159.308C109.019 159.145 109.152 159.004 109.31 158.894C109.487 158.856 109.702 158.34 109.82 158.14C109.938 157.941 110.452 157.984 110.452 157.984L109.702 153.939L104.049 154.371Z" fill="#EBB490"/>
<path d="M92.2712 148.462L90.4965 150.046C90.8062 150.457 91.0221 150.931 91.1288 151.436C91.2468 152.164 91.1878 153.71 91.6009 154.341C92.014 154.972 92.3892 155.116 92.7433 154.977C93.0974 154.837 93.1648 154.739 93.1648 154.739C93.3542 154.876 93.5693 154.973 93.7971 155.023C93.9324 155.056 94.0742 155.046 94.2038 154.995C94.3334 154.944 94.4444 154.855 94.5222 154.739L96.5455 152.571L92.2712 148.462Z" fill="#EBB490"/>
<path d="M103.429 88.2271C103.429 88.2271 104.319 88.3922 104.454 89.1038C104.588 89.8154 103.471 90.1289 103.471 90.1289C103.471 90.1289 104.395 89.4088 104.192 89.1123C103.99 88.8158 103.265 89.0699 103.265 89.0699C103.359 88.9472 103.478 88.8461 103.615 88.7734C103.722 88.7355 103.836 88.7268 103.948 88.748C103.948 88.748 103.935 88.477 103.429 88.2271Z" fill="#B07B58"/>
<path d="M104.049 154.371L104.281 156.565L109.849 154.659L109.714 153.943L104.049 154.371Z" fill="#B07B58"/>
<path d="M101.874 133.697C102.68 132.89 103.272 131.892 103.594 130.795C104.066 129.05 103.24 125.094 103.24 125.094C103.24 125.094 103.766 129.186 103.37 130.384C102.968 131.357 102.43 132.267 101.773 133.087L101.874 133.697Z" fill="#2E332E"/>
<path d="M92.9288 146.497L98.3286 151.402L96.9376 152.96L91.8412 148.051L92.9288 146.497Z" fill="#FFBFED"/>
<path d="M102.826 152.698L110.536 152.219L110.486 153.884L102.843 154.464L102.826 152.698Z" fill="#FFBFED"/>
<path d="M95.8121 149.097L95.5634 148.898C95.6603 148.776 105.339 136.67 107.67 132.172C110.001 127.674 110.874 111.79 110.882 111.629H111.198C111.16 112.285 110.3 127.758 107.948 132.299C105.596 136.839 95.909 148.975 95.8121 149.097Z" fill="#FFBFED"/>
<path d="M107.656 140.447L107.108 152.956L107.424 152.97L107.972 140.461L107.656 140.447Z" fill="#FFBFED"/>
<path d="M102.767 146.429L111.038 135.387L111.013 136.297L110.949 138.275L102.767 146.747V146.429Z" fill="#2E332E"/>
<path d="M104.487 110.811C104.487 110.811 102.624 101.493 102.257 99.0109C101.891 96.5288 103.1 95.7283 103.1 95.7283C102.611 96.6335 102.43 97.675 102.586 98.6932C102.885 100.239 104.487 110.811 104.487 110.811Z" fill="#906B53"/>
<path d="M118.103 97.6006L114.819 99.6845C115.443 99.4249 116.119 99.3161 116.792 99.3668C117.026 99.4064 117.25 99.4937 117.449 99.6234C117.648 99.7531 117.819 99.9223 117.951 100.121L118.103 97.6006Z" fill="#906B53"/>
<path d="M125.025 78.7053L130.787 81.0772L131.36 79.4762L125.665 77.3372L125.025 78.7053Z" fill="#906B53"/>
<path d="M92.0688 148.648L95.7024 153.464L96.5329 152.571L92.2711 148.466L92.0688 148.648Z" fill="#B07B58"/>
<path d="M115.822 94.1907L115.763 94.0425C115.827 94.0171 122.002 91.4799 123.288 89.1376C124.574 86.7953 128.089 79.4295 128.123 79.3533L128.266 79.4253C128.228 79.4973 124.721 86.8461 123.423 89.2139C122.124 91.5816 116.08 94.0679 115.822 94.1907Z" fill="#906B53"/>
<path d="M117.129 110.032L103.737 114.374L104.344 113.382L117.129 110.032Z" fill="#2E332E"/>
<path d="M87.7918 157.439L86.7425 156.065C86.5201 155.773 86.1046 155.718 85.8146 155.942C85.5246 156.165 85.4698 156.583 85.6923 156.874L86.7416 158.249C86.964 158.54 87.3795 158.595 87.6695 158.372C87.9595 158.148 88.0143 157.731 87.7918 157.439Z" fill="#5546FF"/>
<path d="M107.867 165.429L106.148 165.302C105.783 165.275 105.466 165.55 105.439 165.916C105.412 166.283 105.686 166.601 106.05 166.628L107.77 166.756C108.134 166.783 108.452 166.507 108.478 166.141C108.505 165.775 108.232 165.456 107.867 165.429Z" fill="#5546FF"/>
<path d="M92.0688 163.287C92.3242 162.998 92.6632 162.796 93.0383 162.711C93.3492 162.646 93.6651 162.607 93.9826 162.596L93.5189 161.605C93.0671 161.466 92.5838 161.466 92.132 161.605C91.7672 161.815 91.4361 162.08 91.1498 162.389L92.0688 163.287Z" fill="#5546FF"/>
<path d="M90.5934 161.838C90.5934 161.838 91.3775 160.991 92.0688 160.907C92.5565 160.872 93.0466 160.919 93.5189 161.046L92.9582 159.86C92.5011 159.659 91.9937 159.603 91.5039 159.699C90.7536 159.882 89.666 160.894 89.666 160.894L90.5934 161.838Z" fill="#5546FF"/>
<path d="M89.1391 160.352C89.1391 160.352 90.2478 159.081 91.1414 158.975C91.7447 158.913 92.354 158.959 92.9414 159.111L92.562 157.709C92.562 157.709 90.9096 157.607 90.1255 157.925C89.4341 158.294 88.8006 158.763 88.2455 159.318L89.1391 160.352Z" fill="#5546FF"/>
<path d="M114.587 166.413C114.588 165.962 114.717 165.521 114.958 165.142L115.35 164.587L114.17 164.164C113.865 164.491 113.63 164.877 113.479 165.299C113.418 165.654 113.393 166.014 113.403 166.375L114.587 166.413Z" fill="#5546FF"/>
<path d="M112.77 166.315C112.77 166.315 112.636 165.129 112.872 164.591C113.055 164.232 113.326 163.926 113.66 163.702L112.34 163.109C112.003 163.503 111.736 163.953 111.552 164.439C111.466 165.035 111.419 165.637 111.413 166.239L112.77 166.315Z" fill="#5546FF"/>
<path d="M110.684 166.197C110.684 166.197 110.646 164.155 111.105 163.545C111.354 163.191 111.681 162.901 112.062 162.698L110.701 161.936C110.701 161.936 109.461 162.58 109.402 163.55C109.343 164.52 109.183 166.112 109.183 166.112L110.684 166.197Z" fill="#5546FF"/>
<path d="M126.188 77.5361L131.36 78.8831L131.137 79.3913L126.188 77.5361Z" fill="#B07B58"/>
<path d="M128.667 72.3772L128.447 74.2748C128.579 74.0278 128.654 73.7542 128.667 73.4742C128.693 73.1091 128.693 72.7424 128.667 72.3772Z" fill="#B07B58"/>
<path d="M130.235 73.6691C130.251 73.7871 130.251 73.9068 130.235 74.0248C130.205 74.1561 130.172 74.2748 130.172 74.2748C130.264 74.1889 130.323 74.0736 130.34 73.9486C130.34 73.7749 130.34 73.6394 130.34 73.6394L130.235 73.6691Z" fill="#B07B58"/>
<path d="M131.617 74.3002C131.676 74.4487 131.709 74.6063 131.714 74.7661C131.727 74.9187 131.711 75.0724 131.668 75.2193C131.733 75.0125 131.786 74.8017 131.824 74.5882C131.849 74.3764 131.824 73.6394 131.824 73.6394C131.824 73.6394 131.756 73.8215 131.74 73.8766C131.705 73.9638 131.675 74.0529 131.651 74.1434C131.617 74.1858 131.617 74.3002 131.617 74.3002Z" fill="#B07B58"/>
<path d="M107.586 88.7268C108 88.7268 108.336 88.0972 108.336 87.3205C108.336 86.5439 108 85.9143 107.586 85.9143C107.171 85.9143 106.835 86.5439 106.835 87.3205C106.835 88.0972 107.171 88.7268 107.586 88.7268Z" fill="#211A14"/>
<path d="M109.415 88.3838C109.708 88.3838 109.946 87.7542 109.946 86.9775C109.946 86.2009 109.708 85.5713 109.415 85.5713C109.122 85.5713 108.884 86.2009 108.884 86.9775C108.884 87.7542 109.122 88.3838 109.415 88.3838Z" fill="#211A14"/>
<path d="M109.272 87.0621L107.908 87.3125L107.965 87.625L109.329 87.3746L109.272 87.0621Z" fill="#211A14"/>
<path d="M104.244 87.0494L104.215 87.3657L106.948 87.6166L106.977 87.3002L104.244 87.0494Z" fill="#211A14"/>
<path d="M90.2014 108.147L90.0159 107.889C90.0539 107.863 93.7802 105.161 95.5718 103.162C97.3633 101.163 97.4898 97.6555 97.5657 95.758V95.7198C97.6457 93.7714 102.076 90.1584 102.266 90.0017L102.464 90.2516C102.418 90.2855 97.9535 93.9282 97.8776 95.7325V95.7622C97.7975 97.6979 97.65 101.302 95.7994 103.365C93.9489 105.428 90.2351 108.118 90.2014 108.147Z" fill="white"/>
<path d="M83.3261 104.255L83.0563 104.094C83.1406 103.945 83.9289 102.637 84.595 102.399C84.7003 102.357 84.8521 102.31 85.046 102.251C86.6302 101.833 88.1009 101.063 89.3499 99.9978C90.4838 98.977 90.7789 96.9015 91.036 95.0717C91.1329 94.0306 91.3551 93.0051 91.6978 92.0178C92.4903 90.1965 94.6486 89.6967 96.5624 89.2519C96.8954 89.1757 97.22 89.0994 97.5277 89.019C98.5225 88.7606 99.3909 87.7101 100.31 86.6004C101.229 85.4907 102.148 84.3809 103.261 83.9404C103.87 83.6628 104.55 83.5797 105.208 83.7024C105.866 83.8251 106.471 84.1477 106.941 84.6266L106.7 84.8341C106.65 84.7748 105.461 83.4194 103.379 84.2327C102.321 84.6562 101.414 85.7448 100.537 86.8037C99.5806 87.9516 98.6827 89.0401 97.5867 89.3239C97.2748 89.4086 96.946 89.4849 96.613 89.5611C94.7751 89.9847 92.6927 90.4718 91.9761 92.1449C91.6429 93.1032 91.4277 94.0989 91.3353 95.1098C91.0698 96.9904 90.7663 99.1294 89.548 100.226C88.2644 101.312 86.7592 102.102 85.1387 102.539C84.9533 102.594 84.8057 102.641 84.7172 102.679C84.2282 102.861 83.5622 103.878 83.3261 104.255Z" fill="white"/>
<path d="M165.206 85.758L164.208 85.8982L164.255 86.2338L165.253 86.0936L165.206 85.758Z" fill="#2E332E"/>
<path d="M165.429 90.7642C165.429 90.7642 164.856 88.1635 165.007 86.3972C165.159 84.631 166.183 79.6837 170.74 81.3145C175.297 82.9452 172.22 87.2698 172.22 88.6464C172.22 90.0229 172.359 91.9036 172.359 91.9036L165.429 90.7642Z" fill="#EBB490"/>
<path d="M152.436 72.8574C158.561 71.5816 162.658 66.3342 161.585 61.1368C160.513 55.9394 154.679 52.7603 148.553 54.036C142.428 55.3118 138.331 60.5592 139.404 65.7566C140.476 70.954 146.31 74.1331 152.436 72.8574Z" fill="#D06A53"/>
<path d="M150.81 87.7146L152.513 96.6772L145.659 95.9275L152.947 101.074L150.861 108.075L155.982 103.683L156.964 111.599L159.527 103.763L161.045 106.246L160.391 98.9348L154.84 93.869L150.81 87.7146Z" fill="#D06A53"/>
<path d="M165.429 90.7642C167.044 90.7968 168.655 90.9383 170.251 91.1877C171.845 91.5266 172.013 91.4969 172.359 91.9163C172.589 92.3161 172.715 92.7676 172.726 93.2293L167.385 92.0052L165.429 90.7642Z" fill="#949B90"/>
<path d="M148.749 79.2897C148.749 79.2897 147.644 77.2566 147.8 76.1765C147.956 75.0965 148.563 73.2455 148.432 72.3645C148.302 71.4835 146.358 69.1157 147.041 68.9336C147.275 68.8961 147.515 68.912 147.742 68.9802C147.969 69.0484 148.177 69.1671 148.352 69.3275C148.352 69.3275 147.8 68.0356 148.302 67.7984C148.803 67.5612 149.904 68.5905 149.904 68.5905C149.904 68.5905 149.377 67.0869 149.904 67.0614C150.431 67.036 151.269 68.222 151.269 68.222C151.269 68.222 151.375 67.1123 151.897 67.324C152.42 67.5358 153.289 68.9336 153.449 70.289C153.609 71.6444 153.643 72.5169 153.643 72.5169L155.632 71.7249C155.632 71.7249 155.156 72.6101 154.604 73.5589C154.052 74.5077 154.077 77.282 154.077 77.282L148.749 79.2897Z" fill="#EBB490"/>
<path d="M178.513 95.7622C176.148 93.7842 166.381 91.4885 161.892 89.3113C157.403 87.1342 154.604 77.0703 154.604 77.0703L154.077 77.3075L148.749 79.2856L148.142 79.3872C148.142 79.3872 150.768 88.676 152.778 92.3186C154.789 95.9613 159.814 99.2863 159.814 99.2863L162.765 115.75L177.784 115.53L180.621 119.181C182.181 117.908 183.655 116.533 185.034 115.064C186.721 113.162 187.656 110.104 187.656 107.148C187.656 104.191 180.874 97.7445 178.513 95.7622ZM179.93 109.278C179.645 109.647 179.292 109.957 178.888 110.189L178.985 106.902C179.156 107.223 179.425 107.48 179.753 107.635C180.01 107.807 180.311 107.904 180.621 107.914C180.419 108.384 180.188 108.841 179.93 109.282V109.278Z" fill="#495856"/>
<path d="M163.342 115.737C163.342 115.737 167.052 137.678 167.444 140.135C167.836 142.591 171.621 156.281 171.621 156.281L179.103 154.777C179.103 154.777 176.03 142.918 175.402 140.029C175.044 138.445 174.781 136.841 174.614 135.226L179.495 152.799L186.417 151.673C186.417 151.673 183.159 139.643 182.847 135.738C182.535 131.833 181.898 123.811 181.531 121.964C181.165 120.117 178.905 115.5 178.905 115.5L163.342 115.737Z" fill="#BB9F84"/>
<path d="M186.691 154.883C186.691 154.883 187.876 153.723 188.188 154.252C188.5 154.782 187.505 156.624 187.846 157.603C188.188 158.581 190.683 163.592 190.869 164.303C191.054 165.015 190.552 166.336 190.552 166.336L183.327 167.768L180.937 163.698L179.723 159.924L180.385 158.471L181.203 157.73L182.147 157.547L183.036 158.289L183.142 158.602L184.798 158.179L186.691 154.883Z" fill="#495856"/>
<path d="M186.927 155.701L185.802 151.791L179.727 152.761L181.258 157.891C181.648 157.902 182.032 157.991 182.387 158.153C182.623 158.365 182.387 159.424 183.327 159.318C184.267 159.212 185.275 158.894 185.325 158.183C185.486 157.418 185.871 156.719 186.43 156.175C186.608 156.03 186.774 155.872 186.927 155.701Z" fill="#EBB490"/>
<path d="M179.588 158.666C179.588 158.666 180.166 157.709 180.621 158.022C181.076 158.335 180.199 159.568 180.364 160.496C180.528 161.423 183.631 167.027 183.534 168.255C183.437 169.484 183.298 169.916 182.805 170.034C182.311 170.153 164.476 171.428 163.612 170.848C163.456 170.741 163.325 170.602 163.228 170.44C163.132 170.277 163.071 170.096 163.051 169.908C163.031 169.719 163.052 169.529 163.112 169.35C163.173 169.171 163.271 169.007 163.401 168.87C163.768 168.497 167.81 165.905 168.759 165.015C169.707 164.126 171.461 162.194 171.566 161.771C171.672 161.347 173.021 160.411 173.021 160.411L173.168 161.029L174.378 160.792L175.558 161.851L175.879 162.402L176.793 162.033L179.588 158.666Z" fill="#5546FF"/>
<path d="M172.034 156.201L173.168 161.029C173.168 161.029 174.656 161.296 174.884 161.876C175.111 162.457 175.638 163.355 176.292 163.147C177.106 162.802 177.769 162.173 178.159 161.377C178.391 160.746 178.748 160.169 179.209 159.682C179.601 159.314 179.727 159.178 179.727 159.178L178.577 154.879L172.034 156.201Z" fill="#EBB490"/>
<path d="M179.925 153.439L186.32 153.591L185.802 151.791L179.727 152.765L179.925 153.439Z" fill="#B07B58"/>
<path d="M172.241 157.09L179.057 156.688L178.577 154.883L172.03 156.201L172.241 157.09Z" fill="#B07B58"/>
<path d="M190.907 164.617C190.907 164.617 198.165 164.617 198.954 165.384C199.742 166.15 190.552 166.337 190.552 166.337L190.907 164.617Z" fill="#2E332E"/>
<path d="M183.534 168.255C183.534 168.255 190.999 168.404 191.627 169.103C192.255 169.801 182.805 170.026 182.805 170.026L183.534 168.255Z" fill="#2E332E"/>
<path d="M167.494 167.18C167.996 167.23 172.093 164.858 172.329 164.304C172.565 163.749 170.972 162.639 170.972 162.639C170.278 163.47 169.541 164.263 168.763 165.015C168.123 165.556 167.454 166.059 166.757 166.523C166.757 166.523 166.997 167.124 167.494 167.18Z" fill="#2E332E"/>
<path d="M166.605 80.4758C166.605 80.4758 164.948 81.234 164.822 82.0981C164.695 82.9622 165.522 83.9236 165.522 83.9236C165.522 83.9236 165.054 82.6826 165.264 82.1997C165.657 81.5847 166.106 81.0076 166.605 80.4758Z" fill="#2E332E"/>
<path d="M170.728 81.3102C167.84 80.2809 166.369 81.8863 165.64 83.6525C165.857 84.1268 166.141 84.5674 166.483 84.9613C166.794 85.2833 167.131 85.5794 167.49 85.8466L167.802 87.1173C167.802 87.1173 169.754 84.8131 170.719 87.1173C171.415 88.7776 169.21 89.4342 169.21 89.4342C169.615 89.6955 170.09 89.827 170.572 89.8111C171.537 89.8535 172.258 89.8111 172.258 89.8111C172.258 89.4257 172.232 89.0276 172.232 88.6675C172.207 87.2655 175.284 82.9409 170.728 81.3102Z" fill="#2E332E"/>
<path d="M145.107 66.5703L155.873 59.95C155.873 59.95 154.452 64.3296 152.563 65.6215C150.675 66.9134 145.107 66.5703 145.107 66.5703Z" fill="#F2D7B9"/>
<path d="M149.035 59.882C149.035 59.882 149.035 58.5647 149.942 58.1665C150.579 57.9445 151.273 57.9445 151.91 58.1665C151.301 58.2098 150.703 58.3529 150.14 58.5901C149.705 58.9584 149.332 59.3946 149.035 59.882Z" fill="#F2D7B9"/>
<path d="M143.319 64.0585C143.319 64.0585 143.319 62.737 144.226 62.3431C144.863 62.121 145.556 62.121 146.194 62.3431C145.584 62.3866 144.984 62.5297 144.419 62.7666C143.986 63.1346 143.614 63.5709 143.319 64.0585Z" fill="#F2D7B9"/>
<path d="M169.594 86.8292C169.374 86.7977 169.149 86.8385 168.954 86.9453C168.759 87.0521 168.603 87.2194 168.51 87.4222C168.148 88.1465 169.282 88.8369 169.282 88.8369C169.282 88.8369 168.691 88.1041 168.86 87.8161C169.029 87.5281 169.771 87.8161 169.771 87.8161C169.771 87.8161 169.071 87.4772 169.168 87.2316C169.192 87.1303 169.246 87.0383 169.321 86.9668C169.397 86.8954 169.491 86.8476 169.594 86.8292Z" fill="#B07B58"/>
<path d="M183.538 165.706C183.538 165.706 182.851 163.855 182.273 163.3C181.996 163.007 181.656 162.781 181.279 162.639L181 162.982L182.687 166.231L183.538 165.706Z" fill="#2E332E"/>
<path d="M178.918 115.517C178.918 115.517 178.577 110.634 178.606 108.867C178.636 107.101 178.918 102.586 178.918 102.586C178.918 102.586 178.648 105.009 179.42 106.275C180.191 107.542 182.581 108.219 182.581 108.219C182.581 108.219 180.275 108.012 179.723 107.686C179.411 107.498 179.156 107.229 178.985 106.906L178.888 110.193L179.377 115.043C179.377 115.043 181.388 118.525 181.354 118.55L180.6 119.185L178.918 115.517Z" fill="#2E332E"/>
<path d="M154.077 77.3118L148.386 78.5443L148.744 79.2898L154.077 77.3118Z" fill="#B07B58"/>
<path d="M174.614 135.226C174.11 133.148 173.792 131.028 173.666 128.893C173.543 127.103 173.704 125.305 174.142 123.565C174.142 123.565 173.746 127.153 173.876 128.813C174.007 130.473 174.989 136.585 174.989 136.585L174.614 135.226Z" fill="#5E3A28"/>
<path d="M163.338 115.738L179.167 116.059L178.918 115.517L163.338 115.738Z" fill="#5E3A28"/>
<path d="M168.944 169.7C168.901 169.26 168.784 168.83 168.599 168.429C168.283 167.717 168.076 167.768 168.076 167.768L169.231 167.345C169.506 167.627 169.712 167.969 169.834 168.344C169.965 168.874 170.095 169.679 170.095 169.679L168.944 169.7Z" fill="#2E332E"/>
<path d="M170.879 169.518C170.855 168.921 170.723 168.335 170.491 167.785C170.356 167.423 170.149 167.092 169.884 166.811L171.069 166.231C171.38 166.723 171.643 167.243 171.857 167.785C172.035 168.349 172.158 168.93 172.224 169.518H170.879Z" fill="#2E332E"/>
<path d="M173.05 169.111C172.988 168.386 172.825 167.673 172.565 166.993C172.344 166.533 172.071 166.1 171.752 165.701L173.05 165.015C173.412 165.52 173.724 166.059 173.982 166.625C174.213 167.436 174.363 168.269 174.429 169.111H173.05Z" fill="#2E332E"/>
<path d="M173.29 169.039C169.18 170.093 164.767 169.7 164.767 169.407C164.767 169.115 165.947 168.59 166.078 168.221C166.209 167.853 165.606 167.302 165.606 167.302C164.531 168.035 163.57 168.683 163.401 168.857C163.271 168.994 163.173 169.158 163.112 169.337C163.052 169.516 163.031 169.706 163.051 169.895C163.071 170.083 163.132 170.264 163.228 170.427C163.325 170.589 163.456 170.728 163.612 170.835C164.476 171.415 182.311 170.14 182.805 170.021C183.298 169.903 183.437 169.467 183.534 168.242C183.465 167.578 183.276 166.933 182.977 166.336C182.977 166.336 177.396 167.997 173.29 169.039Z" fill="#FCECFF"/>
<path d="M190.869 164.304C190.632 163.666 190.363 163.041 190.063 162.431C190.063 162.431 186.822 164.833 185.848 165.146C184.874 165.46 182.273 165.964 182.273 165.964L183.336 167.785L190.561 166.337C190.561 166.337 191.054 165.015 190.869 164.304Z" fill="#FCECFF"/>
<path d="M178.823 166.666L177.293 167.247C176.949 167.378 176.776 167.763 176.905 168.108C177.035 168.452 177.419 168.626 177.763 168.495L179.293 167.914C179.637 167.783 179.811 167.398 179.681 167.053C179.551 166.709 179.167 166.535 178.823 166.666Z" fill="#2E332E"/>
<path d="M187.279 163.713L185.749 164.295C185.405 164.425 185.231 164.811 185.361 165.155C185.491 165.5 185.875 165.673 186.219 165.543L187.749 164.961C188.093 164.831 188.267 164.445 188.137 164.101C188.007 163.756 187.623 163.583 187.279 163.713Z" fill="#2E332E"/>
<path d="M167.726 121.418C167.701 121.418 167.144 121.134 166.432 120.02C165.72 118.906 165.741 115.911 165.745 115.784H165.901C165.901 115.814 165.876 118.851 166.567 119.927C166.862 120.468 167.283 120.93 167.794 121.274L167.726 121.418Z" fill="#211A14"/>
<path d="M175.149 155.582C175.111 155.464 171.431 143.824 170.964 141.575C170.496 139.326 168.194 125.772 167.971 124.078C167.76 122.51 167.187 115.89 167.182 115.822H167.338C167.338 115.89 167.92 122.506 168.127 124.069C168.35 125.763 170.656 139.317 171.12 141.554C171.583 143.79 175.263 155.43 175.301 155.531L175.149 155.582Z" fill="#211A14"/>
<path d="M182.96 152.283C181.71 150.448 180.61 148.515 179.673 146.501C178.184 143.286 174.066 130.706 174.024 130.579L174.176 130.528C174.218 130.655 178.332 143.235 179.816 146.433C180.755 148.438 181.855 150.363 183.104 152.189L182.96 152.283Z" fill="#211A14"/>
<path d="M171.073 154.295L178.551 152.651L179.103 154.782L171.617 156.285L171.073 154.295Z" fill="#5E3A28"/>
<path d="M179.057 151.228L185.996 150.067L186.43 151.694L179.495 152.799L179.057 151.228Z" fill="#5E3A28"/>
<path d="M187.066 105.309C186.813 105.584 186.664 105.939 186.645 106.313C186.628 106.576 186.706 106.836 186.864 107.046C186.864 107.046 186.13 107.304 185.932 107.8C185.734 108.295 186.683 108.888 186.683 108.888C186.648 109.091 186.655 109.299 186.704 109.498C186.78 109.854 187.311 110.185 187.323 110.193C187.54 109.194 187.65 108.174 187.652 107.152C187.601 106.5 187.4 105.87 187.066 105.309Z" fill="#2E332E"/>
<path d="M155.253 94.2458C155.253 94.2458 155.468 93.3987 154.945 93.0259C154.595 92.7975 154.17 92.7155 153.761 92.7972C153.768 92.6501 153.732 92.5042 153.657 92.3776C153.582 92.2511 153.471 92.1495 153.339 92.0856C153.064 91.974 152.782 91.8778 152.496 91.7976C152.589 91.9797 152.677 92.1576 152.77 92.3228C153.533 93.6253 154.479 94.8107 155.577 95.8426C155.643 95.5971 155.643 95.3385 155.577 95.0929C155.503 94.7988 155.394 94.5145 155.253 94.2458Z" fill="#2E332E"/>
<path d="M159.801 99.2905C160.463 99.685 161.171 99.9951 161.909 100.214C162.374 100.361 162.853 100.457 163.338 100.502C162.642 100.605 161.933 100.569 161.251 100.396C160.797 100.27 160.352 100.113 159.919 99.9259L159.801 99.2905Z" fill="#2E332E"/>
<path d="M165.985 88.083C166.379 88.083 166.698 87.4344 166.698 86.6344C166.698 85.8344 166.379 85.1858 165.985 85.1858C165.592 85.1858 165.273 85.8344 165.273 86.6344C165.273 87.4344 165.592 88.083 165.985 88.083Z" fill="#2E332E"/>
<path d="M164.232 87.7358C164.49 87.7358 164.7 87.0872 164.7 86.2872C164.7 85.4872 164.49 84.8386 164.232 84.8386C163.973 84.8386 163.764 85.4872 163.764 86.2872C163.764 87.0872 163.973 87.7358 164.232 87.7358Z" fill="#2E332E"/>
<path d="M164.55 86.1227L164.496 86.4573L165.495 86.6179L165.549 86.2833L164.55 86.1227Z" fill="#2E332E"/>
<path d="M167.369 85.7567L165.828 86.1924L165.919 86.5177L167.461 86.082L167.369 85.7567Z" fill="#2E332E"/>
<path d="M148.352 69.3403C148.809 69.9408 149.218 70.5768 149.575 71.2421C149.715 71.5439 149.829 71.8571 149.916 72.1782C149.879 71.743 149.781 71.3153 149.625 70.9075C149.364 70.1748 148.352 69.3403 148.352 69.3403Z" fill="#B07B58"/>
<path d="M149.904 68.6033C150.416 69.2853 150.841 70.0296 151.168 70.8185C151.309 71.4507 151.365 72.0987 151.337 72.7457C151.51 72.1339 151.51 71.4854 151.337 70.8736C151.046 69.802 149.904 68.6033 149.904 68.6033Z" fill="#B07B58"/>
<path d="M151.269 68.2305C151.269 68.2305 152.239 69.6028 152.332 70.5516C152.391 71.0638 152.391 71.5812 152.332 72.0934C152.509 71.4637 152.524 70.7988 152.374 70.1619C152.166 69.4378 151.788 68.7751 151.269 68.2305Z" fill="#B07B58"/>
<path d="M53.0471 80.9925C53.2146 80.8939 53.3586 80.7598 53.4693 80.5997C53.5799 80.4395 53.6545 80.257 53.6879 80.0649C53.789 79.4168 52.8954 78.9763 52.8954 78.9763C52.8954 78.9763 54.5183 79.1415 54.1389 80.0818C53.7595 81.0221 53.0471 80.9925 53.0471 80.9925Z" fill="#2E332E"/>
<path d="M53.2148 83.2078L53.1424 83.5518L54.025 83.7393L54.0974 83.3953L53.2148 83.2078Z" fill="#2E332E"/>
<path d="M46.1339 87.6635C46.1339 87.6635 43.7185 77.8113 49.5568 78.1163C56.2677 78.4721 52.0354 90.6835 52.0354 90.6835C52.0354 90.6835 49.5062 88.8071 47.976 88.2564C47.3764 88.0163 46.7609 87.8181 46.1339 87.6635Z" fill="#EBB490"/>
<path d="M49.6875 83.3856C50.3023 83.1251 50.8957 82.8163 51.4622 82.4622C52.0459 82.0362 52.5778 81.5429 53.0471 80.9924C52.5961 79.3998 51.5718 78.2265 49.5568 78.1164C44.7302 77.8623 45.5438 84.5546 45.9695 86.8757C46.4687 86.9777 46.978 87.0204 47.4871 87.0028C48.2609 86.8344 49.0183 86.5977 49.7507 86.2954C49.7507 86.2954 47.1203 86.647 47.5587 84.3979C47.9044 82.6316 49.6875 83.3856 49.6875 83.3856Z" fill="#2E332E"/>
<path d="M53.3717 117.626L65.4783 153.854L58.3121 155.972L47.702 130.494C47.702 130.494 45.3119 137.089 43.4867 139.834C41.6614 142.579 31.1989 152.181 31.1989 152.181L25.9971 146.429C25.9971 146.429 35.7136 137.25 36.3459 134.294C36.9782 131.337 36.3711 124.891 36.3711 124.891L50.6317 117.504L53.3717 117.626Z" fill="#7C8174"/>
<path d="M29.8205 148.636L29.7109 148.521C29.8078 148.428 39.1659 139.203 40.2493 136.763C41.3326 134.323 42.69 123.4 42.7068 123.29H42.8628C42.8038 123.739 41.4928 134.332 40.3926 136.805C39.2924 139.279 30.2083 148.254 29.8205 148.636Z" fill="#2E332E"/>
<path d="M52.0354 90.6794C52.0354 90.6794 49.5062 88.803 47.976 88.2523C47.3809 88.0207 46.7729 87.8242 46.155 87.6636C46.155 87.6636 45.371 87.617 45.1981 87.8669C45.0253 88.1168 45.1222 88.8962 45.1222 88.8962C46.4857 88.9749 47.8284 89.2679 49.1015 89.7645C50.2733 90.3822 51.3278 91.2023 52.2167 92.1873C52.3973 91.9692 52.4905 91.6913 52.4781 91.4079C52.4067 91.1259 52.2525 90.872 52.0354 90.6794Z" fill="#804527"/>
<path d="M18.6329 103.145L18.3167 123.709L50.1933 124.306L51.3483 105.678L18.6329 103.145Z" fill="#FFBFED"/>
<path d="M55.5932 101.781C55.0751 98.2597 53.8612 94.8783 52.0228 91.8356C51.2244 90.9503 50.2769 90.2133 49.2238 89.6585C48.0816 89.2124 46.8768 88.9494 45.6534 88.8791C45.6534 88.8791 44.7091 88.4852 43.2127 90.4844C41.7162 92.4837 36.0466 101.425 35.1782 105.462C34.3098 109.498 34.2424 120.422 34.2424 120.422H40.987L41.3031 117.033L53.9071 117.665C53.9071 117.665 56.4026 107.44 55.5932 101.781Z" fill="#D06A53"/>
<path d="M55.3572 109.795L59.6737 118.525L54.5942 121.536L53.3717 117.627L53.9239 117.656L55.3572 109.795Z" fill="#D06A53"/>
<path d="M34.5838 120.422C34.5838 120.422 34.3899 123.387 35.3552 124.204C36.3206 125.022 36.8306 125.013 36.8306 125.013C37.0779 125.362 37.4206 125.631 37.817 125.789C38.2068 125.865 38.6076 125.865 38.9973 125.789C39.0286 125.873 39.0779 125.949 39.1418 126.012C39.2056 126.075 39.2825 126.123 39.3669 126.153C39.4514 126.183 39.5413 126.194 39.6304 126.185C39.7195 126.176 39.8056 126.148 39.8825 126.102C40.5739 125.827 40.7889 125.255 40.7256 125.115C40.6624 124.975 40.3041 124.145 40.3041 124.145C40.3041 124.145 41.5687 124.357 41.6446 123.298C41.7204 122.239 41.0123 120.418 41.0123 120.418L34.5838 120.422Z" fill="#EBB490"/>
<path d="M59.3112 118.74C59.3112 118.74 62.1776 122.523 62.0217 123.51C61.9817 123.874 61.83 124.216 61.5875 124.489C61.345 124.763 61.0238 124.953 60.6685 125.035C60.3375 125.077 60.0015 125.057 59.6779 124.975C59.6779 124.975 59.855 125.59 59.0667 125.767C58.6064 125.875 58.1275 125.875 57.6672 125.767C57.4854 125.899 57.2628 125.963 57.0391 125.945C56.6941 125.9 56.3558 125.814 56.0316 125.687L54.5942 121.532L59.3112 118.74Z" fill="#EBB490"/>
<path d="M34.5796 121.532L41.1556 120.85L41.0038 120.426H34.5838C34.5838 120.426 34.5838 120.68 34.5838 120.905C34.5838 121.129 34.5796 121.532 34.5796 121.532Z" fill="#B07B58"/>
<path d="M22.7555 150.66C22.7555 150.66 21.9672 148.394 21.6258 148.445C21.2844 148.496 21.786 150.398 21.4951 150.898C21.2043 151.397 15.2437 155.332 15.2437 155.332L14.9318 156.205C14.9318 156.205 28.7961 167.523 29.1882 167.679C29.5802 167.836 30.4106 167.006 30.4106 167.006L26.9835 156.124L26.17 155.061L24.5808 155.163L24.0075 154.566L24.2857 153.045L22.7555 150.66Z" fill="#D06A53"/>
<path d="M27.443 157.603C27.443 157.603 25.9971 158.162 25.7821 158.517C25.5672 158.873 26.1573 161.41 26.5283 161.745C26.8992 162.08 28.9142 162.279 28.9142 162.279L27.443 157.603Z" fill="#2E332E"/>
<path d="M60.9678 159.979C60.9678 159.979 60.247 160.199 60.2091 160.694C60.1711 161.19 60.4957 161.169 60.5884 161.804C60.6812 162.44 60.2048 168.136 60.2048 168.136L60.5842 169.263C60.5842 169.263 77.4457 167.798 78.2888 167.484C79.1318 167.171 79.5913 165.82 79.5913 165.82C79.5913 165.82 73.5507 163.011 71.8688 161.664C70.1868 160.317 69.2426 158.657 68.7958 158.445C68.3665 158.294 67.918 158.204 67.4637 158.178L67.4047 159.051L66.3298 159.661L65.8576 161.165L64.4371 161.559L63.046 160.661L61.7055 160.398L60.9678 159.979Z" fill="#D06A53"/>
<path d="M41.32 117.021L42.7195 107.029L43.4108 105.03L51.3484 105.678L50.6191 117.491L41.32 117.021Z" fill="#FFBFED"/>
<path d="M22.7555 150.66L26.5873 147.077L30.8912 151.838L26.9835 156.124C26.931 156.025 26.8592 155.937 26.7723 155.865C26.6855 155.794 26.5853 155.741 26.4778 155.709C26.3702 155.677 26.2574 155.667 26.1459 155.679C26.0344 155.692 25.9265 155.726 25.8285 155.781C25.0402 156.175 24.9349 156.573 24.9349 156.573C24.9349 156.573 23.2487 155.413 23.2487 154.566C23.2487 153.718 23.9569 153.829 23.6702 152.799C23.4334 152.059 23.1271 151.343 22.7555 150.66Z" fill="#EBB490"/>
<path d="M26.1657 147.471L29.4411 153.426L30.887 151.842L26.5831 147.077L26.1657 147.471Z" fill="#B07B58"/>
<path d="M59.0161 155.756L61.4104 160.932C61.4104 160.932 62.5528 160.716 63.1809 161.249C63.809 161.783 64.2431 162.097 64.2431 162.097C64.2431 162.097 66.393 161.8 66.393 161.482C66.393 161.165 66.3508 160.356 66.7049 160.097C66.988 159.923 67.3036 159.809 67.6323 159.763C67.6323 159.763 67.9484 159.267 67.8684 159.03C67.7883 158.793 65.3855 153.901 65.3855 153.901L59.0161 155.756Z" fill="#EBB490"/>
<path d="M60.0446 157.984L65.5499 154.222L65.3855 153.884L59.0161 155.76L60.0446 157.984Z" fill="#B07B58"/>
<path d="M70.4524 160.288C69.9762 160.487 69.5893 160.855 69.3648 161.321C69.1745 161.78 69.102 162.28 69.1541 162.774C69.1541 162.774 72.7793 164.303 73.3694 164.066C73.7947 163.875 74.1819 163.608 74.5118 163.278C73.5931 162.808 72.7109 162.268 71.873 161.664C71.362 161.246 70.8868 160.786 70.4524 160.288Z" fill="#2E332E"/>
<path d="M27.3503 107.198C27.3503 107.198 28.6149 107.88 28.48 108.893C28.3451 109.905 26.7727 111.692 27.6664 112.086C28.5601 112.48 30.9502 112.429 30.9502 112.429C30.9502 112.429 31.6331 113.141 31.4476 113.721C31.275 114.132 30.9937 114.488 30.634 114.75C30.9274 115.081 31.1102 115.496 31.1567 115.936C31.1567 116.546 30.3432 116.966 30.3432 116.966C30.4566 117.036 30.5516 117.133 30.6205 117.248C30.6894 117.363 30.7301 117.493 30.7394 117.626C30.7141 118.025 30.0312 118.787 30.0312 118.787C30.0458 119.041 29.9995 119.295 29.8963 119.528C29.7404 119.791 28.716 120.557 26.798 119.871C24.88 119.185 22.1611 118.385 22.1611 118.385L21.7143 116.335L22.1358 112.853L22.6122 111.794C23.4549 111.638 24.2367 111.246 24.8674 110.663C25.8116 109.74 27.3503 107.198 27.3503 107.198Z" fill="#F1F3E6"/>
<path d="M46.6356 109.799C47.8974 109.799 48.9203 109.086 48.9203 108.206C48.9203 107.327 47.8974 106.614 46.6356 106.614C45.3737 106.614 44.3508 107.327 44.3508 108.206C44.3508 109.086 45.3737 109.799 46.6356 109.799Z" fill="#5546FF"/>
<path d="M43.3307 99.0108C44.1013 99.0108 44.726 98.3831 44.726 97.6088C44.726 96.8345 44.1013 96.2068 43.3307 96.2068C42.5601 96.2068 41.9354 96.8345 41.9354 97.6088C41.9354 98.3831 42.5601 99.0108 43.3307 99.0108Z" fill="#5E3A28"/>
<path d="M20.9387 111.557C20.9387 111.557 20.4666 114.031 20.4033 114.865C20.3401 115.699 20.4033 118.253 20.4033 118.253L22.178 118.389C22.178 118.389 22.081 115.619 22.178 114.649C22.275 113.679 22.629 111.798 22.629 111.798L20.9387 111.557Z" fill="#5546FF"/>
<path d="M46.4374 114.746C47.6993 114.746 48.7222 114.033 48.7222 113.154C48.7222 112.274 47.6993 111.561 46.4374 111.561C45.1756 111.561 44.1527 112.274 44.1527 113.154C44.1527 114.033 45.1756 114.746 46.4374 114.746Z" fill="#5546FF"/>
<path d="M46.4374 119.694C47.6993 119.694 48.7222 118.98 48.7222 118.101C48.7222 117.221 47.6993 116.508 46.4374 116.508C45.1756 116.508 44.1527 117.221 44.1527 118.101C44.1527 118.98 45.1756 119.694 46.4374 119.694Z" fill="#5546FF"/>
<path d="M48.7222 121.731H43.6047V122.561H48.7222V121.731Z" fill="#F1F3E6"/>
<path d="M48.6126 83.8726C48.6126 83.8726 49.5315 83.8726 49.5905 84.7197C49.6496 85.5668 48.406 85.516 48.406 85.516C48.406 85.516 49.2196 85.3169 49.2997 85.0374C49.3798 84.7578 48.503 84.6985 48.503 84.6985C48.503 84.6985 49.346 84.6985 49.2617 84.4698C49.126 84.1971 48.8948 83.9844 48.6126 83.8726Z" fill="#B07B58"/>
<path d="M47.702 130.494C48.1372 129.553 48.4789 128.572 48.7222 127.563C48.9346 126.72 49.0756 125.86 49.1437 124.992L48.8655 128.753C48.7196 129.718 48.7339 130.7 48.9076 131.659C49.1816 133.442 49.2828 134.332 49.2828 134.332L47.702 130.494Z" fill="#2E332E"/>
<path d="M27.4556 144.989L32.6827 150.775L31.182 152.168L25.9845 146.416L27.4556 144.989Z" fill="#2E332E"/>
<path d="M58.3079 155.968L65.4782 153.854L64.867 152.024L57.4901 153.998L58.3079 155.968Z" fill="#2E332E"/>
<path d="M41.32 117.021C41.32 117.021 41.3748 107.838 42.5846 105.936C43.7944 104.034 46.4417 101.349 46.4417 101.349C46.4417 101.349 43.5162 105.08 43.0947 106.61C42.6731 108.139 41.3073 117.021 41.3073 117.021H41.32Z" fill="#5E3A28"/>
<path d="M55.3572 109.795L56.2298 111.561L54.0631 119.689L53.3717 117.627L53.9239 117.656L55.3572 109.795Z" fill="#5E3A28"/>
<path d="M24.9897 162.817C25.2504 162.601 25.533 162.414 25.8327 162.257C26.1489 162.126 26.2922 162.075 26.2922 162.075L25.7358 161.415C25.3913 161.435 25.0552 161.529 24.7494 161.69C24.5382 161.831 24.3599 162.015 24.2267 162.232L24.9897 162.817Z" fill="#2E332E"/>
<path d="M23.7251 161.813C23.9386 161.473 24.2569 161.213 24.6314 161.072C24.967 160.935 25.3235 160.858 25.6852 160.843L25.3564 159.919C24.8573 159.889 24.3589 159.989 23.9105 160.212C23.5519 160.483 23.2314 160.803 22.9579 161.161L23.7251 161.813Z" fill="#2E332E"/>
<path d="M22.5658 160.8C22.8307 160.289 23.2457 159.872 23.7546 159.606C24.2574 159.408 24.7911 159.3 25.3311 159.288L24.9475 158.14C24.2568 158.205 23.5831 158.393 22.9578 158.695C22.4612 159.017 22.0317 159.433 21.6932 159.919L22.06 160.373L22.5658 160.8Z" fill="#2E332E"/>
<path d="M60.1247 167.404C60.1247 167.404 55.0031 169.039 53.4265 169.886C51.85 170.733 61.0943 169.251 61.0943 169.251L60.1247 167.404Z" fill="#2E332E"/>
<path d="M72.9141 166.497C72.838 166.213 72.8095 165.918 72.8298 165.625C72.8423 165.317 72.905 165.014 73.0153 164.727L71.7507 164.591C71.6056 164.955 71.5092 165.337 71.4641 165.726C71.4341 166.028 71.4881 166.331 71.62 166.603L72.9141 166.497Z" fill="#2E332E"/>
<path d="M71.0088 166.616C70.9128 166.239 70.8632 165.853 70.8613 165.464C70.9239 165.008 71.0913 164.573 71.3502 164.193L70.0224 163.837C69.7645 164.266 69.574 164.731 69.4575 165.218C69.451 165.721 69.4948 166.223 69.5882 166.718L71.0088 166.616Z" fill="#2E332E"/>
<path d="M68.8084 166.764C68.6871 166.284 68.6514 165.787 68.703 165.294C68.8292 164.637 69.1292 164.025 69.5714 163.524L68.2309 163.011C68.2309 163.011 67.3878 163.986 67.3119 164.727C67.2619 165.405 67.2619 166.086 67.3119 166.764H68.8084Z" fill="#2E332E"/>
<path d="M29.753 164.922C29.451 164.562 29.0555 164.294 28.6107 164.147C28.024 163.998 27.41 163.998 26.8233 164.147C25.2354 163.063 23.7267 161.867 22.3087 160.568C20.5509 158.852 17.2502 153.998 17.2502 153.998C16.1332 154.752 15.2353 155.345 15.2353 155.345L14.9234 156.218C14.9234 156.218 28.7877 167.535 29.1797 167.692C29.5718 167.849 30.4022 167.018 30.4022 167.018L29.753 164.922Z" fill="#FCECFF"/>
<path d="M37.9435 120.426H37.7875C37.7875 120.32 37.8845 109.816 38.0278 107.202C38.1711 104.589 42.5382 97.8502 42.7237 97.5664L42.8586 97.6554C42.8122 97.7231 38.3271 104.627 38.1838 107.215C38.0404 109.803 37.9477 120.329 37.9435 120.426Z" fill="#804527"/>
<path d="M48.4237 131.383L48.2925 131.467L62.0997 153.053L62.2309 152.968L48.4237 131.383Z" fill="#2E332E"/>
<path d="M77.0115 164.604C76.5932 164.734 76.2185 164.978 75.9281 165.307C75.7516 165.59 75.6273 165.903 75.5614 166.23C75.5614 166.23 72.3324 166.654 68.9981 166.756C65.6637 166.857 60.2596 166.408 60.2596 166.408C60.188 167.387 60.1247 168.132 60.1247 168.132L60.5041 169.259C60.5041 169.259 77.3656 167.793 78.2087 167.48C79.0517 167.167 79.5112 165.815 79.5112 165.815C79.5112 165.815 78.3983 165.299 76.982 164.604H77.0115Z" fill="#FCECFF"/>
<path d="M30.634 114.75C30.3071 114.867 29.9564 114.899 29.6139 114.844C29.2292 114.809 28.8474 114.747 28.4715 114.657C28.866 114.864 29.2944 114.997 29.7362 115.051C30.0727 115.033 30.4049 114.965 30.7225 114.852L30.634 114.75Z" fill="#5546FF"/>
<path d="M30.3432 116.966C29.9747 117.025 29.6032 117.064 29.2303 117.08C28.8408 117.078 28.4564 116.99 28.1048 116.822C28.1048 116.822 28.8046 117.347 29.3188 117.267C29.8331 117.186 30.4865 117.08 30.4865 117.08L30.3432 116.966Z" fill="#5546FF"/>
<path d="M30.027 118.842C29.7157 118.91 29.3967 118.936 29.0786 118.918C28.8444 118.905 28.6171 118.833 28.4167 118.711C28.5697 118.866 28.7536 118.988 28.9563 119.067C29.3165 119.087 29.6776 119.051 30.027 118.961V118.842Z" fill="#5546FF"/>
<path d="M59.6779 124.988C59.6779 124.988 58.329 124.141 58.1014 123.717C58.0467 123.618 58.0251 123.504 58.0399 123.392C58.0546 123.279 58.1048 123.175 58.1831 123.093C58.2615 123.012 58.3638 122.957 58.475 122.939C58.5863 122.92 58.7006 122.937 58.8011 122.989L60.2554 123.717C60.2554 123.717 59.1552 122.836 58.7885 122.777C58.4217 122.718 58.1014 122.718 57.9075 123.133C57.8356 123.302 57.8244 123.492 57.8759 123.669C57.9274 123.846 58.0384 123.999 58.1899 124.103C58.4259 124.264 59.6779 124.988 59.6779 124.988Z" fill="#B07B58"/>
<path d="M57.6672 125.767C57.6672 125.767 56.3183 124.92 56.1412 124.412C55.9642 123.904 56.5923 123.374 57.0981 123.501C57.4298 123.59 57.7447 123.733 58.0297 123.925L58.1899 124.077C57.8166 123.895 57.4167 123.773 57.0054 123.717C56.6892 123.747 55.981 124.141 56.4616 124.632C56.9421 125.124 57.6672 125.767 57.6672 125.767Z" fill="#B07B58"/>
<path d="M59.3112 118.74L54.9862 122.675L54.5942 121.536L59.3112 118.74Z" fill="#B07B58"/>
<path d="M59.6779 123.294C59.6779 123.294 60.365 123.544 60.7107 123.048C60.8432 122.909 60.9227 122.727 60.935 122.535C60.9474 122.343 60.8918 122.153 60.7781 121.998C60.6095 121.612 58.5988 119.41 58.5988 119.41L55.5553 122.18L56.6681 123.552L56.9084 123.501L55.8546 122.129L58.5819 119.588C58.5819 119.588 60.6095 121.892 60.6516 122.269C60.6938 122.646 60.6221 122.951 60.2554 123.031C59.9427 123.076 59.626 123.086 59.3112 123.061L59.6779 123.294Z" fill="#B07B58"/>
<path d="M40.2956 124.141C40.1872 123.85 40.1357 123.541 40.1439 123.23C40.1448 123.051 40.1851 122.875 40.2619 122.714C40.182 122.766 40.1161 122.838 40.0699 122.922C40.0236 123.006 39.9984 123.1 39.9964 123.196C39.9416 123.578 40.4727 124.522 40.4727 124.522L40.2956 124.141Z" fill="#B07B58"/>
<path d="M38.9973 125.789C38.9973 125.789 38.5758 124.73 38.5168 124.374C38.4668 124.196 38.4787 124.006 38.5505 123.836C38.5505 123.836 38.4451 123.866 38.3819 124.302C38.3186 124.738 38.9004 125.806 38.9004 125.806L38.9973 125.789Z" fill="#B07B58"/>
<path d="M36.8306 125.013C36.6752 124.67 36.5674 124.306 36.5103 123.933C36.5124 123.762 36.5684 123.596 36.6704 123.459C36.6704 123.459 36.3374 123.709 36.3459 123.967C36.432 124.329 36.5593 124.68 36.7252 125.013H36.8306Z" fill="#B07B58"/>
<path d="M53.3717 117.627L50.5727 118.232L50.6191 117.491L53.3717 117.627Z" fill="#2E332E"/>
<path d="M20.6732 157.485L19.5614 156.368C19.2997 156.105 18.8753 156.105 18.6135 156.368C18.3518 156.631 18.3518 157.057 18.6135 157.32L19.7254 158.438C19.9871 158.701 20.4115 158.701 20.6732 158.438C20.935 158.175 20.935 157.748 20.6732 157.485Z" fill="#2E332E"/>
<path d="M64.2347 165.854H62.6624C62.2922 165.854 61.9922 166.155 61.9922 166.527C61.9922 166.899 62.2922 167.2 62.6624 167.2H64.2347C64.6049 167.2 64.905 166.899 64.905 166.527C64.905 166.155 64.6049 165.854 64.2347 165.854Z" fill="#2E332E"/>
<path d="M52.2926 85.406C52.721 85.406 53.0682 84.7517 53.0682 83.9447C53.0682 83.1376 52.721 82.4834 52.2926 82.4834C51.8642 82.4834 51.517 83.1376 51.517 83.9447C51.517 84.7517 51.8642 85.406 52.2926 85.406Z" fill="#2E332E"/>
<path d="M54.0082 85.262C54.3202 85.262 54.5731 84.6077 54.5731 83.8007C54.5731 82.9936 54.3202 82.3394 54.0082 82.3394C53.6963 82.3394 53.4434 82.9936 53.4434 83.8007C53.4434 84.6077 53.6963 85.262 54.0082 85.262Z" fill="#2E332E"/>
<path d="M53.7718 83.7158L52.5307 83.8811L52.5767 84.2296L53.8178 84.0643L53.7718 83.7158Z" fill="#2E332E"/>
<path d="M49.327 82.7707L49.208 83.1013L51.7966 84.0419L51.9155 83.7112L49.327 82.7707Z" fill="#2E332E"/>
<path d="M19.7816 170.381C24.4021 169.884 28.0894 168.934 28.0176 168.26C27.9457 167.585 24.1418 167.441 19.5214 167.938C14.9009 168.435 11.2136 169.385 11.2854 170.059C11.3573 170.734 15.1612 170.878 19.7816 170.381Z" fill="#2E332E"/>
<path d="M74.3835 124.952L70.2571 132.893L70.5374 133.04L74.6637 125.099L74.3835 124.952Z" fill="#2E332E"/>
<path d="M78.032 126.552L73.9057 134.493L74.1859 134.64L78.3123 126.699L78.032 126.552Z" fill="#2E332E"/>
</g>
<defs>
<clipPath id="clip0_119_2451">
<rect width="198" height="142" fill="white" transform="translate(1 29)"/>
</clipPath>
</defs>
</svg>
