<svg width="200" height="200" viewBox="0 0 200 200" fill="none" xmlns="http://www.w3.org/2000/svg">
<mask id="mask0_119_2161" style="mask-type:alpha" maskUnits="userSpaceOnUse" x="0" y="0" width="200" height="200">
<rect width="200" height="200" fill="black"/>
</mask>
<g mask="url(#mask0_119_2161)">
<g clip-path="url(#clip0_119_2161)">
<path d="M119.198 84.6236C133.443 84.6236 144.991 73.116 144.991 58.9206C144.991 44.7252 133.443 33.2175 119.198 33.2175C104.952 33.2175 93.4044 44.7252 93.4044 58.9206C93.4044 73.116 104.952 84.6236 119.198 84.6236Z" fill="#FFBFED"/>
<path d="M84.5268 109.513V72.2988H121.506L122.945 109.029L84.5268 109.513Z" fill="#D0B273"/>
<path d="M127.641 68.4675L121.506 72.2988H84.5268L94.3242 68.4675H127.641Z" fill="#906B53"/>
<path d="M128.464 104.224L127.641 68.4675L121.506 72.2988L122.951 109.513L128.464 104.224Z" fill="#7C553F"/>
<path d="M77.083 107.93V145.878L121.506 145.36V109.046L84.5268 109.513V108.237L77.083 107.93Z" fill="#DD997F"/>
<path d="M84.5268 103.86L77.083 107.93L84.5268 108.237V103.86Z" fill="#804527"/>
<path d="M80.6249 145.878L81.4761 184.185H118.089V145.4L80.6249 145.878Z" fill="#D6DBCC"/>
<path d="M122.945 178.379L118.089 184.185V145.4L121.506 145.36L122.42 156.302L122.945 178.379Z" fill="#AAB1A5"/>
<path d="M80.6249 145.878L118.089 148.918V145.4L80.6249 145.878Z" fill="#949B90"/>
<path d="M81.379 179.75L69.5193 183.212L69.822 184.732L81.4761 184.185L81.379 179.75Z" fill="#2E332E"/>
<path d="M84.6467 89.0641L84.4125 88.916C84.5153 88.7566 86.9033 84.9311 89.554 83.4282C91.0343 82.6213 92.6073 81.9963 94.2385 81.5666C95.5753 81.1454 97.2434 80.6273 99.46 79.7734C104.527 77.8094 106.618 72.3044 106.641 72.2532L106.898 72.3443C106.898 72.4012 104.744 78.0371 99.5571 80.0296C97.3348 80.8835 95.661 81.4072 94.3185 81.8285C92.707 82.2523 91.1531 82.8698 89.6911 83.6673C87.0975 85.1531 84.6467 89.0242 84.6467 89.0641Z" fill="#D08B69"/>
<path d="M122.351 95.3489C122.277 95.3489 114.53 93.0376 114.713 84.3333C114.896 75.629 121.483 74.183 121.568 74.1716L121.626 74.4392C121.563 74.4392 115.182 75.8624 115.005 84.339C114.827 92.8156 122.368 95.0643 122.431 95.087L122.351 95.3489Z" fill="#D08B69"/>
<path d="M115.016 108.072H114.85C112.742 108.072 110.023 105.733 106.881 103.057C103.739 100.381 100.026 97.2162 96.0266 95.5994C88.2058 92.4456 84.6753 95.5425 84.641 95.5994L84.4525 95.4002C84.601 95.2635 88.1487 92.1553 96.1295 95.3717C100.18 97.0055 103.842 100.125 107.075 102.875C110.183 105.516 112.862 107.799 114.873 107.828C118.952 107.885 122.717 105.676 122.751 105.653L122.894 105.892C122.837 105.875 119.095 108.072 115.016 108.072Z" fill="#D08B69"/>
<path d="M77.1001 121.826L77.0659 121.462C77.1058 121.462 80.802 121.052 83.5099 117.118L84.0183 116.373C86.372 112.957 86.6748 112.513 87.8916 111.517C89.1084 110.52 92.0733 109.296 92.1933 109.24L92.3304 109.581C92.3019 109.581 89.3655 110.771 88.1258 111.79C86.8861 112.809 86.6462 113.19 84.3211 116.572L83.8127 117.318C81.002 121.405 77.2601 121.809 77.1001 121.826Z" fill="#FCECFF"/>
<path d="M77.1287 129.665L77.043 129.312C77.1287 129.312 86.0692 127.081 91.4678 123.05C96.7464 119.099 99.9342 116.72 104.939 116.72C107.778 116.704 110.596 117.212 113.251 118.217L113.108 118.553C110.497 117.574 107.728 117.084 104.939 117.107C100.06 117.107 96.9064 119.464 91.6849 123.369C86.2292 127.422 77.2201 129.643 77.1287 129.665Z" fill="#FCECFF"/>
<path d="M90.0739 145.93L89.9711 145.582C90.0168 145.582 94.7755 144.148 97.1806 139.707C99.7571 134.959 101.397 132.233 105.179 131.498C108.96 130.764 115.987 134.345 118.238 137.498C120.489 140.652 121.666 145.269 121.666 145.315L121.311 145.406C121.311 145.36 120.106 140.749 117.924 137.709C115.741 134.669 108.943 131.14 105.253 131.88C101.562 132.62 100.026 135.25 97.5062 139.907C95.0269 144.455 90.1196 145.918 90.0739 145.93Z" fill="#FCECFF"/>
<path d="M81.2191 168.558L81.0934 168.319C81.1562 168.285 87.6688 164.733 91.0279 158.761C94.3871 152.789 91.6621 146.419 91.6335 146.356L91.8849 146.248C91.9134 146.311 94.6784 152.824 91.2679 158.892C87.8573 164.961 81.2591 168.524 81.2191 168.558Z" fill="#D08B69"/>
<path d="M117.964 171.411C117.964 171.365 116.05 167.033 112.822 164.465C111.672 163.624 110.411 162.944 109.075 162.444C106.595 161.386 104.03 160.293 101.568 156.655C97.7861 151.059 99.7685 146.71 99.7856 146.67L100.037 146.784C100.037 146.829 98.1061 151.042 101.797 156.501C104.213 160.076 106.738 161.152 109.183 162.194C110.543 162.702 111.825 163.396 112.994 164.255C116.278 166.862 118.204 171.257 118.221 171.297L117.964 171.411Z" fill="#D08B69"/>
<path d="M113.816 184.254C113.765 184.14 108.612 172.834 99.3515 172.475C90.091 172.116 85.4979 184.111 85.4522 184.254L85.1952 184.157C85.2409 184.037 89.9196 171.849 99.3629 172.202C108.806 172.555 114.016 184.026 114.068 184.157L113.816 184.254Z" fill="#D08B69"/>
<path d="M128.23 94.0339L130.109 99.2998L134.319 94.0339L131.943 101.577L139.632 98.5711L133.405 105.226H141.643L133.405 109.513L136.61 112.889L132.766 112.342L136.245 120.733L131.297 116.902L132.309 123.745L122.951 109.513L128.464 104.224L128.23 94.0339Z" fill="#D06A53"/>
<path d="M119.226 104.588H111.663V93.0775H96.9121V104.588H89.3484V77.7354H96.9121V88.6143H111.663V77.7354H119.226V104.588Z" fill="#2E332E"/>
<path d="M113.696 128.464C113.749 130.919 113.084 133.336 111.783 135.421C110.447 137.46 108.54 139.064 106.298 140.032C101.07 142.184 95.1992 142.184 89.9711 140.032C87.716 139.071 85.789 137.479 84.4239 135.449C83.1021 133.416 82.4088 131.04 82.4302 128.618V127.268C82.3594 124.808 83.0352 122.383 84.3694 120.311C85.7035 118.239 87.6339 116.616 89.9082 115.655C95.1332 113.507 100.999 113.507 106.224 115.655C108.494 116.617 110.421 118.237 111.754 120.306C113.086 122.374 113.763 124.794 113.696 127.251V128.464ZM106.035 127.246C106.035 124.433 105.346 122.295 103.967 120.83C102.589 119.365 100.622 118.632 98.0661 118.632C95.5296 118.632 93.5701 119.355 92.1876 120.801C90.8052 122.247 90.1082 124.365 90.0968 127.155V128.464C90.0968 131.208 90.7861 133.335 92.1648 134.846C93.5435 136.356 95.5277 137.115 98.1175 137.123C100.654 137.123 102.604 136.394 103.967 134.937C105.331 133.479 106.02 131.354 106.035 128.561V127.246Z" fill="#2E332E"/>
<path d="M94.6098 170.244V179.699H87.0461V152.852H101.362C103.834 152.805 106.295 153.179 108.64 153.956C110.506 154.547 112.175 155.634 113.468 157.099C114.578 158.391 115.187 160.037 115.182 161.739C115.182 164.369 113.95 166.445 111.485 167.966C109.021 169.488 105.613 170.247 101.26 170.244H94.6098ZM94.6098 165.763H101.362C103.366 165.763 104.889 165.418 105.933 164.727C106.432 164.417 106.84 163.981 107.116 163.463C107.392 162.945 107.525 162.364 107.504 161.778C107.518 161.158 107.381 160.543 107.104 159.987C106.828 159.43 106.42 158.949 105.915 158.585C104.628 157.704 103.088 157.265 101.528 157.332H94.6098V165.763Z" fill="#2E332E"/>
<path d="M32.4661 73.0218C32.4661 73.0218 31.0036 88.7567 32.0091 89.8953C33.0145 91.0339 62.9381 91.1989 62.9381 91.1989L68.4281 98.9753L67.6055 91.1989C67.6055 91.1989 73.6439 92.087 74.6494 91.1989C75.6548 90.3109 77.7628 75.3502 76.8488 74.3482C75.9347 73.3463 34.9854 72.7485 32.4661 73.0218Z" fill="#2E332E"/>
<path d="M29.8839 70.2493C29.8839 70.2493 28.4214 85.9785 29.4269 87.1228C30.4323 88.267 60.3674 88.4207 60.3674 88.4207L65.8574 96.1971L65.0347 88.4207C65.0347 88.4207 71.0731 89.3088 72.0786 88.4207C73.084 87.5327 75.1921 72.5719 74.278 71.57C73.364 70.5681 32.4033 69.9703 29.8839 70.2493Z" fill="#FCECFF"/>
<path d="M33.4373 75.1906C35.0368 78.8055 38.5788 83.7298 43.269 81.7999C44.1819 81.4339 44.9474 80.7766 45.4456 79.931C45.9438 79.0853 46.1467 78.0989 46.0225 77.1261C45.8512 75.6802 44.1488 74.5928 43.0005 75.9534C42.6774 76.4457 42.5548 77.0422 42.6577 77.6214C42.8234 81.2534 47.8678 82.7449 50.6556 81.0371C51.7982 80.3426 53.2949 77.5588 51.6725 76.4373C49.4331 74.8889 48.4962 78.1907 48.6961 79.7961C49.336 84.8854 55.7743 84.7602 58.7906 82.0732C60.0703 80.9346 62.0755 78.4013 61.0758 76.4487C60.2131 74.7693 58.5564 76.238 58.4422 77.5417C58.3901 78.0138 58.4373 78.4915 58.5809 78.9444C58.7245 79.3972 58.9613 79.8153 59.2762 80.1718C60.6016 81.6462 62.8981 81.9821 64.7205 81.3559C66.9656 80.5817 68.3653 78.5095 69.0337 76.3462C69.1194 76.0673 68.948 75.7086 69.0337 75.4354C68.2967 77.8491 66.6229 80.1035 64.0064 80.6272C61.6699 81.094 58.8078 79.9953 58.4479 77.4051V78.3216C58.6592 76.4031 61.0986 75.9591 61.2357 78.2192V77.3197C60.6987 80.1149 57.7795 82.5969 55.0202 83.0125C52.0153 83.4964 49.0218 81.7316 48.6676 78.5949V79.5057C48.7304 78.3672 49.2388 77.2628 50.5014 77.1147C50.7047 77.08 50.913 77.0864 51.1139 77.1337C51.3147 77.1809 51.5039 77.2679 51.6702 77.3896C51.8366 77.5112 51.9766 77.665 52.082 77.8418C52.1874 78.0185 52.2561 78.2146 52.2838 78.4184V77.5246C52.1524 82.5229 42.732 81.5096 42.6406 76.8586V77.7068C43.2119 75.646 45.7083 76.0502 46.0054 78.0598V77.166C45.7769 80.3881 42.4235 81.9024 39.5442 81.0029C36.4193 80.0295 34.6712 77.109 33.4258 74.3025C33.5401 74.553 33.3116 74.9572 33.4258 75.2133L33.4373 75.1906Z" fill="#5546FF"/>
<path d="M99.3686 196.345C103.957 193.47 109.253 191.914 114.673 191.848C120.294 191.916 125.878 192.755 131.269 194.341L99.3686 196.345Z" fill="#2E332E"/>
<path d="M109.452 100.985L108.732 194.341H110.891L110.657 100.985H109.452Z" fill="#3A4741"/>
<path d="M127.013 193.795H129.195L124.756 141.615L123.522 145.406L127.013 193.795Z" fill="#3A4741"/>
<path d="M126.362 172.72H109.812V174.177H126.362V172.72Z" fill="#3A4741"/>
<path d="M125.339 155.619H109.589V157.076H125.339V155.619Z" fill="#3A4741"/>
<path d="M124.476 139.223H109.686V140.681H124.476V139.223Z" fill="#3A4741"/>
<path d="M125.482 125.202H110.691V126.66H125.482V125.202Z" fill="#3A4741"/>
<path d="M124.299 111.886H109.509V113.344H124.299V111.886Z" fill="#3A4741"/>
<path d="M135.925 190.191L139.952 184.669L128.47 194.518L145.122 193.795L149.424 187.316L142.146 190.92L149.013 184.185L135.925 190.191Z" fill="#D0B273"/>
<path d="M117.889 95.6735C117.889 95.6735 117.17 92.1496 117.695 90.5499C118.221 88.9503 119.769 88.1817 121.123 89.0926C122.477 90.0034 122.146 91.0737 122.146 91.0737C122.146 91.0737 123.202 90.8801 123.408 92.2806C123.438 92.5906 123.365 92.9018 123.201 93.167C123.037 93.4321 122.791 93.6366 122.5 93.7493L123.025 95.645L117.889 95.6735Z" fill="#EBB490"/>
<path d="M121.923 93.0888C121.923 93.0888 121.46 92.6618 121.586 92.3032C121.711 91.9445 122.385 91.7339 122.385 91.7339C122.264 91.8372 122.167 91.9653 122.1 92.1096C122.014 92.3202 122.785 92.4683 122.785 92.4683C122.509 92.3904 122.216 92.3904 121.94 92.4683C121.683 92.5992 121.923 93.0888 121.923 93.0888Z" fill="#B07B58"/>
<path d="M119.409 91.6428C119.065 91.4212 118.779 91.1206 118.575 90.7661C118.515 90.6459 118.483 90.5134 118.483 90.379C118.483 90.2446 118.515 90.1121 118.575 89.9919C118.861 90.5964 119.265 91.1382 119.763 91.5859C120.432 92.0812 120.906 92.5138 120.906 92.5138C121.002 92.1094 121.198 91.7354 121.477 91.4265C121.677 91.2658 121.912 91.1546 122.163 91.102C122.163 91.102 122.494 90.0204 121.14 89.1095C119.963 88.3239 118.644 88.8192 117.975 89.9919C118.028 90.3872 118.202 90.7567 118.472 91.0508C118.732 91.3204 119.054 91.5235 119.409 91.6428Z" fill="#211A14"/>
<path d="M101.739 89.7187C101.739 89.7187 105.584 96.59 107.841 98.0815C110.097 99.573 114.125 102.431 114.125 102.431L115.679 109.723L126.956 110.196C126.956 110.196 128.801 100.786 127.527 98.0815C126.253 95.3774 122.054 95.6051 122.054 95.6051H117.798C117.798 95.6051 112.657 95.3432 110.092 93.4191C107.526 91.4949 105.881 87.1228 105.881 87.1228L101.739 89.7187Z" fill="#D6DBCC"/>
<path d="M118.215 131.037L113.645 134.931C113.645 134.931 104.116 124.838 105.784 121.434C107.452 118.029 115.701 109.723 115.701 109.723L126.979 110.196C126.979 110.196 127.116 120.58 126.979 122.646C126.841 124.713 124.276 145.753 124.276 145.753L118.478 145.36L119.335 118.513C119.335 118.513 116.376 120.397 115.307 121.126C114.239 121.855 113.473 122.435 113.473 122.435L118.215 131.037Z" fill="#5546FF"/>
<path d="M116.975 103.768C116.975 103.768 114.073 101.85 112.857 100.985C111.766 100.286 110.62 99.679 109.429 99.1687L114.102 102.431L116.975 103.768Z" fill="#AAB1A5"/>
<path d="M113.451 122.435C112.934 122.683 112.504 123.08 112.217 123.574L111.874 124.308L113.748 122.965L113.451 122.435Z" fill="#495856"/>
<path d="M105.904 87.1228C105.527 86.3821 105.278 85.5834 105.167 84.7603C105.099 83.7014 105.79 82.375 104.596 82.2612C103.402 82.1473 103.887 83.969 103.453 84.2479C103.019 84.5269 102.494 83.9291 102.036 83.0183C101.579 82.1074 101.162 80.3484 100.545 80.2801C99.9285 80.2117 99.9056 81.3503 99.9056 81.3503C99.7766 81.2696 99.631 81.219 99.4797 81.2023C99.3283 81.1855 99.1751 81.203 99.0315 81.2535C98.6317 81.4528 98.7231 82.3921 98.7231 82.3921C98.7231 82.3921 98.009 82.3921 97.8376 82.7906C97.7662 83.2169 97.7975 83.6539 97.929 84.0658C97.929 84.0658 97.4605 83.7925 97.2263 84.2195C96.9921 84.6464 97.5062 85.9273 98.466 86.8325C99.4257 87.7376 101.717 89.7358 101.717 89.7358L105.904 87.1228Z" fill="#EBB490"/>
<path d="M99.9227 86.3372C99.9227 86.3372 98.7802 85.2897 98.4717 84.9538C98.254 84.6776 98.0788 84.3706 97.9518 84.043L99.9227 86.3372Z" fill="#B07B58"/>
<path d="M98.7459 82.3523C98.8284 82.8905 99.0125 83.4082 99.2886 83.878C99.8007 84.6264 100.39 85.3191 101.048 85.9445L98.7459 82.3523Z" fill="#B07B58"/>
<path d="M99.9285 81.3503C99.9368 81.9224 100.037 82.4893 100.226 83.0297C100.51 83.5523 100.855 84.0395 101.254 84.4814L99.9285 81.3503Z" fill="#B07B58"/>
<path d="M105.898 87.1228L100.648 88.7737L101.734 89.7187L105.898 87.1228Z" fill="#B07B58"/>
<path d="M112.514 155.619L124.322 155.414L123.751 149.237C123.262 148.886 122.679 148.688 122.077 148.668C121.126 148.65 120.179 148.794 119.278 149.095L117.41 151.287C116.44 152.232 115.321 153.011 114.096 153.592C113.336 153.911 112.034 154.651 112.514 155.619Z" fill="#D06A53"/>
<path d="M119.266 151.696C119.386 151.378 118.175 150.359 118.175 150.359L117.387 151.287C116.879 151.826 116.303 152.297 115.673 152.687C115.942 152.925 116.249 153.117 116.581 153.256C116.918 153.37 119.141 152.015 119.266 151.696Z" fill="#5E3A28"/>
<path d="M124.002 145.736L123.728 149.237C123.177 149.174 122.621 149.294 122.146 149.579C121.574 150.034 121.574 150.899 121.3 150.945C121.026 150.99 120.02 150.945 119.86 150.945C119.7 150.945 119.815 150.216 119.609 150.148C119.498 150.113 119.391 150.067 119.289 150.011L119.123 145.406L124.002 145.736Z" fill="#EBB490"/>
<path d="M117.53 154.406C117.537 154.27 117.514 154.134 117.461 154.008C117.357 153.834 117.23 153.675 117.084 153.535L117.889 153.148C118.04 153.325 118.174 153.516 118.289 153.717C118.364 153.894 118.512 154.651 118.512 154.651L117.53 154.406Z" fill="#5E3A28"/>
<path d="M118.215 153.006C118.43 153.195 118.588 153.439 118.672 153.712C118.884 154.281 118.855 154.281 118.855 154.281L119.906 154.173C119.789 153.818 119.652 153.47 119.495 153.131C119.33 152.857 119.117 152.614 118.866 152.414L118.215 153.006Z" fill="#5E3A28"/>
<path d="M120.289 154.116C120.206 153.732 120.077 153.359 119.906 153.006C119.685 152.702 119.426 152.429 119.135 152.192L120.049 151.548C120.447 151.985 120.783 152.473 121.049 153C121.203 153.469 121.332 153.946 121.437 154.429L120.289 154.116Z" fill="#5E3A28"/>
<path d="M124.002 145.736L119.141 146.021L119.118 145.406L124.002 145.736Z" fill="#B07B58"/>
<path d="M123.14 153.148H122.163C121.951 153.148 121.78 153.319 121.78 153.53V153.535C121.78 153.746 121.951 153.917 122.163 153.917H123.14C123.351 153.917 123.522 153.746 123.522 153.535V153.53C123.522 153.319 123.351 153.148 123.14 153.148Z" fill="#5E3A28"/>
<path d="M115.884 133.018C114.69 131.51 108.743 123.944 109.2 123.153C109.657 122.361 117.672 110.913 118.015 110.424L118.164 110.526C118.084 110.646 109.8 122.481 109.36 123.244C109.052 123.773 113.291 129.449 116.027 132.922L115.884 133.018Z" fill="#3A4741"/>
<path d="M121.423 116.912L121.24 116.92L122.479 145.659L122.662 145.651L121.423 116.912Z" fill="#3A4741"/>
<path d="M124.831 112.37C124.831 112.37 121.174 116.384 120.62 116.925C120.066 117.465 117.507 119.691 117.507 119.691L119.312 118.553L119.243 120.71L124.831 112.37Z" fill="#495856"/>
<path d="M126.95 110.196L114.593 110.833L115.679 109.729L126.95 110.196Z" fill="#495856"/>
<path d="M119.432 133.303C119.432 133.303 120.575 132.164 121.146 132.25C121.717 132.335 120.78 133.958 121.146 134.459C121.511 134.959 125.288 138.882 125.219 139.269C125.15 139.656 114.422 147.546 114.422 147.546C114.2 147.659 113.946 147.692 113.703 147.637C113.46 147.583 113.243 147.446 113.091 147.25C112.611 146.544 115.199 142.576 115.29 141.256C115.382 139.935 115.473 136.912 115.473 136.912L119.432 133.303Z" fill="#D06A53"/>
<path d="M115.816 142.924C116.033 142.85 117.57 140.203 117.193 139.536C116.815 138.87 115.399 138.899 115.399 138.899C115.364 139.741 115.324 140.664 115.284 141.256C115.176 141.836 114.984 142.398 114.713 142.924C115.08 142.964 115.449 142.964 115.816 142.924Z" fill="#5E3A28"/>
<path d="M117.684 143.448C117.684 143.448 117.215 143.191 116.998 143.1C116.85 143.041 116.697 142.993 116.541 142.958L116.975 142.076C117.242 142.137 117.499 142.233 117.741 142.36C118.015 142.531 118.638 143.032 118.638 143.032L117.684 143.448Z" fill="#5E3A28"/>
<path d="M117.055 141.62C117.419 141.753 117.776 141.905 118.124 142.076L118.695 142.406L119.918 141.916C119.51 141.632 119.078 141.384 118.626 141.176C118.181 141.017 117.364 140.823 117.364 140.823L117.055 141.62Z" fill="#5E3A28"/>
<path d="M119.712 141.267C119.439 141.031 119.131 140.838 118.798 140.698C118.419 140.516 118.007 140.415 117.587 140.402L117.672 139.178C118.326 139.36 118.957 139.616 119.552 139.941C119.813 140.142 120.09 140.321 120.38 140.476L119.712 141.267Z" fill="#5E3A28"/>
<path d="M114.416 147.569C114.416 147.569 125.145 139.679 125.208 139.281C125.242 139.087 124.345 138.034 123.374 136.952C122.1 138.478 119.072 142.076 118.392 142.742C117.518 143.613 115.536 145.639 115.21 145.588C114.885 145.537 115.164 145.224 114.753 144.905C114.342 144.586 113.736 144.945 113.736 144.945C113.245 145.998 112.874 146.926 113.079 147.222C113.225 147.428 113.439 147.576 113.684 147.64C113.929 147.704 114.188 147.678 114.416 147.569Z" fill="#FCECFF"/>
<path d="M121.934 138.04L121.302 138.782C121.166 138.943 121.186 139.184 121.347 139.32L121.351 139.324C121.512 139.46 121.754 139.44 121.891 139.279L122.522 138.537C122.659 138.376 122.639 138.135 122.478 137.999L122.473 137.995C122.312 137.859 122.071 137.879 121.934 138.04Z" fill="#5E3A28"/>
<path d="M122.5 93.7778C122.383 93.8385 122.254 93.8753 122.123 93.886H121.923C121.923 93.886 122.757 94.6887 122.751 94.6716L122.5 93.7778Z" fill="#B07B58"/>
<path d="M124.322 155.391L124.116 153.256C122.805 153.633 121.469 153.919 120.117 154.11C118.404 154.27 114.605 154.748 114.559 154.543C114.513 154.338 114.742 154.139 114.673 153.809C114.605 153.478 114.45 153.393 114.45 153.393C114.319 153.461 114.199 153.524 114.102 153.564C113.365 153.883 112.062 154.634 112.542 155.596L124.322 155.391Z" fill="#FCECFF"/>
<path d="M113.885 134.726L116.016 137.675C116.413 137.42 116.896 137.332 117.358 137.43C118.089 137.613 117.929 137.766 118.364 138C118.798 138.233 119.558 137.362 119.649 137.026C119.74 136.69 119.403 136.178 119.341 135.888C119.278 135.597 119.86 135.523 119.912 135.25C119.963 134.977 119.575 134.954 119.512 134.738C119.449 134.521 119.918 134.066 119.918 134.066L118.021 131.219L113.885 134.726Z" fill="#EBB490"/>
<path d="M113.879 134.72L118.666 132.153L118.032 131.191L113.879 134.72Z" fill="#B07B58"/>
<path d="M72.7527 61.4482L76.7917 23.9382L114.062 28.8568L110.28 65.0005L72.7527 61.4482Z" fill="#5546FF"/>
<path d="M83.2128 20.5852L76.7917 23.9383L114.062 28.8569L117.724 24.9858L83.2128 20.5852Z" fill="#495856"/>
<path d="M110.28 65.0006L114.639 60.805L117.724 24.9858L114.062 28.857L110.28 65.0006Z" fill="#3A4741"/>
<path d="M73.0612 59.3134L72.9355 59.0686C73.084 58.9946 87.6917 51.4687 88.0516 40.3734C88.4115 29.2781 76.6488 26.5057 76.506 26.4772L76.5688 26.2153C76.6888 26.2153 88.6914 29.0617 88.3258 40.3791C87.9602 51.6964 73.2212 59.2394 73.0612 59.3134Z" fill="#D08B69"/>
<path d="M112.188 39.9408C110.697 39.9408 107.161 39.5992 103.213 36.8382C98.009 33.2005 97.1292 26.7221 97.1235 26.6538L97.3977 26.6196C97.3977 26.6879 98.266 33.0468 103.373 36.6162C108.481 40.1856 112.857 39.6562 112.902 39.6562L112.942 39.9237C112.692 39.9484 112.44 39.9541 112.188 39.9408Z" fill="#D08B69"/>
<path d="M86.4977 62.8715L86.4006 62.6153C86.4691 62.5869 93.4959 59.8373 94.8326 56.0174C96.1694 52.1975 100.785 45.4572 104.167 44.3414C107.458 43.2541 112.411 44.3414 112.457 44.3414L112.399 44.609C112.348 44.609 107.475 43.5444 104.253 44.609C100.945 45.6963 96.4151 52.3398 95.1126 56.1142C93.7129 60.0479 86.7947 62.7577 86.4977 62.8715Z" fill="#D08B69"/>
<path d="M98.5345 50.8026C98.5866 50.302 98.4931 49.797 98.2652 49.3479C98.0373 48.8987 97.6846 48.5243 97.2492 48.2693C96.2932 47.6204 94.5394 46.8613 91.9877 45.9922C89.9257 45.3455 87.9101 44.56 85.955 43.6411C81.9484 41.6258 80.0746 39.2272 80.3336 36.4454C80.4007 35.7186 80.6149 35.0129 80.9635 34.371C81.3121 33.7291 81.7877 33.1644 82.3616 32.7109C83.8292 31.5638 85.5613 30.8005 87.4003 30.4907C89.7404 30.035 92.1357 29.9295 94.507 30.1776C96.8787 30.3524 99.2049 30.918 101.391 31.8513C103.153 32.5662 104.7 33.7233 105.881 35.21C106.862 36.4752 107.326 38.064 107.178 39.6561L99.6485 38.9673C99.7158 38.4 99.6319 37.825 99.4053 37.3003C99.1786 36.7756 98.8172 36.3197 98.3574 35.9785C97.3634 35.2043 95.9124 34.7261 94.0043 34.5553C92.5318 34.3406 91.0287 34.4992 89.634 35.0165C88.56 35.4947 87.9773 36.1949 87.9202 37.1285C87.863 38.0621 88.3715 38.7794 89.514 39.4739C91.14 40.3797 92.8652 41.096 94.6555 41.6087C98.8449 42.9447 101.859 44.4001 103.699 45.9751C105.538 47.5501 106.359 49.3775 106.161 51.4573C105.948 53.7686 104.584 55.4764 102.071 56.5809C99.5571 57.6853 96.2742 58.0496 92.2219 57.6739C89.6139 57.4676 87.0553 56.8508 84.641 55.8465C82.6976 55.0963 80.9775 53.866 79.6423 52.2714C78.5731 50.9395 78.0687 49.2438 78.237 47.5464L85.795 48.2352C85.5284 51.1879 87.8135 52.8843 92.6504 53.3246C94.0862 53.5253 95.5494 53.3809 96.9178 52.9033C97.3603 52.7432 97.7476 52.4604 98.034 52.0882C98.3205 51.716 98.4941 51.27 98.5345 50.8026Z" fill="#2E332E"/>
<path d="M78.5283 13.0537L79.888 16.4466L76.5346 17.4201L76.7917 13.7198L78.5283 13.0537Z" fill="#906B53"/>
<path d="M76.4146 7.5941C76.4146 7.5941 80.3279 5.24297 81.9846 5.68131C83.6413 6.11966 83.6641 7.06467 83.6641 7.06467C83.6928 6.87231 83.6817 6.67616 83.6316 6.48821C83.5815 6.30027 83.4934 6.12449 83.3728 5.97165C83.0031 5.69948 82.6023 5.47207 82.1788 5.2942C82.1788 5.2942 83.4699 5.2202 83.8927 6.11966C84.0747 6.53335 84.1687 6.98015 84.1687 7.43185C84.1687 7.88356 84.0747 8.33036 83.8927 8.74405C83.6013 9.37026 81.5561 11.4368 80.4307 12.1597C79.2652 12.7801 78.0522 13.3074 76.8031 13.7366L76.4146 7.5941Z" fill="#EBB490"/>
<path d="M59.0477 9.07442L52.8893 5.96045L55.5744 9.39322L47.3994 8.49944L54.7517 11.6134L48.4334 15.1714L55.3916 13.919L50.8784 18.5757L57.5567 15.1714L57.1625 17.6649L59.9047 15.1999L61.51 12.2681L59.0477 9.07442Z" fill="#D0B273"/>
<path d="M59.9047 15.177C59.9047 15.177 70.7076 2.79515 74.8722 5.49924C79.0368 8.20333 76.7974 15.177 76.7974 15.177L69.9763 14.7671L70.3648 21.3594L67.7083 22.7257L59.9047 15.177Z" fill="#BB9F84"/>
<path d="M72.7527 5.17484L69.9477 3.64917C68.3548 3.8432 66.7879 4.20971 65.2747 4.74219C64.0199 5.33858 62.8421 6.08406 61.767 6.96239C61.6321 7.77855 61.6321 8.61121 61.767 9.42738C62.0587 10.3093 62.5119 11.1296 63.1038 11.8468L72.7527 5.17484Z" fill="#5546FF"/>
<path d="M58.5564 9.18241L61.6585 8.49927L62.5896 11.1464L60.4131 13.2243C59.692 12.7497 59.1025 12.1016 58.6992 11.34C58.5108 11.0154 58.3999 10.652 58.3752 10.2778C58.3504 9.90365 58.4124 9.52883 58.5564 9.18241Z" fill="#FFBFED"/>
<path d="M69.9763 14.7899V9.76318C69.9763 9.76318 69.2222 18.7123 69.405 20.0103C69.4635 20.585 69.5589 21.1555 69.6907 21.7181L70.3648 21.3708L69.9763 14.7899Z" fill="#906B53"/>
<path d="M81.7904 21.2513L79.8709 16.4465L76.5117 17.42C76.1909 18.3464 76.0873 19.3338 76.209 20.3063C76.4832 21.553 78.7397 22.9534 78.7397 22.9534L81.7904 21.2513Z" fill="#B07B58"/>
<path d="M76.7974 15.1772C76.7974 15.1772 76.6603 19.4411 77.003 20.2381C77.3458 21.0351 84.024 26.967 85.3323 27.4452C86.6405 27.9234 89.0627 28.356 89.0627 28.9082C89.0627 29.4604 86.749 29.3409 86.5662 29.4775C86.3834 29.6141 91.2336 32.8078 90.5652 33.3088C89.8968 33.8097 86.3606 31.9823 86.3606 31.9823C86.3606 31.9823 89.5197 34.5384 89.217 35.2443C88.9142 35.9502 85.6236 32.9217 85.6236 32.9217C85.6236 32.9217 87.9544 35.7681 87.6117 36.0869C87.2689 36.4057 84.4068 33.4226 84.4068 33.4226C84.4068 33.4226 85.9435 35.5631 85.4865 35.8591C85.0295 36.1552 82.0588 31.7546 80.2422 30.229C78.4255 28.7033 71.1017 23.9669 70.3819 22.2249C69.6621 20.4829 70.0163 14.79 70.0163 14.79L76.7974 15.1772Z" fill="#EBB490"/>
<path d="M83.9098 8.74421C84.0917 8.33149 84.1856 7.88564 84.1856 7.43487C84.1856 6.9841 84.0917 6.53824 83.9098 6.12552C83.4699 5.22605 82.196 5.30006 82.196 5.30006C82.6207 5.47549 83.0218 5.70306 83.3899 5.97751C83.5106 6.13035 83.5986 6.30613 83.6487 6.49407C83.6988 6.68201 83.7099 6.87817 83.6813 7.07053C83.6813 7.07053 83.6813 6.12552 82.0017 5.68717C80.6592 5.33422 77.8428 6.82574 76.8145 7.39502L78.2656 7.92445C78.2656 7.92445 78.5283 6.66634 79.5509 7.03637C80.5735 7.4064 80.0537 8.60759 80.0537 8.60759C80.3636 8.93886 80.7588 9.17908 81.1962 9.30211C81.9474 9.46181 82.7208 9.48879 83.4813 9.38181C83.6477 9.18599 83.7915 8.97211 83.9098 8.74421Z" fill="#211A14"/>
<path d="M79.2824 7.46338C79.3746 7.52373 79.4526 7.60338 79.5108 7.69677C79.569 7.79017 79.6061 7.89507 79.6195 8.0042C79.6538 8.36284 79.0196 8.70441 79.0196 8.70441C79.0196 8.70441 79.3567 8.42547 79.3224 8.2376C79.2881 8.04974 78.7054 7.9985 78.7054 7.9985C78.7054 7.9985 79.3224 7.9985 79.351 7.85049C79.363 7.71768 79.3393 7.58407 79.2824 7.46338Z" fill="#B07B58"/>
<path d="M78.2484 7.90156L78.317 9.1369L77.7057 7.70801L78.2484 7.90156Z" fill="#B07B58"/>
<path d="M63.2638 9.89404C63.3725 9.62815 63.5382 9.38917 63.7493 9.19382C63.9577 9.02208 64.2162 8.92221 64.4863 8.90918C65.272 9.65796 66.1424 10.3132 67.0799 10.8618C67.9618 11.2491 68.8682 11.5781 69.7935 11.8467L69.6849 13.2243C68.2909 12.8527 66.9407 12.3336 65.6574 11.6759C64.7814 11.194 63.976 10.5944 63.2638 9.89404Z" fill="#211A14"/>
<path d="M59.9903 8.86377C60.4941 9.20821 60.9155 9.65917 61.2243 10.1845C61.3849 10.5828 61.4832 11.0032 61.5156 11.4312C61.2929 10.8423 60.968 10.297 60.5559 9.82016C60.2637 9.5047 59.9445 9.21517 59.6019 8.95485L59.9903 8.86377Z" fill="#7C8174"/>
<path d="M60.4131 13.2245C60.5937 12.6035 60.5937 11.9441 60.4131 11.3231C60.116 10.2301 58.5564 9.18262 58.5564 9.18262C58.5564 9.18262 59.9961 9.63804 60.4874 10.5375C60.9787 11.437 60.4131 13.2245 60.4131 13.2245Z" fill="#7C8174"/>
<path d="M36.6879 14.4711L42.4863 11.0554C42.4863 11.0554 48.2848 21.3936 50.6614 21.0292C53.0379 20.6649 59.9047 15.177 59.9047 15.177L67.6855 22.7029C67.6855 22.7029 60.733 40.6808 57.6824 41.8365C54.6317 42.9921 38.4588 42.8099 38.4588 42.8099L38.5788 36.1095C38.5788 36.1095 52.0667 35.9956 52.6151 35.0222C53.1636 34.0487 57.3739 26.1471 57.3739 26.1471C57.3739 26.1471 52.3124 29.7962 46.9423 29.0675C41.5723 28.3388 36.6879 14.4711 36.6879 14.4711Z" fill="#D6DBCC"/>
<path d="M23.2628 7.99265L35.9852 0.0227051C35.9852 0.0227051 38.3731 4.92991 38.9444 5.2601C39.5157 5.59028 40.4069 5.53335 40.7439 5.96031C41.081 6.38727 39.3729 6.89393 39.3729 6.89393L33.9743 10.3096C33.9743 10.3096 30.1296 9.17106 28.2958 9.22799C26.4619 9.28492 23.7827 9.47278 23.2914 9.31907C22.8001 9.16537 23.2628 7.99265 23.2628 7.99265Z" fill="#3A4741"/>
<path d="M36.6879 14.4711L33.3916 9.48417C33.4561 9.20962 33.5943 8.95773 33.7915 8.75549C34.0657 8.53916 34.2199 8.9035 34.3113 8.32853C34.4027 7.75355 34.0028 7.2355 34.4941 6.89963C34.9854 6.56375 35.591 6.01724 36.208 6.17095C36.825 6.32465 37.4591 6.96225 37.8533 6.92809C38.2474 6.89393 38.6759 6.35881 38.9958 6.50113C39.3157 6.64345 42.2978 11.192 42.2978 11.192L36.6879 14.4711Z" fill="#EBB490"/>
<path d="M27.7131 8.34558C27.595 8.45747 27.5058 8.59613 27.4531 8.74977C27.4004 8.9034 27.3857 9.06746 27.4103 9.22796L28.2615 9.19381C29.5986 9.25084 30.9248 9.45902 32.2147 9.81433C32.2147 9.81433 32.489 7.83892 32.2147 7.65675C31.9405 7.47458 28.0901 8.0894 27.7131 8.34558Z" fill="#AAB1A5"/>
<path d="M36.6879 14.4711L41.5095 10.0022L42.2978 11.1806L36.6879 14.4711Z" fill="#B07B58"/>
<path d="M27.6045 6.58081C27.6045 6.58081 27.8102 7.32656 27.8102 7.44611V7.63967L28.8328 7.41765C28.8666 7.13972 28.8666 6.85874 28.8328 6.58081C28.7204 6.24019 28.577 5.91053 28.4043 5.59595L27.6045 6.58081Z" fill="#AAB1A5"/>
<path d="M29.0156 5.76691C29.0156 5.76691 29.2612 6.33619 29.3812 6.70622C29.4465 6.98312 29.4245 7.27335 29.3183 7.53737L30.5694 7.25273C30.6645 6.88112 30.6954 6.49611 30.6609 6.11417C30.4721 5.64158 30.2387 5.18792 29.9639 4.75928L29.0156 5.76691Z" fill="#AAB1A5"/>
<path d="M30.8094 5.02673C31.0492 5.36122 31.2414 5.72713 31.3807 6.11406C31.4668 6.50409 31.4668 6.90812 31.3807 7.29816L32.8489 7.05337C32.9404 6.56826 32.913 6.06828 32.7689 5.59601C32.5092 5.05893 32.1808 4.5576 31.792 4.10449L30.8094 5.02673Z" fill="#AAB1A5"/>
<path d="M26.0392 35.1019C26.0392 35.1019 32.0833 35.9558 32.4775 35.7452C32.8717 35.5346 33.6715 34.2821 34.0371 34.5269C34.4027 34.7717 34.0371 36.713 34.0371 36.713L34.1971 42.9751C32.9733 44.0201 31.8645 45.1918 30.8894 46.4705C29.8268 48.0531 29.0613 50.6376 28.5129 50.945C28.1823 51.0955 27.8165 51.1523 27.4557 51.1091C27.0949 51.0659 26.7531 50.9244 26.4677 50.7002C26.0735 50.2448 25.4908 35.62 25.4908 35.62L26.0392 35.1019Z" fill="#3A4741"/>
<path d="M38.5731 36.5422L33.1516 36.7586C33.1516 36.7586 33.2088 37.3677 33.026 37.5783C32.8431 37.789 31.1693 38.1476 30.9865 38.5803C30.8596 39.2748 30.8596 39.9864 30.9865 40.6809C31.0436 40.8289 31.2607 40.8005 31.3521 41.1079C31.4135 41.3768 31.4441 41.6518 31.4435 41.9276C31.4435 41.9276 32.5118 41.9561 32.7232 42.1667C32.8736 42.4043 32.9583 42.6773 32.9688 42.958L38.4588 42.81L38.5731 36.5422Z" fill="#EBB490"/>
<path d="M33.0031 44.0511C33.0031 44.0511 31.5349 42.9694 31.1693 42.958C30.8037 42.9467 29.4555 46.2826 29.4555 46.6242C29.4555 46.9658 30.221 47.6774 30.221 47.6774L33.0031 44.0511Z" fill="#AAB1A5"/>
<path d="M28.2786 41.2102C28.6613 41.2901 29.0293 41.4284 29.3698 41.6201C29.8066 41.9341 30.2191 42.2804 30.6037 42.6562L29.9982 43.641C29.6215 43.2965 29.2164 42.9842 28.7871 42.7074C28.4265 42.5696 28.056 42.4592 27.6788 42.3772L28.2786 41.2102Z" fill="#AAB1A5"/>
<path d="M29.6668 43.9884C29.339 43.6979 28.9874 43.4351 28.6157 43.2028C28.2317 43.0572 27.8266 42.9745 27.416 42.958L27.9187 44.3414C28.1576 44.3757 28.3891 44.4488 28.6043 44.5577L29.1413 44.8993L29.6668 43.9884Z" fill="#AAB1A5"/>
<path d="M28.9927 45.349C28.7895 45.1655 28.553 45.0225 28.2958 44.9277C28.0078 44.849 27.7134 44.7957 27.416 44.7683L27.7873 46.1346C27.9941 46.0612 28.2141 46.0321 28.4329 46.0492C28.5596 46.1085 28.6818 46.177 28.7985 46.2541L28.9927 45.349Z" fill="#AAB1A5"/>
<path d="M79.9051 27.485L81.9674 24.9858L83.2128 26.0049L81.082 28.5325L79.9051 27.485Z" fill="#211A14"/>
<path d="M79.7851 30.5591C80.7285 30.5591 81.4933 29.797 81.4933 28.8569C81.4933 27.9169 80.7285 27.1548 79.7851 27.1548C78.8418 27.1548 78.077 27.9169 78.077 28.8569C78.077 29.797 78.8418 30.5591 79.7851 30.5591Z" fill="#D6DBCC"/>
<path d="M69.9763 14.79L76.7688 16.4466L76.7916 15.1999L69.9763 14.79Z" fill="#B07B58"/>
<path d="M28.3128 6.11409C29.701 5.2317 35.2938 3.43846 37.3619 2.79517C36.6364 1.4232 35.9394 0 35.9394 0L23.217 7.96994C23.217 7.96994 22.7314 9.10851 23.217 9.27929C24.1673 9.36318 25.1231 9.36318 26.0734 9.27929C26.1704 9.19143 26.246 9.08271 26.2945 8.96139C26.343 8.84006 26.3631 8.70931 26.3533 8.57907C26.2905 8.18627 25.862 8.15781 25.7821 7.82193C25.7021 7.48605 26.6047 7.20711 28.3128 6.11409Z" fill="#FCECFF"/>
<path d="M26.0392 35.1018L25.4679 35.5914C25.4679 35.5914 26.0392 50.2162 26.4448 50.6717C26.7302 50.8959 27.0721 51.0373 27.4329 51.0805C27.7937 51.1237 28.1595 51.0669 28.49 50.9164C28.7985 50.74 29.1812 49.8405 29.6325 48.7987C29.6325 48.7987 28.5985 47.5065 28.4043 47.5975C28.2101 47.6886 27.713 46.7493 27.7473 45.7758C27.7473 44.9902 28.6157 38.0905 28.9356 35.4832C27.4617 35.3181 26.0392 35.1018 26.0392 35.1018Z" fill="#FCECFF"/>
<path d="M38.5788 39.8441V39.6619C38.7045 39.6619 51.364 38.5234 52.4894 37.6638C53.6149 36.8041 57.4139 26.9783 57.4539 26.8474L57.6252 26.9157C57.4653 27.3199 53.7634 36.8611 52.598 37.7776C51.4326 38.6942 39.1044 39.7986 38.5788 39.8441Z" fill="#5546FF"/>
<path d="M48.8276 25.5493C46.4053 25.5493 39.6871 13.3951 39.4129 12.8657L39.5728 12.7803C42.0293 17.2548 47.1423 25.646 48.9018 25.3614C51.1469 25.0027 62.3669 18.1031 62.4925 18.0234L62.5897 18.1828C62.1212 18.4674 51.2098 25.1678 48.9304 25.5322L48.8276 25.5493Z" fill="#5546FF"/>
<path d="M62.5382 24.3425C61.5143 24.4807 60.498 24.6708 59.4933 24.9118C58.7649 25.2829 58.0574 25.6934 57.3739 26.1415L56.2313 28.3047C57.4676 27.3243 58.7527 26.4066 60.0817 25.5551C61.0301 25.0541 62.5382 24.3425 62.5382 24.3425Z" fill="#AAB1A5"/>
<path d="M60.5559 20.4656C60.0934 20.4544 59.6375 20.3539 59.2134 20.1696L59.2877 20.0045C59.6896 20.1746 60.1195 20.2692 60.5559 20.2835C61.0929 20.2835 62.7268 19.1449 63.3095 18.7065L63.418 18.8489C63.3323 18.9172 61.2643 20.4656 60.5559 20.4656Z" fill="#5546FF"/>
<path d="M59.9046 15.1997L67.2056 23.9382L67.6855 22.7256L59.9046 15.1997Z" fill="#AAB1A5"/>
<path d="M35.2155 2.94264L34.2343 3.44367C33.9872 3.56984 33.8895 3.87173 34.0161 4.11797L34.0187 4.12303C34.1453 4.36927 34.4483 4.4666 34.6954 4.34043L35.6766 3.83941C35.9237 3.71324 36.0214 3.41135 35.8948 3.16511L35.8922 3.16005C35.7656 2.91381 35.4626 2.81648 35.2155 2.94264Z" fill="#AAB1A5"/>
<path d="M28.1451 37.6032L27.9512 38.6848C27.9024 38.9572 28.0843 39.2174 28.3576 39.2661L28.3633 39.2671C28.6366 39.3158 28.8977 39.1344 28.9466 38.862L29.1405 37.7805C29.1893 37.5081 29.0074 37.2478 28.734 37.1992L28.7284 37.1982C28.4551 37.1495 28.1939 37.3309 28.1451 37.6032Z" fill="#AAB1A5"/>
<path d="M38.4588 42.8099L37.0706 36.6048L38.5731 36.5479L38.4588 42.8099Z" fill="#B07B58"/>
<path d="M140.409 126.113L145.305 122.464C145.305 122.464 150.201 129.443 151.258 129.99C152.315 130.536 169.716 135.051 169.716 135.051L170.91 147.154L158.525 148.651C158.525 148.651 156.908 143.567 155.994 142.104C155.08 140.641 154.851 140.465 154.708 139.645C154.634 139.079 154.604 138.508 154.617 137.937C154.617 137.937 148.579 135.956 147.19 134.908C145.802 133.861 140.409 126.113 140.409 126.113Z" fill="#D08B69"/>
<path d="M156.959 138.609L154.64 137.943L154.674 139.081C155.053 139.137 155.438 139.137 155.817 139.081C156.217 138.975 156.601 138.816 156.959 138.609Z" fill="#D06A53"/>
<path d="M144.991 122.697C144.991 122.697 143.591 119.731 142.877 119.179C142.163 118.627 141.826 119.065 141.163 118.724C140.501 118.382 137.57 115.006 137.044 115.604C136.519 116.202 138.855 119.475 138.855 119.475C138.582 119.632 138.378 119.886 138.284 120.187C138.245 120.371 138.249 120.561 138.297 120.743C138.344 120.925 138.434 121.093 138.558 121.234C138.418 121.345 138.305 121.487 138.229 121.649C138.154 121.812 138.118 121.989 138.124 122.168C138.105 122.456 138.177 122.742 138.33 122.988C138.229 123.227 138.167 123.48 138.147 123.739C138.147 124.063 140.369 126.113 140.369 126.113L144.991 122.697Z" fill="#EBB490"/>
<path d="M139.815 120.494L138.878 119.464C138.908 119.685 138.978 119.899 139.084 120.096C139.232 120.352 139.815 120.494 139.815 120.494Z" fill="#B07B58"/>
<path d="M138.598 121.234L140.027 122.862C140.027 122.862 139.141 122.082 138.884 121.826C138.72 121.67 138.619 121.459 138.598 121.234Z" fill="#B07B58"/>
<path d="M139.027 123.477L138.37 122.988C138.418 123.162 138.495 123.328 138.598 123.477C138.701 123.557 139.027 123.477 139.027 123.477Z" fill="#B07B58"/>
<path d="M159.124 148.582L159.696 188.5H165.917V165.61L168.299 188.95H174.246C174.246 188.95 172.904 157.85 172.292 154.793C171.681 151.736 170.91 147.154 170.91 147.154L159.124 148.582Z" fill="#AAB1A5"/>
<path d="M160.775 143.14L176 138.142C175.505 137.299 174.801 136.597 173.955 136.104C172.521 135.256 172.184 133.491 171.755 132.153C171.327 130.815 169.773 129.631 168.248 128.959C166.799 128.383 165.599 127.317 164.86 125.948C163.98 124.428 162.941 123.762 161.324 124.098C160.27 124.381 159.358 125.039 158.759 125.948C158.759 125.948 158.519 128.475 159.279 129.659C160.038 130.844 161.849 132.973 161.849 132.973C161.849 132.973 159.433 137.806 159.679 139.753C159.827 140.941 160.199 142.09 160.775 143.14Z" fill="#211A14"/>
<path d="M159.01 132.221C159.01 132.221 157.793 129.642 158.016 127.866C158.062 127.17 158.322 126.504 158.759 125.959C158.759 125.959 158.587 127.445 159.29 127.513C160.187 127.604 160.09 128.225 160.09 128.225C160.09 128.225 160.93 126.278 162.038 127.656C163.215 129.107 160.627 129.551 160.627 129.551C161.033 129.956 161.32 130.464 161.455 131.02C161.64 131.669 161.771 132.331 161.849 133.001L159.01 132.221Z" fill="#EBB490"/>
<path d="M160.244 191.654C159.886 191.924 159.597 192.274 159.398 192.675C159.2 193.076 159.098 193.518 159.102 193.966V198.013L165.906 197.888C165.906 197.888 166.123 194.028 165.906 192.964C165.864 192.496 165.707 192.047 165.448 191.654H160.244Z" fill="#D0B273"/>
<path d="M167.756 199.693C167.756 199.693 155.234 200.387 154.617 199.693C154 198.998 167.876 197.774 167.876 197.774L167.756 199.693Z" fill="#2E332E"/>
<path d="M167.854 197.774H175.28C175.189 196.468 175.027 195.168 174.795 193.88C174.626 193.221 174.345 192.596 173.966 192.03L168.659 191.876C168.659 191.876 168.048 192.303 167.836 193.749C167.725 195.089 167.731 196.435 167.854 197.774Z" fill="#D0B273"/>
<path d="M160.136 188.5L160.284 192.787C160.284 192.787 160.684 192.878 160.804 193.123C160.924 193.368 160.867 193.578 161.204 193.578C161.541 193.578 161.415 192.787 162.266 192.605C163.118 192.423 163.98 192.423 164.255 192.668C164.529 192.912 164.649 193.425 164.951 193.578C165.254 193.732 165.471 193.243 165.471 193.243V188.5H160.136Z" fill="#EBB490"/>
<path d="M168.676 188.956H173.983V193.459C173.933 193.421 173.876 193.395 173.814 193.382C173.753 193.369 173.69 193.37 173.629 193.384C173.568 193.398 173.511 193.425 173.461 193.464C173.412 193.502 173.372 193.551 173.344 193.607C173.098 194.034 172.858 193.214 172.43 192.787C172.001 192.36 170.659 192.576 170.293 192.724C169.927 192.872 169.773 193.601 169.59 193.726C169.407 193.852 168.676 193.368 168.676 193.368V188.956Z" fill="#EBB490"/>
<path d="M159.119 198.019V199.693L166.025 199.567L165.928 197.899L159.119 198.019Z" fill="#FCECFF"/>
<path d="M167.854 197.774L167.756 199.693L175.297 199.539V197.774H167.854Z" fill="#FCECFF"/>
<path d="M162.306 197.962L162.432 192.576L163.175 192.485L163.289 197.945L162.306 197.962Z" fill="#906B53"/>
<path d="M171.013 192.571L170.887 197.774H171.927L171.607 192.571H171.013Z" fill="#906B53"/>
<path d="M159.656 187.066L165.9 186.793V188.501H159.673L159.656 187.066Z" fill="#D0B273"/>
<path d="M168.065 186.878H174.138L174.229 188.956H168.276L168.065 186.878Z" fill="#D0B273"/>
<path d="M160.13 188.5L165.471 189.986V188.5H160.13Z" fill="#B07B58"/>
<path d="M168.676 188.956H173.983V190.578L168.676 188.956Z" fill="#B07B58"/>
<path d="M160.833 128.794C160.833 128.794 160.33 128.401 160.575 128.105C160.821 127.809 161.37 127.969 161.37 127.969C161.37 127.969 160.993 128.065 160.953 128.225C160.913 128.384 161.278 128.595 161.278 128.595C161.278 128.595 160.89 128.447 160.821 128.498C160.753 128.549 160.833 128.794 160.833 128.794Z" fill="#B07B58"/>
<path d="M140.409 126.113L144.751 122.208L144.991 122.697L140.409 126.113Z" fill="#B07B58"/>
<path d="M156.497 136.61C157.336 136.61 158.016 135.932 158.016 135.096C158.016 134.26 157.336 133.582 156.497 133.582C155.657 133.582 154.977 134.26 154.977 135.096C154.977 135.932 155.657 136.61 156.497 136.61Z" fill="#D06A53"/>
<path d="M162.676 148.632L162.493 148.633L162.725 187.628L162.908 187.627L162.676 148.632Z" fill="#D0B273"/>
<path d="M171.316 187.669L165.934 164.796L166.111 164.75L171.493 187.624L171.316 187.669Z" fill="#D0B273"/>
<path d="M168.328 152.289C168.328 152.289 165.991 156.894 165.991 159.723C165.991 162.553 165.9 165.61 165.9 165.61L166.82 174.644C166.82 174.644 166.248 160.452 166.448 158.813C166.648 157.173 168.328 152.289 168.328 152.289Z" fill="#5546FF"/>
<path d="M162.604 153.808L162.541 153.638C162.837 153.511 163.104 153.323 163.322 153.087C163.541 152.85 163.707 152.571 163.809 152.266C164.135 151.224 164.02 148.565 164.015 148.542H164.197C164.197 148.656 164.317 151.258 163.98 152.328C163.871 152.659 163.691 152.962 163.454 153.218C163.216 153.473 162.926 153.675 162.604 153.808Z" fill="#D0B273"/>
<path d="M170.933 147.154L159.142 149.92L159.119 148.582L170.933 147.154Z" fill="#5546FF"/>
<path d="M163.957 142.127C163.877 142.001 162.061 138.916 162.769 137.128C163.843 134.436 164.294 132.426 164.106 131.157C163.877 129.563 162.067 129.01 162.049 129.005L162.101 128.834C162.101 128.834 164.043 129.403 164.289 131.111C164.477 132.409 164.026 134.453 162.941 137.174C162.266 138.882 164.083 141.984 164.112 142.013L163.957 142.127Z" fill="white"/>
<path d="M171.795 139.571C171.675 139.451 168.75 136.576 168.471 135.301C168.408 135.011 168.373 134.658 168.333 134.293C168.196 133.064 168.031 131.538 166.774 130.787C166.08 130.364 165.514 129.762 165.134 129.045C164.57 128.118 163.876 127.276 163.072 126.546C162.802 126.265 162.474 126.044 162.112 125.899C161.749 125.754 161.36 125.687 160.97 125.703C160.142 125.82 159.387 126.238 158.85 126.876L158.707 126.762C159.274 126.08 160.078 125.637 160.958 125.521C161.373 125.503 161.787 125.573 162.172 125.727C162.557 125.881 162.905 126.116 163.192 126.415C164.01 127.154 164.716 128.007 165.289 128.948C165.65 129.651 166.197 130.241 166.871 130.656C168.202 131.453 168.373 133.035 168.511 134.299C168.541 134.632 168.588 134.962 168.653 135.29C168.916 136.514 171.898 139.44 171.927 139.474L171.795 139.571Z" fill="white"/>
<path d="M57.1625 144.273C57.1625 144.273 54.8088 143.203 53.5749 142.696C52.8153 142.387 52.0213 142.169 51.2098 142.047C51.2098 142.047 51.1184 139.36 53.3178 138.751C55.5172 138.142 56.3227 137.499 56.5112 136.229C56.6998 134.96 56.6312 134.317 57.7395 133.753C58.8478 133.189 60.3902 133.184 60.8415 132.529C61.2928 131.874 61.5042 130.924 62.721 130.821C63.4726 130.756 64.2298 130.829 64.9547 131.037C64.7627 130.796 64.5234 130.595 64.2514 130.449C63.9794 130.302 63.6803 130.212 63.3723 130.184C62.4011 130.184 61.0529 131.106 61.0529 131.106C61.0529 131.106 62.4011 129.005 63.9093 129.643C64.3137 129.784 64.6776 130.021 64.9701 130.334C65.2626 130.646 65.4749 131.024 65.5889 131.436C66.0096 131.811 66.2913 132.316 66.3886 132.871C66.5315 133.77 66.4172 134.578 66.6971 135.182C66.9348 135.627 67.2457 136.029 67.6169 136.372C67.6169 136.372 61.4014 137.51 60.2645 138.529C59.1277 139.548 57.1625 144.273 57.1625 144.273Z" fill="#211A14"/>
<path d="M55.9285 149.829C55.9285 149.602 57.391 139.013 59.5847 137.835C61.7784 136.656 70.3419 136.127 71.0103 136.053C71.6787 135.979 81.7218 132.683 81.7218 132.683L82.9558 137.379L70.8732 141.894C70.8732 141.894 71.1931 143.169 70.0048 144.951C68.8166 146.732 68.0339 147.455 67.7197 148.321C67.4546 149.309 67.2637 150.316 67.1485 151.332L55.9285 149.829Z" fill="#D0B273"/>
<path d="M67.7083 143.146C68.1277 142.771 68.6089 142.47 69.1308 142.258C69.7021 142.099 70.8446 141.894 70.8446 141.894L70.8789 142.52L67.7083 143.146Z" fill="#906B53"/>
<path d="M41.1438 179.381C41.1438 179.381 50.9356 169.134 51.6725 166.857C52.4095 164.579 56.9168 149.955 56.9168 149.955L61.2814 163.19C61.2814 163.19 58.425 170.375 55.9285 173.107C53.432 175.84 46.451 184.208 46.451 184.208L41.1438 179.381Z" fill="#D0B697"/>
<path d="M63.995 197.438C63.995 197.438 79.768 196.681 80.3507 195.799C80.9334 194.917 80.4421 194.034 78.5798 193.277C76.7174 192.52 71.9815 188.723 71.9815 188.723L64.2349 188.358C64.2349 188.358 62.224 187.937 61.6756 188.358C61.1272 188.78 62.5611 188.848 63.2352 190.066C63.9093 191.284 63.2352 195.657 63.2923 196.266C63.3897 196.723 63.6369 197.136 63.995 197.438Z" fill="#D08B69"/>
<path d="M55.9742 153.029C56.0199 153.08 58.3222 154.207 58.3222 154.207L56.9169 149.96L55.9742 153.029Z" fill="#906B53"/>
<path d="M56.9169 149.96C56.9169 149.96 57.0711 157.401 59.9047 161.346C61.4981 163.567 63.2146 165.697 65.0462 167.727L63.7608 183.781H72.0786C72.0786 183.781 73.821 167.272 72.8156 165.359C71.8101 163.446 66.223 151.235 66.223 151.235L56.9169 149.96Z" fill="#E4C7A7"/>
<path d="M66.1716 151.218L56.9854 151.714L56.9168 149.96L66.1716 151.218Z" fill="#906B53"/>
<path d="M81.7447 132.882C82.4384 132.55 83.0302 132.039 83.4585 131.402C84.0298 130.445 84.4182 129.011 85.0181 129.352C85.6179 129.694 84.9495 131.35 85.2923 131.578C85.6351 131.806 88.977 129.375 89.594 129.967C89.6788 130.036 89.7472 130.123 89.7941 130.221C89.8411 130.32 89.8654 130.427 89.8654 130.536C89.8654 130.645 89.8411 130.753 89.7941 130.851C89.7472 130.95 89.6788 131.037 89.594 131.106C89.7444 131.129 89.8849 131.195 89.9984 131.296C90.112 131.397 90.1937 131.529 90.2339 131.675C90.2587 131.858 90.2406 132.044 90.1812 132.219C90.1217 132.394 90.0224 132.552 89.8911 132.683C90.0089 132.715 90.1157 132.779 90.2001 132.867C90.2846 132.955 90.3436 133.065 90.371 133.184C90.4624 133.593 89.7997 134.322 89.7997 134.322C89.7997 134.322 90.0053 134.778 89.7997 135.028C89.594 135.278 87.2346 135.893 86.3206 136.053C85.158 136.405 84.0252 136.849 82.9329 137.379L81.7447 132.882Z" fill="#EBB490"/>
<path d="M87.1375 132.409C87.1375 132.409 87.9487 132.056 88.3886 131.812C88.8285 131.567 89.6112 131.094 89.6112 131.094C89.3115 131.48 88.9365 131.802 88.5086 132.039C88.0665 132.212 87.6067 132.336 87.1375 132.409Z" fill="#B07B58"/>
<path d="M87.5031 133.884C87.5031 133.884 88.2972 133.485 88.8457 133.229C89.3941 132.973 89.9368 132.66 89.9368 132.66C89.7191 133.045 89.4187 133.377 89.057 133.633C88.5511 133.779 88.0293 133.863 87.5031 133.884Z" fill="#B07B58"/>
<path d="M89.8168 134.322C89.3678 134.515 88.9059 134.677 88.4343 134.806C87.903 134.931 87.3375 135.005 87.3375 135.005C87.7796 135.117 88.2391 135.144 88.6914 135.085C89.0824 134.855 89.4583 134.6 89.8168 134.322Z" fill="#B07B58"/>
<path d="M65.2233 131.789C65.6496 132.24 65.8955 132.832 65.9145 133.451C65.7907 134.526 65.5767 135.589 65.2747 136.628L61.1158 137.396L61.2186 136.707C61.2186 136.707 59.6362 136.36 60.1275 134.869C60.8073 132.802 62.464 134.225 62.464 134.225C62.819 134.214 63.1674 134.126 63.4857 133.969C63.804 133.812 64.0848 133.589 64.3092 133.314C64.6725 132.843 64.9793 132.331 65.2233 131.789Z" fill="#EBB490"/>
<path d="M38.3331 183.599C38.3331 183.599 36.9335 182.392 36.3222 182.392C35.711 182.392 36.3851 185.028 35.9852 185.728C35.5853 186.429 30.4952 190.567 30.4323 191.176C30.3695 191.785 40.1441 196.869 40.1441 196.869L47.4679 196.624C47.4679 196.624 47.9877 196.294 47.4679 195.258C46.948 194.222 44.3658 193.767 43.9945 192.799C43.6232 191.831 42.7548 188.319 42.7548 188.319L38.3331 183.599Z" fill="#D08B69"/>
<path d="M62.7154 135.683C62.7165 135.834 62.6774 135.982 62.6021 136.113C62.5269 136.244 62.4181 136.353 62.2869 136.428C61.9562 136.62 61.5784 136.717 61.1957 136.707L61.1558 136.986C61.6058 137.011 62.0509 136.882 62.4183 136.622C62.6367 136.36 62.7434 136.022 62.7154 135.683Z" fill="#B07B58"/>
<path d="M61.0986 134.726C61.1478 134.674 61.2071 134.633 61.2729 134.604C61.3387 134.576 61.4097 134.562 61.4814 134.562C61.5531 134.562 61.624 134.576 61.6899 134.604C61.7557 134.633 61.815 134.674 61.8641 134.726C62.304 135.085 61.9784 135.984 61.9784 135.984C61.9784 135.984 61.927 135.307 61.8013 135.244C61.6756 135.182 61.0072 135.683 61.0072 135.683C61.0072 135.683 61.7899 135.011 61.6756 134.874C61.5613 134.738 61.0986 134.726 61.0986 134.726Z" fill="#B07B58"/>
<path d="M64.235 183.759V188.774C64.235 188.774 65.6746 188.888 65.9945 189.457C66.3144 190.026 65.7888 190.988 66.9771 191.58C68.1654 192.173 69.2622 192.719 69.5193 191.854C69.6048 191.506 69.7775 191.186 70.0214 190.923C70.2652 190.66 70.5721 190.463 70.9132 190.351C71.4845 190.237 71.3474 189.821 71.4845 189.685C71.6216 189.548 71.9415 189.32 71.9415 189.32L72.0558 183.759H64.235Z" fill="#EBB490"/>
<path d="M73.3925 189.816C73.3925 189.816 72.17 190.516 72.0786 191.085C71.9872 191.654 75.9233 193.317 76.1747 193.203C76.426 193.089 76.8431 192.321 76.8431 192.321C76.8431 192.321 75.1921 191.182 74.735 190.852C74.278 190.522 73.3925 189.816 73.3925 189.816Z" fill="#F2D7B9"/>
<path d="M69.4964 194.985C69.4702 194.516 69.5899 194.051 69.8392 193.653C70.1922 193.15 70.6477 192.727 71.176 192.412L72.2728 193.015C72.2728 193.015 71.176 193.778 71.0674 194.25C70.9836 194.683 70.9226 195.12 70.8846 195.56L69.4964 194.985Z" fill="#F2D7B9"/>
<path d="M71.4273 195.247C71.4649 194.74 71.6792 194.263 72.0329 193.897C72.3289 193.626 72.6525 193.385 72.9984 193.18L73.8667 193.653C73.4616 193.888 73.089 194.175 72.7584 194.507C72.6564 194.914 72.6084 195.333 72.6156 195.753L71.4273 195.247Z" fill="#F2D7B9"/>
<path d="M73.1812 195.423C73.2418 195.079 73.3784 194.752 73.5811 194.467C73.8098 194.243 74.0605 194.043 74.3294 193.869L75.1292 194.387C75.1292 194.387 74.5979 194.734 74.5237 194.956C74.4705 195.23 74.4494 195.509 74.4608 195.787L73.1812 195.423Z" fill="#F2D7B9"/>
<path d="M41.5037 179.699L37.6647 184.413C38.0832 184.816 38.3902 185.32 38.5559 185.876C38.6245 186.514 38.0304 187.242 37.939 187.584C37.8475 187.926 38.9673 189.064 39.3843 189.178C39.8013 189.292 39.9556 188.95 40.4811 189.019C40.9423 189.113 41.3937 189.251 41.8294 189.428L46.451 184.202L41.5037 179.699Z" fill="#EBB490"/>
<path d="M64.2292 185.734L72.0786 183.759H64.2292V185.734Z" fill="#B07B58"/>
<path d="M41.498 179.705L45.0856 185.728L46.531 184.089L41.498 179.705Z" fill="#B07B58"/>
<path d="M43.2347 190.129C43.2347 190.129 41.4866 190.465 41.1438 190.852C40.8011 191.239 43.2004 193.197 43.3432 193.243C43.4861 193.288 43.9431 192.611 43.9431 192.611L43.2347 190.129Z" fill="#F2D7B9"/>
<path d="M37.1734 193.248C37.3569 192.826 37.682 192.48 38.0932 192.269C38.7502 191.968 39.6185 191.7 39.6185 191.7L40.4583 192.679C39.9622 192.82 39.4818 193.011 39.0244 193.248C38.6285 193.626 38.276 194.046 37.9732 194.501L37.1734 193.248Z" fill="#F2D7B9"/>
<path d="M38.5959 194.501C38.8731 194.081 39.2302 193.719 39.6471 193.436C40.0256 193.246 40.4457 193.152 40.8696 193.163L41.4409 193.966C41.0215 194.087 40.6323 194.294 40.2983 194.575C40.1317 194.844 40.0048 195.135 39.9213 195.44L38.5959 194.501Z" fill="#F2D7B9"/>
<path d="M40.6011 195.304C40.677 195.015 40.8584 194.765 41.1095 194.603L42.0293 194.205L42.9376 194.774L42.115 195.639L40.6011 195.304Z" fill="#F2D7B9"/>
<path d="M81.7446 132.882L83.767 136.998L82.9272 137.379L81.7446 132.882Z" fill="#B07B58"/>
<path d="M40.1155 196.915C40.1155 196.915 29.6097 196.499 28.4215 195.645C27.2332 194.791 37.1734 195.355 37.1734 195.355L40.1155 196.915Z" fill="#2E332E"/>
<path d="M63.3723 195.138C63.3723 195.138 58.5678 196.345 57.9566 197.046C57.3453 197.746 64.0007 197.438 64.0007 197.438L63.3723 195.138Z" fill="#2E332E"/>
<path d="M80.3507 195.799C80.922 194.917 80.4421 194.034 78.5798 193.277C78.2872 193.149 78.0029 193.002 77.7286 192.839C77.7286 192.839 77.0545 193.334 77.2087 193.977C77.363 194.62 77.7286 194.74 77.7286 194.74C76.8111 195.096 75.8509 195.332 74.8722 195.44C73.2897 195.685 66.7657 194.592 63.4466 194.011C63.3723 195.082 63.2638 196.004 63.2809 196.26C63.3739 196.723 63.6216 197.14 63.9836 197.444C63.9836 197.444 79.7738 196.681 80.3507 195.799Z" fill="#FCECFF"/>
<path d="M47.4336 196.67C47.4336 196.67 47.9535 196.34 47.4336 195.303C47.0737 194.58 45.7198 194.165 44.7943 193.596C44.7943 193.596 43.6517 193.92 43.5889 194.376C43.5409 194.668 43.5954 194.967 43.7431 195.224C42.3703 195.508 40.9496 195.467 39.5957 195.104C37.819 194.615 34.3627 190.123 33.1116 188.427C31.752 189.645 30.4095 190.874 30.3809 191.182C30.3181 191.791 40.0927 196.875 40.0927 196.875L47.4336 196.67Z" fill="#FCECFF"/>
<path d="M64.2521 140.983C64.7664 140.983 65.1833 140.567 65.1833 140.055C65.1833 139.542 64.7664 139.127 64.2521 139.127C63.7378 139.127 63.3209 139.542 63.3209 140.055C63.3209 140.567 63.7378 140.983 64.2521 140.983Z" fill="#FCECFF"/>
<path d="M64.5606 139.947L64.5263 139.764L71.9415 138.489L82.3216 135.102L82.3788 135.279L71.9872 138.666L64.5606 139.947Z" fill="#FCECFF"/>
<path d="M68.2453 183.764H68.0625C68.0625 183.605 68.8737 167.955 68.6966 166.885C68.5195 165.815 60.6073 151.042 60.5273 150.894L60.6873 150.809C61.0186 151.418 68.6852 165.764 68.8737 166.857C69.0623 167.95 68.2796 183.115 68.2453 183.764Z" fill="#906B53"/>
<path d="M44.0859 181.977L43.9488 181.857C44.0059 181.789 50.0158 174.747 52.7922 171.923C55.5686 169.1 58.7221 159.524 58.7564 159.427L58.9278 159.484C58.8935 159.581 55.7172 169.208 52.9236 172.048C50.1301 174.889 44.1488 181.886 44.0859 181.977Z" fill="#906B53"/>
<path d="M35.7282 190.538L34.787 189.6C34.5371 189.351 34.132 189.351 33.8821 189.6C33.6322 189.849 33.6322 190.253 33.8821 190.502L34.8233 191.44C35.0732 191.689 35.4783 191.689 35.7282 191.44C35.978 191.191 35.978 190.787 35.7282 190.538Z" fill="#F2D7B9"/>
<path d="M67.7369 193.886H66.4058C66.0524 193.886 65.766 194.171 65.766 194.524C65.766 194.876 66.0524 195.161 66.4058 195.161H67.7369C68.0902 195.161 68.3767 194.876 68.3767 194.524C68.3767 194.171 68.0902 193.886 67.7369 193.886Z" fill="#F2D7B9"/>
</g>
</g>
<defs>
<clipPath id="clip0_119_2161">
<rect width="153" height="200" fill="white" transform="translate(23)"/>
</clipPath>
</defs>
</svg>
