<svg width="603" height="396" viewBox="0 0 603 396" fill="none" xmlns="http://www.w3.org/2000/svg">
<mask id="mask0_119_1869" style="mask-type:alpha" maskUnits="userSpaceOnUse" x="95" y="7" width="524" height="486">
<rect x="95" y="7" width="524" height="485.499" fill="#E5E7EC"/>
</mask>
<g mask="url(#mask0_119_1869)">
</g>
<path d="M96.4168 392.461C96.4168 392.461 83.9898 381.98 88.0318 374.616C92.0738 367.252 97.137 371.95 97.137 371.95C97.137 371.95 92.837 354.159 105.522 349.375C118.207 344.591 132.225 363.06 132.225 363.06C132.225 363.06 138.148 353.955 146.092 359.738C154.037 365.522 155.198 382.13 155.198 382.13L200.853 383.281C200.853 383.281 199.692 373.606 204.895 370.499C210.098 367.392 212.485 369.564 212.485 369.564C212.485 369.564 208.797 352.944 216.021 343.699C223.245 334.454 236.661 337.088 236.661 337.088C236.661 337.088 227.975 317.458 236.661 306.59C245.347 295.722 257.946 302.871 257.946 302.871C257.946 302.871 255.796 291.97 264.138 289.971C272.48 287.971 273.964 293.196 273.964 293.196C273.964 293.196 268.761 275.566 277.135 268.051C285.509 260.537 289.283 260.107 289.283 260.107C289.283 260.107 256.549 263.655 248.325 248.325C240.101 232.996 245.1 229.255 245.1 229.255C245.1 229.255 187.738 214.452 180.6 188.878C173.462 163.303 196.37 156.628 196.37 156.628C196.37 156.628 188.985 150.274 190.716 141.814C192.447 133.354 201.122 133.386 201.122 133.386C201.122 133.386 164.712 98.6851 177.472 67.8111C190.232 36.9371 235.522 18.9738 268.782 38.3346C302.043 57.6953 325.94 92.0846 325.94 92.0846C325.94 92.0846 335.819 66.0803 354.019 71.8638C372.219 77.6473 365.296 94.1056 365.296 94.1056C365.296 94.1056 374.251 88.9026 377.572 90.8806C380.894 92.8586 380.894 95.1806 380.894 95.1806C380.894 95.1806 394.192 81.8828 402.566 91.1386C410.94 100.394 402.566 110.209 402.566 110.209C402.566 110.209 439.267 103.361 432.333 124.259C425.399 145.157 399.223 150.403 399.223 150.403C400.842 152.312 401.863 154.656 402.158 157.141C402.452 159.627 402.007 162.144 400.878 164.378C396.998 172.516 384.366 174.053 384.366 174.053C384.366 174.053 382.216 187.641 389.225 193.167C396.234 198.692 407.683 195.629 413.51 196.714C419.336 197.8 420.325 206.228 420.325 206.228C420.325 206.228 446.351 212.302 451.5 227.588C456.649 242.875 442.793 252.711 442.793 252.711C444.386 252.646 445.974 252.917 447.456 253.506C448.938 254.095 450.279 254.989 451.393 256.13C455.08 259.989 450.092 269.309 450.092 269.309C450.092 269.309 488.394 262.805 500.241 283.617C512.087 304.429 493.425 329.541 486.438 336.905C479.45 344.269 440.933 348.612 439.675 361.2C438.417 373.788 450.425 374.681 455.23 373.133C460.036 371.585 473.505 349.913 481.192 349.483C488.878 349.053 489.254 352.708 489.254 352.708C489.254 352.708 505.734 338.894 526.965 339.184C548.196 339.474 548.465 352.708 548.465 352.708C548.465 352.708 557.065 351.407 561 356.169C564.934 360.931 562.29 367.65 562.29 367.65C562.29 367.65 574.867 363.157 578.114 369.521C581.36 375.885 570.309 392.429 570.309 392.429L96.4168 392.461Z" fill="#FFCFF7"/>
<path d="M583.166 393.289H81.8935C81.7767 393.255 81.6739 393.185 81.6008 393.088C81.5276 392.991 81.488 392.873 81.488 392.751C81.488 392.63 81.5276 392.512 81.6008 392.415C81.6739 392.318 81.7767 392.247 81.8935 392.214H583.166C583.249 392.19 583.337 392.186 583.422 392.202C583.507 392.218 583.587 392.253 583.656 392.305C583.725 392.357 583.781 392.425 583.82 392.502C583.858 392.579 583.879 392.665 583.879 392.751C583.879 392.838 583.858 392.923 583.82 393.001C583.781 393.078 583.725 393.145 583.656 393.198C583.587 393.25 583.507 393.285 583.422 393.301C583.337 393.317 583.249 393.313 583.166 393.289Z" fill="#2D4352"/>
<path d="M86.0538 172.021H68.0583C64.6504 172.021 61.8877 174.784 61.8877 178.192V239.531C61.8877 242.939 64.6504 245.702 68.0583 245.702H86.0538C89.4616 245.702 92.2243 242.939 92.2243 239.531V178.192C92.2243 174.784 89.4616 172.021 86.0538 172.021Z" fill="white"/>
<path d="M85.8173 246.261H68.1873C66.3549 246.258 64.5984 245.529 63.3027 244.233C62.007 242.938 61.2778 241.181 61.275 239.349V178.375C61.2778 176.542 62.007 174.786 63.3027 173.49C64.5984 172.194 66.3549 171.465 68.1873 171.462H85.8173C87.6478 171.468 89.4015 172.198 90.6949 173.494C91.9882 174.789 92.7159 176.544 92.7188 178.375V239.349C92.7159 241.179 91.9882 242.934 90.6949 244.229C89.4015 245.525 87.6478 246.255 85.8173 246.261ZM68.1873 172.57C66.6477 172.57 65.1711 173.181 64.0825 174.27C62.9938 175.359 62.3823 176.835 62.3823 178.375V239.349C62.3851 240.887 62.9976 242.362 64.0856 243.45C65.1737 244.538 66.6485 245.151 68.1873 245.154H85.8173C87.3541 245.148 88.8262 244.534 89.9119 243.446C90.9976 242.359 91.6087 240.885 91.6115 239.349V178.375C91.6115 176.837 91.0014 175.362 89.9151 174.274C88.8287 173.185 87.355 172.572 85.8173 172.57H68.1873Z" fill="#48A39C"/>
<path d="M66.1447 196.295C66.1447 196.295 71.3693 195.392 74.4545 196.295C77.5398 197.198 78.518 197.897 81.227 198.499C83.4548 198.918 85.7055 199.205 87.9673 199.359C87.9673 199.359 87.9673 201.509 84.7423 204.293C81.5173 207.077 71.1972 203.218 69.5202 201.208C68.2838 199.649 67.156 198.008 66.1447 196.295Z" fill="#EEA433"/>
<path d="M87.9673 199.359C86.3548 201.046 84.1295 202.82 81.7322 202.949C77.056 203.207 74.8737 201.025 70.7135 198.079C69.3633 197.113 67.7927 196.499 66.1447 196.295V237.145C66.1447 240.252 68.1872 242.778 70.7135 242.778H83.3878C85.914 242.778 87.9673 240.252 87.9673 237.145V199.359Z" fill="#2DC6A1"/>
<path d="M82.3665 234.629C82.3853 234.866 82.3548 235.104 82.2772 235.328C82.1995 235.552 82.0763 235.758 81.9152 235.932C81.7542 236.107 81.5588 236.246 81.3414 236.341C81.124 236.436 80.8892 236.485 80.6519 236.485C80.4146 236.485 80.1798 236.436 79.9624 236.341C79.745 236.246 79.5496 236.107 79.3885 235.932C79.2275 235.758 79.1042 235.552 79.0266 235.328C78.9489 235.104 78.9185 234.866 78.9373 234.629C78.9714 234.198 79.1669 233.796 79.4847 233.502C79.8025 233.208 80.2192 233.045 80.6519 233.045C81.0845 233.045 81.5013 233.208 81.8191 233.502C82.1369 233.796 82.3323 234.198 82.3665 234.629Z" fill="white"/>
<path d="M72.627 236.715C73.4166 236.715 74.0567 236.075 74.0567 235.285C74.0567 234.495 73.4166 233.855 72.627 233.855C71.8374 233.855 71.1973 234.495 71.1973 235.285C71.1973 236.075 71.8374 236.715 72.627 236.715Z" fill="white"/>
<path d="M70.821 232.017C71.29 232.017 71.6703 231.637 71.6703 231.168C71.6703 230.699 71.29 230.319 70.821 230.319C70.352 230.319 69.9717 230.699 69.9717 231.168C69.9717 231.637 70.352 232.017 70.821 232.017Z" fill="white"/>
<path d="M84.5702 229.125C84.5702 229.434 84.4788 229.735 84.3075 229.991C84.1363 230.248 83.8928 230.448 83.608 230.566C83.3232 230.684 83.0098 230.714 82.7074 230.654C82.405 230.594 82.1273 230.446 81.9093 230.228C81.6913 230.01 81.5428 229.732 81.4827 229.43C81.4226 229.127 81.4534 228.814 81.5714 228.529C81.6894 228.244 81.8892 228.001 82.1455 227.829C82.4018 227.658 82.7032 227.567 83.0115 227.567C83.2166 227.565 83.4199 227.605 83.6097 227.682C83.7995 227.76 83.9719 227.875 84.1169 228.02C84.2619 228.165 84.3767 228.337 84.4545 228.527C84.5323 228.717 84.5717 228.92 84.5702 229.125Z" fill="white"/>
<path d="M79.077 217.999C79.077 218.407 78.9559 218.806 78.7291 219.146C78.5023 219.485 78.18 219.75 77.8029 219.906C77.4257 220.062 77.0107 220.103 76.6103 220.023C76.21 219.944 75.8422 219.747 75.5535 219.459C75.2649 219.17 75.0683 218.802 74.9886 218.402C74.909 218.001 74.9499 217.586 75.1061 217.209C75.2623 216.832 75.5269 216.51 75.8663 216.283C76.2057 216.056 76.6048 215.935 77.013 215.935C77.2844 215.934 77.5535 215.986 77.8045 216.089C78.0556 216.193 78.2837 216.344 78.4756 216.536C78.6676 216.728 78.8196 216.956 78.9228 217.208C79.026 217.459 79.0784 217.728 79.077 217.999Z" fill="white"/>
<path d="M81.8935 214.527C81.8935 214.805 81.8109 215.078 81.6562 215.309C81.5014 215.541 81.2815 215.721 81.0242 215.828C80.7668 215.935 80.4837 215.962 80.2105 215.908C79.9373 215.854 79.6864 215.72 79.4895 215.523C79.2925 215.326 79.1584 215.075 79.1041 214.802C79.0497 214.528 79.0776 214.245 79.1842 213.988C79.2908 213.731 79.4713 213.511 79.7029 213.356C79.9345 213.201 80.2067 213.119 80.4853 213.119C80.6702 213.119 80.8533 213.155 81.0242 213.226C81.195 213.297 81.3503 213.4 81.481 213.531C81.6118 213.662 81.7155 213.817 81.7863 213.988C81.8571 214.159 81.8935 214.342 81.8935 214.527Z" fill="white"/>
<path d="M77.959 210.904C77.959 211.093 77.9029 211.278 77.7978 211.436C77.6926 211.593 77.5432 211.716 77.3684 211.788C77.1936 211.861 77.0012 211.88 76.8156 211.843C76.63 211.806 76.4595 211.715 76.3257 211.581C76.1919 211.447 76.1008 211.277 76.0639 211.091C76.027 210.905 76.0459 210.713 76.1183 210.538C76.1907 210.363 76.3134 210.214 76.4707 210.109C76.628 210.004 76.813 209.948 77.0022 209.948C77.256 209.948 77.4993 210.048 77.6788 210.228C77.8582 210.407 77.959 210.651 77.959 210.904Z" fill="white"/>
<path d="M70.821 204.476C70.8224 204.584 70.8023 204.691 70.7619 204.792C70.7215 204.892 70.6615 204.983 70.5855 205.06C70.5095 205.137 70.419 205.199 70.3192 205.24C70.2193 205.282 70.1122 205.303 70.004 205.303C69.8881 205.317 69.7707 205.305 69.6595 205.27C69.5483 205.235 69.4459 205.176 69.3588 205.099C69.2718 205.021 69.2021 204.926 69.1544 204.819C69.1067 204.713 69.0821 204.598 69.0821 204.481C69.0821 204.364 69.1067 204.249 69.1544 204.143C69.2021 204.036 69.2718 203.941 69.3588 203.863C69.4459 203.786 69.5483 203.727 69.6595 203.692C69.7707 203.657 69.8881 203.645 70.004 203.659C70.2207 203.659 70.4285 203.745 70.5817 203.898C70.7349 204.051 70.821 204.259 70.821 204.476Z" fill="white"/>
<path d="M178.794 191.382H111.703C108.604 191.382 106.092 193.895 106.092 196.994V246.164C106.092 249.263 108.604 251.776 111.703 251.776H178.794C181.893 251.776 184.405 249.263 184.405 246.164V196.994C184.405 193.895 181.893 191.382 178.794 191.382Z" fill="white"/>
<path d="M178.622 252.324H111.875C110.196 252.324 108.585 251.657 107.398 250.469C106.211 249.282 105.544 247.672 105.544 245.992V197.155C105.544 195.476 106.211 193.865 107.398 192.678C108.585 191.49 110.196 190.823 111.875 190.823H178.622C180.301 190.823 181.912 191.49 183.099 192.678C184.287 193.865 184.954 195.476 184.954 197.155V245.992C184.954 247.672 184.287 249.282 183.099 250.469C181.912 251.657 180.301 252.324 178.622 252.324ZM111.875 191.93C110.491 191.933 109.163 192.485 108.184 193.464C107.205 194.443 106.654 195.77 106.651 197.155V245.992C106.654 247.377 107.205 248.704 108.184 249.683C109.163 250.663 110.491 251.214 111.875 251.217H178.622C180.007 251.214 181.334 250.663 182.313 249.683C183.292 248.704 183.844 247.377 183.847 245.992V197.155C183.844 195.77 183.292 194.443 182.313 193.464C181.334 192.485 180.007 191.933 178.622 191.93H111.875Z" fill="#48A39C"/>
<path d="M167.582 202.218H114.681C113.85 202.218 113.176 202.892 113.176 203.723V210.356C113.176 211.187 113.85 211.861 114.681 211.861H167.582C168.413 211.861 169.087 211.187 169.087 210.356V203.723C169.087 202.892 168.413 202.218 167.582 202.218Z" fill="#367FEC"/>
<path d="M146.813 204.1H116.164C115.672 204.1 115.272 204.499 115.272 204.992V209.077C115.272 209.57 115.672 209.969 116.164 209.969H146.813C147.306 209.969 147.705 209.57 147.705 209.077V204.992C147.705 204.499 147.306 204.1 146.813 204.1Z" fill="#D95632"/>
<path d="M167.582 217.129H114.681C113.85 217.129 113.176 217.802 113.176 218.634V225.266C113.176 226.097 113.85 226.771 114.681 226.771H167.582C168.413 226.771 169.087 226.097 169.087 225.266V218.634C169.087 217.802 168.413 217.129 167.582 217.129Z" fill="#367FEC"/>
<path d="M136.568 219.021H116.444C115.797 219.021 115.272 219.545 115.272 220.192V223.718C115.272 224.365 115.797 224.89 116.444 224.89H136.568C137.215 224.89 137.74 224.365 137.74 223.718V220.192C137.74 219.545 137.215 219.021 136.568 219.021Z" fill="#D95632"/>
<path d="M167.582 234.264H114.681C113.85 234.264 113.176 234.938 113.176 235.769V242.402C113.176 243.233 113.85 243.907 114.681 243.907H167.582C168.413 243.907 169.087 243.233 169.087 242.402V235.769C169.087 234.938 168.413 234.264 167.582 234.264Z" fill="#367FEC"/>
<path d="M157.842 236.145H116.917C116.009 236.145 115.272 236.882 115.272 237.79V240.37C115.272 241.278 116.009 242.015 116.917 242.015H157.842C158.751 242.015 159.487 241.278 159.487 240.37V237.79C159.487 236.882 158.751 236.145 157.842 236.145Z" fill="#D95632"/>
<path d="M157.004 131.279H108.94C105.455 131.279 102.63 134.104 102.63 137.589V164.561C102.63 168.046 105.455 170.871 108.94 170.871H157.004C160.489 170.871 163.314 168.046 163.314 164.561V137.589C163.314 134.104 160.489 131.279 157.004 131.279Z" fill="white"/>
<path d="M156.81 171.419H109.123C107.262 171.4 105.484 170.647 104.174 169.325C102.864 168.003 102.128 166.218 102.125 164.357V137.772C102.128 135.903 102.872 134.11 104.194 132.789C105.516 131.467 107.308 130.723 109.177 130.72H156.864C158.734 130.72 160.528 131.463 161.851 132.785C163.173 134.108 163.916 135.902 163.916 137.772V164.357C163.916 165.288 163.732 166.21 163.374 167.069C163.017 167.929 162.493 168.71 161.832 169.366C161.172 170.023 160.388 170.542 159.526 170.894C158.664 171.247 157.741 171.425 156.81 171.419ZM109.123 131.827C107.551 131.836 106.046 132.465 104.937 133.579C103.827 134.693 103.203 136.2 103.2 137.772V164.357C103.2 165.934 103.826 167.448 104.941 168.564C106.055 169.681 107.567 170.309 109.145 170.312H156.832C158.409 170.309 159.921 169.681 161.036 168.564C162.151 167.448 162.777 165.934 162.777 164.357V137.772C162.774 136.196 162.146 134.686 161.032 133.572C159.918 132.457 158.408 131.83 156.832 131.827H109.123Z" fill="#48A39C"/>
<path d="M120.83 137.267H110.499V165.227H120.83V137.267Z" fill="#D95632"/>
<path d="M135.278 142.62H123.937V165.227H135.278V142.62Z" fill="#D95632"/>
<path d="M135.278 142.62H123.937V147.458H135.278V142.62Z" fill="#EEA337"/>
<path d="M155.144 146.232H141.201V165.227H155.144V146.232Z" fill="#D95632"/>
<path d="M155.144 148.973H141.201V155.724H155.144V148.973Z" fill="#EEA337"/>
<path d="M155.144 146.232H141.201V148.973H155.144V146.232Z" fill="#42A4FF"/>
<path d="M229.083 100.642H179.589C176.182 100.642 173.419 103.404 173.419 106.812V140.997C173.419 144.405 176.182 147.168 179.589 147.168H229.083C232.49 147.168 235.253 144.405 235.253 140.997V106.812C235.253 103.404 232.49 100.642 229.083 100.642Z" fill="white"/>
<path d="M228.9 147.716H179.783C177.952 147.716 176.195 146.989 174.899 145.695C173.603 144.401 172.874 142.646 172.871 140.814V107.006C172.871 105.172 173.599 103.414 174.895 102.118C176.192 100.822 177.95 100.093 179.783 100.093H228.9C230.733 100.093 232.491 100.822 233.787 102.118C235.084 103.414 235.812 105.172 235.812 107.006V140.825C235.806 142.655 235.076 144.407 233.78 145.699C232.484 146.99 230.729 147.716 228.9 147.716ZM179.783 101.201C179.021 101.201 178.266 101.351 177.562 101.642C176.857 101.934 176.217 102.362 175.678 102.901C175.139 103.44 174.712 104.08 174.42 104.784C174.128 105.488 173.978 106.243 173.978 107.006V140.825C173.981 142.363 174.594 143.837 175.682 144.923C176.77 146.009 178.245 146.619 179.783 146.619H228.9C230.437 146.619 231.912 146.009 233.001 144.923C234.089 143.837 234.702 142.363 234.705 140.825V107.006C234.705 105.466 234.093 103.989 233.005 102.901C231.916 101.812 230.439 101.201 228.9 101.201H179.783Z" fill="#48A39C"/>
<path d="M205.68 108.123L195.596 122.098L213.592 127.409C212.631 131.262 210.394 134.677 207.246 137.097C204.098 139.518 200.223 140.801 196.252 140.739C181.675 141.061 176.3 125.237 180.75 115.025C185.201 104.812 196.574 104.834 199.391 105.49C201.583 106.117 203.694 107.001 205.68 108.123Z" fill="#42A4FF"/>
<path d="M198.929 120.508L211.28 106.135C214.056 108.156 215.974 111.144 216.655 114.509C217.236 117.637 217.062 120.857 216.15 123.905L198.929 120.508Z" fill="#BEEE36"/>
<path d="M227.943 130.387H216.731V131.741H227.943V130.387Z" fill="#D95632"/>
<path d="M222.74 133.59H216.731V134.784H222.74V133.59Z" fill="#D95632"/>
<path d="M224.589 137.052H216.731V138.385H224.589V137.052Z" fill="#D95632"/>
<path d="M138.191 265.643H75.1425C71.9662 265.643 69.3913 268.218 69.3913 271.394V306.988C69.3913 310.164 71.9662 312.739 75.1425 312.739H138.191C141.368 312.739 143.942 310.164 143.942 306.988V271.394C143.942 268.218 141.368 265.643 138.191 265.643Z" fill="white"/>
<path d="M96.6103 270.115C92.9218 270.117 89.3169 271.213 86.2511 273.264C83.1853 275.314 80.7964 278.228 79.3864 281.636C77.9764 285.045 77.6086 288.794 78.3294 292.412C79.0503 296.029 80.8275 299.351 83.4364 301.959C86.0452 304.566 89.3686 306.341 92.9863 307.06C96.604 307.779 100.354 307.409 103.761 305.997C107.168 304.585 110.081 302.194 112.13 299.127C114.179 296.061 115.272 292.455 115.272 288.766C115.272 286.316 114.789 283.89 113.851 281.626C112.914 279.363 111.539 277.306 109.806 275.574C108.073 273.842 106.015 272.469 103.751 271.532C101.487 270.595 99.0605 270.114 96.6103 270.115ZM96.6103 302.365C93.91 302.365 91.2705 301.565 89.0253 300.064C86.7802 298.564 85.0303 296.432 83.997 293.937C82.9637 291.443 82.6933 288.698 83.2201 286.049C83.7469 283.401 85.0471 280.968 86.9565 279.059C88.8658 277.15 91.2985 275.849 93.9468 275.323C96.5951 274.796 99.3402 275.066 101.835 276.099C104.33 277.133 106.462 278.883 107.962 281.128C109.462 283.373 110.263 286.013 110.263 288.713C110.268 290.51 109.92 292.29 109.236 293.952C108.553 295.614 107.548 297.125 106.28 298.398C105.012 299.671 103.505 300.682 101.846 301.372C100.186 302.062 98.4073 302.418 96.6103 302.419V302.365Z" fill="#367FEC"/>
<path d="M115.272 288.756C115.274 284.838 114.032 281.021 111.725 277.855L107.672 280.747C108.731 282.211 109.489 283.871 109.901 285.63C110.312 287.39 110.37 289.213 110.07 290.995C109.77 292.777 109.118 294.482 108.152 296.009C107.187 297.537 105.928 298.857 104.447 299.893L107.672 303.677C110.017 301.957 111.927 299.711 113.246 297.12C114.566 294.529 115.26 291.664 115.272 288.756Z" fill="#D95632"/>
<path d="M96.6103 307.45C100.626 307.453 104.535 306.152 107.747 303.741L104.522 299.957C102.417 301.446 99.9312 302.304 97.356 302.434C94.7807 302.563 92.2218 301.958 89.9775 300.688L86.9353 304.677C89.8415 306.478 93.1908 307.438 96.6103 307.45Z" fill="#2DC6A1"/>
<path d="M138.223 271.803H121.808V275.866H138.223V271.803Z" fill="#2DC6A1"/>
<path d="M136.321 273.265H123.485V274.405H136.321V273.265Z" fill="#D95632"/>
<path d="M138.116 285.563H121.701V289.626H138.116V285.563Z" fill="#2DC6A1"/>
<path d="M130.731 287.025H123.378V288.165H130.731V287.025Z" fill="#D95632"/>
<path d="M138.223 300.785H121.808V304.848H138.223V300.785Z" fill="#2DC6A1"/>
<path d="M130.838 302.247H123.485V303.386H130.838V302.247Z" fill="#D95632"/>
<path d="M135.031 278.522H121.808V282.585H135.031V278.522Z" fill="#2DC6A1"/>
<path d="M128.022 279.984H123.163V281.123H128.022V279.984Z" fill="#D95632"/>
<path d="M138.019 313.298H75.3253C73.6146 313.298 71.974 312.618 70.7644 311.409C69.5548 310.199 68.8753 308.559 68.8753 306.848V271.566C68.8753 269.856 69.5548 268.215 70.7644 267.006C71.974 265.796 73.6146 265.116 75.3253 265.116H138.019C139.73 265.116 141.37 265.796 142.58 267.006C143.79 268.215 144.469 269.856 144.469 271.566V306.816C144.473 307.665 144.31 308.508 143.988 309.294C143.665 310.08 143.191 310.795 142.592 311.397C141.992 312 141.28 312.478 140.495 312.804C139.71 313.13 138.869 313.298 138.019 313.298ZM75.3253 266.191C73.8997 266.191 72.5326 266.758 71.5246 267.766C70.5165 268.774 69.9503 270.141 69.9503 271.566V306.816C69.9503 308.241 70.5165 309.608 71.5246 310.616C72.5326 311.624 73.8997 312.191 75.3253 312.191H138.019C139.445 312.191 140.812 311.624 141.82 310.616C142.828 309.608 143.394 308.241 143.394 306.816V271.566C143.394 270.141 142.828 268.774 141.82 267.766C140.812 266.758 139.445 266.191 138.019 266.191H75.3253Z" fill="#48A39C"/>
<path d="M547.336 354.642H463.54V393.289H547.336V354.642Z" fill="#7B47BE"/>
<path d="M457.477 352.761C457.477 352.761 449.812 346.838 448.082 350.02C446.351 353.202 451.403 355.395 451.403 355.395C451.403 355.395 441.728 358.717 444.76 361.899C447.791 365.081 453.285 361.899 453.285 361.899C453.285 361.899 448.361 365.801 450.823 368.693C453.285 371.584 459.348 364.21 459.348 364.21C459.348 364.21 455.886 368.972 457.327 370.273C458.767 371.574 466.281 363.339 466.281 363.339L463.54 354.675C463.54 354.675 461.659 348.612 459.788 349.117C457.918 349.622 457.477 352.761 457.477 352.761Z" fill="#7B47BE"/>
<path d="M534.909 354.642C534.909 354.642 544.584 342.936 548.067 345.827C551.55 348.719 546.476 351.901 546.476 351.901C546.476 351.901 559.183 346.816 559.914 350.009C560.645 353.202 554.27 354.642 554.27 354.642C554.27 354.642 560.634 356.233 559.183 358.545C558.785 359.201 558.206 359.728 557.516 360.062C556.825 360.396 556.052 360.522 555.291 360.426C555.291 360.426 563.784 366.629 559.968 369.811C556.151 372.993 551.819 364.436 551.819 364.436C551.819 364.436 553.12 368.187 550.658 368.628C548.196 369.069 546.906 365.876 546.906 365.876L534.909 354.642Z" fill="#7B47BE"/>
<path d="M496.198 231.974C496.198 231.974 487.093 322.564 482.535 334.271C477.977 345.978 468.238 354.642 468.238 354.642H532.824L525.449 244.025C525.449 244.025 534.34 238.241 538.349 231.953C542.359 225.664 544.412 216.075 544.412 216.075L496.198 231.974Z" fill="white"/>
<path d="M532.824 354.75H468.238C468.125 354.752 468.015 354.719 467.923 354.655C467.83 354.592 467.76 354.501 467.722 354.395C467.681 354.29 467.673 354.175 467.7 354.065C467.727 353.955 467.787 353.857 467.872 353.782C467.969 353.696 477.547 345.064 482.019 333.626C486.491 322.188 495.553 232.383 495.639 231.501C495.652 231.395 495.693 231.294 495.76 231.211C495.826 231.127 495.915 231.064 496.016 231.028L544.24 215.097C544.334 215.067 544.434 215.063 544.53 215.084C544.626 215.104 544.715 215.15 544.788 215.215C544.858 215.282 544.91 215.365 544.94 215.457C544.97 215.549 544.977 215.646 544.96 215.742C544.874 216.139 542.81 225.556 538.811 231.867C535.135 237.629 527.578 242.875 526.03 243.917L533.372 354.191C533.378 354.267 533.368 354.345 533.342 354.417C533.316 354.489 533.275 354.555 533.221 354.61C533.112 354.707 532.969 354.757 532.824 354.75ZM469.624 353.675H532.232L524.901 243.67C524.89 243.571 524.908 243.471 524.951 243.382C524.995 243.292 525.063 243.217 525.148 243.165C525.234 243.165 533.985 237.381 537.876 231.265C541.101 226.287 543.015 219.053 543.649 216.473L496.704 231.985C495.994 239.069 487.48 322.672 483.051 334.056C479.375 343.473 472.269 351.041 469.624 353.675Z" fill="#2D4352"/>
<path d="M541.327 226.019L516.204 231.91L515.559 225.578L544.412 216.075C544.412 216.075 542.596 222.665 542.101 223.998C541.607 225.331 541.327 226.019 541.327 226.019Z" fill="#2D4352"/>
<path d="M496.198 231.974C496.748 233.385 497.553 234.683 498.574 235.801C500.165 237.467 507.035 240.284 507.035 240.284V228.394L496.198 231.974Z" fill="#2D4352"/>
<path d="M492.576 355.191C492.465 355.191 492.356 355.157 492.265 355.094C492.174 355.031 492.103 354.942 492.064 354.838C492.024 354.734 492.017 354.621 492.043 354.513C492.069 354.405 492.128 354.308 492.21 354.234C492.328 354.116 504.508 342.936 506.486 329.853C508.464 316.77 506.486 241.058 506.486 240.295V228.394C506.52 228.278 506.59 228.175 506.687 228.102C506.784 228.029 506.902 227.989 507.024 227.989C507.145 227.989 507.263 228.029 507.36 228.102C507.457 228.175 507.528 228.278 507.561 228.394V240.284C507.647 243.38 509.561 316.684 507.561 330.014C505.562 343.344 493.457 354.589 492.941 355.051C492.841 355.141 492.711 355.191 492.576 355.191Z" fill="#2D4352"/>
<path d="M476.472 340.775H476.354C476.07 340.764 475.791 340.692 475.537 340.564C475.283 340.436 475.059 340.255 474.881 340.033C474.697 339.848 474.573 339.611 474.525 339.354C474.477 339.097 474.507 338.832 474.613 338.593C475 337.765 476.494 337.367 477.838 337.174C475.688 336.174 473.688 335.024 473.71 334.013C473.71 333.755 473.828 333.282 474.58 333.024C477.44 332.014 481.159 336.539 481.579 337.055C481.668 337.156 481.718 337.286 481.718 337.421C481.718 337.556 481.668 337.686 481.579 337.786C481.278 338.066 478.569 340.775 476.472 340.775ZM479.536 338.13C477.558 338.238 475.817 338.646 475.612 339.066C475.612 339.066 475.612 339.195 475.752 339.334C475.827 339.438 475.926 339.522 476.04 339.58C476.154 339.638 476.28 339.668 476.408 339.668C477.585 339.472 478.676 338.925 479.536 338.098V338.13ZM474.903 334.099C475.301 334.658 477.472 335.841 479.977 336.851C478.655 335.454 476.44 333.551 475 334.067L474.903 334.099Z" fill="#2D4352"/>
<path d="M497.725 344.075H497.456C497.235 344.043 497.023 343.962 496.837 343.837C496.651 343.713 496.495 343.548 496.381 343.355C496.258 343.161 496.186 342.939 496.172 342.709C496.159 342.479 496.205 342.25 496.306 342.043C496.725 341.194 498.177 340.614 499.617 340.248C498.015 339.861 496.392 339.259 496.145 338.313C496.069 338.014 496.091 337.698 496.207 337.412C496.323 337.126 496.527 336.884 496.79 336.722C497.083 336.468 497.425 336.277 497.795 336.161C498.164 336.044 498.554 336.005 498.94 336.045C501.444 336.303 503.949 339.474 504.057 339.614C504.145 339.724 504.187 339.863 504.175 340.003C504.163 340.143 504.097 340.273 503.992 340.366C503.627 340.775 499.875 344.075 497.725 344.075ZM501.584 340.925C499.563 341.291 497.596 341.904 497.284 342.516C497.284 342.516 497.23 342.624 497.284 342.764C497.312 342.818 497.353 342.865 497.404 342.899C497.455 342.932 497.514 342.953 497.574 342.957C498.499 343.065 500.154 342.043 501.616 340.925H501.584ZM498.639 337.12C498.218 337.115 497.812 337.269 497.499 337.55C497.252 337.743 497.166 337.905 497.187 337.969C497.381 338.603 500.176 339.334 502.648 339.614C501.831 338.743 500.283 337.27 498.854 337.131L498.639 337.12Z" fill="#2D4352"/>
<path d="M509.518 234.339C535.825 234.339 557.151 213.013 557.151 186.706C557.151 160.399 535.825 139.073 509.518 139.073C483.211 139.073 461.885 160.399 461.885 186.706C461.885 213.013 483.211 234.339 509.518 234.339Z" fill="#A534DA"/>
<path d="M461.885 155.585L470.689 159.132L497.521 140.599L495.005 131.526L461.885 155.585Z" fill="#A534DA"/>
<path d="M518.301 164.916C517.186 164.859 516.127 164.409 515.312 163.647C515.035 163.399 514.719 163.2 514.377 163.056C513.394 162.875 512.379 163.043 511.507 163.529C510.623 163.895 509.718 164.207 508.797 164.464C508.043 164.679 507.239 164.637 506.512 164.345C505.784 164.054 505.174 163.528 504.777 162.852C504.284 162.064 504.059 161.137 504.136 160.211C504.214 159.284 504.589 158.408 505.207 157.713C507.518 155.069 512.732 152.026 516.795 155.144C519.332 157.09 521.923 160.25 521.601 162.669C521.544 163.108 521.366 163.522 521.087 163.866C520.808 164.21 520.438 164.469 520.02 164.615C519.472 164.826 518.888 164.928 518.301 164.916ZM514.635 161.981C515.137 162.147 515.599 162.418 515.989 162.776C516.443 163.258 517.034 163.589 517.682 163.724C518.33 163.858 519.004 163.79 519.612 163.529C519.85 163.457 520.061 163.316 520.219 163.125C520.378 162.934 520.477 162.701 520.504 162.454C520.719 160.884 518.795 158.057 516.118 156.004C512.829 153.488 508.239 155.896 506.035 158.423C505.582 158.942 505.307 159.593 505.251 160.28C505.195 160.966 505.36 161.653 505.723 162.239C505.984 162.714 506.398 163.087 506.897 163.298C507.397 163.508 507.953 163.544 508.475 163.4C509.356 163.155 510.221 162.857 511.066 162.508C512.154 161.935 513.407 161.753 514.613 161.992L514.635 161.981Z" fill="#BEEE36"/>
<path d="M392.74 152.08L377.572 183.975L393.697 188.2L396.449 185.814L398.9 194.553L402.512 191.232V195.274L412.779 201.831L401.502 200.186L399.19 203.411L396.159 199.552L394.138 200.229L390.913 197.348L388.602 198.649L371.402 194.027L360.276 224.879L416.724 240.8L444.76 172.387L441.438 170.903L440.858 167.442L435.805 171.333C435.805 171.333 435.654 160.067 434.934 160.218C433.699 160.669 432.492 161.197 431.322 161.798L392.74 152.08Z" fill="#BEEE36"/>
<path d="M484.696 183.502C483.887 183.518 483.087 183.325 482.374 182.943C481.105 182.223 480.762 180.428 481.546 178.482C482.331 176.536 484.212 174.634 486.47 175.203L487.104 175.343C488.577 175.655 490.243 176.01 490.135 179.116C490.085 179.876 489.833 180.609 489.406 181.24C488.979 181.871 488.393 182.377 487.706 182.707C486.786 183.223 485.751 183.497 484.696 183.502ZM485.685 176.214C484.341 176.214 483.137 177.482 482.567 178.891C482.105 180.062 482.03 181.471 482.922 181.976C483.595 182.288 484.334 182.43 485.075 182.389C485.816 182.348 486.535 182.125 487.168 181.739C487.687 181.499 488.132 181.126 488.459 180.658C488.786 180.189 488.982 179.643 489.028 179.073C489.103 176.923 488.319 176.73 486.878 176.429L486.201 176.278C486.032 176.236 485.859 176.214 485.685 176.214Z" fill="#BEEE36"/>
<path d="M399.223 185.072C399.097 185.063 398.978 185.012 398.885 184.927C398.792 184.841 398.73 184.727 398.71 184.603C398.69 184.478 398.713 184.351 398.775 184.241C398.837 184.131 398.934 184.045 399.051 183.997L441.266 170.344C441.406 170.3 441.557 170.313 441.688 170.379C441.819 170.445 441.918 170.56 441.965 170.699C442.009 170.839 441.997 170.99 441.93 171.121C441.864 171.252 441.749 171.351 441.61 171.398L399.395 185.05L399.223 185.072Z" fill="#D95735"/>
<path d="M513.732 225.384C507.905 225.384 502.025 223.084 496.607 218.644C493.178 215.838 491.662 212.796 492.103 209.603C492.941 203.562 500.843 198.112 507.346 195.274C513.012 192.812 513.667 191.93 514.871 190.307C515.237 189.823 515.645 189.232 516.247 188.587C517.697 187.011 518.572 184.993 518.73 182.857C518.861 181.047 519.523 179.316 520.633 177.88C524.761 172.774 531.48 172.247 540.617 176.311C542.069 176.924 543.35 177.878 544.354 179.093C545.357 180.307 546.052 181.746 546.38 183.287C548.196 190.812 543.584 202.82 534.651 213.903C529.222 220.633 522.762 224.567 515.979 225.277C515.237 225.352 514.484 225.384 513.732 225.384ZM517.075 189.329C516.505 189.963 516.107 190.501 515.753 190.974C514.484 192.683 513.71 193.715 507.776 196.295C502.756 198.445 494.016 203.82 493.188 209.754C492.801 212.538 494.188 215.247 497.295 217.784C503.197 222.611 509.614 224.815 515.86 224.17C522.31 223.492 528.545 219.708 533.791 213.205C542.391 202.551 547.014 190.63 545.305 183.545C545.012 182.172 544.392 180.89 543.498 179.808C542.603 178.726 541.46 177.877 540.166 177.332C531.566 173.483 525.266 173.903 521.493 178.579C520.506 179.863 519.926 181.413 519.827 183.029C519.631 185.376 518.663 187.591 517.075 189.329Z" fill="#BEEE36"/>
<path d="M477.214 222.256H477.128C476.983 222.232 476.853 222.152 476.767 222.034C476.68 221.915 476.644 221.767 476.666 221.622C476.666 221.504 478.45 209.926 475.129 204.594C474.823 204.039 474.398 203.559 473.885 203.187C473.373 202.815 472.784 202.562 472.161 202.444C469.108 201.928 465.625 204.712 465.593 204.734C465.538 204.78 465.473 204.816 465.403 204.837C465.333 204.858 465.26 204.865 465.188 204.857C465.115 204.849 465.045 204.826 464.982 204.79C464.919 204.754 464.863 204.706 464.819 204.648C464.773 204.592 464.739 204.528 464.717 204.459C464.696 204.389 464.689 204.317 464.696 204.245C464.703 204.173 464.724 204.103 464.758 204.039C464.792 203.976 464.839 203.919 464.894 203.874C465.056 203.745 468.786 200.756 472.344 201.358C473.123 201.499 473.861 201.81 474.506 202.269C475.151 202.728 475.687 203.323 476.074 204.013C479.611 209.689 477.837 221.299 477.762 221.794C477.74 221.923 477.672 222.04 477.572 222.124C477.472 222.209 477.345 222.256 477.214 222.256Z" fill="#BEEE36"/>
<path d="M474.397 172.881C471.004 172.801 467.682 171.889 464.722 170.226C464.596 170.15 464.505 170.027 464.469 169.884C464.432 169.741 464.454 169.59 464.529 169.463C464.609 169.34 464.732 169.253 464.874 169.219C465.016 169.185 465.166 169.207 465.292 169.28C465.389 169.345 474.602 174.849 481.998 169.28C486.298 166.055 486.61 161.282 486.878 157.057C487.093 153.832 487.276 150.951 489.265 149.468C491.748 147.63 494.07 147.651 496.317 147.662C498.045 147.815 499.783 147.527 501.369 146.823C504.885 145.017 502.767 139.718 502.745 139.664C502.717 139.597 502.703 139.525 502.703 139.452C502.703 139.38 502.717 139.308 502.745 139.241C502.773 139.174 502.814 139.113 502.866 139.062C502.918 139.011 502.979 138.971 503.046 138.944C503.182 138.89 503.333 138.891 503.468 138.948C503.602 139.004 503.709 139.11 503.766 139.245C504.659 141.395 505.4 145.996 501.874 147.845C500.128 148.624 498.213 148.953 496.306 148.801C494.156 148.801 492.113 148.801 489.931 150.392C488.351 151.575 488.179 154.166 487.986 157.154C487.706 161.4 487.362 166.689 482.664 170.205C480.279 171.984 477.373 172.925 474.397 172.881Z" fill="#BEEE36"/>
<path d="M547.594 170.334C545.784 170.319 544.006 169.849 542.423 168.968C538.306 166.765 537.801 163.271 537.306 159.896C537.156 158.078 536.682 156.301 535.909 154.65C534.705 152.446 533.049 152.424 530.76 152.403C528.365 152.533 525.981 152.001 523.869 150.866C523.15 150.485 522.519 149.959 522.015 149.32C521.512 148.681 521.147 147.945 520.945 147.157C520.192 144.018 522.256 140.793 522.342 140.707C522.382 140.646 522.433 140.593 522.492 140.552C522.552 140.511 522.619 140.482 522.69 140.467C522.761 140.452 522.835 140.451 522.906 140.464C522.977 140.478 523.045 140.506 523.106 140.546C523.167 140.585 523.219 140.636 523.261 140.695C523.302 140.755 523.331 140.822 523.346 140.893C523.361 140.964 523.362 141.038 523.348 141.109C523.334 141.18 523.307 141.248 523.267 141.309C523.267 141.309 521.386 144.276 522.031 146.953C522.197 147.593 522.496 148.191 522.909 148.708C523.322 149.225 523.84 149.649 524.428 149.952C526.37 151 528.567 151.485 530.77 151.349C533.135 151.349 535.361 151.349 536.876 154.177C537.717 155.941 538.234 157.841 538.403 159.788C538.876 163.013 539.327 166.109 542.939 168.044C544.473 168.951 546.24 169.386 548.02 169.296C549.799 169.206 551.513 168.595 552.948 167.539C553.002 167.491 553.066 167.454 553.135 167.431C553.203 167.408 553.276 167.4 553.348 167.406C553.421 167.412 553.491 167.432 553.555 167.466C553.62 167.5 553.676 167.547 553.722 167.603C553.817 167.716 553.863 167.862 553.851 168.009C553.839 168.156 553.769 168.292 553.657 168.388C551.894 169.663 549.77 170.344 547.594 170.334Z" fill="#BEEE36"/>
<path d="M548.691 214.377C548.566 214.375 548.445 214.332 548.348 214.254C548.251 214.176 548.182 214.068 548.153 213.947C547.668 211.591 547.805 209.149 548.551 206.862C549.83 203.39 554.119 202.057 554.302 202.003C554.371 201.98 554.444 201.971 554.517 201.977C554.59 201.983 554.66 202.004 554.725 202.038C554.789 202.073 554.846 202.12 554.891 202.176C554.937 202.233 554.971 202.299 554.99 202.369C555.012 202.438 555.019 202.511 555.013 202.583C555.006 202.655 554.985 202.725 554.951 202.789C554.917 202.853 554.871 202.91 554.815 202.956C554.759 203.001 554.694 203.036 554.625 203.057C554.625 203.057 550.669 204.293 549.594 207.249C548.932 209.334 548.806 211.553 549.228 213.699C549.246 213.77 549.249 213.843 549.238 213.915C549.227 213.987 549.202 214.056 549.164 214.118C549.126 214.18 549.076 214.234 549.017 214.276C548.958 214.319 548.891 214.349 548.82 214.366L548.691 214.377Z" fill="#BEEE36"/>
<path d="M460.756 123.077C460.756 123.077 462.906 140.524 464.12 141.491C465.335 142.459 484.771 130.44 484.47 129.14C484.169 127.839 473.871 121.776 473.871 121.776L460.756 123.077Z" fill="#A534DA"/>
<path d="M471.398 193.349C470.71 193.349 470.001 193.349 469.302 193.349C448.941 192.511 432.87 183.513 423.27 178.138C421.153 176.858 418.952 175.723 416.681 174.741C412.806 173.416 408.601 173.416 404.727 174.741C404.591 174.795 404.44 174.793 404.305 174.737C404.171 174.681 404.064 174.574 404.006 174.44C403.977 174.373 403.962 174.3 403.962 174.226C403.962 174.153 403.977 174.08 404.006 174.012C404.035 173.945 404.078 173.884 404.132 173.834C404.186 173.783 404.249 173.745 404.318 173.72C408.443 172.282 412.932 172.282 417.057 173.72C419.387 174.724 421.646 175.884 423.819 177.192C433.332 182.567 449.253 191.436 469.345 192.242C495.209 193.317 513.592 174.042 513.775 173.838C513.881 173.738 514.021 173.682 514.167 173.682C514.313 173.682 514.454 173.738 514.559 173.838C514.612 173.889 514.653 173.95 514.682 174.018C514.71 174.085 514.725 174.157 514.725 174.231C514.725 174.304 514.71 174.376 514.682 174.443C514.653 174.511 514.612 174.572 514.559 174.623C514.398 174.752 496.65 193.349 471.398 193.349Z" fill="#2D4352"/>
<path d="M402.566 181.385C402.473 181.385 402.382 181.362 402.301 181.317C402.22 181.271 402.152 181.206 402.104 181.127C402.027 181.002 402.002 180.853 402.034 180.71C402.066 180.567 402.153 180.443 402.276 180.363L408.876 176.139C409.002 176.061 409.154 176.036 409.298 176.068C409.443 176.1 409.569 176.187 409.65 176.311C409.727 176.435 409.752 176.585 409.72 176.727C409.688 176.87 409.601 176.995 409.478 177.074L402.867 181.299C402.776 181.353 402.672 181.383 402.566 181.385Z" fill="#2D4352"/>
<path d="M403.974 184.524C403.845 184.521 403.72 184.476 403.619 184.395C403.511 184.299 403.443 184.165 403.431 184.021C403.419 183.876 403.463 183.733 403.555 183.621L407.457 178.944C407.553 178.836 407.687 178.768 407.831 178.756C407.976 178.744 408.119 178.788 408.231 178.88C408.287 178.926 408.334 178.982 408.368 179.046C408.402 179.11 408.423 179.179 408.43 179.251C408.437 179.323 408.43 179.396 408.408 179.465C408.387 179.534 408.353 179.598 408.307 179.654L404.404 184.33C404.351 184.392 404.285 184.441 404.211 184.475C404.136 184.508 404.056 184.525 403.974 184.524Z" fill="#2D4352"/>
<path d="M405.877 186.158C405.747 186.159 405.621 186.113 405.522 186.029C405.409 185.934 405.337 185.799 405.323 185.652C405.309 185.505 405.353 185.358 405.447 185.244L408.758 181.288C408.804 181.232 408.86 181.186 408.924 181.151C408.988 181.117 409.057 181.096 409.129 181.089C409.201 181.082 409.274 181.09 409.343 181.111C409.412 181.132 409.476 181.167 409.532 181.213C409.646 181.307 409.717 181.442 409.732 181.589C409.746 181.736 409.701 181.883 409.607 181.997L406.35 185.975C406.292 186.041 406.218 186.092 406.136 186.124C406.054 186.156 405.965 186.167 405.877 186.158Z" fill="#2D4352"/>
<path d="M407.877 187.673C407.773 187.672 407.671 187.641 407.584 187.584C407.497 187.528 407.427 187.449 407.382 187.355C407.338 187.261 407.32 187.157 407.331 187.054C407.343 186.95 407.383 186.852 407.446 186.77L409.5 184.169C409.593 184.054 409.727 183.98 409.874 183.964C410.021 183.948 410.169 183.991 410.285 184.083C410.341 184.128 410.389 184.184 410.424 184.247C410.459 184.31 410.481 184.38 410.489 184.452C410.497 184.524 410.49 184.597 410.47 184.666C410.45 184.736 410.416 184.801 410.37 184.857L408.317 187.458C408.264 187.524 408.197 187.578 408.121 187.615C408.045 187.652 407.961 187.672 407.877 187.673Z" fill="#2D4352"/>
<path d="M459.842 182.976C457.274 182.969 454.713 182.702 452.199 182.18C448.889 181.497 445.65 180.507 442.524 179.224C442.457 179.195 442.397 179.153 442.347 179.101C442.297 179.049 442.258 178.988 442.231 178.92C442.205 178.853 442.192 178.781 442.193 178.708C442.194 178.636 442.21 178.565 442.239 178.498C442.268 178.432 442.31 178.372 442.362 178.322C442.414 178.272 442.475 178.232 442.543 178.206C442.61 178.179 442.682 178.166 442.754 178.168C442.827 178.169 442.898 178.185 442.965 178.213C446.015 179.453 449.17 180.417 452.392 181.094C455.55 181.755 458.783 181.987 462.003 181.782C462.08 181.761 462.161 181.757 462.239 181.77C462.318 181.783 462.393 181.813 462.459 181.858C462.525 181.903 462.581 181.962 462.621 182.031C462.662 182.1 462.687 182.177 462.695 182.256C462.703 182.336 462.694 182.416 462.667 182.491C462.641 182.567 462.598 182.636 462.543 182.693C462.487 182.75 462.419 182.795 462.345 182.823C462.27 182.851 462.19 182.863 462.11 182.857C461.357 182.936 460.6 182.975 459.842 182.976Z" fill="#2D4352"/>
<path d="M473.301 150.876C472.121 150.875 470.962 150.568 469.936 149.984C469.875 149.945 469.823 149.894 469.781 149.834C469.74 149.774 469.711 149.707 469.696 149.636C469.681 149.565 469.68 149.492 469.694 149.42C469.707 149.349 469.735 149.281 469.775 149.221C469.854 149.098 469.979 149.011 470.122 148.979C470.264 148.947 470.414 148.972 470.538 149.049C471.507 149.611 472.625 149.863 473.742 149.771C474.859 149.679 475.92 149.247 476.784 148.533C480.009 146.125 478.934 143.211 478.837 143.093C478.785 142.955 478.789 142.801 478.85 142.666C478.91 142.531 479.022 142.426 479.16 142.373C479.295 142.32 479.446 142.324 479.579 142.382C479.712 142.44 479.816 142.549 479.869 142.685C480.257 143.916 480.232 145.239 479.797 146.455C479.362 147.67 478.542 148.709 477.461 149.414C476.275 150.35 474.812 150.864 473.301 150.876Z" fill="#BEEE36"/>
<path d="M451.479 123.689L460.756 123.077L473.871 121.776H480.955L472.613 117.261L473.731 114.154L474.924 114.52L475.462 112.348L496.123 107.005L466.647 104.909L465.712 106.93L463.615 107.07L463.68 109.886L458.047 119.142L451.479 123.689Z" fill="#BEEE36"/>
<path d="M472.699 128.086C472.045 128.092 471.394 128.006 470.764 127.828C468.148 126.949 465.886 125.248 464.314 122.98C464.236 122.857 464.209 122.708 464.239 122.565C464.27 122.423 464.354 122.298 464.475 122.217C464.536 122.177 464.604 122.149 464.675 122.136C464.746 122.122 464.82 122.123 464.891 122.138C464.962 122.153 465.029 122.182 465.089 122.223C465.148 122.264 465.199 122.317 465.239 122.378C466.683 124.419 468.732 125.953 471.097 126.764C474.645 127.774 479.3 124.883 479.343 124.861C479.467 124.783 479.617 124.757 479.76 124.789C479.903 124.821 480.027 124.909 480.106 125.033C480.184 125.157 480.21 125.307 480.178 125.45C480.146 125.594 480.058 125.718 479.934 125.796C477.746 127.14 475.262 127.926 472.699 128.086Z" fill="#2D4352"/>
<path d="M463.11 129.806H459.713C459.63 129.83 459.542 129.834 459.457 129.818C459.372 129.802 459.292 129.767 459.223 129.715C459.154 129.663 459.098 129.595 459.059 129.518C459.021 129.441 459 129.355 459 129.269C459 129.182 459.021 129.097 459.059 129.019C459.098 128.942 459.154 128.875 459.223 128.822C459.292 128.77 459.372 128.735 459.457 128.719C459.542 128.703 459.63 128.707 459.713 128.731H463.11C463.227 128.765 463.33 128.835 463.403 128.932C463.476 129.029 463.515 129.147 463.515 129.269C463.515 129.39 463.476 129.508 463.403 129.605C463.33 129.702 463.227 129.773 463.11 129.806Z" fill="#2D4352"/>
<path d="M416.735 241.305C416.641 241.306 416.55 241.284 416.467 241.24C416.385 241.197 416.314 241.135 416.262 241.058L391.848 203.96C391.768 203.837 391.741 203.688 391.771 203.545C391.801 203.402 391.887 203.276 392.01 203.197C392.132 203.117 392.281 203.089 392.425 203.119C392.568 203.149 392.693 203.235 392.773 203.358L417.197 240.445C417.275 240.57 417.302 240.72 417.272 240.865C417.242 241.009 417.157 241.136 417.036 241.219C416.946 241.277 416.841 241.307 416.735 241.305Z" fill="#D95735"/>
<path d="M360.383 224.836L397.406 201.025L396.213 199.509L394.192 200.186L391.01 197.305L388.698 198.606L371.509 193.973L360.383 224.836Z" fill="#D95735"/>
<path d="M392.741 152.08L400.878 192.79L398.954 194.553L396.503 185.814L393.762 188.2L377.572 183.975L392.741 152.08Z" fill="#D95735"/>
<path d="M452.048 124.238C451.931 124.204 451.829 124.134 451.756 124.037C451.682 123.94 451.643 123.822 451.643 123.7C451.643 123.579 451.682 123.46 451.756 123.363C451.829 123.266 451.931 123.196 452.048 123.163L480.944 121.249C481.091 121.24 481.235 121.289 481.346 121.386C481.456 121.482 481.524 121.619 481.536 121.765C481.544 121.912 481.495 122.056 481.399 122.166C481.302 122.277 481.166 122.345 481.02 122.356L452.124 124.27L452.048 124.238Z" fill="#2D4352"/>
<path d="M212.506 392.762H249.4L248.422 291.712L227.491 280.876C227.491 280.876 226.857 365.038 224.266 374.143C221.676 383.248 212.506 392.762 212.506 392.762Z" fill="white"/>
<path d="M249.4 393.31H212.506C212.397 393.31 212.291 393.278 212.199 393.219C212.108 393.16 212.035 393.076 211.99 392.977C211.947 392.876 211.936 392.765 211.957 392.658C211.978 392.551 212.031 392.452 212.108 392.375C212.194 392.278 221.138 382.829 223.675 373.971C226.212 365.113 226.9 281.693 226.9 280.844C226.901 280.75 226.926 280.658 226.973 280.577C227.02 280.496 227.088 280.429 227.169 280.382C227.251 280.336 227.344 280.313 227.438 280.313C227.532 280.313 227.624 280.336 227.707 280.382L248.626 291.228C248.716 291.274 248.791 291.343 248.844 291.428C248.897 291.513 248.926 291.612 248.927 291.712L249.916 392.762C249.913 392.91 249.856 393.052 249.755 393.16C249.659 393.251 249.533 393.305 249.4 393.31ZM213.817 392.235H248.841L247.863 292.067L228.04 281.79C227.965 291.368 227.266 365.64 224.815 374.304C222.579 381.851 216.075 389.569 213.764 392.203L213.817 392.235Z" fill="#2D4352"/>
<path d="M300.602 135.945L271.674 152.091H268.739L270.588 155.338L266.793 156.101L271.491 178.826L231.835 162.766L243.283 143.427L242.842 139.632L246.1 141.9L248.357 138.546L249.454 139.632L300.602 135.945Z" fill="#D95735"/>
<path d="M222.74 189.039C222.74 189.039 206.766 177.988 207.196 167.7C207.626 157.412 223.6 164.55 223.6 164.55L220.698 161.519C230.136 162.05 239.458 163.858 248.411 166.894C261.956 171.774 290.454 189.103 287.53 194.199C284.606 199.294 274.028 199.509 274.028 199.509L222.74 189.039Z" fill="#2D4352"/>
<path d="M245.1 176.397C232.426 175.096 225.987 179.622 222.783 183.922C222.783 184.287 222.783 184.642 222.783 184.997V266.105C222.92 272.81 225.68 279.194 230.47 283.887C235.261 288.58 241.7 291.209 248.406 291.209C255.112 291.209 261.551 288.58 266.341 283.887C271.131 279.194 273.891 272.81 274.028 266.105V187.878C265.641 181.434 255.623 177.458 245.1 176.397Z" fill="#42A4FF"/>
<path d="M210.42 233.35C208.828 233.341 207.24 233.175 205.68 232.856C198.155 231.362 193.038 223.761 188.125 216.419C184.212 210.571 180.503 205.046 175.773 202.616C166.603 197.908 158.982 198.219 156.982 198.413C157.025 198.716 157.156 199 157.358 199.23C157.5 199.347 157.68 199.408 157.864 199.402C159.379 199.327 161.755 199.176 161.755 199.176C161.863 199.169 161.97 199.194 162.064 199.247C162.158 199.301 162.234 199.381 162.282 199.477C162.329 199.573 162.349 199.679 162.34 199.786C162.33 199.892 162.292 199.993 162.228 200.079C161.924 200.43 161.733 200.865 161.68 201.326C162.056 201.541 163.411 200.649 164.636 199.348C164.742 199.248 164.883 199.191 165.029 199.191C165.175 199.191 165.315 199.248 165.421 199.348C165.473 199.399 165.515 199.46 165.543 199.528C165.572 199.595 165.586 199.667 165.586 199.74C165.586 199.814 165.572 199.886 165.543 199.953C165.515 200.021 165.473 200.082 165.421 200.133C164.582 201.025 162.486 203.046 161.239 202.423C161.073 202.344 160.927 202.228 160.812 202.085C160.696 201.941 160.615 201.774 160.573 201.595C160.509 201.176 160.576 200.748 160.766 200.369C159.928 200.369 158.767 200.488 157.896 200.52C157.655 200.539 157.412 200.507 157.184 200.425C156.956 200.344 156.748 200.215 156.574 200.047C156.068 199.466 155.793 198.72 155.8 197.951C155.8 197.82 155.847 197.693 155.931 197.593C156.016 197.492 156.133 197.425 156.262 197.402C156.627 197.338 165.238 195.994 176.257 201.649C181.245 204.207 185.018 209.851 189.028 215.828C193.812 222.987 198.767 230.394 205.873 231.792C218.397 234.264 222.063 226.417 222.213 226.04C222.273 225.898 222.387 225.785 222.53 225.726C222.673 225.668 222.834 225.669 222.976 225.729C223.119 225.788 223.232 225.903 223.29 226.046C223.349 226.189 223.348 226.349 223.288 226.492C223.213 226.546 220.095 233.35 210.42 233.35Z" fill="#2D4352"/>
<path d="M290.659 392.182H253.818L254.797 291.132L272.233 275.404C272.233 275.404 276.35 364.457 278.952 373.563C281.553 382.668 290.659 392.182 290.659 392.182Z" fill="white"/>
<path d="M290.658 392.73H253.818C253.744 392.731 253.671 392.718 253.603 392.69C253.534 392.663 253.472 392.622 253.42 392.569C253.368 392.517 253.326 392.455 253.299 392.386C253.271 392.318 253.258 392.245 253.259 392.171L254.248 291.121C254.249 291.044 254.265 290.968 254.297 290.897C254.328 290.827 254.374 290.764 254.431 290.712L271.867 274.985C271.946 274.917 272.042 274.872 272.145 274.855C272.248 274.839 272.354 274.851 272.45 274.891C272.546 274.932 272.629 274.998 272.69 275.083C272.75 275.168 272.785 275.268 272.792 275.372C272.792 276.264 276.931 364.457 279.489 373.401C282.048 382.345 290.97 391.676 291.056 391.805C291.131 391.884 291.181 391.983 291.2 392.09C291.219 392.197 291.206 392.307 291.164 392.407C291.121 392.505 291.05 392.588 290.96 392.645C290.87 392.703 290.765 392.732 290.658 392.73ZM254.377 391.655H289.401C287.046 389.021 280.586 381.303 278.425 373.724C275.963 365.124 272.254 287.584 271.738 276.608L255.355 291.325L254.377 391.655Z" fill="#2D4352"/>
<path d="M217.591 377.658C217.467 377.658 217.344 377.64 217.225 377.605C217.019 377.539 216.834 377.416 216.694 377.251C216.553 377.085 216.462 376.884 216.43 376.669C216.377 376.42 216.378 376.163 216.434 375.914C216.49 375.665 216.598 375.432 216.752 375.229C217.634 373.993 220.117 373.272 221.869 372.907C219.881 371.918 216.828 370.112 216.494 368.22C216.425 367.871 216.448 367.509 216.561 367.172C216.674 366.834 216.873 366.532 217.139 366.296C217.39 366.025 217.704 365.82 218.053 365.7C218.401 365.58 218.775 365.548 219.139 365.608C221.912 366.038 224.782 371.423 225.105 372.058C225.161 372.164 225.181 372.285 225.162 372.404C225.142 372.522 225.085 372.631 224.998 372.713L224.266 373.401C224.236 373.469 224.191 373.53 224.136 373.58C224.08 373.63 224.015 373.668 223.944 373.692C222.138 375.25 219.193 377.658 217.591 377.658ZM221.719 374.079C220.106 374.444 218.247 375.046 217.655 375.874C217.591 375.953 217.545 376.044 217.519 376.143C217.493 376.241 217.488 376.343 217.505 376.444C217.956 376.755 219.698 375.702 221.719 374.1V374.079ZM218.73 366.683C218.57 366.687 218.412 366.723 218.266 366.79C218.12 366.856 217.989 366.951 217.881 367.07C217.743 367.179 217.638 367.324 217.578 367.489C217.517 367.654 217.503 367.832 217.537 368.005C217.838 369.499 221.246 371.466 223.568 372.477L223.879 372.187C222.933 370.456 220.654 366.973 218.924 366.693L218.73 366.683Z" fill="#2D4352"/>
<path d="M260.075 152.102H259.924L252.517 149.952L253.474 151.231C253.561 151.349 253.598 151.495 253.578 151.64C253.558 151.785 253.482 151.916 253.367 152.005C253.308 152.049 253.242 152.081 253.171 152.098C253.101 152.116 253.027 152.12 252.955 152.109C252.883 152.098 252.814 152.072 252.752 152.034C252.689 151.996 252.635 151.946 252.593 151.887L250.636 149.296C250.567 149.202 250.528 149.089 250.526 148.972C250.524 148.856 250.559 148.741 250.625 148.645C250.692 148.549 250.787 148.476 250.897 148.437C251.006 148.397 251.126 148.393 251.238 148.425L258.387 150.489L253.485 144.996C253.407 144.905 253.36 144.791 253.35 144.672C253.34 144.552 253.369 144.432 253.431 144.33C253.495 144.227 253.59 144.148 253.703 144.106C253.816 144.063 253.939 144.059 254.055 144.093L263.267 146.802C263.41 146.843 263.53 146.94 263.602 147.07C263.673 147.2 263.69 147.353 263.649 147.496C263.608 147.638 263.512 147.758 263.381 147.83C263.251 147.902 263.098 147.918 262.956 147.877L255.603 145.727L260.494 151.21C260.572 151.301 260.619 151.414 260.629 151.534C260.639 151.654 260.61 151.774 260.548 151.876C260.492 151.948 260.42 152.006 260.338 152.045C260.256 152.085 260.166 152.104 260.075 152.102Z" fill="#2D4352"/>
<path d="M219.418 213.291C215.709 213.291 212.689 209.378 212.689 204.572C212.689 199.767 215.709 195.854 219.418 195.854C223.127 195.854 226.148 199.767 226.148 204.572C226.148 209.378 223.127 213.291 219.418 213.291ZM219.418 196.961C216.311 196.961 213.796 200.38 213.796 204.572C213.796 208.765 216.311 212.184 219.418 212.184C222.525 212.184 225.04 208.776 225.04 204.572C225.04 200.369 222.525 196.961 219.418 196.961Z" fill="#2D4352"/>
<path d="M239.016 213.818C235.296 213.818 232.286 209.905 232.286 205.099C232.286 200.294 235.296 196.381 239.016 196.381C242.735 196.381 245.745 200.294 245.745 205.099C245.745 209.905 242.724 213.818 239.016 213.818ZM239.016 197.488C235.909 197.488 233.393 200.907 233.393 205.099C233.393 209.292 235.909 212.71 239.016 212.71C242.122 212.71 244.638 209.292 244.638 205.099C244.638 200.907 242.112 197.488 239.016 197.488Z" fill="#2D4352"/>
<path d="M232.834 205.132H225.589C225.472 205.098 225.369 205.028 225.296 204.931C225.223 204.834 225.183 204.716 225.183 204.594C225.183 204.473 225.223 204.355 225.296 204.258C225.369 204.161 225.472 204.09 225.589 204.057H232.834C232.917 204.033 233.005 204.029 233.09 204.045C233.175 204.06 233.255 204.096 233.324 204.148C233.393 204.2 233.45 204.267 233.488 204.345C233.527 204.422 233.547 204.508 233.547 204.594C233.547 204.681 233.527 204.766 233.488 204.843C233.45 204.921 233.393 204.988 233.324 205.04C233.255 205.093 233.175 205.128 233.09 205.144C233.005 205.16 232.917 205.155 232.834 205.132Z" fill="#2D4352"/>
<path d="M245.165 204.874C245.039 204.863 244.922 204.81 244.83 204.724C244.739 204.638 244.679 204.524 244.66 204.4C244.642 204.276 244.665 204.149 244.728 204.04C244.79 203.931 244.887 203.846 245.003 203.799C252.012 201.756 268.492 197.123 270.072 198.241C270.604 198.609 270.999 199.144 271.194 199.761C271.388 200.378 271.372 201.042 271.147 201.649C271.121 201.719 271.081 201.784 271.03 201.839C270.979 201.894 270.918 201.939 270.849 201.971C270.781 202.002 270.707 202.02 270.632 202.023C270.557 202.025 270.481 202.013 270.411 201.987C270.34 201.961 270.276 201.921 270.22 201.87C270.165 201.819 270.121 201.758 270.089 201.689C270.058 201.621 270.04 201.547 270.037 201.472C270.034 201.397 270.046 201.322 270.072 201.251C270.207 200.875 270.213 200.464 270.088 200.085C269.964 199.705 269.716 199.378 269.384 199.155C268.137 198.671 256.022 201.724 245.261 204.863L245.165 204.874Z" fill="#2D4352"/>
<path d="M243.412 196.349C243.029 196.346 242.648 196.307 242.273 196.23H242.154C242.083 196.229 242.012 196.213 241.947 196.184C241.882 196.156 241.823 196.114 241.774 196.062C241.725 196.01 241.686 195.948 241.661 195.881C241.636 195.814 241.625 195.743 241.628 195.671C241.629 195.598 241.645 195.526 241.674 195.458C241.704 195.391 241.746 195.33 241.799 195.279C241.852 195.228 241.914 195.188 241.983 195.162C242.051 195.135 242.124 195.122 242.198 195.123H242.488C243.087 195.277 243.716 195.277 244.315 195.123C244.785 195.016 245.208 194.76 245.519 194.392C245.593 194.267 245.714 194.176 245.855 194.14C245.997 194.103 246.146 194.125 246.272 194.199C246.397 194.273 246.488 194.394 246.524 194.535C246.561 194.676 246.539 194.826 246.465 194.951C246.027 195.577 245.372 196.018 244.627 196.187C244.231 196.294 243.822 196.349 243.412 196.349Z" fill="#2D4352"/>
<path d="M237.672 202.433C237.672 202.629 237.614 202.82 237.505 202.983C237.396 203.145 237.242 203.272 237.061 203.347C236.881 203.422 236.682 203.441 236.49 203.403C236.298 203.365 236.122 203.271 235.983 203.133C235.845 202.994 235.751 202.818 235.713 202.626C235.675 202.434 235.694 202.236 235.769 202.055C235.844 201.874 235.971 201.72 236.133 201.611C236.296 201.502 236.487 201.444 236.683 201.444C236.945 201.444 237.197 201.549 237.382 201.734C237.568 201.919 237.672 202.171 237.672 202.433Z" fill="#2D4352"/>
<path d="M227.9 220.375C227.774 220.375 227.651 220.329 227.556 220.246C227.499 220.201 227.452 220.145 227.417 220.082C227.382 220.019 227.36 219.949 227.352 219.877C227.344 219.805 227.35 219.732 227.37 219.663C227.391 219.593 227.425 219.528 227.47 219.472L230.072 216.247C230.166 216.133 230.301 216.062 230.448 216.048C230.595 216.033 230.742 216.078 230.856 216.172C230.912 216.218 230.959 216.274 230.993 216.338C231.027 216.401 231.048 216.471 231.055 216.543C231.062 216.615 231.055 216.688 231.033 216.757C231.012 216.826 230.978 216.89 230.932 216.946L228.33 220.171C228.277 220.234 228.212 220.285 228.137 220.32C228.063 220.355 227.982 220.374 227.9 220.375Z" fill="#2D4352"/>
<path d="M292.765 399.771H386.387C386.387 399.771 440.137 337.421 432.913 302.279C425.689 267.138 408.349 264.536 408.349 264.536C410.521 262.897 412.044 260.544 412.649 257.893C413.435 254.68 413.678 251.359 413.37 248.067H261.225C260.908 250.82 261.079 253.608 261.73 256.302C262.276 258.499 263.388 260.515 264.955 262.15C264.955 262.15 249.067 270.309 243.455 285.047C237.844 299.785 228.567 320.157 256.355 358.588C284.144 397.019 292.765 399.771 292.765 399.771Z" fill="#2D4352"/>
<path d="M337.389 260.322C299.699 260.322 260.709 255.732 260.709 248.067C260.709 240.402 299.699 235.801 337.389 235.801C375.078 235.801 414.058 240.392 414.058 248.067C414.058 255.743 375.078 260.322 337.389 260.322ZM337.389 236.909C292.185 236.909 261.816 242.681 261.816 248.067C261.816 253.453 292.185 259.215 337.389 259.215C382.593 259.215 412.951 253.442 412.951 248.067C412.951 242.692 382.593 236.909 337.389 236.909Z" fill="#2D4352"/>
<path d="M271.48 253.915C284.638 250.421 309.213 248.067 337.389 248.067C365.565 248.067 390.139 250.421 403.297 253.915C409.747 252.195 413.51 250.196 413.51 248.067C413.51 241.617 379.432 236.36 337.389 236.36C295.346 236.36 261.225 241.596 261.225 248.067C261.225 250.196 264.998 252.195 271.48 253.915Z" fill="#D95737"/>
<path d="M384.216 250.475C384.723 249.733 385.029 248.872 385.103 247.976C385.177 247.08 385.017 246.181 384.638 245.365C384.259 244.55 383.675 243.848 382.942 243.327C382.209 242.806 381.354 242.484 380.46 242.394C379.565 242.304 378.663 242.448 377.841 242.812C377.019 243.176 376.306 243.747 375.772 244.47C375.238 245.193 374.901 246.043 374.794 246.935C374.688 247.828 374.815 248.733 375.164 249.561C371.201 249.217 367.037 248.934 362.673 248.712C362.673 248.712 362.673 248.712 362.673 248.648C362.657 248.075 362.424 247.531 362.021 247.125C361.617 246.719 361.074 246.482 360.502 246.463C359.93 246.443 359.372 246.643 358.943 247.021C358.513 247.399 358.244 247.927 358.19 248.497L355.761 248.4C355.915 247.946 355.998 247.471 356.008 246.992C355.951 245.809 355.44 244.693 354.583 243.876C353.725 243.059 352.586 242.603 351.401 242.603C350.217 242.603 349.078 243.059 348.22 243.876C347.362 244.693 346.852 245.809 346.795 246.992C346.799 247.388 346.853 247.782 346.956 248.164C344.064 248.11 341.119 248.089 338.141 248.089C333.476 248.089 328.925 248.15 324.489 248.271C324.489 248.218 324.489 248.164 324.489 248.099C324.449 247.532 324.196 247 323.78 246.612C323.364 246.224 322.816 246.008 322.247 246.008C321.678 246.008 321.131 246.224 320.715 246.612C320.299 247 320.045 247.532 320.006 248.099C320.006 248.207 320.006 248.314 320.006 248.422C317.931 248.497 315.899 248.583 313.9 248.691C314.085 248.151 314.183 247.584 314.19 247.014C314.129 245.656 313.547 244.375 312.564 243.436C311.582 242.497 310.276 241.974 308.917 241.974C307.559 241.974 306.252 242.497 305.27 243.436C304.288 244.375 303.706 245.656 303.644 247.014C303.646 247.809 303.834 248.593 304.193 249.303C302.193 249.465 300.258 249.626 298.366 249.809C298.366 249.809 298.366 249.809 298.366 249.744C298.324 249.087 298.033 248.471 297.553 248.021C297.073 247.571 296.439 247.32 295.781 247.32C295.123 247.32 294.489 247.571 294.009 248.021C293.529 248.471 293.238 249.087 293.195 249.744C293.194 249.939 293.216 250.134 293.26 250.325C286.15 251.034 279.099 252.241 272.158 253.937C285.326 257.43 309.901 259.785 338.077 259.785C366.252 259.785 390.816 257.43 403.985 253.937C397.481 252.336 390.876 251.179 384.216 250.475Z" fill="#BAAE44"/>
<path d="M339.937 239.65C339.937 240.3 339.744 240.936 339.382 241.477C339.021 242.018 338.507 242.44 337.906 242.689C337.305 242.938 336.643 243.003 336.005 242.876C335.367 242.749 334.781 242.436 334.321 241.976C333.861 241.516 333.548 240.93 333.421 240.292C333.294 239.654 333.359 238.992 333.608 238.391C333.857 237.79 334.279 237.276 334.819 236.915C335.36 236.553 335.996 236.36 336.647 236.36C337.079 236.359 337.508 236.443 337.908 236.608C338.307 236.773 338.67 237.015 338.976 237.321C339.282 237.626 339.524 237.99 339.689 238.389C339.854 238.789 339.938 239.217 339.937 239.65Z" fill="#BAAE44"/>
<path d="M343.183 231.555C343.183 231.906 343.079 232.25 342.883 232.542C342.688 232.833 342.41 233.061 342.086 233.195C341.761 233.329 341.404 233.363 341.059 233.294C340.715 233.225 340.399 233.055 340.151 232.805C339.904 232.556 339.736 232.239 339.668 231.894C339.601 231.55 339.638 231.193 339.774 230.869C339.91 230.545 340.139 230.269 340.432 230.075C340.725 229.881 341.069 229.779 341.42 229.781C341.652 229.781 341.883 229.827 342.097 229.917C342.312 230.006 342.507 230.137 342.67 230.301C342.834 230.466 342.964 230.662 343.052 230.877C343.14 231.092 343.184 231.323 343.183 231.555Z" fill="#BAAE44"/>
<path d="M345.139 220.375C345.139 220.8 345.013 221.216 344.777 221.57C344.541 221.923 344.205 222.199 343.812 222.361C343.419 222.524 342.987 222.567 342.57 222.484C342.153 222.401 341.77 222.196 341.469 221.895C341.169 221.595 340.964 221.212 340.881 220.795C340.798 220.377 340.84 219.945 341.003 219.552C341.166 219.159 341.441 218.824 341.795 218.587C342.149 218.351 342.564 218.225 342.989 218.225C343.56 218.225 344.107 218.452 344.51 218.855C344.913 219.258 345.139 219.805 345.139 220.375Z" fill="#BAAE44"/>
<path d="M350.127 234.737C350.127 235.016 350.045 235.288 349.89 235.519C349.735 235.751 349.515 235.932 349.258 236.038C349.001 236.145 348.718 236.173 348.444 236.118C348.171 236.064 347.92 235.93 347.723 235.733C347.526 235.536 347.392 235.285 347.338 235.012C347.284 234.739 347.312 234.456 347.418 234.198C347.525 233.941 347.705 233.721 347.937 233.566C348.168 233.411 348.441 233.329 348.719 233.329C349.093 233.329 349.451 233.477 349.715 233.741C349.979 234.005 350.127 234.364 350.127 234.737Z" fill="#BAAE44"/>
<path d="M325.94 253.227L321.662 253.335L297.56 174.967L301.495 173.752L325.94 253.227Z" fill="#2D414F"/>
<path d="M314.975 253.754C314.768 253.557 314.602 253.32 314.488 253.058C314.373 252.796 314.312 252.513 314.308 252.227C314.294 251.892 314.359 251.558 314.497 251.251C314.635 250.945 314.843 250.676 315.104 250.464C315.428 250.209 315.831 250.075 316.243 250.088C316.567 250.089 316.884 250.17 317.168 250.325C317.42 250.452 317.645 250.627 317.83 250.841C318.014 251.055 318.155 251.303 318.243 251.572C317.662 251.658 317.168 251.679 316.813 251.722C316.458 251.765 316.222 251.883 316.233 251.916C316.029 252.094 315.852 252.3 315.706 252.528L314.975 253.754Z" fill="#FFD7C7"/>
<path d="M336.647 252.346C336.327 251.825 336.216 251.203 336.335 250.604C336.389 250.273 336.513 249.958 336.701 249.68C336.942 249.346 337.274 249.088 337.658 248.938C338.036 248.795 338.449 248.773 338.84 248.873C339.146 248.945 339.436 249.068 339.7 249.239C339.995 249.418 340.24 249.669 340.41 249.97C340.496 250.118 340.542 250.287 340.542 250.459C340.542 250.631 340.496 250.8 340.41 250.948C340.239 250.807 340.041 250.702 339.829 250.639C339.616 250.576 339.393 250.557 339.173 250.583C338.969 250.583 338.776 250.583 338.571 250.583C338.472 250.567 338.37 250.567 338.27 250.583C338.019 250.699 337.798 250.872 337.625 251.088C337.378 251.486 337.077 251.894 336.647 252.346Z" fill="#FFD7C7"/>
<path d="M349.182 254.281C349.049 253.98 348.987 253.654 349 253.326C349.013 252.998 349.101 252.677 349.257 252.389C349.44 252.033 349.729 251.744 350.084 251.561C350.466 251.368 350.897 251.296 351.321 251.357C351.506 251.389 351.689 251.432 351.869 251.486L352.299 251.69C352.6 251.856 352.867 252.078 353.084 252.346C353.335 252.597 353.488 252.931 353.516 253.285C353.544 253.64 353.444 253.993 353.234 254.281C353.12 254.077 352.966 253.899 352.781 253.757C352.597 253.615 352.385 253.511 352.159 253.453L351.589 253.292L351.288 253.216H351.073C350.827 253.171 350.572 253.212 350.353 253.335C349.937 253.616 349.545 253.933 349.182 254.281Z" fill="#FFD7C7"/>
<path d="M340.775 257.602C340.548 257.497 340.354 257.331 340.215 257.122C340.077 256.913 339.999 256.67 339.99 256.42C339.966 256.079 340.078 255.743 340.302 255.485C340.538 255.215 340.855 255.031 341.205 254.958C341.475 254.902 341.755 254.912 342.021 254.986C342.286 255.061 342.53 255.199 342.732 255.388C342.918 255.552 343.055 255.764 343.129 256.001C343.203 256.238 343.211 256.491 343.151 256.732C342.796 256.668 342.436 256.642 342.076 256.656C341.829 256.656 341.732 256.753 341.581 256.775C341.431 256.796 341.635 256.581 341.409 256.71C341.159 256.978 340.946 257.278 340.775 257.602Z" fill="#FFD7C7"/>
<path d="M320.038 253.915C320.748 253.646 323.081 252.84 323.79 252.733C324.5 252.584 325.218 252.473 325.94 252.399L325.295 252.722C325.615 252.301 326.027 251.959 326.499 251.722C326.953 251.499 327.446 251.367 327.95 251.335C328.515 251.293 329.079 251.428 329.563 251.722C330.053 252.023 330.43 252.476 330.638 253.012L329.143 253.087C329.282 252.77 329.44 252.461 329.616 252.163C329.791 251.847 330 251.551 330.24 251.281C330.375 251.129 330.527 250.992 330.691 250.873C330.8 250.8 330.92 250.746 331.046 250.712C331.146 250.702 331.247 250.702 331.347 250.712C331.716 250.705 332.074 250.831 332.358 251.066C332.048 251.066 331.744 251.148 331.476 251.303C331.418 251.331 331.364 251.367 331.315 251.41L331.261 251.518C331.261 251.625 331.164 251.733 331.121 251.873C330.936 252.44 330.785 253.018 330.67 253.603L330.401 255.001L329.165 253.7C329.029 253.538 328.861 253.406 328.67 253.313C328.472 253.224 328.253 253.191 328.036 253.216C327.766 253.234 327.501 253.295 327.252 253.399C327.017 253.5 326.797 253.63 326.596 253.786L326.187 254.13H325.961C325.241 254.088 324.524 254.01 323.811 253.894C323.091 253.7 320.758 254.152 320.038 253.915Z" fill="#FFD7C7"/>
<path d="M299.774 254.281C299.604 254.039 299.492 253.761 299.445 253.469C299.398 253.177 299.419 252.878 299.505 252.595C299.591 252.313 299.74 252.053 299.941 251.836C300.143 251.62 300.391 251.452 300.667 251.346C300.83 251.286 300.999 251.246 301.172 251.228C301.315 251.217 301.459 251.217 301.602 251.228C301.893 251.26 302.175 251.351 302.43 251.496C302.687 251.623 302.901 251.824 303.045 252.073C303.189 252.321 303.255 252.607 303.236 252.894C302.835 252.812 302.422 252.812 302.021 252.894L301.602 252.991H301.398C301.398 252.991 301.323 252.991 301.301 252.991C301.096 253.058 300.907 253.163 300.742 253.302L299.774 254.281Z" fill="#FFD7C7"/>
<path d="M365.801 255.85C365.594 255.584 365.45 255.275 365.379 254.946C365.308 254.616 365.313 254.275 365.392 253.947C365.474 253.527 365.698 253.147 366.027 252.872C366.378 252.581 366.818 252.418 367.274 252.41C367.638 252.39 368.002 252.444 368.344 252.57C368.686 252.695 368.999 252.89 369.263 253.141C369.52 253.368 369.715 253.657 369.83 253.981C369.945 254.304 369.975 254.652 369.918 254.99C369.474 254.712 368.993 254.498 368.489 254.356C368.114 254.275 367.732 254.239 367.349 254.248C367.229 254.236 367.107 254.254 366.995 254.298C366.883 254.343 366.783 254.415 366.704 254.506C366.361 254.925 366.059 255.375 365.801 255.85Z" fill="#FFD7C7"/>
<path d="M375.551 253.754C375.503 253.47 375.516 253.179 375.59 252.901C375.664 252.622 375.798 252.363 375.981 252.141C376.203 251.849 376.506 251.629 376.851 251.507C377.197 251.384 377.571 251.366 377.927 251.453C378.282 251.539 378.604 251.728 378.852 251.995C379.101 252.263 379.265 252.598 379.324 252.958C379.383 253.24 379.38 253.531 379.315 253.811C379.25 254.091 379.125 254.354 378.948 254.582C378.551 254.141 378.26 253.786 378.013 253.507C377.862 253.357 377.672 253.253 377.465 253.206C377.273 253.143 377.066 253.143 376.873 253.206C376.529 253.367 376.11 253.55 375.551 253.754Z" fill="#FFD7C7"/>
<path d="M313.825 231.749C313.745 231.75 313.666 231.733 313.593 231.699C313.521 231.666 313.457 231.617 313.405 231.555C313.303 231.452 313.246 231.313 313.246 231.168C313.246 231.023 313.303 230.884 313.405 230.781C314.146 230.168 314.651 229.317 314.835 228.373C314.78 227.385 314.592 226.409 314.276 225.471C314.242 225.378 314.234 225.278 314.253 225.181C314.272 225.085 314.317 224.995 314.384 224.922C314.384 224.922 316.641 222.332 316.738 220.278C316.823 219.671 316.669 219.054 316.308 218.558C315.05 221.332 309.105 232.458 294.969 231.2C279.145 229.792 261.569 213.334 260.827 212.635C260.727 212.529 260.671 212.389 260.671 212.243C260.671 212.097 260.727 211.956 260.827 211.85C260.878 211.798 260.939 211.756 261.007 211.728C261.074 211.7 261.146 211.685 261.22 211.685C261.293 211.685 261.365 211.7 261.433 211.728C261.5 211.756 261.561 211.798 261.612 211.85C261.795 212.022 279.65 228.749 295.087 230.125C310.331 231.491 315.512 217.731 315.512 217.591C315.559 217.466 315.648 217.361 315.764 217.296C315.88 217.231 316.016 217.21 316.147 217.236C316.211 217.236 317.963 217.634 317.834 220.354C317.738 222.407 316.018 224.654 315.405 225.428C315.719 226.387 315.896 227.386 315.932 228.395C315.753 229.66 315.104 230.811 314.115 231.62C314.035 231.693 313.933 231.739 313.825 231.749Z" fill="#2D4352"/>
<path d="M316.641 228.717C316.531 228.716 316.423 228.682 316.332 228.62C316.241 228.558 316.17 228.47 316.129 228.368C316.087 228.265 316.077 228.153 316.1 228.045C316.122 227.937 316.176 227.838 316.254 227.76C317.448 226.621 318.598 225.019 318.404 224.46C318.357 224.241 318.23 224.047 318.046 223.917C317.863 223.788 317.638 223.732 317.415 223.761C317.27 223.783 317.122 223.747 317.003 223.66C316.885 223.574 316.805 223.444 316.781 223.299C316.769 223.227 316.771 223.153 316.788 223.082C316.805 223.011 316.835 222.944 316.878 222.885C316.922 222.825 316.976 222.776 317.039 222.738C317.101 222.7 317.171 222.675 317.243 222.665C317.727 222.598 318.218 222.709 318.626 222.978C319.034 223.248 319.329 223.656 319.458 224.127C319.92 225.61 317.695 227.889 317.007 228.556C316.908 228.652 316.779 228.709 316.641 228.717Z" fill="#2D4352"/>
<path d="M317.351 231.125C317.201 231.121 317.058 231.06 316.953 230.953C316.901 230.902 316.859 230.841 316.831 230.774C316.802 230.706 316.788 230.634 316.788 230.561C316.788 230.488 316.802 230.415 316.831 230.348C316.859 230.28 316.901 230.219 316.953 230.168C318.097 229.123 319.091 227.926 319.909 226.61C319.909 226.427 319.909 226.492 319.909 226.492H319.78C319.637 226.508 319.493 226.469 319.378 226.383C319.262 226.298 319.183 226.171 319.157 226.03C319.144 225.958 319.146 225.885 319.162 225.815C319.179 225.744 319.208 225.677 319.25 225.618C319.292 225.559 319.346 225.509 319.407 225.471C319.468 225.433 319.537 225.407 319.608 225.395C319.798 225.367 319.991 225.378 320.176 225.428C320.361 225.478 320.534 225.566 320.683 225.686C320.827 225.821 320.934 225.99 320.995 226.178C321.055 226.367 321.066 226.567 321.027 226.761C320.952 227.728 318.716 230.061 317.748 231.061C317.628 231.128 317.487 231.151 317.351 231.125Z" fill="#2D4352"/>
<path d="M318.555 233.555C318.468 233.556 318.383 233.536 318.306 233.497C318.229 233.457 318.163 233.4 318.114 233.329C318.07 233.271 318.037 233.205 318.019 233.135C318 233.065 317.996 232.991 318.006 232.919C318.016 232.847 318.04 232.778 318.077 232.715C318.114 232.653 318.163 232.598 318.221 232.555C319.278 231.847 320.205 230.964 320.963 229.943C320.963 229.588 320.791 229.523 320.791 229.523C320.72 229.504 320.654 229.471 320.596 229.427C320.538 229.382 320.49 229.327 320.453 229.263C320.417 229.2 320.393 229.13 320.384 229.057C320.374 228.985 320.379 228.911 320.398 228.841C320.417 228.77 320.45 228.704 320.495 228.646C320.539 228.588 320.595 228.54 320.658 228.503C320.722 228.467 320.792 228.443 320.864 228.434C320.937 228.424 321.01 228.429 321.081 228.448C321.408 228.552 321.688 228.769 321.869 229.061C322.051 229.353 322.122 229.7 322.07 230.039C321.984 230.975 320.038 232.566 318.845 233.436C318.762 233.504 318.661 233.545 318.555 233.555Z" fill="#2D4352"/>
</svg>
