<svg width="587" height="172" viewBox="0 0 587 172" fill="none" xmlns="http://www.w3.org/2000/svg">
<mask id="mask0_119_2070" style="mask-type:alpha" maskUnits="userSpaceOnUse" x="0" y="0" width="587" height="305">
<rect width="587" height="305" rx="17" fill="#1B1B1B"/>
</mask>
<g mask="url(#mask0_119_2070)">
<path d="M652.114 3.13933C586.786 16.0664 525.546 38.3694 471.89 68.7749C418.233 99.1803 373.212 137.093 339.395 180.348C305.579 223.602 283.631 271.353 274.803 320.872C265.975 370.391 270.441 420.709 287.946 468.954C305.45 517.198 335.65 562.424 376.822 602.049C417.994 641.674 469.332 674.923 527.903 699.896C586.474 724.869 651.133 741.078 718.186 747.597C785.24 754.117 853.376 750.819 918.704 737.891L895.028 672.639C841.304 683.27 785.27 685.983 730.126 680.621C674.982 675.26 621.808 661.93 573.64 641.392C525.472 620.855 483.253 593.512 449.394 560.925C415.535 528.338 390.699 491.145 376.303 451.469C361.908 411.794 358.235 370.413 365.495 329.689C372.755 288.966 390.805 249.697 418.615 214.124C446.425 178.552 483.45 147.374 527.576 122.369C571.702 97.364 622.065 79.0224 675.789 68.3913L652.114 3.13933Z" fill="#5B39C9"/>
<path d="M71.7876 460.621C101.943 447.321 128.256 429.764 149.224 408.954C170.192 388.144 185.404 364.487 193.992 339.335C202.58 314.183 204.376 288.028 199.276 262.364C194.177 236.699 182.283 212.028 164.273 189.758C146.263 167.488 122.489 148.056 94.31 132.572C66.1308 117.087 34.0976 105.853 0.0393273 99.5104C-34.0189 93.1682 -69.4352 91.8421 -104.187 95.6078C-138.94 99.3736 -172.347 108.157 -202.503 121.458L-178.143 151.578C-153.344 140.64 -125.87 133.417 -97.2906 130.32C-68.711 127.223 -39.5852 128.313 -11.5762 133.529C16.4327 138.745 42.7763 147.984 65.9504 160.718C89.1246 173.453 108.675 189.433 123.487 207.747C138.298 226.062 148.08 246.351 152.273 267.457C156.467 288.563 154.99 310.073 147.927 330.757C140.864 351.442 128.354 370.896 111.111 388.01C93.867 405.124 72.2277 419.563 47.4283 430.501L71.7876 460.621Z" fill="#F77ADE"/>
</g>
</svg>
