<svg width="587" height="167" viewBox="0 0 587 167" fill="none" xmlns="http://www.w3.org/2000/svg">
<mask id="mask0_119_2147" style="mask-type:alpha" maskUnits="userSpaceOnUse" x="0" y="0" width="587" height="305">
<rect width="587" height="305" rx="17" transform="matrix(-1 0 0 1 587 0)" fill="#1B1B1B"/>
</mask>
<g mask="url(#mask0_119_2147)">
<path d="M-65.114 3.13933C0.213822 16.0664 61.4542 38.3694 115.11 68.7749C168.767 99.1803 213.788 137.093 247.605 180.348C281.421 223.602 303.369 271.353 312.197 320.872C321.025 370.391 316.559 420.709 299.054 468.954C281.55 517.198 251.35 562.424 210.178 602.049C169.006 641.674 117.668 674.923 59.0971 699.896C0.525795 724.869 -64.1326 741.078 -131.186 747.597C-198.24 754.117 -266.376 750.819 -331.704 737.891L-308.028 672.639C-254.304 683.27 -198.27 685.983 -143.126 680.621C-87.9822 675.26 -34.8083 661.93 13.3598 641.392C61.5279 620.855 103.747 593.512 137.606 560.925C171.465 528.338 196.301 491.145 210.697 451.469C225.092 411.794 228.765 370.413 221.505 329.689C214.245 288.966 196.195 249.697 168.385 214.124C140.575 178.552 103.55 147.374 59.4244 122.369C15.2982 97.364 -35.0648 79.0224 -88.7894 68.3913L-65.114 3.13933Z" fill="#5B39C9"/>
<path d="M515.212 460.621C485.057 447.321 458.744 429.764 437.776 408.954C416.808 388.144 401.596 364.487 393.008 339.335C384.42 314.183 382.624 288.028 387.724 262.364C392.823 236.699 404.717 212.028 422.727 189.758C440.737 167.488 464.511 148.056 492.69 132.572C520.869 117.087 552.902 105.853 586.961 99.5104C621.019 93.1682 656.435 91.8421 691.187 95.6078C725.94 99.3736 759.347 108.157 789.503 121.458L765.143 151.578C740.344 140.64 712.87 133.417 684.291 130.32C655.711 127.223 626.585 128.313 598.576 133.529C570.567 138.745 544.224 147.984 521.05 160.718C497.875 173.453 478.325 189.433 463.513 207.747C448.702 226.062 438.92 246.351 434.727 267.457C430.533 288.563 432.01 310.073 439.073 330.757C446.136 351.442 458.646 370.896 475.889 388.01C493.133 405.124 514.772 419.563 539.572 430.501L515.212 460.621Z" fill="#F77ADE"/>
</g>
</svg>
